<svg width="16" height="16" viewBox="0 0 16 16" fill="none" xmlns="http://www.w3.org/2000/svg">
<path d="M14.75 8.54679L9.25 13.7968C8.9375 14.078 8.46875 14.078 8.1875 13.7655C7.90625 13.453 7.90625 12.9843 8.21875 12.703L12.375 8.73429H1.75C1.3125 8.73429 1 8.42179 1 7.98429C1 7.57804 1.3125 7.23429 1.75 7.23429H12.375L8.21875 3.29679C7.90625 3.01554 7.90625 2.51554 8.1875 2.23429C8.46875 1.92179 8.96875 1.92179 9.25 2.20304L14.75 7.45304C14.9063 7.60929 15 7.79679 15 7.98429C15 8.20304 14.9063 8.39054 14.75 8.54679Z" fill="#333333"/>
</svg>
