<svg width="200" height="67" viewBox="0 0 200 67" fill="none" xmlns="http://www.w3.org/2000/svg">
<mask id="mask0_2159_7507" style="mask-type:luminance" maskUnits="userSpaceOnUse" x="3" y="22" width="194" height="42">
<path fill-rule="evenodd" clip-rule="evenodd" d="M193.918 28.6564C196.047 26.1415 196.942 24.5568 196.78 23.7248C196.763 23.7934 196.74 23.8613 196.709 23.9253C196.287 24.7779 195.131 26.0272 193.144 27.7761C163.302 54.0451 135.616 52.1051 113.889 42.0673C81.2062 45.5415 42.1875 42.8125 3.17456 22.2832C3.17456 22.2832 124.583 110.596 193.918 28.6564Z" fill="white"/>
</mask>
<g mask="url(#mask0_2159_7507)">
<path fill-rule="evenodd" clip-rule="evenodd" d="M193.918 28.6564C196.047 26.1415 196.942 24.5568 196.78 23.7248C196.763 23.7934 196.74 23.8613 196.709 23.9253C196.287 24.7779 195.131 26.0272 193.144 27.7761C163.302 54.0451 135.616 52.1051 113.889 42.0673C81.2062 45.5415 42.1875 42.8125 3.17456 22.2832C3.17456 22.2832 124.583 110.596 193.918 28.6564Z" fill="url(#paint0_linear_2159_7507)"/>
</g>
<path fill-rule="evenodd" clip-rule="evenodd" d="M194.288 20.5862C179.548 21.3428 109.934 46.3515 66.6932 0.00527478C66.681 -0.00756368 66.6593 0.00527478 66.6691 0.0198639C69.3181 3.93092 125.784 85.4105 193.131 26.0107C195.113 24.2627 196.276 23.008 196.713 22.1469C196.848 21.8814 196.871 21.566 196.729 21.3043C196.421 20.7388 195.565 20.5824 194.288 20.5862Z" fill="#F13F6D"/>
<defs>
<linearGradient id="paint0_linear_2159_7507" x1="3.17456" y1="63.4922" x2="196.799" y2="63.4922" gradientUnits="userSpaceOnUse">
<stop stop-color="#92E9E1"/>
<stop offset="1" stop-color="#15D5C3"/>
</linearGradient>
</defs>
</svg>
