<svg width="14" height="14" viewBox="0 0 14 14" fill="none" xmlns="http://www.w3.org/2000/svg">
<path d="M13.75 7.54679L8.25 12.7968C7.9375 13.078 7.46875 13.078 7.1875 12.7655C6.90625 12.453 6.90625 11.9843 7.21875 11.703L11.375 7.73429H0.75C0.3125 7.73429 0 7.42179 0 6.98429C0 6.57804 0.3125 6.23429 0.75 6.23429H11.375L7.21875 2.29679C6.90625 2.01554 6.90625 1.51554 7.1875 1.23429C7.46875 0.921785 7.96875 0.921785 8.25 1.20304L13.75 6.45304C13.9063 6.60929 14 6.79679 14 6.98429C14 7.20304 13.9063 7.39054 13.75 7.54679Z" fill="white"/>
</svg>
