<svg width="16" height="16" viewBox="0 0 16 16" fill="none" xmlns="http://www.w3.org/2000/svg">
<path d="M14.75 8.54691L9.25 13.7969C8.9375 14.0782 8.46875 14.0782 8.1875 13.7657C7.90625 13.4532 7.90625 12.9844 8.21875 12.7032L12.375 8.73441H1.75C1.3125 8.73441 1 8.42191 1 7.98441C1 7.57816 1.3125 7.23441 1.75 7.23441H12.375L8.21875 3.29691C7.90625 3.01566 7.90625 2.51566 8.1875 2.23441C8.46875 1.92191 8.96875 1.92191 9.25 2.20316L14.75 7.45316C14.9063 7.60941 15 7.79691 15 7.98441C15 8.20316 14.9063 8.39066 14.75 8.54691Z" fill="white"/>
</svg>
