<svg width="83" height="84" viewBox="0 0 83 84" fill="none" xmlns="http://www.w3.org/2000/svg">
<path d="M71.8257 41.9988C71.8257 58.7456 58.2456 72.3257 41.4988 72.3257C24.752 72.3257 11.1719 58.7456 11.1719 41.9988C11.1719 25.252 24.752 11.6719 41.4988 11.6719C58.2456 11.6719 71.8257 25.252 71.8257 41.9988Z" fill="#E3E2E3"/>
<path d="M53.3763 40.3255V37.6695V24.2746C53.3763 21.5037 51.876 19.5372 49.22 18.9626C46.6789 18.388 44.0229 17.6921 41.5967 17.1175L40.4411 16.8876C38.596 16.4279 36.5146 15.9618 34.6694 15.3872C33.5138 15.1574 32.3582 15.1574 31.2026 15.3872C29.1212 15.9618 26.9313 16.4279 24.9648 16.8876C22.5387 17.4622 19.5379 18.2731 16.5371 18.969C13.8811 19.5436 12.3807 21.625 12.3807 24.3959V40.9129C12.2658 45.6503 13.8811 50.0365 17.0032 53.8482C20.3551 57.8896 24.7413 61.0053 30.628 63.6613C31.3239 63.8912 32.0134 64.121 32.8243 64.121C33.6351 64.121 34.4396 64.0061 35.1355 63.6613C40.2177 61.465 44.2591 58.809 47.4897 55.3485C51.6461 50.7261 53.6126 45.7652 53.3763 40.3383V40.3255Z" fill="#99288C"/>
<path d="M42.9904 33.3135C41.6816 35.0565 40.2323 36.7995 38.9234 38.5425C36.7463 41.4475 34.5627 44.2057 32.2387 47.1107C30.9299 48.7069 29.9147 48.7069 28.7527 47.1107C26.716 44.3525 24.8326 41.7349 22.7959 38.9767C22.068 38.102 22.068 37.0869 22.7959 36.5059C23.5237 35.9249 24.392 35.9249 25.2667 36.6527C26.7224 37.9615 28.1717 39.1235 29.6274 40.4324C29.9211 40.5792 30.0616 40.8665 30.6426 41.1602C30.7894 40.8665 30.9363 40.5792 31.2236 40.2855C34.2754 37.2337 37.3273 34.1819 40.3727 31.1364C40.6664 30.8427 41.1006 30.5554 41.5347 30.4085C42.2626 30.2617 42.8436 30.5554 43.2777 31.1364C43.5714 32.0111 43.4246 32.7325 42.984 33.3135H42.9904Z" fill="white"/>
<path d="M48.8621 40.7357V23.1588C46.0082 22.4054 43.001 21.6584 40.3003 21.0583C38.0465 20.4581 35.6459 19.858 33.2389 19.2578H32.6388C30.385 19.858 27.9844 20.4581 25.7306 20.9114C22.8767 21.6648 19.8695 22.4118 17.0156 23.012V40.8889C17.0156 44.643 18.0691 47.797 20.6229 50.8042C23.6301 54.4115 27.5311 57.2654 33.0921 59.666C37.7465 57.5655 41.507 55.1585 44.3609 52.0045C47.5149 48.6973 49.0153 44.9431 48.8685 40.7357H48.8621Z" stroke="white" stroke-width="1.64" stroke-miterlimit="10"/>
<path d="M75.9694 45.7315V44.1481C75.9694 42.6477 74.7499 41.4219 73.2496 41.4219H65.9902L64.4005 44.3077C64.1706 44.7419 63.7173 45.0164 63.2129 45.0164H59.695C58.6479 45.0164 58.0095 43.8927 58.5011 42.9989L59.3694 41.4219H49.652C48.1516 41.4219 46.9258 42.6413 46.9258 44.1481V45.7315H75.9758H75.9694Z" fill="#2A347A"/>
<path d="M75.9694 45.7315V44.1481C75.9694 42.6477 74.7499 41.4219 73.2496 41.4219H65.9902L64.4005 44.3077C64.1706 44.7419 63.7173 45.0164 63.2129 45.0164H59.695C58.6479 45.0164 58.0095 43.8927 58.5011 42.9989L59.3694 41.4219H49.652C48.1516 41.4219 46.9258 42.6413 46.9258 44.1481V45.7315H75.9758H75.9694Z" stroke="#2A347A" stroke-width="4.28" stroke-miterlimit="10"/>
<path d="M49.647 64.6427C47.5975 64.6427 45.9375 62.9763 45.9375 60.9332V45.6484H76.9603V60.9332C76.9603 62.9763 75.294 64.6427 73.2509 64.6427H49.647Z" fill="#21ADE4"/>
<path d="M77.9449 44.6641H44.9492V60.9321C44.9492 63.5242 47.0561 65.6311 49.6483 65.6311H73.2522C75.8444 65.6311 77.9513 63.5242 77.9513 60.9321V44.6641H77.9449ZM75.9721 46.6369V60.9321C75.9721 62.4325 74.7526 63.6583 73.2458 63.6583H49.6419C48.1415 63.6583 46.9157 62.4388 46.9157 60.9321V46.6369H75.9657H75.9721Z" fill="white"/>
<path d="M59.8426 49.2734H49.8443C49.2766 49.2734 48.8164 49.7337 48.8164 50.3014V60.2997C48.8164 60.8674 49.2766 61.3276 49.8443 61.3276H59.8426C60.4103 61.3276 60.8706 60.8674 60.8706 60.2997V50.3014C60.8706 49.7337 60.4103 49.2734 59.8426 49.2734Z" fill="#07809F" stroke="white" stroke-width="0.83" stroke-miterlimit="10"/>
<path d="M45.9297 46.72V44.147C45.9297 42.1039 47.5961 40.4375 49.6391 40.4375H73.2431C75.2861 40.4375 76.9525 42.1039 76.9525 44.147V46.72H45.9297Z" fill="#07809F" stroke="#07809F" stroke-width="1.13" stroke-miterlimit="10"/>
<path d="M73.2444 39.4492H49.6405C47.0483 39.4492 44.9414 41.5561 44.9414 44.1483V47.7109H77.9371V44.1483C77.9371 41.5561 75.8302 39.4492 73.238 39.4492M73.238 41.4221C74.7384 41.4221 75.9643 42.6415 75.9643 44.1483V45.7317H46.9143V44.1483C46.9143 42.6479 48.1337 41.4221 49.6405 41.4221H73.2444H73.238Z" fill="white"/>
<path d="M46.9219 46.6367V60.9319C46.9219 62.4323 48.1413 63.6581 49.6481 63.6581H73.252C74.7524 63.6581 75.9719 62.4386 75.9719 60.9319V46.6367H46.9219Z" fill="#07809F"/>
<path d="M54.8442 56.3242C52.1499 56.3242 49.9025 58.2779 49.4492 60.8445H60.2392C59.7859 58.2779 57.5385 56.3242 54.8442 56.3242Z" fill="white"/>
<path d="M54.8428 48.8984C52.8827 48.8984 51.293 50.4946 51.293 52.4483C51.293 54.402 52.8827 55.9981 54.8428 55.9981C56.8029 55.9981 58.3927 54.402 58.3927 52.4483C58.3927 50.4946 56.7965 48.8984 54.8428 48.8984Z" fill="white"/>
<path d="M63.4834 50.0469H71.4897C71.7707 50.0469 72.0005 50.2767 72.0005 50.5576C72.0005 50.8386 71.7707 51.0684 71.4897 51.0684H63.4834C63.2025 51.0684 62.9727 50.8386 62.9727 50.5576C62.9727 50.2767 63.2025 50.0469 63.4834 50.0469Z" fill="white"/>
<path d="M63.4834 53.207H71.4897C71.7707 53.207 72.0005 53.4369 72.0005 53.7178C72.0005 53.9987 71.7707 54.2286 71.4897 54.2286H63.4834C63.2025 54.2286 62.9727 53.9987 62.9727 53.7178C62.9727 53.4369 63.2025 53.207 63.4834 53.207Z" fill="white"/>
<path d="M73.5711 60.5645H63.4834C63.2025 60.5645 62.9727 60.3347 62.9727 60.0537C62.9727 59.7728 63.2025 59.543 63.4834 59.543H73.5711C73.852 59.543 74.0819 59.7728 74.0819 60.0537C74.0819 60.3347 73.852 60.5645 73.5711 60.5645Z" fill="white"/>
<path d="M73.5711 57.4044H63.4834C63.2025 57.4044 62.9727 57.1745 62.9727 56.8936C62.9727 56.6127 63.2025 56.3828 63.4834 56.3828H73.5711C73.852 56.3828 74.0819 56.6127 74.0819 56.8936C74.0819 57.1745 73.852 57.4044 73.5711 57.4044Z" fill="white"/>
</svg>
