<svg width="22" height="29" viewBox="0 0 22 29" fill="none" xmlns="http://www.w3.org/2000/svg">
<path d="M11 27.1875C16.0417 27.1875 20.1667 23.166 20.1667 18.125C20.1667 17.2188 19.7656 15.916 19.0781 14.3301C18.3906 12.7441 17.474 11.0449 16.4427 9.40234C14.3802 6.11719 12.0312 3.11523 11 1.8125H10.9427C9.91146 3.11523 7.5625 6.11719 5.5 9.40234C4.46875 11.0449 3.55208 12.7441 2.86458 14.3301C2.17708 15.916 1.83333 17.2188 1.83333 18.125C1.83333 23.166 5.90104 27.1875 11 27.1875ZM0 18.125C0 12.9707 7.44792 3.28516 9.51042 0.679688C9.85417 0.283203 10.3698 0 10.9427 0H11C11.5729 0 12.0885 0.283203 12.4323 0.679688C14.4948 3.28516 22 12.9707 22 18.125C22 24.1289 17.0729 29 11 29C4.92708 29 0 24.1289 0 18.125ZM6.41667 18.125C6.41667 20.6738 8.42188 22.6562 11 22.6562C11.4583 22.6562 11.9167 23.1094 11.9167 23.5625C11.9167 24.0723 11.4583 24.4688 11 24.4688C7.44792 24.4688 4.58333 21.6367 4.58333 18.125C4.58333 17.6719 4.98438 17.2188 5.5 17.2188C5.95833 17.2188 6.41667 17.6719 6.41667 18.125Z" fill="#E1242A"/>
</svg>
