<svg width="12" height="10" viewBox="0 0 12 10" fill="none" xmlns="http://www.w3.org/2000/svg">
<path d="M11.1074 5.41003L6.98242 9.34753C6.74805 9.55847 6.39648 9.55847 6.18555 9.32409C5.97461 9.08972 5.97461 8.73815 6.20898 8.52722L9.32617 5.55065H1.35742C1.0293 5.55065 0.794922 5.31628 0.794922 4.98815C0.794922 4.68347 1.0293 4.42565 1.35742 4.42565H9.32617L6.20898 1.47253C5.97461 1.26159 5.97461 0.88659 6.18555 0.675653C6.39648 0.441278 6.77148 0.441278 6.98242 0.652215L11.1074 4.58972C11.2246 4.7069 11.2949 4.84753 11.2949 4.98815C11.2949 5.15222 11.2246 5.29284 11.1074 5.41003Z" fill="white"/>
</svg>
