<svg width="44" height="45" viewBox="0 0 44 45" fill="none" xmlns="http://www.w3.org/2000/svg">
<path d="M22 44.416C10.1259 44.416 0.5 34.7901 0.5 22.916C0.5 11.0419 10.1259 1.41602 22 1.41602C33.8741 1.41602 43.5 11.0419 43.5 22.916C43.5 34.7901 33.8741 44.416 22 44.416Z" fill="white"/>
<path d="M22 44.416C10.1259 44.416 0.5 34.7901 0.5 22.916C0.5 11.0419 10.1259 1.41602 22 1.41602C33.8741 1.41602 43.5 11.0419 43.5 22.916C43.5 34.7901 33.8741 44.416 22 44.416Z" stroke="#BD120A"/>
<path d="M23.6406 14.9863C23.6406 14.542 23.9824 14.166 24.4609 14.166H29.8955C30.374 14.166 30.7158 14.542 30.7158 14.9863V20.4551C30.7158 20.9336 30.374 21.2754 29.8955 21.2754C29.4512 21.2754 29.0752 20.9336 29.0752 20.4551V16.9688L21.4531 24.5908C21.1455 24.9326 20.6328 24.9326 20.3252 24.5908C19.9834 24.2832 19.9834 23.7705 20.3252 23.4287L27.9473 15.8066H24.4609C23.9824 15.8066 23.6406 15.4648 23.6406 14.9863ZM15.7109 15.2598H20.0859C20.5303 15.2598 20.9063 15.6357 20.9063 16.0801C20.9063 16.5586 20.5303 16.9004 20.0859 16.9004H15.7109C15.2324 16.9004 14.8906 17.2764 14.8906 17.7207V29.2051C14.8906 29.6836 15.2324 30.0254 15.7109 30.0254H27.1953C27.6396 30.0254 28.0156 29.6836 28.0156 29.2051V24.8301C28.0156 24.3857 28.3574 24.0098 28.8359 24.0098C29.2803 24.0098 29.6563 24.3857 29.6563 24.8301V29.2051C29.6563 30.5723 28.5283 31.666 27.1953 31.666H15.7109C14.3438 31.666 13.25 30.5723 13.25 29.2051V17.7207C13.25 16.3877 14.3438 15.2598 15.7109 15.2598Z" fill="#333333"/>
</svg>
