<svg width="44" height="44" viewBox="0 0 44 44" fill="none" xmlns="http://www.w3.org/2000/svg">
<path d="M0.5 22C0.5 10.1259 10.1259 0.5 22 0.5C33.8741 0.5 43.5 10.1259 43.5 22C43.5 33.8741 33.8741 43.5 22 43.5C10.1259 43.5 0.5 33.8741 0.5 22Z" fill="white"/>
<path d="M0.5 22C0.5 10.1259 10.1259 0.5 22 0.5C33.8741 0.5 43.5 10.1259 43.5 22C43.5 33.8741 33.8741 43.5 22 43.5C10.1259 43.5 0.5 33.8741 0.5 22Z" stroke="#BD120A"/>
<path d="M28.5625 30.75H15.4375C14.8906 30.75 14.5 30.3594 14.5 29.8125C14.5 29.3047 14.8906 28.875 15.4375 28.875H28.5625C29.0703 28.875 29.5 29.3047 29.5 29.8125C29.5 30.3594 29.0703 30.75 28.5625 30.75ZM21.2969 25.4766L16.2969 20.1641C15.9453 19.7734 15.9844 19.1875 16.3359 18.8359C16.7266 18.4844 17.3125 18.4844 17.6641 18.875L21.0625 22.4688V19.1875V14.1875C21.0625 13.6797 21.4531 13.25 22 13.25C22.5078 13.25 22.9375 13.6797 22.9375 14.1875V19.1875V22.4688L26.2969 18.875C26.6484 18.4844 27.2344 18.4844 27.625 18.8359C28.0156 19.1875 28.0156 19.7734 27.6641 20.1641L22.6641 25.4766C22.4688 25.6719 22.2344 25.75 22 25.75C21.7266 25.75 21.4922 25.6719 21.2969 25.4766Z" fill="#333333"/>
</svg>
