<svg width="105" height="104" viewBox="0 0 105 104" fill="none" xmlns="http://www.w3.org/2000/svg">
<mask id="mask0_4109_11690" style="mask-type:luminance" maskUnits="userSpaceOnUse" x="0" y="2" width="105" height="100">
<path fill-rule="evenodd" clip-rule="evenodd" d="M29.3729 2.55078C33.4226 2.55078 36.7168 5.84497 36.7168 9.89465V11.0222H68.8804V9.89465C68.8804 5.84497 72.1746 2.55078 76.2243 2.55078H76.833C80.8827 2.55078 84.1769 5.84497 84.1769 9.89465V11.0222H91.7146C98.9758 11.0222 104.883 16.9306 104.883 24.1918V88.6674C104.883 95.93 98.9758 101.837 91.7146 101.837H13.9668C7.2138 101.837 1.63285 96.73 0.882812 90.1747V22.6847C1.63285 16.1305 7.2138 11.0222 13.9668 11.0222H21.4204V9.89465C21.4204 5.84497 24.716 2.55078 28.7657 2.55078H29.3729ZM99.7171 32.0958H5.96301V88.6673C5.96301 93.0805 9.5537 96.6712 13.9669 96.6712H91.7147C96.1279 96.6712 99.7171 93.0805 99.7171 88.6673V32.0958ZM21.4205 16.1879H13.9669C9.5537 16.1879 5.96301 19.7786 5.96301 24.1918V26.9286H99.7171V24.1918C99.7171 19.7786 96.1279 16.1879 91.7147 16.1879H84.177V17.3169C84.177 21.3665 80.8828 24.6622 76.8331 24.6622H76.2244C72.1748 24.6622 68.8806 21.3665 68.8806 17.3169V16.1879H36.7169V17.3169C36.7169 21.3665 33.4227 24.6622 29.373 24.6622H28.7658C24.7161 24.6622 21.4205 21.3665 21.4205 17.3169V16.1879ZM29.373 7.71651H28.7658C27.5641 7.71651 26.5877 8.69437 26.5877 9.89459V17.3169C26.5877 18.5185 27.5641 19.4949 28.7658 19.4949H29.373C30.5733 19.4949 31.5511 18.5185 31.5511 17.3169V9.89459C31.5511 8.69437 30.5733 7.71651 29.373 7.71651ZM76.8331 7.71651H76.2244C75.0228 7.71651 74.0463 8.69437 74.0463 9.89459V17.3169C74.0463 18.5185 75.0228 19.4949 76.2244 19.4949H76.8331C78.0333 19.4949 79.0112 18.5185 79.0112 17.3169V9.89459C79.0112 8.69437 78.0333 7.71651 76.8331 7.71651Z" fill="white"/>
</mask>
<g mask="url(#mask0_4109_11690)">
<path fill-rule="evenodd" clip-rule="evenodd" d="M0.882812 101.837H104.883V2.55078H0.882812V101.837Z" fill="url(#paint0_linear_4109_11690)"/>
</g>
<path fill-rule="evenodd" clip-rule="evenodd" d="M20.2282 69.2718H24.1866C25.6876 69.2718 26.8836 68.0031 26.8836 66.4494V62.3113C26.8836 60.759 25.6876 59.4961 24.1866 59.4961H20.2282C18.74 59.4961 17.5312 60.759 17.5312 62.3113V66.4494C17.5312 68.0031 18.74 69.2718 20.2282 69.2718Z" fill="#EF426F"/>
<path fill-rule="evenodd" clip-rule="evenodd" d="M40.2204 69.2718H44.1774C45.6798 69.2718 46.8758 68.0031 46.8758 66.4494V62.3113C46.8758 60.759 45.6798 59.4961 44.1774 59.4961H40.2204C38.7322 59.4961 37.5234 60.759 37.5234 62.3113V66.4494C37.5234 68.0031 38.7322 69.2718 40.2204 69.2718Z" fill="#EF426F"/>
<path fill-rule="evenodd" clip-rule="evenodd" d="M60.3859 69.2718H64.3429C65.8439 69.2718 67.0398 68.0031 67.0398 66.4494V62.3113C67.0398 60.759 65.8439 59.4961 64.3429 59.4961H60.3859C58.8977 59.4961 57.6875 60.759 57.6875 62.3113V66.4494C57.6875 68.0031 58.8977 69.2718 60.3859 69.2718Z" fill="#EF426F"/>
<path fill-rule="evenodd" clip-rule="evenodd" d="M80.7047 69.2718H84.6618C86.1642 69.2718 87.3601 68.0031 87.3601 66.4494V62.3113C87.3601 60.759 86.1642 59.4961 84.6618 59.4961H80.7047C79.2166 59.4961 78.0078 60.759 78.0078 62.3113V66.4494C78.0078 68.0031 79.2166 69.2718 80.7047 69.2718Z" fill="#EF426F"/>
<path fill-rule="evenodd" clip-rule="evenodd" d="M20.0655 86.8304H24.0226C25.5236 86.8304 26.7195 85.5617 26.7195 84.0094V79.8699C26.7195 78.3176 25.5236 77.0547 24.0226 77.0547H20.0655C18.5774 77.0547 17.3672 78.3176 17.3672 79.8699V84.0094C17.3672 85.5617 18.5774 86.8304 20.0655 86.8304Z" fill="#EF426F"/>
<path fill-rule="evenodd" clip-rule="evenodd" d="M40.2204 86.8304H44.1774C45.6798 86.8304 46.8758 85.5617 46.8758 84.0094V79.8699C46.8758 78.3176 45.6798 77.0547 44.1774 77.0547H40.2204C38.7322 77.0547 37.5234 78.3176 37.5234 79.8699V84.0094C37.5234 85.5617 38.7322 86.8304 40.2204 86.8304Z" fill="#EF426F"/>
<path fill-rule="evenodd" clip-rule="evenodd" d="M60.3859 86.8304H64.3429C65.8439 86.8304 67.0398 85.5617 67.0398 84.0094V79.8699C67.0398 78.3176 65.8439 77.0547 64.3429 77.0547H60.3859C58.8977 77.0547 57.6875 78.3176 57.6875 79.8699V84.0094C57.6875 85.5617 58.8977 86.8304 60.3859 86.8304Z" fill="#EF426F"/>
<path fill-rule="evenodd" clip-rule="evenodd" d="M80.5407 86.8304H84.4977C86.0001 86.8304 87.1961 85.5617 87.1961 84.0094V79.8699C87.1961 78.3176 86.0001 77.0547 84.4977 77.0547H80.5407C79.0525 77.0547 77.8438 78.3176 77.8438 79.8699V84.0094C77.8438 85.5617 79.0525 86.8304 80.5407 86.8304Z" fill="#EF426F"/>
<path fill-rule="evenodd" clip-rule="evenodd" d="M20.0655 51.7146H24.0226C25.5236 51.7146 26.7195 50.446 26.7195 48.8922V44.7542C26.7195 43.2004 25.5236 41.9375 24.0226 41.9375H20.0655C18.5774 41.9375 17.3672 43.2004 17.3672 44.7542V48.8922C17.3672 50.446 18.5774 51.7146 20.0655 51.7146Z" fill="#EF426F"/>
<path fill-rule="evenodd" clip-rule="evenodd" d="M40.2204 51.7146H44.1774C45.6798 51.7146 46.8758 50.446 46.8758 48.8922V44.7542C46.8758 43.2004 45.6798 41.9375 44.1774 41.9375H40.2204C38.7322 41.9375 37.5234 43.2004 37.5234 44.7542V48.8922C37.5234 50.446 38.7322 51.7146 40.2204 51.7146Z" fill="#EF426F"/>
<path fill-rule="evenodd" clip-rule="evenodd" d="M60.3859 51.7146H64.3429C65.8439 51.7146 67.0398 50.446 67.0398 48.8922V44.7542C67.0398 43.2004 65.8439 41.9375 64.3429 41.9375H60.3859C58.8977 41.9375 57.6875 43.2004 57.6875 44.7542V48.8922C57.6875 50.446 58.8977 51.7146 60.3859 51.7146Z" fill="#EF426F"/>
<path fill-rule="evenodd" clip-rule="evenodd" d="M80.5407 51.7146H84.4977C86.0001 51.7146 87.1961 50.446 87.1961 48.8922V44.7542C87.1961 43.2004 86.0001 41.9375 84.4977 41.9375H80.5407C79.0525 41.9375 77.8438 43.2004 77.8438 44.7542V48.8922C77.8438 50.446 79.0525 51.7146 80.5407 51.7146Z" fill="#EF426F"/>
<defs>
<linearGradient id="paint0_linear_4109_11690" x1="0.797286" y1="101.878" x2="104.883" y2="101.878" gradientUnits="userSpaceOnUse">
<stop stop-color="#AAD8CE"/>
<stop offset="1" stop-color="#56BAAC"/>
</linearGradient>
</defs>
</svg>
