<svg width="80" height="80" viewBox="0 0 80 80" fill="none" xmlns="http://www.w3.org/2000/svg">
<path fill-rule="evenodd" clip-rule="evenodd" d="M41.2324 54.18L46.1044 25.805C46.5674 23.109 44.4914 20.646 41.7554 20.646H38.3904C35.6544 20.646 33.5784 23.109 34.0414 25.805L38.9134 54.18C39.1374 55.483 41.0084 55.483 41.2324 54.18Z" fill="#DD4267"/>
<path fill-rule="evenodd" clip-rule="evenodd" d="M43.8766 61.4671C43.8766 63.5681 42.1726 65.2711 40.0726 65.2711C37.9716 65.2711 36.2676 63.5681 36.2676 61.4671C36.2676 59.3661 37.9716 57.6621 40.0726 57.6621C42.1726 57.6621 43.8766 59.3661 43.8766 61.4671Z" fill="#DD4267"/>
<mask id="mask0_437_8025" style="mask-type:luminance" maskUnits="userSpaceOnUse" x="2" y="3" width="77" height="75">
<path fill-rule="evenodd" clip-rule="evenodd" d="M40.0732 3C47.1982 3 53.5392 6.817 57.0342 13.212L75.6432 47.265C79.1022 53.593 78.9652 61.375 75.2882 67.576C71.7272 73.58 65.5202 77.164 58.6822 77.164H21.4632C14.6262 77.164 8.41818 73.58 4.85718 67.576C1.17918 61.376 1.04318 53.593 4.50118 47.265L23.1122 13.212C26.6072 6.817 32.9472 3 40.0732 3ZM40.0732 7C34.4332 7 29.4042 10.039 26.6222 15.13L8.01118 49.183C5.22718 54.277 5.33718 60.544 8.29818 65.535C11.1312 70.312 16.0532 73.164 21.4632 73.164H58.6822C64.0932 73.164 69.0152 70.312 71.8482 65.535C74.8082 60.544 74.9172 54.277 72.1332 49.183L53.5242 15.13C50.7412 10.039 45.7132 7 40.0732 7Z" fill="white"/>
</mask>
<g mask="url(#mask0_437_8025)">
<path fill-rule="evenodd" clip-rule="evenodd" d="M2 77.164H78.145V3H2V77.164Z" fill="url(#paint0_linear_437_8025)"/>
</g>
<defs>
<linearGradient id="paint0_linear_437_8025" x1="40.7981" y1="102.981" x2="93.6378" y2="47.2805" gradientUnits="userSpaceOnUse">
<stop stop-color="#AAD8CE"/>
<stop offset="1" stop-color="#56BAAC"/>
</linearGradient>
</defs>
</svg>
