<svg width="120" height="120" viewBox="0 0 120 120" fill="none" xmlns="http://www.w3.org/2000/svg">
<path fill-rule="evenodd" clip-rule="evenodd" d="M50.8242 25.7672H20.3035C19.2658 25.7672 18.4236 24.925 18.4236 23.8872C18.4236 22.8484 19.2658 22.0073 20.3035 22.0073H50.8242C51.862 22.0073 52.7042 22.8484 52.7042 23.8872C52.7042 24.925 51.862 25.7672 50.8242 25.7672Z" fill="#EF4370"/>
<path fill-rule="evenodd" clip-rule="evenodd" d="M50.8242 36.6178H20.3035C19.2658 36.6178 18.4236 35.7756 18.4236 34.7378C18.4236 33.699 19.2658 32.8579 20.3035 32.8579H50.8242C51.862 32.8579 52.7042 33.699 52.7042 34.7378C52.7042 35.7756 51.862 36.6178 50.8242 36.6178Z" fill="#EF4370"/>
<path fill-rule="evenodd" clip-rule="evenodd" d="M50.8242 47.4679H20.3035C19.2658 47.4679 18.4236 46.6257 18.4236 45.5879C18.4236 44.5491 19.2658 43.708 20.3035 43.708H50.8242C51.862 43.708 52.7042 44.5491 52.7042 45.5879C52.7042 46.6257 51.862 47.4679 50.8242 47.4679Z" fill="#EF4370"/>
<path fill-rule="evenodd" clip-rule="evenodd" d="M95.2683 65.1285H64.7476C63.7099 65.1285 62.8677 64.2863 62.8677 63.2486C62.8677 62.2097 63.7099 61.3687 64.7476 61.3687H95.2683C96.306 61.3687 97.1483 62.2097 97.1483 63.2486C97.1483 64.2863 96.306 65.1285 95.2683 65.1285Z" fill="#EF4370"/>
<path fill-rule="evenodd" clip-rule="evenodd" d="M95.2683 75.9786H64.7476C63.7099 75.9786 62.8677 75.1364 62.8677 74.0987C62.8677 73.0598 63.7099 72.2188 64.7476 72.2188H95.2683C96.306 72.2188 97.1483 73.0598 97.1483 74.0987C97.1483 75.1364 96.306 75.9786 95.2683 75.9786Z" fill="#EF4370"/>
<path fill-rule="evenodd" clip-rule="evenodd" d="M95.2683 86.8292H64.7476C63.7099 86.8292 62.8677 85.987 62.8677 84.9493C62.8677 83.9104 63.7099 83.0693 64.7476 83.0693H95.2683C96.306 83.0693 97.1483 83.9104 97.1483 84.9493C97.1483 85.987 96.306 86.8292 95.2683 86.8292Z" fill="#EF4370"/>
<mask id="mask0_894_4342" style="mask-type:luminance" maskUnits="userSpaceOnUse" x="2" y="8" width="113" height="107">
<path fill-rule="evenodd" clip-rule="evenodd" d="M12.0391 8.51562C6.48373 8.51562 2.14429 12.8551 2.14429 18.4V53.9022C2.14429 59.3592 6.58207 63.797 12.0391 63.797H25.6046V73.5275C25.6046 74.1857 25.9771 74.8428 26.6134 75.2813C26.9848 75.5983 27.4568 75.5983 27.6754 75.5983C28.1474 75.5983 28.5523 75.3901 28.8809 75.2269L29.0012 75.1494L44.1447 63.6547H46.9594V64.0689V92.2446C46.9594 97.6264 51.5059 102.174 56.8877 102.174H71.8936L87.0961 113.717L87.221 113.795C87.5496 113.96 87.9603 114.165 88.4334 114.165C88.6463 114.165 89.1276 114.165 89.4955 113.853C90.134 113.408 90.5135 112.753 90.5135 112.085V102.318H104.135C109.611 102.318 114.065 97.8635 114.065 92.388V56.7481C114.065 51.1789 109.704 46.8175 104.135 46.8175H72.0544H68.9863V34.7374V30.9787V18.4C68.9863 12.9534 64.5474 8.51562 59.0916 8.51562H12.0391ZM6.286 53.76V18.4C6.286 15.2325 8.86121 12.6573 12.0392 12.6573H59.0917C62.2152 12.6573 64.8448 15.288 64.8448 18.4V46.8176H56.8878C51.4123 46.8176 46.9595 51.2715 46.9595 56.7482V59.5131H43.4542C42.9845 59.5131 42.5784 59.7098 42.2498 59.8741L42.1295 59.9516L29.7475 69.2425V61.7262C29.7475 60.5763 28.815 59.6554 27.6755 59.6554H12.0392C8.80684 59.6554 6.286 57.0698 6.286 53.76ZM51.116 92.2445V64.0688V63.6546V59.513V56.748C51.116 53.6187 53.7595 50.9764 56.8877 50.9764H64.8447H68.9863H104.135C107.317 50.9764 109.906 53.5655 109.906 56.748V92.2445C109.906 95.5613 107.372 98.1584 104.135 98.1584H88.4334C87.287 98.1584 86.3534 99.092 86.3534 100.239V107.784L73.9227 98.4604L73.8012 98.3852C73.4715 98.2198 73.0632 98.0162 72.5888 98.0162H56.8877C53.7595 98.0162 51.116 95.3727 51.116 92.2445Z" fill="white"/>
</mask>
<g mask="url(#mask0_894_4342)">
<path fill-rule="evenodd" clip-rule="evenodd" d="M12.0391 8.51562C6.48373 8.51562 2.14429 12.8551 2.14429 18.4V53.9022C2.14429 59.3592 6.58207 63.797 12.0391 63.797H25.6046V73.5275C25.6046 74.1857 25.9771 74.8428 26.6134 75.2813C26.9848 75.5983 27.4568 75.5983 27.6754 75.5983C28.1474 75.5983 28.5523 75.3901 28.8809 75.2269L29.0012 75.1494L44.1447 63.6547H46.9594V64.0689V92.2446C46.9594 97.6264 51.5059 102.174 56.8877 102.174H71.8936L87.0961 113.717L87.221 113.795C87.5496 113.96 87.9603 114.165 88.4334 114.165C88.6463 114.165 89.1276 114.165 89.4955 113.853C90.134 113.408 90.5135 112.753 90.5135 112.085V102.318H104.135C109.611 102.318 114.065 97.8635 114.065 92.388V56.7481C114.065 51.1789 109.704 46.8175 104.135 46.8175H72.0544H68.9863V34.7374V30.9787V18.4C68.9863 12.9534 64.5474 8.51562 59.0916 8.51562H12.0391ZM6.286 53.76V18.4C6.286 15.2325 8.86121 12.6573 12.0392 12.6573H59.0917C62.2152 12.6573 64.8448 15.288 64.8448 18.4V46.8176H56.8878C51.4123 46.8176 46.9595 51.2715 46.9595 56.7482V59.5131H43.4542C42.9845 59.5131 42.5784 59.7098 42.2498 59.8741L42.1295 59.9516L29.7475 69.2425V61.7262C29.7475 60.5763 28.815 59.6554 27.6755 59.6554H12.0392C8.80684 59.6554 6.286 57.0698 6.286 53.76ZM51.116 92.2445V64.0688V63.6546V59.513V56.748C51.116 53.6187 53.7595 50.9764 56.8877 50.9764H64.8447H68.9863H104.135C107.317 50.9764 109.906 53.5655 109.906 56.748V92.2445C109.906 95.5613 107.372 98.1584 104.135 98.1584H88.4334C87.287 98.1584 86.3534 99.092 86.3534 100.239V107.784L73.9227 98.4604L73.8012 98.3852C73.4715 98.2198 73.0632 98.0162 72.5888 98.0162H56.8877C53.7595 98.0162 51.116 95.3727 51.116 92.2445Z" fill="url(#paint0_linear_894_4342)"/>
</g>
<defs>
<linearGradient id="paint0_linear_894_4342" x1="59.8886" y1="112.354" x2="114.998" y2="50.5076" gradientUnits="userSpaceOnUse">
<stop stop-color="#A8E1DB"/>
<stop offset="1" stop-color="#52C1BA"/>
</linearGradient>
</defs>
</svg>
