<svg width="104" height="105" viewBox="0 0 104 105" fill="none" xmlns="http://www.w3.org/2000/svg">
<mask id="mask0_2366_3105" style="mask-type:luminance" maskUnits="userSpaceOnUse" x="1" y="1" width="102" height="102">
<path fill-rule="evenodd" clip-rule="evenodd" d="M54.6001 1.68359C59.6746 1.68359 63.8014 6.28709 63.8014 11.9449V32.8441H93.5336C98.6939 32.8441 102.736 37.3508 102.736 43.1043V79.931C102.736 85.5889 98.6081 90.1924 93.5336 90.1924H80.9088V100.284C80.9088 100.974 80.5582 101.653 79.9664 102.112C79.8289 102.241 79.6748 102.319 79.5269 102.365L78.5348 102.365C78.281 102.289 78.0543 102.162 77.8585 102.053L77.7427 101.972L63.6523 90.0429H49.7453C44.7576 90.0429 40.544 85.345 40.544 79.784V50.6712H33.3272L19.121 62.6802C18.8144 62.8511 18.4359 63.0615 17.9974 63.0615C17.8001 63.0615 17.3541 63.0615 17.0121 62.7388C16.4213 62.2797 16.0707 61.6007 16.0707 60.9122V50.8194H10.8118C5.73721 50.8194 1.60938 46.2171 1.60938 40.5593V11.9449C1.60938 6.19145 5.65144 1.68359 10.8118 1.68359H54.6001ZM93.5336 37.1416H49.7453C46.8462 37.1416 44.3973 39.8719 44.3973 43.1043V79.784C44.3973 83.0164 46.8462 85.7479 49.7453 85.7479H64.2967C64.7363 85.7479 65.1159 85.9594 65.4203 86.1292L65.5329 86.2069L77.0544 95.8406V88.043C77.0544 86.8596 77.9186 85.8949 78.9822 85.8949H93.5336C96.5324 85.8949 98.8826 83.21 98.8826 79.784V43.1043C98.8826 39.8169 96.482 37.1416 93.5336 37.1416ZM54.6001 5.98107H10.8118C7.86224 5.98107 5.46381 8.65638 5.46381 11.9449V40.411C5.46381 43.8383 7.81292 46.5219 10.8118 46.5219H17.9974C19.0599 46.5219 19.9252 47.4866 19.9252 48.6713V56.4677L31.5592 46.7562C31.8648 46.5853 32.2433 46.3749 32.6818 46.3749H40.544V43.1043C40.544 37.4464 44.6718 32.8441 49.7453 32.8441H59.948V11.9449C59.948 8.71256 57.4992 5.98107 54.6001 5.98107Z" fill="white"/>
</mask>
<g mask="url(#mask0_2366_3105)">
<path fill-rule="evenodd" clip-rule="evenodd" d="M1.60938 102.363H102.736V1.68359H1.60938V102.363Z" fill="url(#paint0_linear_2366_3105)"/>
</g>
<path fill-rule="evenodd" clip-rule="evenodd" d="M22.9201 27.6293C22.9201 28.4732 22.3069 29.157 21.5499 29.157C20.793 29.157 20.1797 28.4732 20.1797 27.6293C20.1797 26.7865 20.793 26.1016 21.5499 26.1016C22.3069 26.1016 22.9201 26.7865 22.9201 27.6293Z" fill="#DD4264"/>
<path fill-rule="evenodd" clip-rule="evenodd" d="M22.9201 27.6293C22.9201 28.4732 22.3069 29.157 21.5499 29.157C20.793 29.157 20.1797 28.4732 20.1797 27.6293C20.1797 26.7865 20.793 26.1016 21.5499 26.1016C22.3069 26.1016 22.9201 26.7865 22.9201 27.6293Z" stroke="#DD4264" stroke-width="4" stroke-linecap="round" stroke-linejoin="round"/>
<path fill-rule="evenodd" clip-rule="evenodd" d="M33.88 27.6293C33.88 28.4732 33.2667 29.157 32.5098 29.157C31.7539 29.157 31.1406 28.4732 31.1406 27.6293C31.1406 26.7865 31.7539 26.1016 32.5098 26.1016C33.2667 26.1016 33.88 26.7865 33.88 27.6293Z" fill="#DD4264"/>
<path fill-rule="evenodd" clip-rule="evenodd" d="M33.88 27.6293C33.88 28.4732 33.2667 29.157 32.5098 29.157C31.7539 29.157 31.1406 28.4732 31.1406 27.6293C31.1406 26.7865 31.7539 26.1016 32.5098 26.1016C33.2667 26.1016 33.88 26.7865 33.88 27.6293Z" stroke="#DD4264" stroke-width="4" stroke-linecap="round" stroke-linejoin="round"/>
<path fill-rule="evenodd" clip-rule="evenodd" d="M44.8409 27.6293C44.8409 28.4732 44.2277 29.157 43.4718 29.157C42.7148 29.157 42.1016 28.4732 42.1016 27.6293C42.1016 26.7865 42.7148 26.1016 43.4718 26.1016C44.2277 26.1016 44.8409 26.7865 44.8409 27.6293Z" fill="#DD4264"/>
<path fill-rule="evenodd" clip-rule="evenodd" d="M44.8409 27.6293C44.8409 28.4732 44.2277 29.157 43.4718 29.157C42.7148 29.157 42.1016 28.4732 42.1016 27.6293C42.1016 26.7865 42.7148 26.1016 43.4718 26.1016C44.2277 26.1016 44.8409 26.7865 44.8409 27.6293Z" stroke="#DD4264" stroke-width="4" stroke-linecap="round" stroke-linejoin="round"/>
<path fill-rule="evenodd" clip-rule="evenodd" d="M78.5535 47.8742C76.7662 46.1635 74.5264 45.2969 71.8943 45.2969C69.632 45.2969 67.6506 45.9866 66.0027 47.3458C64.3494 48.7109 63.1776 50.7312 62.5203 53.3503C62.4185 53.7555 62.6007 54.1823 62.946 54.3497L67.7739 56.6986C67.9626 56.7919 68.1781 56.7931 68.3679 56.7034C68.5587 56.6149 68.7078 56.4428 68.7818 56.2276C69.5837 53.8858 70.5487 53.2738 71.1845 53.1124C71.1663 53.1351 71.1491 53.1519 71.1309 53.1758C71.4311 53.0658 71.6745 53.061 71.8267 53.061C72.3424 53.0861 72.7799 53.2834 73.153 53.6766C73.54 54.0855 73.7287 54.6126 73.7287 55.2904C73.7287 55.8164 73.6108 56.236 73.3674 56.5743C73.0468 57.0214 72.3864 57.7231 71.4064 58.6603C70.6505 59.3727 70.0748 59.9322 69.6942 60.3219C69.2717 60.7546 68.8472 61.3667 68.3958 62.1927C67.9154 63.0737 67.671 63.9619 67.671 64.8333C67.671 65.7335 67.8565 66.642 68.2221 67.5325C68.3454 67.8326 68.6134 68.0251 68.9093 68.0251H73.9131C74.1351 68.0251 74.3463 67.9151 74.49 67.7274C74.6336 67.5373 74.6958 67.2887 74.6594 67.0436C74.6079 66.6994 74.5822 66.4005 74.5822 66.1542C74.5822 66.0837 74.5897 66.006 74.6068 65.9211C74.6283 65.8148 74.6551 65.7131 74.6872 65.6163C74.7033 65.5709 74.7366 65.4896 74.8062 65.3737C74.9049 65.2075 74.9874 65.0605 75.0528 64.9314C75.055 64.929 75.0914 64.8584 75.2373 64.6947L75.5868 64.3062C75.6704 64.2129 75.8023 64.0731 75.9846 63.8866C76.184 63.681 76.3309 63.5244 76.4231 63.4228C76.5046 63.3319 76.6525 63.1825 76.8702 62.9709C77.1371 62.7103 77.2797 62.5824 77.3516 62.5214C77.3677 62.5083 77.3827 62.4951 77.3977 62.4796C78.6735 61.2268 79.6428 60.0314 80.2775 58.9268C80.954 57.7506 81.2961 56.3292 81.2961 54.7035C81.2961 51.9134 80.374 49.6159 78.5535 47.8742Z" fill="#DD4264"/>
<path fill-rule="evenodd" clip-rule="evenodd" d="M71.8541 69.5547C71.66 69.5547 71.4745 69.5905 71.2869 69.618C71.2965 69.6085 71.304 69.5941 71.3137 69.5846C71.2429 69.5953 71.1786 69.6228 71.11 69.6384C70.9706 69.6647 70.8366 69.7053 70.7025 69.746C70.6146 69.7746 70.5289 69.8009 70.4442 69.8356C68.7062 70.4943 67.4453 72.3089 67.4453 74.4714C67.4453 77.1873 69.4235 79.3857 71.8541 79.3857C74.2911 79.3857 76.2639 77.1873 76.2639 74.4714C76.2639 71.7542 74.2911 69.5547 71.8541 69.5547Z" fill="#DD4264"/>
<defs>
<linearGradient id="paint0_linear_2366_3105" x1="57.0444" y1="100.649" x2="110.41" y2="40.6194" gradientUnits="userSpaceOnUse">
<stop stop-color="#AAD8CE"/>
<stop offset="1" stop-color="#56BAAC"/>
</linearGradient>
</defs>
</svg>
