<svg width="40" height="41" viewBox="0 0 40 41" fill="none" xmlns="http://www.w3.org/2000/svg">
<mask id="mask0_2754_11765" style="mask-type:luminance" maskUnits="userSpaceOnUse" x="0" y="1" width="39" height="40">
<path fill-rule="evenodd" clip-rule="evenodd" d="M19.709 1.67578C9.13676 1.67578 0.535156 10.2774 0.535156 20.8502C0.535156 31.4224 9.13676 40.0241 19.709 40.0241C30.2824 40.0241 38.8834 31.4224 38.8834 20.8502C38.8834 10.2774 30.2824 1.67578 19.709 1.67578ZM2.66849 20.8502C2.66849 11.4539 10.3133 3.80911 19.709 3.80911C29.1058 3.80911 36.7501 11.4539 36.7501 20.8502C36.7501 30.2464 29.1058 37.8907 19.709 37.8907C10.3133 37.8907 2.66849 30.2464 2.66849 20.8502Z" fill="white"/>
</mask>
<g mask="url(#mask0_2754_11765)">
<path fill-rule="evenodd" clip-rule="evenodd" d="M19.709 1.67578C9.13676 1.67578 0.535156 10.2774 0.535156 20.8502C0.535156 31.4224 9.13676 40.0241 19.709 40.0241C30.2824 40.0241 38.8834 31.4224 38.8834 20.8502C38.8834 10.2774 30.2824 1.67578 19.709 1.67578ZM2.66849 20.8502C2.66849 11.4539 10.3133 3.80911 19.709 3.80911C29.1058 3.80911 36.7501 11.4539 36.7501 20.8502C36.7501 30.2464 29.1058 37.8907 19.709 37.8907C10.3133 37.8907 2.66849 30.2464 2.66849 20.8502Z" fill="url(#paint0_linear_2754_11765)"/>
</g>
<path fill-rule="evenodd" clip-rule="evenodd" d="M17.1196 27.5895C17.0892 27.5895 17.0593 27.589 17.0289 27.5874C16.4892 27.5607 15.9879 27.2999 15.6567 26.8733L11.5879 21.6301C10.9612 20.8221 11.1079 19.6589 11.9159 19.0322C12.7239 18.405 13.8871 18.5517 14.5137 19.3597L17.2588 22.8967L25.0231 14.6925C25.726 13.9495 26.8977 13.917 27.6407 14.6199C28.3836 15.3229 28.4161 16.4951 27.7132 17.2381L18.4647 27.0109C18.1137 27.381 17.6268 27.5895 17.1196 27.5895Z" fill="#EF4470"/>
<defs>
<linearGradient id="paint0_linear_2754_11765" x1="19.7093" y1="47.9535" x2="46.8128" y2="20.85" gradientUnits="userSpaceOnUse">
<stop stop-color="#A8E1DB"/>
<stop offset="1" stop-color="#52C1BA"/>
</linearGradient>
</defs>
</svg>
