<svg width="119" height="120" viewBox="0 0 119 120" fill="none" xmlns="http://www.w3.org/2000/svg">
<path fill-rule="evenodd" clip-rule="evenodd" d="M60.9575 56.297H24.3308C22.6949 56.297 21.3672 54.9696 21.3672 53.3341C21.3672 51.6985 22.6949 50.3711 24.3308 50.3711H64.6176C66.2534 50.3711 65.88 51.9622 64.988 53.3341C63.6603 55.3726 62.5934 56.297 60.9575 56.297Z" fill="#EA2957"/>
<path fill-rule="evenodd" clip-rule="evenodd" d="M55.1667 71.1095H24.3063C22.6839 71.1095 21.3672 69.7821 21.3672 68.1466C21.3672 66.511 22.6839 65.1836 24.3063 65.1836H54.4319C56.0543 65.1836 55.1667 66.511 55.1667 68.1466C55.1667 69.7821 56.7891 71.1095 55.1667 71.1095Z" fill="#EA2957"/>
<path fill-rule="evenodd" clip-rule="evenodd" d="M49.297 85.9259H24.3169C22.6872 85.9259 21.3672 84.5985 21.3672 82.963C21.3672 81.3274 22.6872 80 24.3169 80H50.9562L49.297 85.9259Z" fill="#EA2957"/>
<path fill-rule="evenodd" clip-rule="evenodd" d="M46.3096 100.738H24.3699C22.7109 100.738 21.3672 99.411 21.3672 97.7755C21.3672 96.1399 22.7109 94.8125 24.3699 94.8125H46.3096C47.9672 94.8125 49.3124 96.1399 49.3124 97.7755C49.3124 99.411 47.9672 100.738 46.3096 100.738Z" fill="#EA2957"/>
<mask id="mask0_2496_7139" style="mask-type:luminance" maskUnits="userSpaceOnUse" x="0" y="0" width="119" height="120">
<path fill-rule="evenodd" clip-rule="evenodd" d="M0 0.03125H118.734V119.998H0V0.03125Z" fill="white"/>
</mask>
<g mask="url(#mask0_2496_7139)">
<path fill-rule="evenodd" clip-rule="evenodd" d="M107.37 14.6857L102.263 11.8125L106.467 5.77472L111.574 8.64663L107.37 14.6857ZM86.319 54.5783C86.5995 54.5783 80.361 63.1361 80.361 63.1361L72.9 73.8525L58.1295 65.5455L78.7485 35.9298L83.214 29.5172L94.5825 13.1891L109.35 21.4974L86.319 54.5783ZM56.145 70.1257L69.1845 77.4606L56.643 86.8664L52.215 84.3747L56.145 70.1257ZM80.361 110.927C80.361 112.978 78.5055 114.644 76.2255 114.644H10.092C7.812 114.644 5.958 112.978 5.958 110.927V36.0471C5.958 33.9976 7.812 32.3298 10.092 32.3298H66.375H73.935H74.9175L52.1505 65.0304C52.014 65.23 51.9225 65.443 51.855 65.6588C51.846 65.6844 51.828 65.7046 51.822 65.7302L46.533 84.9127C46.4295 85.2902 46.4295 85.6745 46.524 86.0345C46.6785 86.6453 47.097 87.1927 47.715 87.5419L49.302 88.4345L46.6965 92.1761C46.302 92.741 46.2015 93.3963 46.3545 93.999C46.5105 94.6017 46.9185 95.1505 47.547 95.5051C48.8055 96.2116 50.463 95.8678 51.2505 94.7379L53.856 90.9949L55.4445 91.8889C56.427 92.4417 57.699 92.3662 58.5885 91.6961L75.4725 79.0354C75.495 79.0179 75.5085 78.9949 75.5295 78.9761C75.7155 78.8278 75.8895 78.6633 76.0275 78.4624L80.361 72.2399V110.927ZM114.952 24.9923L113.731 24.306L115.33 22.0111C116.118 20.8812 115.736 19.3914 114.477 18.6835L111.924 17.2475L117.553 9.16304C118.341 8.03315 117.96 6.54191 116.702 5.8354L107.039 0.400339C105.782 -0.308874 104.124 0.0349461 103.338 1.16618L97.7085 9.25068L95.154 7.81472C93.8985 7.10551 92.2395 7.44933 91.4535 8.58056L78.4815 27.2116C77.7555 27.0619 77.0025 26.9743 76.2255 26.9743H73.935H66.375H10.092C4.527 26.9743 0 31.0448 0 36.0471V110.927C0 115.929 4.527 119.999 10.092 119.999H76.2255C81.7905 119.999 86.319 115.929 86.319 110.927V63.6821L110.882 28.4008L112.101 29.0871C113.357 29.7936 113.739 31.2862 112.953 32.4147L101.696 48.5851C101.301 49.15 101.201 49.8053 101.355 50.408C101.509 51.0107 101.919 51.5608 102.549 51.9127C103.806 52.6219 105.464 52.2781 106.251 51.1469L117.508 34.9765C119.867 31.5909 118.719 27.1118 114.952 24.9923Z" fill="url(#paint0_linear_2496_7139)"/>
</g>
<defs>
<linearGradient id="paint0_linear_2496_7139" x1="0" y1="119.999" x2="118.733" y2="119.999" gradientUnits="userSpaceOnUse">
<stop stop-color="#A8E1DB"/>
<stop offset="1" stop-color="#52C1BA"/>
</linearGradient>
</defs>
</svg>
