<svg width="104" height="105" viewBox="0 0 104 105" fill="none" xmlns="http://www.w3.org/2000/svg">
<mask id="mask0_2216_8034" style="mask-type:luminance" maskUnits="userSpaceOnUse" x="34" y="0" width="36" height="19">
<path fill-rule="evenodd" clip-rule="evenodd" d="M68.2906 6.48808H60.6631C60.6495 6.48808 60.6373 6.47858 60.6346 6.46636C59.6286 2.79382 56.309 0.0825195 52.3256 0.0825195C48.3421 0.0825195 45.0212 2.79382 44.0165 6.46636C44.0125 6.47858 44.0016 6.48808 43.988 6.48808H36.1935C35.3626 6.48808 34.5317 7.12891 34.5317 8.08879V16.2132C34.5317 17.2097 35.3382 18.0175 36.3347 18.0175H68.1494C69.1459 18.0175 69.9538 17.2097 69.9538 16.2132V8.09015C69.9538 7.28912 69.2885 6.48808 68.2906 6.48808Z" fill="white"/>
</mask>
<g mask="url(#mask0_2216_8034)">
<path fill-rule="evenodd" clip-rule="evenodd" d="M68.2906 6.48808H60.6631C60.6495 6.48808 60.6373 6.47858 60.6346 6.46636C59.6286 2.79382 56.309 0.0825195 52.3256 0.0825195C48.3421 0.0825195 45.0212 2.79382 44.0165 6.46636C44.0125 6.47858 44.0016 6.48808 43.988 6.48808H36.1935C35.3626 6.48808 34.5317 7.12891 34.5317 8.08879V16.2132C34.5317 17.2097 35.3382 18.0175 36.3347 18.0175H68.1494C69.1459 18.0175 69.9538 17.2097 69.9538 16.2132V8.09015C69.9538 7.28912 69.2885 6.48808 68.2906 6.48808Z" fill="url(#paint0_linear_2216_8034)"/>
</g>
<path fill-rule="evenodd" clip-rule="evenodd" d="M73.2816 67.4009H32.8741C32.1939 67.4009 31.644 68.039 31.644 68.8264V70.2995C31.644 71.087 32.1939 71.7251 32.8741 71.7251H73.2816C73.9618 71.7251 74.5116 71.087 74.5116 70.2995V68.8264C74.5116 68.039 73.9618 67.4009 73.2816 67.4009Z" fill="#DD4167"/>
<path fill-rule="evenodd" clip-rule="evenodd" d="M32.8741 84.6154H59.5458C60.226 84.6154 60.7759 83.9786 60.7759 83.1911V81.7167C60.7759 80.9306 60.226 80.2925 59.5458 80.2925H32.8741C32.1939 80.2925 31.644 80.9306 31.644 81.7167V83.1911C31.644 83.9786 32.1939 84.6154 32.8741 84.6154Z" fill="#DD4167"/>
<path fill-rule="evenodd" clip-rule="evenodd" d="M31.6454 46.8576L31.644 39.9198C31.6454 39.7189 31.8083 39.556 32.0065 39.556H41.1886L41.1859 30.3767C41.1886 30.1771 41.3515 30.0142 41.5484 30.0142H48.4888C48.6871 30.0142 48.85 30.1771 48.8514 30.3767L48.85 39.556H58.032C58.2289 39.556 58.3918 39.7189 58.3945 39.9198L58.3918 46.8576C58.3945 47.0572 58.2316 47.2201 58.0293 47.2201H48.8514L48.85 56.3994C48.8514 56.6004 48.6898 56.7633 48.4875 56.7633H41.5511C41.3488 56.7633 41.1859 56.6004 41.1886 56.3994L41.1859 47.2201H32.0079C31.8056 47.2201 31.644 47.0572 31.6454 46.8576Z" fill="#DD4167"/>
<mask id="mask1_2216_8034" style="mask-type:luminance" maskUnits="userSpaceOnUse" x="13" y="9" width="79" height="96">
<path fill-rule="evenodd" clip-rule="evenodd" d="M31.4006 9.8208V15.2515H22.1805C20.1033 15.2515 18.4116 16.9432 18.4116 19.0218V94.9626C18.4116 97.0412 20.1033 98.7316 22.1805 98.7316H82.4686C84.5472 98.7316 86.2389 97.0412 86.2389 94.9626V19.0218C86.2389 16.9432 84.5472 15.2515 82.4686 15.2515H73.4888V9.8208H82.4686C87.5422 9.8208 91.6696 13.9482 91.6696 19.0218V94.9626C91.6696 99.6224 88.1863 103.485 83.686 104.082H20.9634C16.8661 103.538 13.6113 100.286 13.0625 96.1906V17.7936C13.6647 13.2985 17.5245 9.8208 22.1805 9.8208H31.4006Z" fill="white"/>
</mask>
<g mask="url(#mask1_2216_8034)">
<path fill-rule="evenodd" clip-rule="evenodd" d="M13.0625 104.081H91.6698V0.0825195H13.0625V104.081Z" fill="url(#paint1_linear_2216_8034)"/>
</g>
<defs>
<linearGradient id="paint0_linear_2216_8034" x1="34.5311" y1="18.0176" x2="69.9532" y2="18.0176" gradientUnits="userSpaceOnUse">
<stop stop-color="#CEC6DF"/>
<stop offset="1" stop-color="#6D6A95"/>
</linearGradient>
<linearGradient id="paint1_linear_2216_8034" x1="12.981" y1="109.045" x2="91.6698" y2="109.045" gradientUnits="userSpaceOnUse">
<stop stop-color="#CEC6DF"/>
<stop offset="1" stop-color="#6D6A95"/>
</linearGradient>
</defs>
</svg>
