<svg width="104" height="104" viewBox="0 0 104 104" fill="none" xmlns="http://www.w3.org/2000/svg">
<path fill-rule="evenodd" clip-rule="evenodd" d="M52.5127 9.63224C51.1818 9.63224 50.1837 8.65213 50.1837 7.3467C50.1837 6.03988 51.1818 5.06116 52.5127 5.06116C53.8435 5.06116 54.8416 6.03988 54.8416 7.3467C54.8416 8.65213 53.8435 9.79559 52.5127 9.63224ZM68.4812 6.52992H60.8534C60.8385 6.52992 60.8263 6.52023 60.8235 6.50777C59.8186 2.76314 56.497 0 52.5126 0C48.5283 0 45.2067 2.76314 44.2018 6.50777C44.199 6.52023 44.1868 6.52992 44.1719 6.52992H36.3784C35.5459 6.52992 34.7148 7.18333 34.7148 8.16205V16.4459C34.7148 17.462 35.5215 18.2857 36.5196 18.2857H68.34C69.3368 18.2857 70.1434 17.462 70.1434 16.4459V8.16205C70.1434 7.34668 69.4794 6.52992 68.4812 6.52992Z" fill="url(#paint0_linear_503_18381)"/>
<path fill-rule="evenodd" clip-rule="evenodd" d="M73.4686 72H32.5323C31.8445 72 31.2861 72.6748 31.2861 73.5061V75.0653C31.2861 75.8966 31.8445 76.5714 32.5323 76.5714H73.4686C74.1563 76.5714 74.7147 75.8966 74.7147 75.0653V73.5061C74.7147 72.6748 74.1563 72 73.4686 72Z" fill="#EF426F"/>
<path fill-rule="evenodd" clip-rule="evenodd" d="M32.5407 89.1427H59.7458C60.4382 89.1427 61.0004 88.4679 61.0004 87.6366V86.0774C61.0004 85.2461 60.4382 84.5713 59.7458 84.5713H32.5407C31.8483 84.5713 31.2861 85.2461 31.2861 86.0774V87.6366C31.2861 88.4679 31.8483 89.1427 32.5407 89.1427Z" fill="#EF426F"/>
<path fill-rule="evenodd" clip-rule="evenodd" d="M82.6376 104H22.2195C17.1363 104 13 99.8503 13 94.7502V18.3958C13 13.293 17.1363 9.14307 22.2195 9.14307H31.4595V14.6035H22.2195C20.1364 14.6035 18.4425 16.3044 18.4425 18.3958V94.7502C18.4425 96.8402 20.1364 98.5398 22.2195 98.5398H82.6376C84.7207 98.5398 86.4147 96.8402 86.4147 94.7502V18.3958C86.4147 16.3044 84.7207 14.6035 82.6376 14.6035H73.6385V9.14307H82.6376C87.7209 9.14307 91.8571 13.293 91.8571 18.3958V94.7502C91.8571 99.8503 87.7209 104 82.6376 104Z" fill="url(#paint1_linear_503_18381)"/>
<path fill-rule="evenodd" clip-rule="evenodd" d="M58.6948 42.58H50.4198V34.1039C50.4198 32.9418 49.478 32 48.3158 32H45.113C43.9509 32 43.0081 32.9418 43.0081 34.1039V42.58H34.3871C33.3043 42.58 32.4287 43.4575 32.4287 44.5392V48.0322C32.4287 49.1139 33.3043 49.9914 34.3871 49.9914H43.0081V58.4392C43.0081 59.6173 43.9632 60.5714 45.1405 60.5714H48.2884C49.4657 60.5714 50.4198 59.6173 50.4198 58.4392V49.9914H58.6948C59.9685 49.9914 61.0001 48.9588 61.0001 47.6852V44.8853C61.0001 43.6126 59.9685 42.58 58.6948 42.58Z" fill="#EF426F"/>
<defs>
<linearGradient id="paint0_linear_503_18381" x1="34.6857" y1="18.2933" x2="70.1436" y2="18.2933" gradientUnits="userSpaceOnUse">
<stop stop-color="#AAD8CE"/>
<stop offset="1" stop-color="#56BAAC"/>
</linearGradient>
<linearGradient id="paint1_linear_503_18381" x1="12.9352" y1="104.039" x2="91.8575" y2="104.039" gradientUnits="userSpaceOnUse">
<stop stop-color="#AAD8CE"/>
<stop offset="1" stop-color="#56BAAC"/>
</linearGradient>
</defs>
</svg>
