<svg width="104" height="105" viewBox="0 0 104 105" fill="none" xmlns="http://www.w3.org/2000/svg">
<mask id="mask0_572_10400" style="mask-type:luminance" maskUnits="userSpaceOnUse" x="4" y="0" width="97" height="105">
<path fill-rule="evenodd" clip-rule="evenodd" d="M55.0976 0.326172C57.5296 0.326172 59.5083 2.3049 59.5083 4.73693V10.1432C59.5083 12.5753 57.5296 14.554 55.0976 14.554H54.38V16.4302C63.5819 17.6308 71.9044 21.6623 78.4322 27.6356L79.2857 26.6351L77.9271 25.4765C76.1324 23.9474 75.9174 21.2411 77.4478 19.4452L81.2521 14.9851C81.992 14.1167 83.027 13.5893 84.1696 13.4979C85.3121 13.4152 86.4175 13.766 87.2846 14.507L98.5666 24.1314C100.363 25.663 100.576 28.3693 99.0458 30.1639L95.2428 34.6229C94.5017 35.4912 93.4666 36.0186 92.3253 36.1088C92.2092 36.1187 92.0931 36.1236 91.9782 36.1236C90.9605 36.1236 89.9884 35.7654 89.2078 35.0996L87.8516 33.9423L85.7876 36.3607C90.2268 43.248 92.8157 51.4359 92.8157 60.2216C92.8157 83.7217 74.3717 102.995 51.2002 104.326H46.0775C22.905 102.995 4.46094 83.7217 4.46094 60.2216C4.46094 38.2518 20.5847 19.9825 41.6183 16.6081V14.554H40.9006C38.4686 14.554 36.4911 12.5753 36.4911 10.1432V4.73693C36.4911 2.3049 38.4686 0.326172 40.9006 0.326172H55.0976ZM48.6389 20.9855C27.0026 20.9855 9.40155 38.5865 9.40155 60.2216C9.40155 81.8579 27.0026 99.4589 48.6389 99.4589C70.274 99.4589 87.875 81.8579 87.875 60.2216C87.875 38.5865 70.274 20.9855 48.6389 20.9855ZM83.0443 29.8416L81.8944 31.1891C82.1994 31.5399 82.507 31.8882 82.8022 32.2489L84.0929 30.7358L83.0443 29.8416ZM84.5808 18.6943L81.6362 22.1465L91.914 30.9125L94.8574 27.4602L84.5808 18.6943ZM49.4393 14.554H46.5589V16.0979C47.2481 16.0658 47.941 16.0448 48.6389 16.0448C48.9069 16.0448 49.1725 16.0597 49.4393 16.0646V14.554ZM54.5689 5.26683H41.4317V9.61336H54.5689V5.26683Z" fill="white"/>
</mask>
<g mask="url(#mask0_572_10400)">
<path fill-rule="evenodd" clip-rule="evenodd" d="M4.46094 104.325H100.067V0.326172H4.46094V104.325Z" fill="url(#paint0_linear_572_10400)"/>
</g>
<path fill-rule="evenodd" clip-rule="evenodd" d="M64.4955 79.3557L53.5841 66.6755C54.0683 65.7381 54.3672 64.6894 54.3672 63.5605C54.3672 61.063 53.0147 58.9014 51.015 57.7095V37.3528C51.015 35.6952 49.639 34.3452 47.9493 34.3452C46.267 34.3452 44.8984 35.6952 44.8984 37.3528V57.2574C44.896 57.2587 44.8935 57.2599 44.891 57.2612C44.8824 57.2649 44.8737 57.2686 44.8639 57.2723C44.4698 57.4415 44.0981 57.6441 43.746 57.88C43.73 57.8911 43.7139 57.901 43.6979 57.9121C43.3545 58.1468 43.0346 58.4099 42.7406 58.7013C42.7246 58.7186 42.7073 58.7335 42.6912 58.7495C42.401 59.0423 42.1391 59.3585 41.9057 59.7006C41.8921 59.7204 41.876 59.7389 41.8624 59.7586C41.6314 60.1045 41.4326 60.4689 41.2671 60.8555C41.2584 60.8752 41.2473 60.8938 41.2387 60.9135C41.0707 61.3162 40.9361 61.7349 40.8471 62.1721C40.8471 62.1771 40.8447 62.1808 40.8434 62.1845C40.757 62.618 40.7051 63.0652 40.7051 63.5247C40.7051 63.5308 40.7075 63.5358 40.7075 63.5419C40.7075 63.5481 40.7051 63.5543 40.7051 63.5605C40.7051 67.3339 43.7695 70.3909 47.5355 70.3909C47.9258 70.3909 48.3013 70.339 48.6731 70.276L59.8204 83.2045C60.3948 83.89 61.252 84.2828 62.1722 84.2828C62.9009 84.2828 63.5716 84.0481 64.0953 83.617C64.7388 83.1044 65.1452 82.3448 65.2144 81.5345C65.2811 80.7243 65.0204 79.9412 64.4955 79.3557Z" fill="#DD4267"/>
<defs>
<linearGradient id="paint0_linear_572_10400" x1="52.2641" y1="0.326172" x2="52.2641" y2="104.325" gradientUnits="userSpaceOnUse">
<stop stop-color="#CEC6DF"/>
<stop offset="1" stop-color="#6D6A95"/>
</linearGradient>
</defs>
</svg>
