<svg width="12" height="12" viewBox="0 0 12 12" fill="none" xmlns="http://www.w3.org/2000/svg">
<path d="M11.7471 1.52693L7.25059 6.02342L11.7096 10.4824C12.0843 10.8197 12.0843 11.3817 11.7096 11.719C11.3724 12.0937 10.8103 12.0937 10.4731 11.719L5.97658 7.25995L1.51756 11.719C1.18033 12.0937 0.618267 12.0937 0.28103 11.719C-0.0936768 11.3817 -0.0936768 10.8197 0.28103 10.445L4.74005 5.98595L0.28103 1.52693C-0.0936768 1.1897 -0.0936768 0.627635 0.28103 0.252927C0.618267 -0.0843091 1.18033 -0.0843091 1.55504 0.252927L6.01405 4.74941L10.4731 0.290398C10.8103 -0.0843091 11.3724 -0.0843091 11.7471 0.290398C12.0843 0.627635 12.0843 1.1897 11.7471 1.52693Z" fill="#5B6770"/>
</svg>
