<svg width="16" height="16" viewBox="0 0 16 16" fill="none" xmlns="http://www.w3.org/2000/svg">
<path d="M13.7471 3.52693L9.25059 8.02342L13.7096 12.4824C14.0843 12.8197 14.0843 13.3817 13.7096 13.719C13.3724 14.0937 12.8103 14.0937 12.4731 13.719L7.97658 9.25995L3.51756 13.719C3.18033 14.0937 2.61827 14.0937 2.28103 13.719C1.90632 13.3817 1.90632 12.8197 2.28103 12.445L6.74005 7.98595L2.28103 3.52693C1.90632 3.1897 1.90632 2.62763 2.28103 2.25293C2.61827 1.91569 3.18033 1.91569 3.55504 2.25293L8.01405 6.74941L12.4731 2.2904C12.8103 1.91569 13.3724 1.91569 13.7471 2.2904C14.0843 2.62763 14.0843 3.1897 13.7471 3.52693Z" fill="#333333"/>
</svg>
