<svg width="13" height="12" viewBox="0 0 13 12" fill="none" xmlns="http://www.w3.org/2000/svg">
<path d="M12.6855 10.4731L8.06603 5.97658L12.647 1.51756C13.0319 1.18033 13.0319 0.618267 12.647 0.281031C12.3005 -0.0936766 11.7231 -0.0936766 11.3766 0.281031L6.75719 4.74005L2.17625 0.281031C1.82979 -0.0936766 1.25236 -0.0936766 0.905902 0.281031C0.520949 0.618267 0.520949 1.18033 0.905902 1.55504L5.48685 6.01405L0.905902 10.4731C0.520949 10.8103 0.520949 11.3724 0.905902 11.7471C1.25236 12.0843 1.82979 12.0843 2.21474 11.7471L6.79569 7.25059L11.3766 11.7096C11.7231 12.0843 12.3005 12.0843 12.6855 11.7096C13.0319 11.3724 13.0319 10.8103 12.6855 10.4731Z" fill="white"/>
</svg>
