<svg width="16" height="17" viewBox="0 0 16 17" fill="none" xmlns="http://www.w3.org/2000/svg">
<path d="M13.7471 4.30794L9.25059 8.80442L13.7096 13.2634C14.0843 13.6007 14.0843 14.1627 13.7096 14.5C13.3724 14.8747 12.8103 14.8747 12.4731 14.5L7.97658 10.041L3.51756 14.5C3.18033 14.8747 2.61827 14.8747 2.28103 14.5C1.90632 14.1627 1.90632 13.6007 2.28103 13.226L6.74005 8.76695L2.28103 4.30794C1.90632 3.9707 1.90632 3.40864 2.28103 3.03393C2.61827 2.6967 3.18033 2.6967 3.55504 3.03393L8.01405 7.53042L12.4731 3.0714C12.8103 2.6967 13.3724 2.6967 13.7471 3.0714C14.0843 3.40864 14.0843 3.9707 13.7471 4.30794Z" fill="#5B6770"/>
</svg>
