<svg width="83" height="84" viewBox="0 0 83 84" fill="none" xmlns="http://www.w3.org/2000/svg">
<path d="M71.8267 41.735C71.8267 58.4818 58.2466 72.0619 41.4998 72.0619C24.7529 72.0619 11.1729 58.4818 11.1729 41.735C11.1729 24.9882 24.7529 11.4081 41.4998 11.4081C58.2466 11.4081 71.8267 24.9882 71.8267 41.735Z" fill="#E3E2E3"/>
<path d="M53.3754 40.0622V37.4062V24.0113C53.3754 21.2404 51.875 19.2739 49.219 18.6993C46.6779 18.1247 44.0219 17.4288 41.5958 16.8542L40.4401 16.6243C38.595 16.1646 36.5136 15.6985 34.6684 15.1239C33.5128 14.8941 32.3572 14.8941 31.2016 15.1239C29.1202 15.6985 26.9303 16.1646 24.9638 16.6243C22.5377 17.1989 19.5369 18.0098 16.5361 18.7057C13.8801 19.2803 12.3798 21.3617 12.3798 24.1326V40.6496C12.2648 45.387 13.8801 49.7732 17.0022 53.5848C20.3541 57.6263 24.7404 60.742 30.627 63.398C31.3229 63.6278 32.0124 63.8577 32.8233 63.8577C33.6341 63.8577 34.4386 63.7428 35.1345 63.398C40.2167 61.2017 44.2581 58.5457 47.4888 55.0852C51.6451 50.4628 53.6116 45.5019 53.3754 40.075V40.0622Z" fill="#99288C"/>
<path d="M42.9875 33.052C41.6786 34.795 40.2293 36.538 38.9205 38.281C36.7433 41.186 34.5598 43.9441 32.2358 46.8491C30.927 48.4453 29.9118 48.4453 28.7498 46.8491C26.7131 44.091 24.8296 41.4733 22.793 38.7151C22.0651 37.8404 22.0651 36.8253 22.793 36.2443C23.5208 35.6633 24.3891 35.6633 25.2638 36.3911C26.7195 37.7 28.1688 38.862 29.6245 40.1708C29.9182 40.3176 30.0586 40.605 30.6396 40.8986C30.7865 40.605 30.9333 40.3176 31.2206 40.024C34.2725 36.9721 37.3243 33.9203 40.3698 30.8748C40.6635 30.5811 41.0976 30.2938 41.5318 30.147C42.2596 30.0001 42.8406 30.2938 43.2748 30.8748C43.5685 31.7495 43.4216 32.471 42.9811 33.052H42.9875Z" fill="white"/>
<path d="M48.8611 40.4709V22.894C46.0072 22.1407 43 21.3937 40.2993 20.7935C38.0456 20.1934 35.645 19.5932 33.238 18.993H32.6378C30.384 19.5932 27.9834 20.1933 25.7296 20.6467C22.8757 21.4 19.8686 22.147 17.0146 22.7472V40.6241C17.0146 44.3783 18.0681 47.5323 20.622 50.5394C23.6291 54.1467 27.5301 57.0007 33.0911 59.4013C37.7455 57.3007 41.506 54.8937 44.36 51.7397C47.514 48.4325 49.0143 44.6783 48.8675 40.4709H48.8611Z" stroke="white" stroke-width="1.64" stroke-miterlimit="10"/>
<path d="M75.9704 45.47V43.8866C75.9704 42.3862 74.7509 41.1604 73.2505 41.1604H65.9912L64.4015 44.0462C64.1716 44.4804 63.7183 44.7549 63.2139 44.7549H59.696C58.6489 44.7549 58.0104 43.6312 58.5021 42.7374L59.3704 41.1604H49.653C48.1526 41.1604 46.9268 42.3799 46.9268 43.8866V45.47H75.9768H75.9704Z" fill="#2A347A"/>
<path d="M75.9704 45.47V43.8866C75.9704 42.3862 74.7509 41.1604 73.2505 41.1604H65.9912L64.4015 44.0462C64.1716 44.4804 63.7183 44.7549 63.2139 44.7549H59.696C58.6489 44.7549 58.0104 43.6312 58.5021 42.7374L59.3704 41.1604H49.653C48.1526 41.1604 46.9268 42.3799 46.9268 43.8866V45.47H75.9768H75.9704Z" stroke="#2A347A" stroke-width="4.28" stroke-miterlimit="10"/>
<path d="M49.647 64.3812C47.5975 64.3812 45.9375 62.7148 45.9375 60.6717V45.387H76.9603V60.6717C76.9603 62.7148 75.294 64.3812 73.2509 64.3812H49.647Z" fill="#21ADE4"/>
<path d="M77.9439 44.4037H44.9482V60.6717C44.9482 63.2638 47.0552 65.3708 49.6473 65.3708H73.2512C75.8434 65.3708 77.9503 63.2638 77.9503 60.6717V44.4037H77.9439ZM75.9711 46.3765V60.6717C75.9711 62.1721 74.7516 63.3979 73.2449 63.3979H49.6409C48.1405 63.3979 46.9147 62.1785 46.9147 60.6717V46.3765H75.9647H75.9711Z" fill="white"/>
<path d="M59.8426 49.0134H49.8443C49.2766 49.0134 48.8164 49.4736 48.8164 50.0414V60.0397C48.8164 60.6074 49.2766 61.0676 49.8443 61.0676H59.8426C60.4103 61.0676 60.8706 60.6074 60.8706 60.0397V50.0414C60.8706 49.4736 60.4103 49.0134 59.8426 49.0134Z" fill="#07809F" stroke="white" stroke-width="0.83" stroke-miterlimit="10"/>
<path d="M45.9307 46.4596V43.8866C45.9307 41.8435 47.597 40.1771 49.6401 40.1771H73.244C75.2871 40.1771 76.9535 41.8435 76.9535 43.8866V46.4596H45.9307Z" fill="#07809F" stroke="#07809F" stroke-width="1.13" stroke-miterlimit="10"/>
<path d="M73.2444 39.1875H49.6405C47.0483 39.1875 44.9414 41.2944 44.9414 43.8866V47.4492H77.9371V43.8866C77.9371 41.2944 75.8302 39.1875 73.238 39.1875M73.238 41.1603C74.7384 41.1603 75.9643 42.3798 75.9643 43.8866V45.47H46.9143V43.8866C46.9143 42.3862 48.1337 41.1603 49.6405 41.1603H73.2444H73.238Z" fill="white"/>
<path d="M46.9209 46.3766V60.6717C46.9209 62.1721 48.1404 63.398 49.6471 63.398H73.2511C74.7514 63.398 75.9709 62.1785 75.9709 60.6717V46.3766H46.9209Z" fill="#07809F"/>
<path d="M54.8442 56.062C52.1499 56.062 49.9025 58.0157 49.4492 60.5823H60.2392C59.7859 58.0157 57.5385 56.062 54.8442 56.062Z" fill="white"/>
<path d="M54.8438 48.6367C52.8837 48.6367 51.2939 50.2329 51.2939 52.1866C51.2939 54.1403 52.8837 55.7364 54.8438 55.7364C56.8039 55.7364 58.3936 54.1403 58.3936 52.1866C58.3936 50.2329 56.7975 48.6367 54.8438 48.6367Z" fill="white"/>
<path d="M63.4825 49.786H71.4888C71.7697 49.786 71.9995 50.0159 71.9995 50.2968C71.9995 50.5777 71.7697 50.8075 71.4888 50.8075H63.4825C63.2015 50.8075 62.9717 50.5777 62.9717 50.2968C62.9717 50.0159 63.2015 49.786 63.4825 49.786Z" fill="white"/>
<path d="M63.4825 52.9463H71.4888C71.7697 52.9463 71.9995 53.1761 71.9995 53.4571C71.9995 53.738 71.7697 53.9678 71.4888 53.9678H63.4825C63.2015 53.9678 62.9717 53.738 62.9717 53.4571C62.9717 53.1761 63.2015 52.9463 63.4825 52.9463Z" fill="white"/>
<path d="M73.5701 60.3014H63.4825C63.2015 60.3014 62.9717 60.0716 62.9717 59.7907C62.9717 59.5098 63.2015 59.2799 63.4825 59.2799H73.5701C73.8511 59.2799 74.0809 59.5098 74.0809 59.7907C74.0809 60.0716 73.8511 60.3014 73.5701 60.3014Z" fill="white"/>
<path d="M73.5701 57.141H63.4825C63.2015 57.141 62.9717 56.9112 62.9717 56.6303C62.9717 56.3494 63.2015 56.1195 63.4825 56.1195H73.5701C73.8511 56.1195 74.0809 56.3494 74.0809 56.6303C74.0809 56.9112 73.8511 57.141 73.5701 57.141Z" fill="white"/>
</svg>
