<svg width="84" height="84" viewBox="0 0 84 84" fill="none" xmlns="http://www.w3.org/2000/svg">
<g clip-path="url(#clip0_2716_35896)">
<path d="M72.6932 42.0009C72.6932 58.9495 58.9495 72.6932 42.0009 72.6932C25.0523 72.6932 11.3086 58.9495 11.3086 42.0009C11.3086 25.0523 25.0523 11.3086 42.0009 11.3086C58.9495 11.3086 72.6932 25.0523 72.6932 42.0009Z" fill="#E3E2E3"/>
<path d="M42.0003 23.906C50.5037 15.7967 63.9243 18.11 67.3167 18.866C67.8336 18.9823 68.1179 19.454 68.1179 19.6931V34.406V40.4604V61.8546C68.1179 62.6106 67.4976 63.2309 66.7416 63.2309C66.7416 63.2309 51.796 59.0826 42.0003 68.426C32.2047 59.0826 17.2591 63.2309 17.2591 63.2309C16.5031 63.2309 15.8828 62.6106 15.8828 61.8546V19.6866C15.8828 19.4475 16.1671 18.9758 16.684 18.8595C20.0764 18.11 33.497 15.7903 42.0003 23.8995V23.906Z" fill="#99288C"/>
<path d="M42 69.7136V22.9062" stroke="#E3E2E3" stroke-width="2" stroke-miterlimit="10"/>
<path d="M41.8397 30.8726C33.7241 23.1316 21.3438 26.5692 21.3438 26.5692" stroke="#E3E2E3" stroke-linecap="round" stroke-linejoin="round"/>
<path d="M41.8397 37.1851C33.7241 29.4441 21.3438 32.8817 21.3438 32.8817" stroke="#E3E2E3" stroke-linecap="round" stroke-linejoin="round"/>
<path d="M41.8397 43.4976C33.7241 35.7566 21.3438 39.1942 21.3438 39.1942" stroke="#E3E2E3" stroke-linecap="round" stroke-linejoin="round"/>
<path d="M41.8397 49.8062C33.7241 42.0652 21.3438 45.5028 21.3438 45.5028" stroke="#E3E2E3" stroke-linecap="round" stroke-linejoin="round"/>
<path d="M41.8397 56.1187C33.7241 48.3777 21.3438 51.8153 21.3438 51.8153" stroke="#E3E2E3" stroke-linecap="round" stroke-linejoin="round"/>
<path d="M42.1641 30.8726C50.2798 23.1316 62.6601 26.5692 62.6601 26.5692" stroke="#E3E2E3" stroke-linecap="round" stroke-linejoin="round"/>
<path d="M42.1641 37.1851C50.2798 29.4441 62.6601 32.8817 62.6601 32.8817" stroke="#E3E2E3" stroke-linecap="round" stroke-linejoin="round"/>
<path d="M42.1641 43.4976C50.2798 35.7566 62.6601 39.1942 62.6601 39.1942" stroke="#E3E2E3" stroke-linecap="round" stroke-linejoin="round"/>
<path d="M42.1641 49.8062C50.2798 42.0652 62.6601 45.5028 62.6601 45.5028" stroke="#E3E2E3" stroke-linecap="round" stroke-linejoin="round"/>
<path d="M42.1641 56.1187C50.2798 48.3777 62.6601 51.8153 62.6601 51.8153" stroke="#E3E2E3" stroke-linecap="round" stroke-linejoin="round"/>
<path d="M53.6506 53.6143C47.2214 60.05 36.786 60.0564 30.3503 53.6272C23.9146 47.198 23.9082 36.7626 30.3374 30.3269C36.7666 23.8912 47.202 23.8848 53.6377 30.314C53.6377 30.314 53.6442 30.3204 53.6506 30.3269C60.0799 36.7497 60.0863 47.1721 53.6636 53.6014L53.6506 53.6143Z" fill="#07809F" stroke="#E3E2E3" stroke-width="2" stroke-miterlimit="10"/>
<path d="M43.0975 34.3395C44.4393 34.3395 45.527 33.2518 45.527 31.91C45.527 30.5682 44.4393 29.4805 43.0975 29.4805C41.7557 29.4805 40.668 30.5682 40.668 31.91C40.668 33.2518 41.7557 34.3395 43.0975 34.3395Z" fill="white"/>
<path d="M46.9828 49.458C46.7631 50.466 46.2268 51.3835 45.4514 52.062C43.584 53.6903 41.8975 54.4915 40.392 54.4527C38.88 54.414 38.1498 53.6063 38.1886 52.0232C38.2015 51.4869 38.3437 50.6081 38.6151 49.3933L39.8363 43.9527C40.1658 42.4084 40.3403 41.381 40.3532 40.8641C40.3726 39.9853 40.0495 39.533 39.3646 39.5201C39.0221 39.5136 38.4923 39.5912 37.7621 39.7592C37.3292 39.8561 36.9415 39.4684 37.0384 39.0355L37.2129 38.273C37.2646 38.034 37.4649 37.8466 37.7104 37.8078L43.7778 36.8709C44.256 36.7998 44.6501 37.2392 44.5274 37.7044L43.4677 41.7106L41.7295 49.4386C41.6455 49.8004 41.5809 50.1235 41.5228 50.4078C41.3806 51.0927 41.9945 51.713 42.6794 51.558C44.4175 51.1767 46.9892 49.458 46.9892 49.458H46.9828Z" fill="white"/>
</g>
<defs>
<clipPath id="clip0_2716_35896">
<rect width="84" height="84" fill="white"/>
</clipPath>
</defs>
</svg>
