<svg width="98" height="108" viewBox="0 0 98 108" fill="none" xmlns="http://www.w3.org/2000/svg">
<path fill-rule="evenodd" clip-rule="evenodd" d="M49.4462 50.6668H19.7378C18.4109 50.6668 17.334 49.4722 17.334 48.0002C17.334 46.5282 18.4109 45.3335 19.7378 45.3335H52.4148C53.7417 45.3335 53.4389 46.7655 52.7153 48.0002C51.6384 49.8348 50.7731 50.6668 49.4462 50.6668Z" fill="#EA2957"/>
<path fill-rule="evenodd" clip-rule="evenodd" d="M44.7491 64.0003H19.7179C18.402 64.0003 17.334 62.8057 17.334 61.3337C17.334 59.8617 18.402 58.667 19.7179 58.667H44.1531C45.4691 58.667 44.7491 59.8617 44.7491 61.3337C44.7491 62.8057 46.0651 64.0003 44.7491 64.0003Z" fill="#EA2957"/>
<path fill-rule="evenodd" clip-rule="evenodd" d="M39.9882 77.3333H19.7266C18.4047 77.3333 17.334 76.1387 17.334 74.6667C17.334 73.1947 18.4047 72 19.7266 72H41.334L39.9882 77.3333Z" fill="#EA2957"/>
<path fill-rule="evenodd" clip-rule="evenodd" d="M37.5651 90.6668H19.7696C18.4239 90.6668 17.334 89.4722 17.334 88.0002C17.334 86.5282 18.4239 85.3335 19.7696 85.3335H37.5651C38.9095 85.3335 40.0007 86.5282 40.0007 88.0002C40.0007 89.4722 38.9095 90.6668 37.5651 90.6668Z" fill="#EA2957"/>
<mask id="mask0_572_10399" style="mask-type:luminance" maskUnits="userSpaceOnUse" x="0" y="0" width="97" height="108">
<path fill-rule="evenodd" clip-rule="evenodd" d="M0 0.0292969H96.3062V108H0V0.0292969Z" fill="white"/>
</mask>
<g mask="url(#mask0_572_10399)">
<path fill-rule="evenodd" clip-rule="evenodd" d="M87.089 13.2183L82.9463 10.6324L86.3566 5.19842L90.4993 7.78314L87.089 13.2183ZM70.0143 49.1217C70.2418 49.1217 65.1817 56.8236 65.1817 56.8236L59.13 66.4684L47.1495 58.9921L63.8738 32.338L67.4958 26.5666L76.7169 11.8714L88.695 19.3488L70.0143 49.1217ZM45.5398 63.1143L56.1163 69.7157L45.9438 78.1809L42.3522 75.9384L45.5398 63.1143ZM65.1817 99.8355C65.1817 101.681 63.6767 103.181 61.8274 103.181H8.18573C6.3364 103.181 4.8326 101.681 4.8326 99.8355V32.4435C4.8326 30.5991 6.3364 29.098 8.18573 29.098H53.8375H59.9695H60.7664L42.2999 58.5286C42.1891 58.7082 42.1149 58.8999 42.0602 59.0941C42.0529 59.1171 42.0383 59.1353 42.0334 59.1584L37.7434 76.4226C37.6595 76.7624 37.6595 77.1082 37.7361 77.4322C37.8615 77.9819 38.2009 78.4746 38.7022 78.7889L39.9894 79.5922L37.876 82.9596C37.5561 83.4681 37.4746 84.0578 37.5987 84.6003C37.7252 85.1427 38.0561 85.6366 38.5659 85.9557C39.5867 86.5916 40.9311 86.2822 41.5699 85.2653L43.6832 81.8966L44.9717 82.7012C45.7686 83.1987 46.8003 83.1307 47.5218 82.5276L61.2166 71.133C61.2348 71.1173 61.2458 71.0966 61.2628 71.0796C61.4137 70.9462 61.5548 70.7981 61.6668 70.6173L65.1817 65.0171V99.8355ZM93.2393 22.4942L92.2489 21.8765L93.5459 19.8112C94.1846 18.7943 93.8744 17.4534 92.8536 16.8163L90.7828 15.5239L95.349 8.2479C95.9877 7.23101 95.6787 5.88889 94.6579 5.25303L86.8201 0.361477C85.8006 -0.276815 84.4561 0.0326234 83.8186 1.05074L79.2525 8.32678L77.1805 7.03442C76.1621 6.39613 74.8165 6.70557 74.179 7.72368L63.6572 24.4916C63.0684 24.3569 62.4576 24.278 61.8274 24.278H59.9695H53.8375H8.18573C3.6719 24.278 0 27.9415 0 32.4435V99.8355C0 104.338 3.6719 108 8.18573 108H61.8274C66.3412 108 70.0143 104.338 70.0143 99.8355V57.3151L89.9372 25.5619L90.9264 26.1795C91.9447 26.8154 92.255 28.1587 91.6174 29.1744L82.4864 43.7277C82.1664 44.2362 82.0848 44.8259 82.2102 45.3684C82.3355 45.9108 82.6676 46.4059 83.1786 46.7226C84.1982 47.3609 85.5426 47.0514 86.1814 46.0333L95.3125 31.48C97.2251 28.433 96.2943 24.4018 93.2393 22.4942Z" fill="url(#paint0_linear_572_10399)"/>
</g>
<defs>
<linearGradient id="paint0_linear_572_10399" x1="48.1533" y1="0.0292969" x2="48.1533" y2="108" gradientUnits="userSpaceOnUse">
<stop stop-color="#CEC6DF"/>
<stop offset="1" stop-color="#6D6A95"/>
</linearGradient>
</defs>
</svg>
