<svg width="104" height="105" viewBox="0 0 104 105" fill="none" xmlns="http://www.w3.org/2000/svg">
<path fill-rule="evenodd" clip-rule="evenodd" d="M54.6766 36.2629H76.6625C77.9041 36.2629 78.9113 35.3706 78.9113 34.2707C78.9113 33.1697 77.9041 32.2773 76.6625 32.2773H50.9531L54.6766 36.2629Z" fill="#EF426F"/>
<path fill-rule="evenodd" clip-rule="evenodd" d="M63.8125 45.2305H76.6639C77.9065 45.2305 78.9127 46.1228 78.9127 47.2227C78.9127 48.3237 77.9065 49.2161 76.6639 49.2161H67.1199L63.8125 45.2305Z" fill="#EF426F"/>
<path fill-rule="evenodd" clip-rule="evenodd" d="M68.6953 58.1836H76.6654C77.9069 58.1836 78.9142 59.076 78.9142 60.1758C78.9142 61.2768 77.9069 62.1692 76.6654 62.1692H68.6953V58.1836Z" fill="#EF426F"/>
<path fill-rule="evenodd" clip-rule="evenodd" d="M44.6509 47.8098H26.4519C25.2093 47.8098 24.2031 46.9174 24.2031 45.8176C24.2031 44.7166 25.2093 43.8242 26.4519 43.8242H44.6509C45.8924 43.8242 46.8997 44.7166 46.8997 45.8176C46.8997 46.9174 45.8924 47.8098 44.6509 47.8098Z" fill="#EF426F"/>
<path fill-rule="evenodd" clip-rule="evenodd" d="M52.1602 60.7629H26.4519C25.2093 60.7629 24.2031 59.8705 24.2031 58.7707C24.2031 57.6697 25.2093 56.7773 26.4519 56.7773H52.1602C53.4017 56.7773 54.409 57.6697 54.409 58.7707C54.409 59.8705 53.4017 60.7629 52.1602 60.7629Z" fill="#EF426F"/>
<path fill-rule="evenodd" clip-rule="evenodd" d="M52.1602 73.716H26.4519C25.2093 73.716 24.2031 72.8237 24.2031 71.7238C24.2031 70.6228 25.2093 69.7305 26.4519 69.7305H52.1602C53.4017 69.7305 54.409 70.6228 54.409 71.7238C54.409 72.8237 53.4017 73.716 52.1602 73.716Z" fill="#EF426F"/>
<path fill-rule="evenodd" clip-rule="evenodd" d="M52.1602 86.6692H26.4519C25.2093 86.6692 24.2031 85.7768 24.2031 84.6769C24.2031 83.576 25.2093 82.6836 26.4519 82.6836H52.1602C53.4017 82.6836 54.409 83.576 54.409 84.6769C54.409 85.7768 53.4017 86.6692 52.1602 86.6692Z" fill="#EF426F"/>
<mask id="mask0_2366_3253" style="mask-type:luminance" maskUnits="userSpaceOnUse" x="8" y="0" width="87" height="105">
<path fill-rule="evenodd" clip-rule="evenodd" d="M41.9886 0.46875C36.9344 0.46875 32.8217 4.5815 32.8217 9.63459V24.9712H17.4873C12.4319 24.9712 8.32031 29.0829 8.32031 34.1371V95.3018C8.32031 100.357 12.4319 104.469 17.4873 104.469H61.1313C66.1866 104.469 70.2982 100.357 70.2982 95.3018V79.9674H85.6337C90.6879 79.9674 94.8007 75.8546 94.8007 70.8004V28.9981C94.8007 26.2886 93.7689 23.723 91.8926 21.7687L74.3853 3.51957C72.5258 1.58088 69.9167 0.46875 67.2295 0.46875H41.9886ZM36.8072 9.63457C36.8072 6.77896 39.1318 4.45431 41.9885 4.45431H67.2295C68.8368 4.45431 70.3974 5.11914 71.5095 6.27923L89.0169 24.5284C90.1758 25.7353 90.815 27.3237 90.815 28.9981V70.8004C90.815 73.6571 88.4904 75.9818 85.6336 75.9818H70.2981V53.4994C70.2981 50.7911 69.2663 48.2232 67.3912 46.27L49.8839 28.0209C48.0232 26.0833 45.4153 24.9712 42.7281 24.9712H36.8072V9.63457ZM12.3058 95.3018V34.137C12.3058 31.2792 14.6293 28.9568 17.4871 28.9568H32.8215H36.8071H42.7281C44.3366 28.9568 45.8949 29.6205 47.007 30.7806L64.5155 49.0297C65.6756 50.2378 66.3125 51.8251 66.3125 53.4994V75.9818V79.9673V95.3018C66.3125 98.1596 63.989 100.483 61.1311 100.483H17.4871C14.6293 100.483 12.3058 98.1596 12.3058 95.3018Z" fill="white"/>
</mask>
<g mask="url(#mask0_2366_3253)">
<path fill-rule="evenodd" clip-rule="evenodd" d="M41.9886 0.46875C36.9344 0.46875 32.8217 4.5815 32.8217 9.63459V24.9712H17.4873C12.4319 24.9712 8.32031 29.0829 8.32031 34.1371V95.3018C8.32031 100.357 12.4319 104.469 17.4873 104.469H61.1313C66.1866 104.469 70.2982 100.357 70.2982 95.3018V79.9674H85.6337C90.6879 79.9674 94.8007 75.8546 94.8007 70.8004V28.9981C94.8007 26.2886 93.7689 23.723 91.8926 21.7687L74.3853 3.51957C72.5258 1.58088 69.9167 0.46875 67.2295 0.46875H41.9886ZM36.8072 9.63457C36.8072 6.77896 39.1318 4.45431 41.9885 4.45431H67.2295C68.8368 4.45431 70.3974 5.11914 71.5095 6.27923L89.0169 24.5284C90.1758 25.7353 90.815 27.3237 90.815 28.9981V70.8004C90.815 73.6571 88.4904 75.9818 85.6336 75.9818H70.2981V53.4994C70.2981 50.7911 69.2663 48.2232 67.3912 46.27L49.8839 28.0209C48.0232 26.0833 45.4153 24.9712 42.7281 24.9712H36.8072V9.63457ZM12.3058 95.3018V34.137C12.3058 31.2792 14.6293 28.9568 17.4871 28.9568H32.8215H36.8071H42.7281C44.3366 28.9568 45.8949 29.6205 47.007 30.7806L64.5155 49.0297C65.6756 50.2378 66.3125 51.8251 66.3125 53.4994V75.9818V79.9673V95.3018C66.3125 98.1596 63.989 100.483 61.1311 100.483H17.4871C14.6293 100.483 12.3058 98.1596 12.3058 95.3018Z" fill="url(#paint0_linear_2366_3253)"/>
</g>
<path fill-rule="evenodd" clip-rule="evenodd" d="M69.1587 23.3098H50.9597C49.7171 23.3098 48.7109 22.4174 48.7109 21.3176C48.7109 20.2166 49.7171 19.3242 50.9597 19.3242H69.1587C70.4002 19.3242 71.4075 20.2166 71.4075 21.3176C71.4075 22.4174 70.4002 23.3098 69.1587 23.3098Z" fill="#EF426F"/>
<defs>
<linearGradient id="paint0_linear_2366_3253" x1="8.22683" y1="104.568" x2="94.8002" y2="104.568" gradientUnits="userSpaceOnUse">
<stop stop-color="#AAD8CE"/>
<stop offset="1" stop-color="#56BAAC"/>
</linearGradient>
</defs>
</svg>
