<svg width="95" height="105" viewBox="0 0 95 105" fill="none" xmlns="http://www.w3.org/2000/svg">
<path fill-rule="evenodd" clip-rule="evenodd" d="M54.681 36.7761H76.6669C77.9085 36.7761 78.9157 35.8837 78.9157 34.7839C78.9157 33.6829 77.9085 32.7905 76.6669 32.7905H50.9575L54.681 36.7761Z" fill="#EF426F"/>
<path fill-rule="evenodd" clip-rule="evenodd" d="M63.8145 45.7437H76.6658C77.9085 45.7437 78.9146 46.636 78.9146 47.7359C78.9146 48.8369 77.9085 49.7292 76.6658 49.7292H67.1218L63.8145 45.7437Z" fill="#EF426F"/>
<path fill-rule="evenodd" clip-rule="evenodd" d="M68.6968 58.6963H76.6668C77.9084 58.6963 78.9156 59.5887 78.9156 60.6885C78.9156 61.7895 77.9084 62.6819 76.6668 62.6819H68.6968V58.6963Z" fill="#EF426F"/>
<path fill-rule="evenodd" clip-rule="evenodd" d="M44.6553 48.3249H26.4563C25.2137 48.3249 24.2075 47.4326 24.2075 46.3327C24.2075 45.2317 25.2137 44.3394 26.4563 44.3394H44.6553C45.8968 44.3394 46.904 45.2317 46.904 46.3327C46.904 47.4326 45.8968 48.3249 44.6553 48.3249Z" fill="#EF426F"/>
<path fill-rule="evenodd" clip-rule="evenodd" d="M52.1651 61.2776H26.4568C25.2142 61.2776 24.208 60.3852 24.208 59.2853C24.208 58.1844 25.2142 57.292 26.4568 57.292H52.1651C53.4066 57.292 54.4139 58.1844 54.4139 59.2853C54.4139 60.3852 53.4066 61.2776 52.1651 61.2776Z" fill="#EF426F"/>
<path fill-rule="evenodd" clip-rule="evenodd" d="M52.1651 74.2302H26.4568C25.2142 74.2302 24.208 73.3378 24.208 72.238C24.208 71.137 25.2142 70.2446 26.4568 70.2446H52.1651C53.4066 70.2446 54.4139 71.137 54.4139 72.238C54.4139 73.3378 53.4066 74.2302 52.1651 74.2302Z" fill="#EF426F"/>
<path fill-rule="evenodd" clip-rule="evenodd" d="M52.1651 87.1833H26.4568C25.2142 87.1833 24.208 86.291 24.208 85.1911C24.208 84.0901 25.2142 83.1978 26.4568 83.1978H52.1651C53.4066 83.1978 54.4139 84.0901 54.4139 85.1911C54.4139 86.291 53.4066 87.1833 52.1651 87.1833Z" fill="#EF426F"/>
<mask id="mask0_2776_27569" style="mask-type:luminance" maskUnits="userSpaceOnUse" x="8" y="0" width="87" height="105">
<path fill-rule="evenodd" clip-rule="evenodd" d="M41.9896 0.980957C36.9354 0.980957 32.8226 5.09371 32.8226 10.1468V25.4834H17.4882C12.4329 25.4834 8.32129 29.5951 8.32129 34.6493V95.814C8.32129 100.869 12.4329 104.981 17.4882 104.981H61.1322C66.1876 104.981 70.2992 100.869 70.2992 95.814V80.4796H85.6347C90.6889 80.4796 94.8017 76.3668 94.8017 71.3126V29.5103C94.8017 26.8008 93.7699 24.2352 91.8936 22.2809L74.3863 4.03178C72.5268 2.09308 69.9177 0.980957 67.2305 0.980957H41.9896ZM36.8081 10.1468C36.8081 7.29117 39.1328 4.96652 41.9895 4.96652H67.2304C68.8378 4.96652 70.3984 5.63134 71.5105 6.79143L89.0178 25.0406C90.1768 26.2475 90.816 27.8359 90.816 29.5103V71.3126C90.816 74.1693 88.4913 76.494 85.6346 76.494H70.2991V54.0116C70.2991 51.3033 69.2673 48.7354 67.3922 46.7822L49.8848 28.5331C48.0242 26.5955 45.4162 25.4834 42.7291 25.4834H36.8081V10.1468ZM12.3067 95.814V34.6492C12.3067 31.7914 14.6303 29.469 17.4881 29.469H32.8225H36.8081H42.729C44.3375 29.469 45.8959 30.1327 47.008 31.2928L64.5164 49.5419C65.6765 50.75 66.3135 52.3373 66.3135 54.0116V76.494V80.4796V95.814C66.3135 98.6718 63.9899 100.995 61.1321 100.995H17.4881C14.6303 100.995 12.3067 98.6718 12.3067 95.814Z" fill="white"/>
</mask>
<g mask="url(#mask0_2776_27569)">
<path fill-rule="evenodd" clip-rule="evenodd" d="M41.9896 0.980957C36.9354 0.980957 32.8226 5.09371 32.8226 10.1468V25.4834H17.4882C12.4329 25.4834 8.32129 29.5951 8.32129 34.6493V95.814C8.32129 100.869 12.4329 104.981 17.4882 104.981H61.1322C66.1876 104.981 70.2992 100.869 70.2992 95.814V80.4796H85.6347C90.6889 80.4796 94.8017 76.3668 94.8017 71.3126V29.5103C94.8017 26.8008 93.7699 24.2352 91.8936 22.2809L74.3863 4.03178C72.5268 2.09308 69.9177 0.980957 67.2305 0.980957H41.9896ZM36.8081 10.1468C36.8081 7.29117 39.1328 4.96652 41.9895 4.96652H67.2304C68.8378 4.96652 70.3984 5.63134 71.5105 6.79143L89.0178 25.0406C90.1768 26.2475 90.816 27.8359 90.816 29.5103V71.3126C90.816 74.1693 88.4913 76.494 85.6346 76.494H70.2991V54.0116C70.2991 51.3033 69.2673 48.7354 67.3922 46.7822L49.8848 28.5331C48.0242 26.5955 45.4162 25.4834 42.7291 25.4834H36.8081V10.1468ZM12.3067 95.814V34.6492C12.3067 31.7914 14.6303 29.469 17.4881 29.469H32.8225H36.8081H42.729C44.3375 29.469 45.8959 30.1327 47.008 31.2928L64.5164 49.5419C65.6765 50.75 66.3135 52.3373 66.3135 54.0116V76.494V80.4796V95.814C66.3135 98.6718 63.9899 100.995 61.1321 100.995H17.4881C14.6303 100.995 12.3067 98.6718 12.3067 95.814Z" fill="url(#paint0_linear_2776_27569)"/>
</g>
<path fill-rule="evenodd" clip-rule="evenodd" d="M69.1567 23.8235H50.9578C49.7151 23.8235 48.709 22.9311 48.709 21.8312C48.709 20.7303 49.7151 19.8379 50.9578 19.8379H69.1567C70.3982 19.8379 71.4055 20.7303 71.4055 21.8312C71.4055 22.9311 70.3982 23.8235 69.1567 23.8235Z" fill="#EF426F"/>
<defs>
<linearGradient id="paint0_linear_2776_27569" x1="8.32129" y1="104.981" x2="94.8017" y2="104.981" gradientUnits="userSpaceOnUse">
<stop stop-color="#A8E1DB"/>
<stop offset="1" stop-color="#52C1BA"/>
</linearGradient>
</defs>
</svg>
