<svg width="65" height="41" viewBox="0 0 65 41" fill="none" xmlns="http://www.w3.org/2000/svg">
<g clip-path="url(#clip0_2_20189)">
<path d="M32.9528 26.0754L62.3517 0.119212C62.1499 0.0903858 61.9729 0.00390625 61.7711 0.00390625H4.12219C3.99453 0.00390625 3.88746 0.0615593 3.76392 0.0697954L32.9528 26.0754Z" fill="#333333"/>
<path d="M65.8891 4.11784C65.8891 3.62778 65.7655 3.17068 65.6091 2.73828L44.8499 21.0637L65.3414 38.9979C65.6585 38.4131 65.8891 37.7748 65.8891 37.0624V4.11784Z" fill="#333333"/>
<path d="M0.32121 2.52344C0.115306 3.01349 0 3.54884 0 4.11713V37.0617C0 37.6629 0.144133 38.223 0.374745 38.7378L21.0639 21.0012L0.32121 2.52344Z" fill="#333333"/>
<path d="M41.7366 23.8109L32.9404 31.5776L24.1648 23.7656L3.89978 41.1357C3.97802 41.1398 4.04391 41.181 4.11804 41.181H61.5857L41.7366 23.8109Z" fill="#333333"/>
</g>
<defs>
<clipPath id="clip0_2_20189">
<rect width="65" height="41" fill="white"/>
</clipPath>
</defs>
</svg>
