<svg width="14" height="10" viewBox="0 0 14 10" fill="none" xmlns="http://www.w3.org/2000/svg">
<path d="M1.75 1.25C1.50391 1.25 1.3125 1.45833 1.3125 1.66667V2.26563L6.01563 5.9375C6.58984 6.38021 7.38281 6.38021 7.95703 5.9375L12.6875 2.26563V1.66667C12.6875 1.45833 12.4688 1.25 12.25 1.25H1.75ZM1.3125 3.88021V8.33333C1.3125 8.56771 1.50391 8.75 1.75 8.75H12.25C12.4688 8.75 12.6875 8.56771 12.6875 8.33333V3.88021L8.80469 6.90104C7.73828 7.73438 6.23438 7.73438 5.19531 6.90104L1.3125 3.88021ZM0 1.66667C0 0.755208 0.765625 0 1.75 0H12.25C13.207 0 14 0.755208 14 1.66667V8.33333C14 9.27083 13.207 10 12.25 10H1.75C0.765625 10 0 9.27083 0 8.33333V1.66667Z" fill="#333333"/>
</svg>
