<svg width="60" height="60" viewBox="0 0 60 60" fill="none" xmlns="http://www.w3.org/2000/svg">
<path d="M10.3125 15.9375C9.38965 15.9375 8.67188 16.7187 8.67188 17.5V19.7461L26.3086 33.5156C28.4619 35.1758 31.4355 35.1758 33.5889 33.5156L51.3281 19.7461V17.5C51.3281 16.7187 50.5078 15.9375 49.6875 15.9375H10.3125ZM8.67188 25.8008V42.5C8.67188 43.3789 9.38965 44.0625 10.3125 44.0625H49.6875C50.5078 44.0625 51.3281 43.3789 51.3281 42.5V25.8008L36.7676 37.1289C32.7686 40.2539 27.1289 40.2539 23.2324 37.1289L8.67188 25.8008ZM3.75 17.5C3.75 14.082 6.62109 11.25 10.3125 11.25H49.6875C53.2764 11.25 56.25 14.082 56.25 17.5V42.5C56.25 46.0156 53.2764 48.75 49.6875 48.75H10.3125C6.62109 48.75 3.75 46.0156 3.75 42.5V17.5Z" fill="#E1242A"/>
</svg>
