<svg width="22" height="28" viewBox="0 0 22 28" fill="none" xmlns="http://www.w3.org/2000/svg">
<g filter="url(#filter0_dd_751_12568)">
<path d="M5.75 10.25C5.50391 10.25 5.3125 10.4583 5.3125 10.6667V11.2656L10.0156 14.9375C10.5898 15.3802 11.3828 15.3802 11.957 14.9375L16.6875 11.2656V10.6667C16.6875 10.4583 16.4688 10.25 16.25 10.25H5.75ZM5.3125 12.8802V17.3333C5.3125 17.5677 5.50391 17.75 5.75 17.75H16.25C16.4688 17.75 16.6875 17.5677 16.6875 17.3333V12.8802L12.8047 15.901C11.7383 16.7344 10.2344 16.7344 9.19531 15.901L5.3125 12.8802ZM4 10.6667C4 9.75521 4.76563 9 5.75 9H16.25C17.207 9 18 9.75521 18 10.6667V17.3333C18 18.2708 17.207 19 16.25 19H5.75C4.76563 19 4 18.2708 4 17.3333V10.6667Z" fill="#BD120A"/>
</g>
<defs>
<filter id="filter0_dd_751_12568" x="-3" y="0" width="25" height="36" filterUnits="userSpaceOnUse" color-interpolation-filters="sRGB">
<feFlood flood-opacity="0" result="BackgroundImageFix"/>
<feColorMatrix in="SourceAlpha" type="matrix" values="0 0 0 0 0 0 0 0 0 0 0 0 0 0 0 0 0 0 127 0" result="hardAlpha"/>
<feOffset dy="4"/>
<feGaussianBlur stdDeviation="2"/>
<feComposite in2="hardAlpha" operator="out"/>
<feColorMatrix type="matrix" values="0 0 0 0 0 0 0 0 0 0 0 0 0 0 0 0 0 0 0.25 0"/>
<feBlend mode="normal" in2="BackgroundImageFix" result="effect1_dropShadow_751_12568"/>
<feColorMatrix in="SourceAlpha" type="matrix" values="0 0 0 0 0 0 0 0 0 0 0 0 0 0 0 0 0 0 127 0" result="hardAlpha"/>
<feOffset dy="4"/>
<feGaussianBlur stdDeviation="2"/>
<feComposite in2="hardAlpha" operator="out"/>
<feColorMatrix type="matrix" values="0 0 0 0 0 0 0 0 0 0 0 0 0 0 0 0 0 0 0.25 0"/>
<feBlend mode="normal" in2="effect1_dropShadow_751_12568" result="effect2_dropShadow_751_12568"/>
<feBlend mode="normal" in="SourceGraphic" in2="effect2_dropShadow_751_12568" result="shape"/>
</filter>
</defs>
</svg>
