<svg width="44" height="43" viewBox="0 0 44 43" fill="none" xmlns="http://www.w3.org/2000/svg">
<g clip-path="url(#clip0_2_20185)">
<path d="M31.2845 18.8398C31.3904 18.7865 31.4878 18.7187 31.5734 18.6338L35.8816 14.3263C36.6667 13.5398 36.4087 10.9981 34.2145 8.80455C32.687 7.27701 31.012 6.73208 29.9551 6.73208C29.5628 6.73208 29.0284 6.80118 28.6921 7.13815L24.3833 11.4457C24.3214 11.5075 24.2773 11.599 24.228 11.6832L18.3653 17.5453C17.6249 15.9473 17.2313 14.298 17.2313 12.7159C17.2313 10.4328 18.0138 8.29647 19.6236 6.68535L23.9338 2.37719C25.4659 0.843731 27.6048 0 29.9557 0C33.1167 0 36.4061 1.47488 38.9755 4.04556C43.6594 8.73084 44.3906 15.3366 40.6412 19.0853L36.3324 23.3941C34.7996 24.9269 32.6606 25.7706 30.3104 25.7706C28.6941 25.7693 27.05 25.3652 25.4824 24.6433L31.2845 18.8398ZM2.39495 23.9167L6.70114 19.6092C9.4278 16.8838 13.6596 16.5383 17.567 18.3456L12.3723 23.5382C12.1966 23.7133 12.0551 23.9101 11.9109 24.1042C11.7313 24.172 11.5733 24.2563 11.4601 24.3688L7.15459 28.6763C6.36878 29.4628 6.62677 32.0052 8.81968 34.1987C10.3472 35.725 12.0228 36.2706 13.0798 36.2706C13.4714 36.2706 14.0078 36.1988 14.3428 35.8651L18.6503 31.557C18.7628 31.4451 18.847 31.2885 18.9135 31.1101C19.109 30.9653 19.3051 30.8205 19.4802 30.6448L24.6729 25.4515C26.4801 29.3601 26.1352 33.5913 23.4092 36.3173L19.1024 40.6235C17.5696 42.1596 15.43 43.0013 13.0785 43C9.91613 43 6.6294 41.5284 4.05938 38.9564C1.38604 36.2837 0 32.9838 0 29.9465C0 27.6634 0.785816 25.5265 2.39495 23.9167Z" fill="#333333"/>
<path d="M31.1483 17.1341L18.5588 29.7222C17.1076 31.1748 14.7456 31.1748 13.2937 29.7222C11.8438 28.2711 11.8425 25.9103 13.2937 24.4585L25.8832 11.8696C27.3344 10.4178 29.6971 10.4191 31.1483 11.8696C32.5995 13.3215 32.5995 15.6822 31.1483 17.1341Z" fill="#333333"/>
</g>
<defs>
<clipPath id="clip0_2_20185">
<rect width="43.0342" height="43" fill="white"/>
</clipPath>
</defs>
</svg>
