<svg width="43" height="43" viewBox="0 0 43 43" fill="none" xmlns="http://www.w3.org/2000/svg">
<g clip-path="url(#clip0_2_20195)">
<path d="M38.399 0H4.601C3.38267 0 2.20733 0.4859 1.34733 1.34877C0.487333 2.21307 0 3.38553 0 4.60673V38.3933C0 39.6145 0.487333 40.7869 1.34733 41.6512C2.20733 42.5141 3.38267 43 4.601 43H17.7877V28.3814H11.739V21.5H17.7877V16.2554C17.7877 10.2899 21.328 6.99467 26.7747 6.99467C29.3833 6.99467 32.1067 7.45907 32.1067 7.45907V13.3142H29.0967C26.144 13.3142 25.2123 15.1503 25.2123 17.0323V21.5H31.82L30.7593 28.3814H25.2123V43H38.399C39.6173 43 40.7927 42.5141 41.6527 41.6512C42.5127 40.7869 43 39.6145 43 38.3933V4.60673C43 3.38553 42.5127 2.21307 41.6527 1.34877C40.7927 0.4859 39.6173 0 38.399 0Z" fill="#333333"/>
</g>
<defs>
<clipPath id="clip0_2_20195">
<rect width="43" height="43" fill="white"/>
</clipPath>
</defs>
</svg>
