<svg width="89" height="89" viewBox="0 0 89 89" fill="none" xmlns="http://www.w3.org/2000/svg">
<g clip-path="url(#clip0_2667_39799)">
<path d="M77.0189 44.4997C77.0189 62.4572 62.4572 77.0189 44.4997 77.0189C26.5422 77.0189 11.9805 62.4572 11.9805 44.4997C11.9805 26.5422 26.5422 11.9805 44.4997 11.9805C62.4572 11.9805 77.0189 26.5422 77.0189 44.4997Z" fill="#E3E2E3"/>
<path fill-rule="evenodd" clip-rule="evenodd" d="M60.0791 17.7373C61.1471 17.7373 62.0028 18.5862 62.0028 19.6542V66.345C62.0028 67.4062 61.1471 68.2619 60.0791 68.2619H35.9738C32.6671 68.2619 29.5726 66.879 27.3887 64.4349L20.8301 57.1985C19.1254 55.3364 18.2148 52.9471 18.2148 50.3935V19.6474C18.2696 18.5862 19.1254 17.7305 20.1865 17.7305H60.0791V17.7373Z" fill="#99288C"/>
<mask id="mask0_2667_39799" style="mask-type:luminance" maskUnits="userSpaceOnUse" x="18" y="17" width="44" height="52">
<path d="M60.0752 17.7373C61.1432 17.7373 61.9989 18.5862 61.9989 19.6542V66.345C61.9989 67.4062 61.1432 68.2619 60.0752 68.2619H35.9699C32.6632 68.2619 29.5687 66.879 27.3848 64.4349L20.8262 57.1985C19.1215 55.3364 18.2109 52.9471 18.2109 50.3935V19.6474C18.2657 18.5862 19.1215 17.7305 20.1826 17.7305H60.0752V17.7373Z" fill="white"/>
</mask>
<g mask="url(#mask0_2667_39799)">
<path d="M18.9453 56.1445L30.4469 67.6461V58.6434C30.4469 57.2125 29.3789 56.1445 27.948 56.1445H18.9453Z" fill="white"/>
</g>
<path d="M57.32 50.8327C52.1443 56.0153 43.751 56.0153 38.5753 50.8396C33.3927 45.6639 33.3927 37.2705 38.5684 32.0948C43.7441 26.9123 52.1375 26.9123 57.3132 32.0879C57.3132 32.0879 57.3132 32.0879 57.32 32.0948C62.4957 37.2636 62.5026 45.6502 57.3337 50.819C57.3337 50.819 57.3269 50.8259 57.32 50.8327Z" fill="#07809F" stroke="#2A3479" stroke-width="0.362846" stroke-miterlimit="10"/>
<path d="M59.5503 57.4319L73.7903 71.6582C74.9953 72.8631 76.9396 72.8631 78.1445 71.6582C79.3494 70.4533 79.3494 68.5089 78.1445 67.304L62.2409 51.3867C61.0291 53.0572 59.5572 54.5223 57.8867 55.7409L59.5435 57.4319H59.5503Z" fill="#07809F" stroke="#07809F" stroke-width="0.362846" stroke-miterlimit="10"/>
<path d="M35.2735 28.8491C28.263 35.8528 28.263 47.2105 35.2735 54.221C42.2771 61.2314 53.6349 61.2314 60.6453 54.221C67.6558 47.2174 67.6558 35.8596 60.6453 28.8491C53.6349 21.8524 42.2908 21.8524 35.2803 28.8491H35.2735ZM57.3181 50.839C52.1424 56.0215 43.749 56.0215 38.5733 50.8458C33.3908 45.6701 33.3908 37.2768 38.5665 32.1011C43.7422 26.9185 52.1356 26.9185 57.3112 32.0942C57.3112 32.0942 57.3112 32.0942 57.3181 32.1011C62.4938 37.2699 62.5006 45.6564 57.3318 50.8253C57.3318 50.8253 57.3249 50.8321 57.3181 50.839Z" fill="#07809F" stroke="#07809F" stroke-width="2.73846" stroke-miterlimit="10"/>
<path d="M35.447 47.238C35.8988 47.8062 36.7203 47.9226 37.316 47.505C37.8842 47.0531 38.0006 46.2316 37.583 45.636C34.9746 42.1513 35.6797 37.2152 39.1507 34.5931C39.719 34.1413 39.8353 33.3197 39.4177 32.7241C38.9659 32.1559 38.1443 32.0395 37.5487 32.4571C32.8865 35.9624 31.9486 42.5757 35.447 47.238Z" fill="#E3E2E3"/>
<path d="M50.832 33.1874C52.2536 33.1874 53.4061 32.0349 53.4061 30.6132C53.4061 29.1916 52.2536 28.0391 50.832 28.0391C49.4103 28.0391 48.2578 29.1916 48.2578 30.6132C48.2578 32.0349 49.4103 33.1874 50.832 33.1874Z" fill="white"/>
<path d="M54.9389 49.2076C54.7061 50.2756 54.1379 51.2478 53.3163 51.9666C51.3378 53.6919 49.5509 54.5408 47.9558 54.4997C46.3538 54.4586 45.5802 53.6029 45.6212 51.9256C45.6349 51.3573 45.7855 50.4262 46.0731 49.1392L47.367 43.3747C47.7162 41.7385 47.901 40.6499 47.9147 40.1023C47.9352 39.1712 47.5929 38.6919 46.8672 38.6783C46.5044 38.6714 45.943 38.7536 45.1694 38.9316C44.7107 39.0342 44.2999 38.6235 44.4026 38.1648L44.5875 37.3569C44.6422 37.1036 44.8545 36.9051 45.1146 36.864L51.5432 35.8713C52.0498 35.796 52.4674 36.2616 52.3373 36.7545L51.2145 40.9991L49.3729 49.1871C49.2839 49.5705 49.2155 49.9128 49.1539 50.214C49.0032 50.9397 49.6536 51.5969 50.3793 51.4326C52.2209 51.0287 54.9457 49.2076 54.9457 49.2076H54.9389Z" fill="white"/>
<path d="M61.2909 54.8006C53.9244 62.1739 41.9779 62.1808 34.6046 54.8143C27.2313 47.4479 27.2244 35.5013 34.5909 28.128C41.9573 20.7547 53.9039 20.7479 61.2772 28.1143C61.2772 28.1143 61.284 28.1212 61.2909 28.128C68.6573 35.4876 68.6642 47.4205 61.3046 54.7869L61.2909 54.8006Z" stroke="#E3E2E3" stroke-width="1.36923" stroke-miterlimit="10"/>
</g>
<defs>
<clipPath id="clip0_2667_39799">
<rect width="89" height="89" fill="white"/>
</clipPath>
</defs>
</svg>
