<svg width="109" height="120" viewBox="0 0 109 120" fill="none" xmlns="http://www.w3.org/2000/svg">
<ellipse cx="64.4387" cy="75.39" rx="3.04412" ry="3.03059" fill="#EF426F"/>
<ellipse cx="52.2629" cy="75.39" rx="3.04412" ry="3.03059" fill="#EF426F"/>
<ellipse cx="76.7472" cy="75.39" rx="3.04412" ry="3.03059" fill="#EF426F"/>
<ellipse cx="64.4387" cy="87.7767" rx="3.04412" ry="3.03059" fill="#EF426F"/>
<ellipse cx="52.2629" cy="87.7767" rx="3.04412" ry="3.03059" fill="#EF426F"/>
<ellipse cx="76.7472" cy="87.7767" rx="3.04412" ry="3.03059" fill="#EF426F"/>
<ellipse cx="64.4387" cy="100.163" rx="3.04412" ry="3.03059" fill="#EF426F"/>
<ellipse cx="52.2629" cy="100.163" rx="3.04412" ry="3.03059" fill="#EF426F"/>
<ellipse cx="76.7472" cy="100.163" rx="3.04412" ry="3.03059" fill="#EF426F"/>
<path fill-rule="evenodd" clip-rule="evenodd" d="M53.3325 67.0579H75.4951C79.3208 67.0579 82.355 64.0514 82.355 60.2605V55.0318C82.355 51.2409 79.3208 48.2344 75.4951 48.2344H53.3325C49.5068 48.2344 46.4727 51.2409 46.4727 55.0318V60.2605C46.4727 64.0514 49.5068 67.0579 53.3325 67.0579ZM51.7484 55.0328C51.7484 54.1177 52.5399 53.4642 53.3314 53.4642H75.4941C76.4175 53.4642 77.0771 54.2485 77.0771 55.0328V60.2615C77.0771 61.1766 76.4175 61.8302 75.4941 61.8302H53.3314C52.408 61.8302 51.7484 61.0459 51.7484 60.2615V55.0328Z" fill="#EF426F"/>
<path fill-rule="evenodd" clip-rule="evenodd" d="M95.9897 0.131723L94.9363 0C94.4096 0 93.8829 0 93.3562 0.131723H45.8222C39.2386 0.131723 33.84 5.53238 33.84 12.1186V33.4577H11.7189C5.26693 33.4577 0 38.7267 0 45.1811V108.277C0 114.731 5.26693 120 11.7189 120H87.826C94.2779 120 99.5449 114.731 99.5449 108.277V45.3128C99.5449 39.2536 94.9363 34.2481 89.011 33.5895V22.2613H103.495C106.129 22.2613 108.235 20.1537 108.235 17.5192V12.382C108.235 5.66411 102.837 0.131723 95.9897 0.131723ZM38.9752 12.1177C38.9752 8.42945 42.0037 5.39982 45.6905 5.39982H85.1925C84.1391 7.11222 83.4807 9.2198 83.4807 11.4591V33.5886H38.9752V12.1177ZM26.9935 108.409V45.3132C26.9935 42.2836 24.7551 39.7809 21.8583 39.1222H11.7194C8.29593 39.1222 5.53079 41.8884 5.53079 45.3132V108.409C5.53079 111.834 8.29593 114.6 11.7194 114.6H21.9899C24.8867 113.941 26.9935 111.438 26.9935 108.409ZM94.014 45.3132V108.409C94.014 111.834 91.2489 114.6 87.8254 114.6H30.4159C31.601 112.756 32.2593 110.648 32.2593 108.409V45.3132C32.2593 43.0739 31.601 40.9664 30.4159 39.1222H33.8394V39.254H88.7471C91.6439 39.5174 94.014 42.1519 94.014 45.3132ZM89.012 11.4591V16.9915H102.969V12.3812C102.969 8.56118 99.8092 5.39982 95.9906 5.39982V5.53154H94.9372C91.6454 5.53154 89.012 8.16601 89.012 11.4591Z" fill="url(#paint0_linear_4215_12529)"/>
<defs>
<linearGradient id="paint0_linear_4215_12529" x1="-0.117005" y1="120.115" x2="108.235" y2="120.115" gradientUnits="userSpaceOnUse">
<stop stop-color="#AAD8CE"/>
<stop offset="1" stop-color="#56BAAC"/>
</linearGradient>
</defs>
</svg>
