<svg width="104" height="104" viewBox="0 0 104 104" fill="none" xmlns="http://www.w3.org/2000/svg">
<mask id="mask0_4109_12736" style="mask-type:luminance" maskUnits="userSpaceOnUse" x="2" y="2" width="100" height="100">
<path fill-rule="evenodd" clip-rule="evenodd" d="M52.005 2.10938C69.2756 2.10938 85.9928 6.33938 100.348 14.3428C101.396 14.9227 101.993 16.0554 101.91 17.2951C99.2783 53.5713 81.2015 85.0443 53.5531 101.487C53.1092 101.765 52.5825 101.912 52.005 101.912C51.4195 101.912 50.8914 101.764 50.4369 101.474C22.8365 85.0593 4.75046 53.5889 2.07812 17.3005L2.14898 18.2165L2.15016 16.3644C2.32728 15.6064 2.78602 14.9246 3.44321 14.4747L3.64624 14.3469C18.0106 6.33938 34.7304 2.10938 52.005 2.10938ZM52.005 8.28096C36.4429 8.28096 21.3553 11.9229 8.3372 18.818C11.2702 51.4319 27.5583 79.9215 52.005 95.198C76.4477 79.9201 92.7345 51.4306 95.6661 18.818C82.6306 11.9229 67.5457 8.28096 52.005 8.28096Z" fill="white"/>
</mask>
<g mask="url(#mask0_4109_12736)">
<path fill-rule="evenodd" clip-rule="evenodd" d="M2.14844 101.912H101.917V2.10938H2.14844V101.912Z" fill="url(#paint0_linear_4109_12736)"/>
</g>
<path fill-rule="evenodd" clip-rule="evenodd" d="M43.3992 25.5418V34.9936H34.0734C33.1202 34.9936 32.3516 35.7741 32.3516 36.7211V50.7254C32.3516 51.6739 33.1202 52.4529 34.0734 52.4529H43.3992V61.9047C43.3992 62.8532 44.1679 63.6322 45.1037 63.6322H58.9199C59.8557 63.6322 60.6203 62.8532 60.6203 61.9047V52.4529H69.9515C70.8872 52.4529 71.6519 51.6739 71.6519 50.7254V36.7211C71.6519 35.7741 70.8872 34.9936 69.9515 34.9936H60.6203V25.5418C60.6203 24.5758 59.8557 23.8008 58.9199 23.8008H45.1037C44.1679 23.8008 43.3992 24.5758 43.3992 25.5418Z" fill="#EF426F"/>
<defs>
<linearGradient id="paint0_linear_4109_12736" x1="2.06823" y1="101.952" x2="101.917" y2="101.952" gradientUnits="userSpaceOnUse">
<stop stop-color="#AAD8CE"/>
<stop offset="1" stop-color="#56BAAC"/>
</linearGradient>
</defs>
</svg>
