<svg width="60" height="60" viewBox="0 0 60 60" fill="none" xmlns="http://www.w3.org/2000/svg">
<rect width="60" height="60" fill="white"/>
<mask id="path-1-inside-1_1522_10228" fill="white">
<path d="M28.5938 13.5328L27.1875 11.895L26.6016 11.2651C23.5547 7.61167 18.9844 5.84794 14.5312 6.7298C8.20312 7.98961 3.75 13.7847 3.75 20.5877V21.0916C3.75 24.1151 4.64844 26.8867 6.17188 29.2803C6.28906 29.1544 6.32812 29.2803 6.5625 29.2803H14.2969C15.1172 29.2803 15.8203 28.9024 16.0547 28.1465L19.8047 18.446C20.0391 17.6901 20.7422 17.3122 21.4453 17.1862C22.2656 17.1862 22.9688 17.6901 23.2031 18.446L30 34.6975L35.7422 22.3514C36.0938 21.7215 36.6797 21.3436 37.5 21.3436C38.2031 21.3436 38.7891 21.7215 39.1406 22.3514L41.8359 28.2725C42.1875 28.9024 42.7734 29.2803 43.4766 29.2803H53.4375C53.5547 29.2803 53.6797 29.2803 53.7969 29.2803C55.3203 26.8867 56.25 24.1151 56.25 21.0916V20.5877C56.25 13.7847 51.6797 7.98961 45.4688 6.7298C40.8984 5.84794 36.3281 7.61167 33.2812 11.2651L32.8125 11.895L31.4062 13.5328C30.9375 13.9107 30.4688 14.1627 30 14.1627C29.4141 14.1627 28.9453 13.9107 28.5938 13.5328ZM50.2734 33.3117H43.4766C41.3672 33.3117 39.375 32.0519 38.4375 30.0362L37.5 27.7686L31.6406 40.3666C31.2891 40.9965 30.5859 41.5005 29.8828 41.3745C29.1797 41.3745 28.4766 40.9965 28.2422 40.2407L21.5625 24.3671L19.4531 29.6583C18.6328 31.9259 16.6406 33.3117 14.2969 33.3117H9.60938H4.21875C1.52344 29.9102 0 25.6269 0 21.0916V20.5877C0 11.895 5.74219 4.33617 13.8281 2.8244C18.6328 1.81656 23.5547 3.20234 27.3047 6.35186C28.0078 6.98176 28.8281 7.73765 29.4141 8.61951L30 9.12344L30.4688 8.61951C30.9375 7.98961 31.4062 7.48569 31.9922 6.85578C32.2266 6.7298 32.4609 6.47784 32.6953 6.35186C36.4453 3.20234 41.25 1.81656 46.0547 2.8244C54.1406 4.33617 60 11.895 60 20.5877V21.0916C60 25.6269 58.3594 29.9102 55.6641 33.3117H50.2734ZM8.08594 37.3431H13.5938L29.6484 53.3426C29.6484 53.4686 29.7656 53.4686 30 53.4686C30.1172 53.4686 30.2344 53.4686 30.3516 53.3426L46.2891 37.3431H51.7969L32.8125 56.3662C32.6953 56.4922 32.6953 56.4922 32.5781 56.6181C31.7578 57.248 30.9375 57.5 30 57.5C28.8281 57.5 27.7734 57.1221 27.0703 56.3662L8.08594 37.3431Z"/>
</mask>
<path d="M28.5938 13.5328L27.1875 11.895L26.6016 11.2651C23.5547 7.61167 18.9844 5.84794 14.5312 6.7298C8.20312 7.98961 3.75 13.7847 3.75 20.5877V21.0916C3.75 24.1151 4.64844 26.8867 6.17188 29.2803C6.28906 29.1544 6.32812 29.2803 6.5625 29.2803H14.2969C15.1172 29.2803 15.8203 28.9024 16.0547 28.1465L19.8047 18.446C20.0391 17.6901 20.7422 17.3122 21.4453 17.1862C22.2656 17.1862 22.9688 17.6901 23.2031 18.446L30 34.6975L35.7422 22.3514C36.0938 21.7215 36.6797 21.3436 37.5 21.3436C38.2031 21.3436 38.7891 21.7215 39.1406 22.3514L41.8359 28.2725C42.1875 28.9024 42.7734 29.2803 43.4766 29.2803H53.4375C53.5547 29.2803 53.6797 29.2803 53.7969 29.2803C55.3203 26.8867 56.25 24.1151 56.25 21.0916V20.5877C56.25 13.7847 51.6797 7.98961 45.4688 6.7298C40.8984 5.84794 36.3281 7.61167 33.2812 11.2651L32.8125 11.895L31.4062 13.5328C30.9375 13.9107 30.4688 14.1627 30 14.1627C29.4141 14.1627 28.9453 13.9107 28.5938 13.5328ZM50.2734 33.3117H43.4766C41.3672 33.3117 39.375 32.0519 38.4375 30.0362L37.5 27.7686L31.6406 40.3666C31.2891 40.9965 30.5859 41.5005 29.8828 41.3745C29.1797 41.3745 28.4766 40.9965 28.2422 40.2407L21.5625 24.3671L19.4531 29.6583C18.6328 31.9259 16.6406 33.3117 14.2969 33.3117H9.60938H4.21875C1.52344 29.9102 0 25.6269 0 21.0916V20.5877C0 11.895 5.74219 4.33617 13.8281 2.8244C18.6328 1.81656 23.5547 3.20234 27.3047 6.35186C28.0078 6.98176 28.8281 7.73765 29.4141 8.61951L30 9.12344L30.4688 8.61951C30.9375 7.98961 31.4062 7.48569 31.9922 6.85578C32.2266 6.7298 32.4609 6.47784 32.6953 6.35186C36.4453 3.20234 41.25 1.81656 46.0547 2.8244C54.1406 4.33617 60 11.895 60 20.5877V21.0916C60 25.6269 58.3594 29.9102 55.6641 33.3117H50.2734ZM8.08594 37.3431H13.5938L29.6484 53.3426C29.6484 53.4686 29.7656 53.4686 30 53.4686C30.1172 53.4686 30.2344 53.4686 30.3516 53.3426L46.2891 37.3431H51.7969L32.8125 56.3662C32.6953 56.4922 32.6953 56.4922 32.5781 56.6181C31.7578 57.248 30.9375 57.5 30 57.5C28.8281 57.5 27.7734 57.1221 27.0703 56.3662L8.08594 37.3431Z" fill="#E1242A"/>
<path d="M28.5938 13.5328L27.9868 14.0539C27.9937 14.062 28.0008 14.0699 28.008 14.0776L28.5938 13.5328ZM27.1875 11.895L27.7945 11.3738C27.7875 11.3658 27.7805 11.3579 27.7733 11.3501L27.1875 11.895ZM26.6016 11.2651L25.9872 11.7775C25.9964 11.7886 26.006 11.7994 26.0158 11.81L26.6016 11.2651ZM14.5312 6.7298L14.3758 5.94504L14.3751 5.9452L14.5312 6.7298ZM6.17188 29.2803L5.49697 29.7099C5.62998 29.9189 5.8523 30.0544 6.09899 30.077C6.34568 30.0996 6.58891 30.0066 6.75763 29.8252L6.17188 29.2803ZM16.0547 28.1465L15.3085 27.8581C15.3019 27.875 15.296 27.8922 15.2906 27.9096L16.0547 28.1465ZM19.8047 18.446L20.5509 18.7345C20.5574 18.7175 20.5634 18.7003 20.5688 18.6829L19.8047 18.446ZM21.4453 17.1862V16.3862C21.398 16.3862 21.3508 16.3904 21.3042 16.3987L21.4453 17.1862ZM23.2031 18.446L22.439 18.6829C22.4466 18.7072 22.4553 18.7312 22.4651 18.7547L23.2031 18.446ZM30 34.6975L29.2619 35.0062C29.3842 35.2985 29.6675 35.4911 29.9843 35.4974C30.3011 35.5036 30.5917 35.3222 30.7254 35.0349L30 34.6975ZM35.7422 22.3514L35.0436 21.9615C35.034 21.9787 35.0251 21.9962 35.0168 22.014L35.7422 22.3514ZM39.1406 22.3514L39.8687 22.02C39.8597 22.0001 39.8498 21.9806 39.8392 21.9615L39.1406 22.3514ZM41.8359 28.2725L41.1078 28.6039C41.1169 28.6238 41.1267 28.6433 41.1374 28.6624L41.8359 28.2725ZM53.7969 29.2803V30.0803C54.0704 30.0803 54.3249 29.9406 54.4718 29.7099L53.7969 29.2803ZM45.4688 6.7298L45.6278 5.94573L45.6203 5.94429L45.4688 6.7298ZM33.2812 11.2651L32.6669 10.7527C32.6574 10.7641 32.6483 10.7757 32.6395 10.7875L33.2812 11.2651ZM32.8125 11.895L33.4195 12.4162C33.4316 12.4021 33.4432 12.3875 33.4543 12.3726L32.8125 11.895ZM31.4062 13.5328L31.9084 14.1555C31.9463 14.1249 31.9814 14.0909 32.0132 14.0539L31.4062 13.5328ZM38.4375 30.0362L37.6982 30.3419C37.7026 30.3525 37.7072 30.3631 37.7121 30.3736L38.4375 30.0362ZM37.5 27.7686L38.2393 27.4629C38.118 27.1695 37.8347 26.9756 37.5173 26.9688C37.1999 26.9619 36.9085 27.1433 36.7746 27.4312L37.5 27.7686ZM31.6406 40.3666L32.3392 40.7565C32.3488 40.7394 32.3577 40.7218 32.366 40.704L31.6406 40.3666ZM29.8828 41.3745L30.0239 40.587C29.9773 40.5787 29.9301 40.5745 29.8828 40.5745V41.3745ZM28.2422 40.2407L29.0063 40.0037C28.9986 39.9789 28.9897 39.9544 28.9796 39.9304L28.2422 40.2407ZM21.5625 24.3671L22.2999 24.0568C22.1739 23.7575 21.8796 23.5641 21.5549 23.5671C21.2302 23.5702 20.9396 23.7692 20.8194 24.0708L21.5625 24.3671ZM19.4531 29.6583L18.71 29.362C18.7068 29.37 18.7038 29.3781 18.7008 29.3861L19.4531 29.6583ZM4.21875 33.3117L3.59174 33.8086C3.74348 34.0001 3.97442 34.1117 4.21875 34.1117V33.3117ZM13.8281 2.8244L13.9751 3.61078C13.9809 3.6097 13.9866 3.60856 13.9924 3.60736L13.8281 2.8244ZM27.3047 6.35186L27.8385 5.756C27.8322 5.75032 27.8257 5.74474 27.8192 5.73926L27.3047 6.35186ZM29.4141 8.61951L28.7477 9.06224C28.7882 9.12321 28.8369 9.17832 28.8924 9.22605L29.4141 8.61951ZM30 9.12344L29.4784 9.72998C29.8041 10.0102 30.2931 9.98294 30.5858 9.66831L30 9.12344ZM30.4688 8.61951L31.0545 9.16439C31.0744 9.143 31.0931 9.12054 31.1105 9.09711L30.4688 8.61951ZM31.9922 6.85578L31.6134 6.15113C31.5361 6.19268 31.4662 6.24666 31.4064 6.31091L31.9922 6.85578ZM32.6953 6.35186L33.0741 7.05652C33.1224 7.03056 33.1678 6.99972 33.2098 6.96446L32.6953 6.35186ZM46.0547 2.8244L45.8905 3.60736C45.8962 3.60856 45.9019 3.6097 45.9077 3.61078L46.0547 2.8244ZM55.6641 33.3117V34.1117C55.9084 34.1117 56.1393 34.0001 56.2911 33.8086L55.6641 33.3117ZM8.08594 37.3431V36.5431C7.76252 36.5431 7.47091 36.7378 7.34699 37.0366C7.22307 37.3353 7.29122 37.6793 7.51968 37.9082L8.08594 37.3431ZM13.5938 37.3431L14.1585 36.7764C14.0085 36.627 13.8054 36.5431 13.5938 36.5431V37.3431ZM29.6484 53.3426H30.4484C30.4484 53.13 30.3638 52.9261 30.2131 52.776L29.6484 53.3426ZM30.3516 53.3426L29.7848 52.7781C29.7783 52.7845 29.772 52.7911 29.7658 52.7978L30.3516 53.3426ZM46.2891 37.3431V36.5431C46.0764 36.5431 45.8724 36.6278 45.7223 36.7785L46.2891 37.3431ZM51.7969 37.3431L52.3631 37.9082C52.5916 37.6793 52.6597 37.3353 52.5358 37.0366C52.4119 36.7378 52.1203 36.5431 51.7969 36.5431V37.3431ZM32.8125 56.3662L32.2462 55.8011C32.2396 55.8077 32.2331 55.8144 32.2267 55.8213L32.8125 56.3662ZM32.5781 56.6181L33.0654 57.2527C33.1006 57.2256 33.1336 57.1956 33.1639 57.163L32.5781 56.6181ZM27.0703 56.3662L27.6561 55.8213C27.6497 55.8144 27.6432 55.8077 27.6366 55.8011L27.0703 56.3662ZM29.2007 13.0116L27.7945 11.3738L26.5805 12.4162L27.9868 14.0539L29.2007 13.0116ZM27.7733 11.3501L27.1873 10.7202L26.0158 11.81L26.6017 12.4399L27.7733 11.3501ZM27.2159 10.7527C23.9992 6.89564 19.1421 5.00117 14.3758 5.94504L14.6867 7.51456C18.8267 6.6947 23.1101 8.3277 25.9872 11.7775L27.2159 10.7527ZM14.3751 5.9452C7.63578 7.28686 2.95 13.442 2.95 20.5877H4.55C4.55 14.1274 8.77047 8.69236 14.6874 7.51441L14.3751 5.9452ZM2.95 20.5877V21.0916H4.55V20.5877H2.95ZM2.95 21.0916C2.95 24.279 3.89837 27.1981 5.49697 29.7099L6.84678 28.8508C5.39851 26.5753 4.55 23.9512 4.55 21.0916H2.95ZM6.75763 29.8252C6.73303 29.8517 6.62893 29.9573 6.44202 30.0037C6.2552 30.05 6.10996 30.0042 6.09817 30.0008C6.09573 30.0001 6.08653 29.9972 6.11804 30.0075C6.14021 30.0147 6.17656 30.0263 6.2207 30.0376C6.31458 30.0617 6.42795 30.0803 6.5625 30.0803V28.4803C6.59391 28.4803 6.68232 28.5047 6.54831 28.4654C6.48282 28.4462 6.29119 28.3926 6.05676 28.4507C5.82224 28.5089 5.66932 28.646 5.58612 28.7355L6.75763 29.8252ZM6.5625 30.0803H14.2969V28.4803H6.5625V30.0803ZM14.2969 30.0803C15.35 30.0803 16.4495 29.5745 16.8188 28.3834L15.2906 27.9096C15.1911 28.2303 14.8844 28.4803 14.2969 28.4803V30.0803ZM16.8009 28.435L20.5509 18.7345L19.0585 18.1575L15.3085 27.8581L16.8009 28.435ZM20.5688 18.6829C20.6766 18.3353 21.0249 18.0743 21.5864 17.9737L21.3042 16.3987C20.4595 16.5501 19.4015 17.045 19.0406 18.2091L20.5688 18.6829ZM21.4453 17.9862C21.9327 17.9862 22.3136 18.2785 22.439 18.6829L23.9672 18.2091C23.6239 17.1018 22.5985 16.3862 21.4453 16.3862V17.9862ZM22.4651 18.7547L29.2619 35.0062L30.7381 34.3888L23.9412 18.1373L22.4651 18.7547ZM30.7254 35.0349L36.4676 22.6888L35.0168 22.014L29.2746 34.3601L30.7254 35.0349ZM36.4408 22.7413C36.6529 22.3612 36.9735 22.1436 37.5 22.1436V20.5436C36.3859 20.5436 35.5346 21.0818 35.0436 21.9615L36.4408 22.7413ZM37.5 22.1436C37.8819 22.1436 38.2159 22.3361 38.4421 22.7413L39.8392 21.9615C39.3622 21.1069 38.5244 20.5436 37.5 20.5436V22.1436ZM38.4125 22.6828L41.1078 28.6039L42.564 27.9411L39.8687 22.02L38.4125 22.6828ZM41.1374 28.6624C41.6143 29.517 42.4522 30.0803 43.4766 30.0803V28.4803C43.0947 28.4803 42.7607 28.2878 42.5345 27.8826L41.1374 28.6624ZM43.4766 30.0803H53.4375V28.4803H43.4766V30.0803ZM53.4375 30.0803C53.4961 30.0803 53.5566 30.0803 53.6172 30.0803C53.6777 30.0803 53.7383 30.0803 53.7969 30.0803V28.4803C53.7383 28.4803 53.6777 28.4803 53.6172 28.4803C53.5566 28.4803 53.4961 28.4803 53.4375 28.4803V30.0803ZM54.4718 29.7099C56.0671 27.2033 57.05 24.2846 57.05 21.0916H55.45C55.45 23.9457 54.5735 26.5702 53.122 28.8508L54.4718 29.7099ZM57.05 21.0916V20.5877H55.45V21.0916H57.05ZM57.05 20.5877C57.05 13.4352 52.2412 7.28722 45.6278 5.94577L45.3097 7.51384C51.1181 8.692 55.45 14.1342 55.45 20.5877H57.05ZM45.6203 5.94429C40.7436 5.00331 35.8866 6.89201 32.6669 10.7527L33.8956 11.7775C36.7696 8.33133 41.0533 6.69257 45.3172 7.51531L45.6203 5.94429ZM32.6395 10.7875L32.1707 11.4174L33.4543 12.3726L33.923 11.7427L32.6395 10.7875ZM32.2055 11.3738L30.7993 13.0116L32.0132 14.0539L33.4195 12.4162L32.2055 11.3738ZM30.9041 12.91C30.4768 13.2545 30.1888 13.3627 30 13.3627V14.9627C30.7487 14.9627 31.3982 14.5669 31.9084 14.1555L30.9041 12.91ZM30 13.3627C29.6687 13.3627 29.4033 13.2285 29.1795 12.9879L28.008 14.0776C28.4873 14.5929 29.1594 14.9627 30 14.9627V13.3627ZM50.2734 32.5117H43.4766V34.1117H50.2734V32.5117ZM43.4766 32.5117C41.6849 32.5117 39.9719 31.4383 39.1629 29.6988L37.7121 30.3736C38.7781 32.6655 41.0495 34.1117 43.4766 34.1117V32.5117ZM39.1768 29.7306L38.2393 27.4629L36.7607 28.0742L37.6982 30.3419L39.1768 29.7306ZM36.7746 27.4312L30.9152 40.0293L32.366 40.704L38.2254 28.1059L36.7746 27.4312ZM30.9421 39.9768C30.6824 40.4421 30.2618 40.6296 30.0239 40.587L29.7417 42.1619C30.9101 42.3713 31.8958 41.551 32.3392 40.7565L30.9421 39.9768ZM29.8828 40.5745C29.4444 40.5745 29.1135 40.3494 29.0063 40.0037L27.4781 40.4776C27.8396 41.6436 28.915 42.1745 29.8828 42.1745V40.5745ZM28.9796 39.9304L22.2999 24.0568L20.8251 24.6774L27.5048 40.5509L28.9796 39.9304ZM20.8194 24.0708L18.71 29.362L20.1962 29.9545L22.3056 24.6633L20.8194 24.0708ZM18.7008 29.3861C17.9942 31.3397 16.3009 32.5117 14.2969 32.5117V34.1117C16.9804 34.1117 19.2715 32.5122 20.2054 29.9304L18.7008 29.3861ZM14.2969 32.5117H9.60938V34.1117H14.2969V32.5117ZM9.60938 32.5117H4.21875V34.1117H9.60938V32.5117ZM4.84576 32.8149C2.26262 29.555 0.8 25.4468 0.8 21.0916H-0.8C-0.8 25.807 0.784253 30.2655 3.59174 33.8086L4.84576 32.8149ZM0.8 21.0916V20.5877H-0.8V21.0916H0.8ZM0.8 20.5877C0.8 12.2306 6.31448 5.04303 13.9751 3.61078L13.6811 2.03803C5.16989 3.62931 -0.8 11.5594 -0.8 20.5877H0.8ZM13.9924 3.60736C18.5394 2.65355 23.2144 3.96127 26.7902 6.96446L27.8192 5.73926C23.895 2.44342 18.7262 0.979563 13.6639 2.04144L13.9924 3.60736ZM26.7709 6.94772C27.4785 7.58166 28.2254 8.27609 28.7477 9.06224L30.0804 8.17678C29.4309 7.19921 28.5371 6.38187 27.8385 5.756L26.7709 6.94772ZM28.8924 9.22605L29.4784 9.72998L30.5216 8.5169L29.9357 8.01297L28.8924 9.22605ZM30.5858 9.66831L31.0545 9.16439L29.883 8.07464L29.4142 8.57856L30.5858 9.66831ZM31.1105 9.09711C31.5491 8.50778 31.9882 8.0347 32.5779 7.40066L31.4064 6.31091C30.8243 6.93667 30.3259 7.47144 29.827 8.14191L31.1105 9.09711ZM32.371 7.56044C32.5664 7.45536 32.7439 7.30887 32.8459 7.22661C32.9782 7.1199 33.0352 7.07742 33.0741 7.05652L32.3165 5.64721C32.1211 5.75228 31.9436 5.89877 31.8416 5.98104C31.7093 6.08774 31.6523 6.13022 31.6134 6.15113L32.371 7.56044ZM33.2098 6.96446C36.7886 3.95873 41.347 2.65431 45.8905 3.60736L46.2189 2.04144C41.153 0.978807 36.102 2.44596 32.1808 5.73926L33.2098 6.96446ZM45.9077 3.61078C53.5759 5.04445 59.2 12.2389 59.2 20.5877H60.8C60.8 11.5511 54.7054 3.62789 46.2017 2.03803L45.9077 3.61078ZM59.2 20.5877V21.0916H60.8V20.5877H59.2ZM59.2 21.0916C59.2 25.4328 57.6292 29.5436 55.037 32.8149L56.2911 33.8086C59.0896 30.2769 60.8 25.821 60.8 21.0916H59.2ZM55.6641 32.5117H50.2734V34.1117H55.6641V32.5117ZM8.08594 38.1431H13.5938V36.5431H8.08594V38.1431ZM13.029 37.9098L29.0837 53.9093L30.2131 52.776L14.1585 36.7764L13.029 37.9098ZM28.8484 53.3426C28.8484 53.4989 28.8867 53.7231 29.0539 53.9253C29.2135 54.1183 29.4111 54.1939 29.5287 54.2255C29.6434 54.2563 29.7495 54.2631 29.8104 54.2659C29.876 54.2688 29.947 54.2686 30 54.2686V52.6686C29.9358 52.6686 29.9043 52.6685 29.882 52.6675C29.855 52.6662 29.8879 52.6652 29.944 52.6803C30.003 52.6961 30.1566 52.7481 30.2869 52.9057C30.4248 53.0724 30.4484 53.2494 30.4484 53.3426H28.8484ZM30 54.2686C30.0429 54.2686 30.2067 54.273 30.3834 54.2255C30.5889 54.1702 30.7779 54.0589 30.9373 53.8875L29.7658 52.7978C29.7826 52.7797 29.8102 52.7548 29.8497 52.7309C29.8898 52.7067 29.9309 52.6903 29.9681 52.6803C30.0034 52.6708 30.0285 52.6688 30.0343 52.6685C30.0362 52.6683 30.0337 52.6686 30 52.6686V54.2686ZM30.9183 53.9072L46.8558 37.9077L45.7223 36.7785L29.7848 52.7781L30.9183 53.9072ZM46.2891 38.1431H51.7969V36.5431H46.2891V38.1431ZM51.2306 36.778L32.2462 55.8011L33.3788 56.9313L52.3631 37.9082L51.2306 36.778ZM32.2267 55.8213C32.1681 55.8843 32.1389 55.9158 32.1096 55.9473C32.0803 55.9788 32.051 56.0103 31.9924 56.0733L33.1639 57.163C33.2225 57.1 33.2518 57.0685 33.2811 57.037C33.3104 57.0055 33.3397 56.974 33.3983 56.9111L32.2267 55.8213ZM32.0909 55.9836C31.4151 56.5025 30.7674 56.7 30 56.7V58.3C31.1076 58.3 32.1005 57.9935 33.0654 57.2527L32.0909 55.9836ZM30 56.7C28.9913 56.7 28.1718 56.3758 27.6561 55.8213L26.4846 56.9111C27.375 57.8684 28.665 58.3 30 58.3V56.7ZM27.6366 55.8011L8.6522 36.778L7.51968 37.9082L26.5041 56.9313L27.6366 55.8011Z" fill="white" mask="url(#path-1-inside-1_1522_10228)"/>
</svg>
