<svg width="118" height="101" viewBox="0 0 118 101" fill="none" xmlns="http://www.w3.org/2000/svg">
<path fill-rule="evenodd" clip-rule="evenodd" d="M70.2319 72.4884C73.5138 77.8262 82.1307 84.325 84.188 85.8344C86.2468 84.325 94.8637 77.8262 98.1442 72.4898C98.1485 72.4826 98.1514 72.4768 98.1557 72.471C98.8772 71.2797 99.2603 69.9106 99.2603 68.5096C99.2603 64.2951 95.8309 60.8672 91.6165 60.8672C88.8116 60.8672 86.2367 62.3997 84.895 64.8677C84.7548 65.1265 84.483 65.2884 84.188 65.2884C83.8945 65.2884 83.6227 65.1265 83.481 64.8677C82.1408 62.3997 79.5659 60.8672 76.761 60.8672C72.5466 60.8672 69.1172 64.2966 69.1172 68.5096C69.1172 69.9106 69.4989 71.2797 70.2218 72.471C70.2247 72.4768 70.229 72.4826 70.2319 72.4884Z" fill="#DD4167"/>
<mask id="mask0_2669_16591" style="mask-type:luminance" maskUnits="userSpaceOnUse" x="29" y="0" width="37" height="37">
<path fill-rule="evenodd" clip-rule="evenodd" d="M47.5376 6.1706C40.7916 6.1706 35.3034 11.6602 35.3034 18.4092C35.3034 25.1537 40.7916 30.6419 47.5376 30.6419C54.2851 30.6419 59.7747 25.1537 59.7747 18.4092C59.7747 11.6602 54.2851 6.1706 47.5376 6.1706ZM47.5376 36.8125C37.3897 36.8125 29.1328 28.5571 29.1328 18.4092C29.1328 8.25831 37.3897 0 47.5376 0C57.6885 0 65.9453 8.25831 65.9453 18.4092C65.9453 28.5571 57.6885 36.8125 47.5376 36.8125Z" fill="white"/>
</mask>
<g mask="url(#mask0_2669_16591)">
<path fill-rule="evenodd" clip-rule="evenodd" d="M47.5376 6.1706C40.7916 6.1706 35.3034 11.6602 35.3034 18.4092C35.3034 25.1537 40.7916 30.6419 47.5376 30.6419C54.2851 30.6419 59.7747 25.1537 59.7747 18.4092C59.7747 11.6602 54.2851 6.1706 47.5376 6.1706ZM47.5376 36.8125C37.3897 36.8125 29.1328 28.5571 29.1328 18.4092C29.1328 8.25831 37.3897 0 47.5376 0C57.6885 0 65.9453 8.25831 65.9453 18.4092C65.9453 28.5571 57.6885 36.8125 47.5376 36.8125Z" fill="url(#paint0_linear_2669_16591)"/>
</g>
<mask id="mask1_2669_16591" style="mask-type:luminance" maskUnits="userSpaceOnUse" x="0" y="42" width="118" height="59">
<path fill-rule="evenodd" clip-rule="evenodd" d="M37.7927 42.7735C41.7541 42.2111 46.0264 42.1532 51.6404 42.5855C55.7652 42.8761 59.637 43.7711 63.2414 45.1894C65.5763 44.2149 68.1339 43.6727 70.8158 43.6727C75.7893 43.6727 80.5749 45.5783 84.1893 48.8949C87.8023 45.5783 92.5879 43.6727 97.5614 43.6727C108.447 43.6727 117.302 52.5282 117.302 63.4149C117.302 66.9658 116.348 70.4458 114.541 73.4862L114.393 73.7306C107.112 85.625 87.6708 99.4785 86.8467 100.063C86.0833 100.608 85.1753 100.898 84.2269 100.898H84.1503C83.2076 100.898 82.2997 100.609 81.5291 100.061C81.4669 100.016 81.2891 99.8891 81.0303 99.7026H8.84956C6.30932 99.7026 3.88329 98.6139 2.19173 96.7185C0.99745 95.3792 0.242552 93.7215 0 91.9719L0.000884154 89.4771C3.09439 63.1561 17.2088 45.7041 37.7927 42.7735ZM97.5614 49.6554C92.5112 49.6554 87.8761 52.4154 85.4631 56.8568C85.21 57.3238 84.7199 57.6144 84.1908 57.6144C83.6602 57.6144 83.17 57.3238 82.917 56.8568C80.504 52.4154 75.8674 49.6554 70.8187 49.6554C63.2312 49.6554 57.0592 55.8274 57.0592 63.4149C57.0592 65.9364 57.7459 68.4014 59.0471 70.5441C59.0529 70.5542 59.0602 70.5658 59.0659 70.5759C64.972 80.1845 80.4838 91.8853 84.1893 94.6019C87.8949 91.8853 103.407 80.1845 109.313 70.5773C109.318 70.5658 109.326 70.5556 109.333 70.5441C110.633 68.4014 111.321 65.9364 111.321 63.4149C111.321 55.8274 105.149 49.6554 97.5614 49.6554ZM44.9522 48.4713C42.639 48.4713 40.5961 48.6086 38.663 48.8848C12.4496 52.6164 7.11462 81.613 6.10401 90.412C6.01148 91.2246 6.25582 92.0053 6.79654 92.6111C7.3257 93.2038 8.05582 93.5306 8.84956 93.5306H73.051C66.6259 88.2708 58.2115 80.6371 53.9406 73.6597C52.0524 70.5296 51.0751 67.0077 51.0751 63.4149C51.0751 58.0424 53.238 53.1686 56.7324 49.6062C54.9859 49.1899 53.1527 48.879 51.185 48.7402C48.8732 48.5609 46.823 48.4713 44.9522 48.4713Z" fill="white"/>
</mask>
<g mask="url(#mask1_2669_16591)">
<path fill-rule="evenodd" clip-rule="evenodd" d="M0 100.9H117.301V0H0V100.9Z" fill="url(#paint1_linear_2669_16591)"/>
</g>
<defs>
<linearGradient id="paint0_linear_2669_16591" x1="29.1331" y1="36.813" x2="65.9459" y2="36.813" gradientUnits="userSpaceOnUse">
<stop stop-color="#AAD8CE"/>
<stop offset="1" stop-color="#56BAAC"/>
</linearGradient>
<linearGradient id="paint1_linear_2669_16591" x1="-0.086747" y1="122.088" x2="117.301" y2="122.088" gradientUnits="userSpaceOnUse">
<stop stop-color="#AAD8CE"/>
<stop offset="1" stop-color="#56BAAC"/>
</linearGradient>
</defs>
</svg>
