<svg width="43" height="43" viewBox="0 0 43 43" fill="none" xmlns="http://www.w3.org/2000/svg">
<g clip-path="url(#clip0_2_20217)">
<path d="M36.7507 27.8353C36.6217 30.2949 36.0627 32.475 34.271 34.2653C32.4793 36.0569 30.3007 36.6288 27.8353 36.7464C25.2983 36.8897 17.7017 36.8897 15.1647 36.7464C12.7137 36.6231 10.535 36.0612 8.74333 34.2653C6.93733 32.4707 6.37833 30.2892 6.24933 27.8353C6.106 25.2983 6.106 17.6988 6.24933 15.1647C6.37833 12.7051 6.93733 10.525 8.74333 8.73473C10.535 6.94307 12.7137 6.3769 15.1647 6.2608C17.7017 6.11747 25.2983 6.11747 27.8353 6.2608C30.3007 6.38407 32.4793 6.94593 34.271 8.74047C36.0627 10.5364 36.636 12.7165 36.7507 15.1761C36.894 17.7031 36.894 25.2969 36.7507 27.8353ZM38.399 0H4.601C3.38267 0 2.20733 0.4859 1.34733 1.34877C0.487333 2.21307 0 3.38553 0 4.60673V38.3933C0 39.6145 0.487333 40.7869 1.34733 41.6512C2.20733 42.5141 3.38267 43 4.601 43H38.399C39.6173 43 40.7927 42.5141 41.6527 41.6512C42.5127 40.7869 43 39.6145 43 38.3933V4.60673C43 3.38553 42.5127 2.21307 41.6527 1.34877C40.7927 0.4859 39.6173 0 38.399 0ZM29.6987 15.136C29.326 15.1374 28.982 15.0285 28.681 14.8278C28.3657 14.6257 28.1363 14.3391 27.993 14.0037C27.864 13.6668 27.821 13.2985 27.8927 12.9416C27.9643 12.5847 28.1363 12.2579 28.3943 12.0013C28.6523 11.7433 28.982 11.5684 29.3403 11.4968C29.6987 11.4265 30.057 11.4624 30.401 11.6028C30.7307 11.7404 31.0173 11.9755 31.218 12.2779C31.4187 12.5804 31.5333 12.9358 31.5333 13.2999C31.5333 13.5407 31.4903 13.7801 31.39 14.0037C31.304 14.2258 31.1607 14.4294 31.003 14.5999C30.831 14.7705 30.6303 14.9067 30.401 14.9998C30.186 15.093 29.9423 15.1403 29.6987 15.1403V15.136ZM21.5 29.3704C19.9377 29.3704 18.4183 28.9089 17.1283 28.0446C15.8383 27.1789 14.8207 25.9505 14.233 24.5114C13.631 23.0738 13.4733 21.4914 13.7743 19.9649C14.0897 18.4384 14.835 17.0352 15.9387 15.9344C17.0423 14.8336 18.4327 14.0839 19.9663 13.7801C21.4857 13.4776 23.0767 13.6324 24.51 14.2287C25.9433 14.825 27.176 15.8326 28.0503 17.1269C28.9103 18.4212 29.369 19.9434 29.369 21.5C29.369 22.5334 29.1683 23.5583 28.7813 24.5129C28.38 25.4689 27.7923 26.3375 27.0613 27.0685C26.3303 27.7995 25.4703 28.3786 24.51 28.7742C23.564 29.1683 22.532 29.3719 21.5 29.3704ZM33.4683 12.4442C33.2103 11.7849 32.809 11.1843 32.3073 10.6826C31.8057 10.181 31.218 9.7868 30.5443 9.52593C28.5377 8.73043 23.736 8.9096 21.5 8.9096C19.264 8.9096 14.4623 8.72327 12.4413 9.52593C11.782 9.7868 11.1943 10.181 10.6927 10.6826C10.1767 11.1843 9.78967 11.7849 9.53167 12.4442C8.729 14.4609 8.91533 19.264 8.91533 21.4986C8.91533 23.7331 8.729 28.5319 9.53167 30.5544C9.78967 31.2151 10.191 31.8143 10.6927 32.3159C11.1943 32.819 11.7963 33.2118 12.4557 33.4726C14.4623 34.2681 19.264 34.0904 21.5 34.0904C23.736 34.0904 28.5377 34.2753 30.5587 33.4726C31.218 33.2118 31.82 32.819 32.3217 32.3159C32.8233 31.8143 33.2103 31.2151 33.4683 30.5544C34.271 28.5391 34.0847 23.7346 34.0847 21.5C34.0847 19.2654 34.271 14.4681 33.4683 12.4456V12.4442ZM21.5 16.3801C20.4823 16.3816 19.4933 16.6811 18.662 17.2444C17.8163 17.8063 17.157 18.6061 16.77 19.5421C16.383 20.478 16.2827 21.5072 16.4833 22.5005C16.684 23.4938 17.1713 24.4054 17.888 25.1206C18.6047 25.8358 19.5077 26.3246 20.511 26.5224C21.5 26.7188 22.532 26.617 23.4637 26.23C24.3953 25.8416 25.198 25.1851 25.757 24.3437C26.316 23.5024 26.617 22.5119 26.617 21.5C26.617 20.1426 26.0867 18.8412 25.1263 17.8808C24.166 16.9205 22.8617 16.3816 21.5 16.3801Z" fill="#333333"/>
</g>
<defs>
<clipPath id="clip0_2_20217">
<rect width="43" height="43" fill="white"/>
</clipPath>
</defs>
</svg>
