<svg width="32" height="32" viewBox="0 0 32 32" fill="none" xmlns="http://www.w3.org/2000/svg">
<path d="M0 16C0 7.16344 7.16344 0 16 0C24.8366 0 32 7.16344 32 16C32 24.8366 24.8366 32 16 32C7.16344 32 0 24.8366 0 16Z" fill="white"/>
<path d="M16.8077 9.80775V15.1924H22.1923C22.6298 15.1924 23 15.5626 23 16.0001C23 16.4712 22.6298 16.8078 22.1923 16.8078H16.8077V22.1924C16.8077 22.6635 16.4375 23.0001 16 23.0001C15.5288 23.0001 15.1923 22.6635 15.1923 22.1924V16.8078H9.80769C9.33654 16.8078 9 16.4712 9 16.0001C9 15.5626 9.33654 15.1924 9.80769 15.1924H15.1923V9.80775C15.1923 9.37025 15.5288 9.00006 16 9.00006C16.4375 9.00006 16.8077 9.37025 16.8077 9.80775Z" fill="#EF426F"/>
</svg>
