<svg width="81" height="80" viewBox="0 0 81 80" fill="none" xmlns="http://www.w3.org/2000/svg">
<mask id="mask0_437_7510" style="mask-type:luminance" maskUnits="userSpaceOnUse" x="5" y="0" width="71" height="80">
<path fill-rule="evenodd" clip-rule="evenodd" d="M17.4316 5.5673C23.7186 0.997297 31.4096 -0.849702 39.0846 0.363298C46.7616 1.5783 53.5056 5.7083 58.0746 11.9953C62.6446 18.2823 64.4926 25.9713 63.2786 33.6483C62.6326 37.7333 61.1036 41.6603 58.8436 45.0963L73.6866 65.5173C75.0986 67.4583 75.6696 69.8343 75.2946 72.2053C74.9196 74.5773 73.6426 76.6603 71.7006 78.0713C70.1476 79.2003 68.3176 79.7913 66.4346 79.7913C65.9626 79.7913 65.4876 79.7543 65.0126 79.6793C62.6416 79.3043 60.5576 78.0283 59.1466 76.0863L44.7876 56.3333C41.5126 57.5683 38.0516 58.2023 34.5606 58.2023C33.0396 58.2023 31.5136 58.0833 29.9946 57.8423C16.3115 55.6776 6.3517 44.2503 5.5 30.9692L5.50014 27.2662C5.55764 26.368 5.65727 25.4646 5.80061 24.5583C7.01461 16.8813 11.1446 10.1373 17.4316 5.5673ZM38.4596 4.3143C31.8376 3.2653 25.2046 4.8603 19.7836 8.8033C14.3606 12.7443 10.7986 18.5613 9.75161 25.1833C8.70361 31.8043 10.2986 38.4373 14.2396 43.8593C18.1816 49.2813 23.9986 52.8443 30.6196 53.8913C35.2676 54.6283 39.9976 54.0503 44.3056 52.2253C44.8466 51.9973 45.4286 52.0303 45.9226 52.2583C46.4756 52.3093 47.0066 52.5813 47.3586 53.0663L62.3826 73.7343C63.1656 74.8123 64.3206 75.5203 65.6376 75.7283C66.9546 75.9363 68.2706 75.6193 69.3496 74.8363C70.4276 74.0523 71.1356 72.8963 71.3436 71.5803C71.5516 70.2653 71.2346 68.9463 70.4506 67.8683L54.8826 46.4503C54.7486 46.2653 54.6596 46.0643 54.5966 45.8583C54.3316 45.2323 54.3866 44.4893 54.8166 43.9003C57.1806 40.6673 58.6976 37.0073 59.3276 33.0233C61.4896 19.3553 52.1286 6.4763 38.4596 4.3143Z" fill="white"/>
</mask>
<g mask="url(#mask0_437_7510)">
<path fill-rule="evenodd" clip-rule="evenodd" d="M5.5 79.7915H75.406V0.000488281H5.5V79.7915Z" fill="url(#paint0_linear_437_7510)"/>
</g>
<path fill-rule="evenodd" clip-rule="evenodd" d="M40.7498 16.6003C39.0828 15.1693 36.9928 14.4443 34.5388 14.4443C32.4288 14.4443 30.5798 15.0213 29.0428 16.1583C27.5008 17.3003 26.4088 18.9903 25.7958 21.1813C25.7008 21.5203 25.8708 21.8773 26.1928 22.0173L30.6948 23.9833C30.8718 24.0603 31.0718 24.0613 31.2498 23.9863C31.4278 23.9123 31.5668 23.7683 31.6358 23.5883C32.3838 21.6293 33.2828 21.1173 33.8768 20.9823C33.8598 21.0013 33.8438 21.0153 33.8268 21.0353C34.1068 20.9433 34.3338 20.9393 34.4758 20.9393C34.9568 20.9603 35.3648 21.1253 35.7118 21.4543C36.0738 21.7963 36.2488 22.2373 36.2488 22.8043C36.2488 23.2443 36.1388 23.5953 35.9128 23.8793C35.6138 24.2523 34.9968 24.8403 34.0828 25.6233C33.3788 26.2193 32.8408 26.6873 32.4858 27.0133C32.0918 27.3753 31.6968 27.8873 31.2758 28.5783C30.8268 29.3153 30.5998 30.0583 30.5998 30.7873C30.5998 31.5403 30.7728 32.3003 31.1138 33.0463C31.2288 33.2963 31.4788 33.4573 31.7548 33.4573H36.4218C36.6288 33.4573 36.8258 33.3663 36.9598 33.2083C37.0928 33.0503 37.1508 32.8413 37.1168 32.6373C37.0688 32.3493 37.0448 32.0983 37.0448 31.8923C37.0448 31.8333 37.0528 31.7683 37.0688 31.6973C37.0888 31.6083 37.1138 31.5233 37.1438 31.4433C37.1588 31.4043 37.1888 31.3363 37.2548 31.2393C37.3458 31.1003 37.4228 30.9783 37.4848 30.8693C37.4868 30.8673 37.5208 30.8083 37.6568 30.6723L37.9828 30.3463C38.0608 30.2683 38.1838 30.1513 38.3538 29.9953C38.5398 29.8233 38.6768 29.6933 38.7628 29.6073C38.8378 29.5323 38.9768 29.4063 39.1798 29.2293C39.4288 29.0113 39.5608 28.9043 39.6288 28.8533C39.6438 28.8423 39.6578 28.8313 39.6718 28.8193C40.8618 27.7703 41.7658 26.7703 42.3568 25.8463C42.9878 24.8623 43.3078 23.6733 43.3078 22.3133C43.3078 19.9793 42.4468 18.0573 40.7498 16.6003Z" fill="#DD4264"/>
<path fill-rule="evenodd" clip-rule="evenodd" d="M34.5046 34.7363C34.3236 34.7363 34.1506 34.7663 33.9746 34.7893C33.9846 34.7813 33.9906 34.7693 34.0006 34.7613C33.9346 34.7703 33.8746 34.7933 33.8096 34.8063C33.6796 34.8283 33.5556 34.8623 33.4296 34.8963C33.3486 34.9203 33.2676 34.9423 33.1886 34.9713C31.5686 35.5223 30.3926 37.0403 30.3926 38.8493C30.3926 41.1213 32.2366 42.9613 34.5046 42.9613C36.7776 42.9613 38.6176 41.1213 38.6176 38.8493C38.6176 36.5773 36.7776 34.7363 34.5046 34.7363Z" fill="#DD4264"/>
<defs>
<linearGradient id="paint0_linear_437_7510" x1="5.44" y1="79.8257" x2="75.4062" y2="79.8257" gradientUnits="userSpaceOnUse">
<stop stop-color="#AAD8CE"/>
<stop offset="1" stop-color="#56BAAC"/>
</linearGradient>
</defs>
</svg>
