<svg width="16" height="16" viewBox="0 0 16 16" fill="none" xmlns="http://www.w3.org/2000/svg">
<path d="M1 2.78261C1 2.3587 1.3125 2 1.75 2H14.25C14.6563 2 15 2.3587 15 2.78261C15 3.23913 14.6563 3.56522 14.25 3.56522H1.75C1.3125 3.56522 1 3.23913 1 2.78261ZM1 8C1 7.57609 1.3125 7.21739 1.75 7.21739H14.25C14.6563 7.21739 15 7.57609 15 8C15 8.45652 14.6563 8.78261 14.25 8.78261H1.75C1.3125 8.78261 1 8.45652 1 8ZM15 13.2174C15 13.6739 14.6563 14 14.25 14H1.75C1.3125 14 1 13.6739 1 13.2174C1 12.7935 1.3125 12.4348 1.75 12.4348H14.25C14.6563 12.4348 15 12.7935 15 13.2174Z" fill="#333333"/>
</svg>
