<svg width="72" height="81" viewBox="0 0 72 81" fill="none" xmlns="http://www.w3.org/2000/svg">
<mask id="mask0_503_18819" style="mask-type:luminance" maskUnits="userSpaceOnUse" x="36" y="1" width="29" height="79">
<path fill-rule="evenodd" clip-rule="evenodd" d="M36.1602 1.2832H64.4044V79.6106H36.1602V1.2832Z" fill="white"/>
</mask>
<g mask="url(#mask0_503_18819)">
<path fill-rule="evenodd" clip-rule="evenodd" d="M64.4038 6.51838C64.388 6.29101 64.2932 6.07944 64.1269 5.93417L59.2111 1.49312C59.0248 1.32154 58.7827 1.26154 58.5501 1.28996C58.2995 1.27101 58.0438 1.34996 57.8616 1.55101L36.3806 25.3226C36.229 25.4921 36.148 25.711 36.1616 25.9373V78.7605C36.1616 79.23 36.5438 79.611 37.0027 79.611H43.6122C43.6132 79.611 43.6132 79.61 43.6143 79.61H43.7795C44.2406 79.61 44.6195 79.231 44.6195 78.7626V28.7342L64.1848 7.12365C64.3385 6.95628 64.4122 6.73733 64.4038 6.51838" fill="#EF426F"/>
</g>
<mask id="mask1_503_18819" style="mask-type:luminance" maskUnits="userSpaceOnUse" x="46" y="7" width="26" height="28">
<path fill-rule="evenodd" clip-rule="evenodd" d="M46.0674 7.74512H71.4647V34.6636H46.0674V7.74512Z" fill="white"/>
</mask>
<g mask="url(#mask1_503_18819)">
<path fill-rule="evenodd" clip-rule="evenodd" d="M71.2002 12.3815L66.3024 7.94883C65.9802 7.6583 65.476 7.67935 65.1824 8.00672L46.275 28.9109C46.1276 29.0646 46.0529 29.2688 46.0697 29.4804C46.0771 29.6909 46.1729 29.8815 46.3266 30.0278L51.2339 34.4604C51.3887 34.5972 51.5771 34.6636 51.7602 34.6636C51.9802 34.6636 52.1918 34.5751 52.3529 34.4025L71.2624 13.4983C71.3992 13.3394 71.4739 13.133 71.4645 12.9299C71.4497 12.7172 71.3539 12.5194 71.2002 12.3815" fill="#EF426F"/>
</g>
<mask id="mask2_503_18819" style="mask-type:luminance" maskUnits="userSpaceOnUse" x="7" y="1" width="29" height="79">
<path fill-rule="evenodd" clip-rule="evenodd" d="M7.06152 1.2832H35.3051V79.6105H7.06152V1.2832Z" fill="white"/>
</mask>
<g mask="url(#mask2_503_18819)">
<path fill-rule="evenodd" clip-rule="evenodd" d="M13.6044 1.5506C13.4223 1.3506 13.1655 1.2706 12.916 1.28955C12.6823 1.26218 12.4413 1.32218 12.2539 1.4927L7.33917 5.93481C7.17285 6.07902 7.07706 6.2906 7.06232 6.51797C7.05285 6.73692 7.12759 6.95586 7.28127 7.12323L26.8465 28.7338V78.7632C26.8465 79.2306 27.2255 79.6095 27.6865 79.6095H27.8518L27.8529 79.6106H34.4634C34.9223 79.6106 35.3034 79.2295 35.3034 78.7611V25.9369C35.3181 25.7117 35.236 25.4927 35.0844 25.3232L13.6044 1.5506Z" fill="#EF426F"/>
</g>
<path fill-rule="evenodd" clip-rule="evenodd" d="M6.28186 8.00763C5.98922 7.68026 5.48501 7.65815 5.16396 7.94973L0.265014 12.3824C0.11133 12.5203 0.0144875 12.7182 0.000803321 12.9297C-0.00867036 13.1339 0.0660665 13.3403 0.202909 13.4992L19.1124 34.4034C19.2724 34.576 19.484 34.6645 19.704 34.6645C19.8871 34.6645 20.0766 34.5982 20.2303 34.4613L25.1387 30.0276C25.2924 29.8813 25.3882 29.6918 25.3955 29.4803C25.4113 29.2697 25.3376 29.0645 25.1892 28.9118L6.28186 8.00763Z" fill="#EF426F"/>
</svg>
