<svg width="83" height="84" viewBox="0 0 83 84" fill="none" xmlns="http://www.w3.org/2000/svg">
<g clip-path="url(#clip0_2418_64112)">
<path d="M71.8267 42.235C71.8267 58.9818 58.2466 72.5619 41.4998 72.5619C24.7529 72.5619 11.1729 58.9818 11.1729 42.235C11.1729 25.4882 24.7529 11.9081 41.4998 11.9081C58.2466 11.9081 71.8267 25.4882 71.8267 42.235Z" fill="#E3E2E3"/>
<path d="M25.0784 38.251H5.79688" stroke="#07809F" stroke-width="4.25" stroke-linecap="round" stroke-linejoin="round"/>
<path d="M25.0783 29.1656H0.586914" stroke="#07809F" stroke-width="4.25" stroke-linecap="round" stroke-linejoin="round"/>
<path d="M31.9222 47.3363H12.6406" stroke="#07809F" stroke-width="4.25" stroke-linecap="round" stroke-linejoin="round"/>
<path d="M59.2239 35.2566L71.9995 40.2111C74.1894 41.1177 76.4815 42.2286 76.4815 44.6931V49.6156C76.4815 52.0801 74.4639 54.0976 71.9995 54.0976H53.7012" fill="#99288C"/>
<path d="M59.2239 35.2566L71.9995 40.2111C74.1894 41.1177 76.4815 42.2286 76.4815 44.6931V49.6156C76.4815 52.0801 74.4639 54.0976 71.9995 54.0976H53.7012" stroke="#99288C" stroke-width="3.2" stroke-linecap="round" stroke-linejoin="round"/>
<path d="M53.3304 25.2583H28.1559C25.4443 25.2583 23.2461 27.4565 23.2461 30.1681V49.1878C23.2461 51.8994 25.4443 54.0976 28.1559 54.0976H53.3304C56.042 54.0976 58.2402 51.8994 58.2402 49.1878V30.1681C58.2402 27.4565 56.042 25.2583 53.3304 25.2583Z" fill="#99288C" stroke="#99288C" stroke-width="3.2" stroke-linecap="round" stroke-linejoin="round"/>
<path d="M60.96 54.2317C60.96 56.9835 63.1882 59.2117 65.94 59.2117C68.6917 59.2117 70.92 56.9835 70.92 54.2317C70.92 51.4799 68.6917 49.2517 65.94 49.2517C63.1882 49.2517 60.96 51.4799 60.96 54.2317Z" fill="#99288C"/>
<path d="M60.96 54.2317C60.96 56.9835 63.1882 59.2117 65.94 59.2117C68.6917 59.2117 70.92 56.9835 70.92 54.2317C70.92 51.4799 68.6917 49.2517 65.94 49.2517C63.1882 49.2517 60.96 51.4799 60.96 54.2317Z" fill="#99288C" stroke="#E3E2E3" stroke-width="3.2" stroke-linecap="round" stroke-linejoin="round"/>
<path d="M32.3057 54.2317C32.3057 56.9835 34.5339 59.2117 37.2857 59.2117C40.0374 59.2117 42.2657 56.9835 42.2657 54.2317C42.2657 51.4799 40.0374 49.2517 37.2857 49.2517C34.5339 49.2517 32.3057 51.4799 32.3057 54.2317Z" fill="#99288C"/>
<path d="M32.3057 54.2317C32.3057 56.9835 34.5339 59.2117 37.2857 59.2117C40.0374 59.2117 42.2657 56.9835 42.2657 54.2317C42.2657 51.4799 40.0374 49.2517 37.2857 49.2517C34.5339 49.2517 32.3057 51.4799 32.3057 54.2317Z" fill="#99288C" stroke="#E3E2E3" stroke-width="3.2" stroke-linecap="round" stroke-linejoin="round"/>
<path d="M42.8849 33.3603C42.8849 34.7075 41.7867 35.7993 40.4332 35.7993H37.9815V30.9214H40.4332C41.7867 30.9214 42.8849 32.0132 42.8849 33.3603ZM36.7557 43.116C37.4324 43.116 37.9815 42.5733 37.9815 41.8966V38.2382H39.9224L43.6 41.8966L42.0166 43.4736C41.5314 43.9396 41.5186 44.7122 41.9847 45.1974C42.4571 45.6826 43.2297 45.6954 43.7149 45.2293C43.7277 45.2166 43.7341 45.2102 43.7468 45.1974L45.3302 43.6204L46.9136 45.1974C47.3988 45.6635 48.1777 45.6507 48.6502 45.1655C49.1099 44.693 49.1099 43.946 48.6502 43.4736L47.0668 41.8966L48.6502 40.3196C49.1227 39.8343 49.1099 39.0618 48.6183 38.5957C48.1458 38.136 47.3924 38.136 46.9136 38.5957L45.3302 40.1727L42.7636 37.6189C45.1387 36.342 46.0261 33.3923 44.7428 31.03C43.8873 29.453 42.2273 28.4697 40.4268 28.4761H36.7493C36.0725 28.4761 35.5234 29.0188 35.5234 29.6956V41.8966C35.5234 42.567 36.0725 43.116 36.7493 43.116H36.7557Z" fill="white"/>
</g>
<defs>
<clipPath id="clip0_2418_64112">
<rect width="83" height="83" fill="white" transform="translate(0 0.734985)"/>
</clipPath>
</defs>
</svg>
