<svg width="16" height="16" viewBox="0 0 16 16" fill="none" xmlns="http://www.w3.org/2000/svg">
<path d="M9.3125 1.65625C9.3125 1.30078 9.58594 1 9.96875 1H14.3164C14.6992 1 14.9727 1.30078 14.9727 1.65625V6.03125C14.9727 6.41406 14.6992 6.6875 14.3164 6.6875C13.9609 6.6875 13.6602 6.41406 13.6602 6.03125V3.24219L7.5625 9.33984C7.31641 9.61328 6.90625 9.61328 6.66016 9.33984C6.38672 9.09375 6.38672 8.68359 6.66016 8.41016L12.7578 2.3125H9.96875C9.58594 2.3125 9.3125 2.03906 9.3125 1.65625ZM2.96875 1.875H6.46875C6.82422 1.875 7.125 2.17578 7.125 2.53125C7.125 2.91406 6.82422 3.1875 6.46875 3.1875H2.96875C2.58594 3.1875 2.3125 3.48828 2.3125 3.84375V13.0312C2.3125 13.4141 2.58594 13.6875 2.96875 13.6875H12.1562C12.5117 13.6875 12.8125 13.4141 12.8125 13.0312V9.53125C12.8125 9.17578 13.0859 8.875 13.4688 8.875C13.8242 8.875 14.125 9.17578 14.125 9.53125V13.0312C14.125 14.125 13.2227 15 12.1562 15H2.96875C1.875 15 1 14.125 1 13.0312V3.84375C1 2.77734 1.875 1.875 2.96875 1.875Z" fill="#333333"/>
</svg>
