<svg width="84" height="84" viewBox="0 0 84 84" fill="none" xmlns="http://www.w3.org/2000/svg">
<path d="M72.6932 42.0009C72.6932 58.9495 58.9495 72.6932 42.0009 72.6932C25.0523 72.6932 11.3086 58.9495 11.3086 42.0009C11.3086 25.0523 25.0523 11.3086 42.0009 11.3086C58.9495 11.3086 72.6932 25.0523 72.6932 42.0009Z" fill="#E3E2E3"/>
<path d="M23.2796 61.7216H66.042C68.2519 61.7216 70.0482 59.9253 70.0482 57.7155V30.9905C70.0482 28.7807 68.2519 26.9844 66.042 26.9844H23.2796C21.0633 26.9844 19.2734 28.7807 19.2734 30.9905V57.7155C19.2734 59.9318 21.0697 61.7216 23.2796 61.7216Z" fill="#07809F" stroke="#07809F" stroke-width="1.60892" stroke-linecap="round" stroke-linejoin="round"/>
<path d="M28.0999 57.0107H70.8624C73.0722 57.0107 74.8685 55.2144 74.8685 53.0045V26.2796C74.8685 24.0697 73.0722 22.2734 70.8624 22.2734H28.0999C25.8836 22.2734 24.0938 24.0697 24.0938 26.2796V53.0045C24.0938 55.2208 25.8901 57.0107 28.0999 57.0107Z" fill="#99288C" stroke="#99288C" stroke-width="1.60892" stroke-linecap="round" stroke-linejoin="round"/>
<path d="M68.1844 35.6289H54.8219C54.0853 35.6289 53.4844 36.2298 53.4844 36.9664C53.4844 37.7031 54.0853 38.304 54.8219 38.304H68.1844C68.921 38.304 69.5219 37.7031 69.5219 36.9664C69.5219 36.2298 68.921 35.6289 68.1844 35.6289Z" fill="white" stroke="#99288C" stroke-width="0.646154" stroke-miterlimit="10"/>
<path d="M49.4821 32.9602H68.1882C68.9248 32.9602 69.5258 32.3593 69.5258 31.6227C69.5258 30.8861 68.9248 30.2852 68.1882 30.2852H49.4821C48.7455 30.2852 48.1445 30.8861 48.1445 31.6227C48.1445 32.3593 48.7455 32.9602 49.4821 32.9602Z" fill="white" stroke="#99288C" stroke-width="0.646154" stroke-miterlimit="10"/>
<path d="M38.547 35.2739C38.547 36.8763 37.2418 38.1751 35.6264 38.1816H32.7058V32.3726H35.6264C37.2353 32.3726 38.547 33.6714 38.547 35.2739ZM31.2519 46.8917C32.0596 46.8917 32.7122 46.2456 32.7122 45.4443V41.0828H35.0255L39.4064 45.4379L37.5196 47.3182C36.9381 47.8739 36.9252 48.7914 37.4808 49.3729C38.043 49.948 38.967 49.9674 39.5421 49.4053C39.555 49.3923 39.5679 49.3794 39.5808 49.3729L41.4676 47.4926L43.3544 49.3729C43.9359 49.9286 44.8599 49.9157 45.4156 49.3342C45.9584 48.772 45.9584 47.8803 45.4156 47.3182L43.5289 45.4379L45.4156 43.5576C45.9778 42.9825 45.9584 42.0585 45.3769 41.5028C44.8082 40.96 43.9165 40.96 43.3479 41.5028L41.4612 43.3831L38.4048 40.3462C41.235 38.8277 42.2882 35.3126 40.7633 32.5019C39.7424 30.6216 37.7716 29.452 35.6264 29.4649H31.2455C30.4378 29.4649 29.7852 30.1111 29.7852 30.9123V45.4379C29.7852 46.2391 30.4378 46.8917 31.2455 46.8917H31.2519Z" fill="white"/>
</svg>
