<svg width="59" height="59" viewBox="0 0 59 59" fill="none" xmlns="http://www.w3.org/2000/svg">
<rect width="59" height="59" fill="white"/>
<path d="M17.2083 24.5834C17.2083 24.5834 20.9904 19.6667 29.5 19.6667C38.0096 19.6667 41.7917 24.5834 41.7917 24.5834" stroke="#E1242A" stroke-width="2" stroke-linecap="round"/>
<circle cx="29.5" cy="9.83325" r="6.375" stroke="#E1242A" stroke-width="2"/>
<mask id="path-3-inside-1_1522_10255" fill="white">
<path d="M5.9 15.646C9.12656 15.646 11.8 18.2903 11.8 21.4817V32.8795C11.8 33.2443 11.8 33.7002 11.8922 34.0649C12.0766 33.7914 12.2609 33.5178 12.5375 33.2443C14.5656 31.2382 17.7922 31.2382 19.8203 33.2443L28.2094 41.5419C28.6703 42.089 29.1312 42.5449 29.5 43.092C29.7766 42.5449 30.2375 42.089 30.6984 41.5419L39.0875 33.2443C41.1156 31.2382 44.3422 31.2382 46.3703 33.2443C46.6469 33.5178 46.8312 33.7914 47.0156 34.0649C47.1078 33.7002 47.2 33.2443 47.2 32.8795V21.4817C47.2 18.2903 49.7812 15.646 53.1 15.646C56.3266 15.646 59 18.2903 59 21.4817V41.2683C59 43.9126 57.8937 46.5569 55.9578 48.4718L48.2141 56.1311C47.6609 56.6782 46.6469 56.6782 46.0937 56.1311C45.5406 55.584 45.5406 54.581 46.0937 54.0339L53.8375 46.3746C55.2203 45.0068 56.05 43.1832 56.05 41.2683V21.4817C56.05 19.9316 54.6672 18.5638 53.1 18.5638C51.4406 18.5638 50.15 19.9316 50.15 21.4817V32.8795C50.15 35.3415 49.1359 37.7122 47.3844 39.4447L46.3703 40.4477L42.3141 44.4597L40.8391 45.9187C40.2859 46.4657 39.2719 46.4657 38.7187 45.9187C38.1656 45.3716 38.1656 44.3685 38.7187 43.8214L40.1937 42.3625L44.25 38.3505C45.0797 37.5298 45.0797 36.1621 44.25 35.3415C43.4203 34.5208 42.0375 34.5208 41.2078 35.3415L32.8187 43.6391C31.6203 44.8245 30.975 46.3746 30.975 48.0159V55.0369C30.975 55.8576 30.2375 56.4958 29.5 56.4958C28.6703 56.4958 28.025 55.8576 28.025 55.0369V48.0159C28.025 46.3746 27.2875 44.8245 26.1812 43.6391L17.7 35.3415C16.8703 34.5208 15.4875 34.5208 14.6578 35.3415C13.8281 36.1621 13.8281 37.5298 14.6578 38.3505L18.7141 42.3625L20.1891 43.8214C20.7422 44.3685 20.7422 45.3716 20.1891 45.9187C19.6359 46.4657 18.6219 46.4657 18.0687 45.9187L16.5937 44.4597L12.5375 40.4477L11.6156 39.4447C9.77187 37.7122 8.85 35.3415 8.85 32.8795V21.4817C8.85 19.9316 7.46719 18.5638 5.9 18.5638C4.24062 18.5638 2.95 19.9316 2.95 21.4817V41.2683C2.95 43.1832 3.6875 45.0068 5.07031 46.3746L12.8141 54.0339C13.3672 54.581 13.3672 55.584 12.8141 56.1311C12.2609 56.6782 11.2469 56.6782 10.6937 56.1311L2.95 48.4718C1.01406 46.5569 0 43.9126 0 41.2683V21.4817C0 18.2903 2.58125 15.646 5.9 15.646Z"/>
</mask>
<path d="M5.9 15.646C9.12656 15.646 11.8 18.2903 11.8 21.4817V32.8795C11.8 33.2443 11.8 33.7002 11.8922 34.0649C12.0766 33.7914 12.2609 33.5178 12.5375 33.2443C14.5656 31.2382 17.7922 31.2382 19.8203 33.2443L28.2094 41.5419C28.6703 42.089 29.1312 42.5449 29.5 43.092C29.7766 42.5449 30.2375 42.089 30.6984 41.5419L39.0875 33.2443C41.1156 31.2382 44.3422 31.2382 46.3703 33.2443C46.6469 33.5178 46.8312 33.7914 47.0156 34.0649C47.1078 33.7002 47.2 33.2443 47.2 32.8795V21.4817C47.2 18.2903 49.7812 15.646 53.1 15.646C56.3266 15.646 59 18.2903 59 21.4817V41.2683C59 43.9126 57.8937 46.5569 55.9578 48.4718L48.2141 56.1311C47.6609 56.6782 46.6469 56.6782 46.0937 56.1311C45.5406 55.584 45.5406 54.581 46.0937 54.0339L53.8375 46.3746C55.2203 45.0068 56.05 43.1832 56.05 41.2683V21.4817C56.05 19.9316 54.6672 18.5638 53.1 18.5638C51.4406 18.5638 50.15 19.9316 50.15 21.4817V32.8795C50.15 35.3415 49.1359 37.7122 47.3844 39.4447L46.3703 40.4477L42.3141 44.4597L40.8391 45.9187C40.2859 46.4657 39.2719 46.4657 38.7187 45.9187C38.1656 45.3716 38.1656 44.3685 38.7187 43.8214L40.1937 42.3625L44.25 38.3505C45.0797 37.5298 45.0797 36.1621 44.25 35.3415C43.4203 34.5208 42.0375 34.5208 41.2078 35.3415L32.8187 43.6391C31.6203 44.8245 30.975 46.3746 30.975 48.0159V55.0369C30.975 55.8576 30.2375 56.4958 29.5 56.4958C28.6703 56.4958 28.025 55.8576 28.025 55.0369V48.0159C28.025 46.3746 27.2875 44.8245 26.1812 43.6391L17.7 35.3415C16.8703 34.5208 15.4875 34.5208 14.6578 35.3415C13.8281 36.1621 13.8281 37.5298 14.6578 38.3505L18.7141 42.3625L20.1891 43.8214C20.7422 44.3685 20.7422 45.3716 20.1891 45.9187C19.6359 46.4657 18.6219 46.4657 18.0687 45.9187L16.5937 44.4597L12.5375 40.4477L11.6156 39.4447C9.77187 37.7122 8.85 35.3415 8.85 32.8795V21.4817C8.85 19.9316 7.46719 18.5638 5.9 18.5638C4.24062 18.5638 2.95 19.9316 2.95 21.4817V41.2683C2.95 43.1832 3.6875 45.0068 5.07031 46.3746L12.8141 54.0339C13.3672 54.581 13.3672 55.584 12.8141 56.1311C12.2609 56.6782 11.2469 56.6782 10.6937 56.1311L2.95 48.4718C1.01406 46.5569 0 43.9126 0 41.2683V21.4817C0 18.2903 2.58125 15.646 5.9 15.646Z" fill="#E1242A"/>
<path d="M11.8922 34.0649L11.4074 34.1874L11.6816 35.272L12.3068 34.3444L11.8922 34.0649ZM12.5375 33.2443L12.1859 32.8888L12.1859 32.8888L12.5375 33.2443ZM19.8203 33.2443L20.1719 32.8888L20.1719 32.8888L19.8203 33.2443ZM28.2094 41.5419L28.5918 41.2197L28.5771 41.2024L28.561 41.1864L28.2094 41.5419ZM29.5 43.092L29.0854 43.3714L29.5617 44.0782L29.9462 43.3176L29.5 43.092ZM30.6984 41.5419L30.3468 41.1864L30.3307 41.2024L30.3161 41.2197L30.6984 41.5419ZM39.0875 33.2443L38.7359 32.8888L38.7359 32.8888L39.0875 33.2443ZM46.3703 33.2443L46.7219 32.8888L46.7219 32.8888L46.3703 33.2443ZM47.0156 34.0649L46.601 34.3444L47.2262 35.272L47.5004 34.1874L47.0156 34.0649ZM55.9578 48.4718L56.3094 48.8273L56.3094 48.8273L55.9578 48.4718ZM48.2141 56.1311L47.8624 55.7756L47.8624 55.7756L48.2141 56.1311ZM46.0937 54.0339L46.4454 54.3894L46.4454 54.3894L46.0937 54.0339ZM53.8375 46.3746L53.4859 46.0191L53.4859 46.0191L53.8375 46.3746ZM47.3844 39.4447L47.736 39.8002L47.736 39.8002L47.3844 39.4447ZM46.3703 40.4477L46.0187 40.0922L46.0187 40.0922L46.3703 40.4477ZM42.3141 44.4597L42.6657 44.8152L42.6657 44.8152L42.3141 44.4597ZM40.8391 45.9187L40.4874 45.5632L40.4874 45.5632L40.8391 45.9187ZM38.7187 43.8214L38.3671 43.466L38.3671 43.466L38.7187 43.8214ZM40.1937 42.3625L40.5454 42.718L40.5454 42.718L40.1937 42.3625ZM44.25 38.3505L44.6016 38.706L44.25 38.3505ZM41.2078 35.3415L40.8562 34.986L40.8562 34.986L41.2078 35.3415ZM32.8187 43.6391L33.1704 43.9946L33.1704 43.9946L32.8187 43.6391ZM26.1812 43.6391L26.5468 43.2979L26.539 43.2896L26.5309 43.2817L26.1812 43.6391ZM17.7 35.3415L17.3484 35.6969L17.3503 35.6989L17.7 35.3415ZM14.6578 38.3505L14.3062 38.706L14.6578 38.3505ZM18.7141 42.3625L18.3625 42.718L18.3625 42.718L18.7141 42.3625ZM20.1891 43.8214L20.5407 43.466L20.5407 43.466L20.1891 43.8214ZM18.0687 45.9187L18.4204 45.5632L18.4204 45.5632L18.0687 45.9187ZM16.5937 44.4597L16.9454 44.1042L16.9454 44.1042L16.5937 44.4597ZM12.5375 40.4477L12.1694 40.786L12.1774 40.7948L12.1859 40.8032L12.5375 40.4477ZM11.6156 39.4447L11.9838 39.1063L11.9714 39.0928L11.958 39.0803L11.6156 39.4447ZM5.07031 46.3746L5.42192 46.0191L5.42192 46.0191L5.07031 46.3746ZM12.8141 54.0339L13.1657 53.6784L12.8141 54.0339ZM10.6937 56.1311L11.0454 55.7756L11.0454 55.7756L10.6937 56.1311ZM2.95 48.4718L2.59839 48.8273L2.59839 48.8273L2.95 48.4718ZM5.9 16.146C8.8556 16.146 11.3 18.5716 11.3 21.4817H12.3C12.3 18.009 9.39752 15.146 5.9 15.146V16.146ZM11.3 21.4817V32.8795H12.3V21.4817H11.3ZM11.3 32.8795C11.3 33.2278 11.297 33.7506 11.4074 34.1874L12.3769 33.9424C12.303 33.6498 12.3 33.2607 12.3 32.8795H11.3ZM12.3068 34.3444C12.4924 34.0689 12.6521 33.8342 12.8891 33.5997L12.1859 32.8888C11.8698 33.2014 11.6607 33.5138 11.4776 33.7854L12.3068 34.3444ZM12.8891 33.5997C14.7224 31.7864 17.6354 31.7864 19.4687 33.5997L20.1719 32.8888C17.949 30.6901 14.4088 30.6901 12.1859 32.8888L12.8891 33.5997ZM19.4687 33.5997L27.8578 41.8974L28.561 41.1864L20.1719 32.8888L19.4687 33.5997ZM27.827 41.864C28.3274 42.4579 28.7355 42.8524 29.0854 43.3714L29.9146 42.8125C29.527 42.2374 29.0133 41.72 28.5918 41.2197L27.827 41.864ZM29.9462 43.3176C30.1878 42.8396 30.5774 42.4615 31.0808 41.864L30.3161 41.2197C29.8976 41.7164 29.3653 42.2502 29.0538 42.8664L29.9462 43.3176ZM31.05 41.8974L39.4391 33.5997L38.7359 32.8888L30.3468 41.1864L31.05 41.8974ZM39.4391 33.5997C41.2724 31.7864 44.1854 31.7864 46.0187 33.5997L46.7219 32.8888C44.499 30.6901 40.9588 30.6901 38.7359 32.8888L39.4391 33.5997ZM46.0187 33.5997C46.2557 33.8342 46.4154 34.069 46.601 34.3444L47.4302 33.7854C47.2471 33.5138 47.038 33.2014 46.7219 32.8888L46.0187 33.5997ZM47.5004 34.1874C47.5944 33.8156 47.7 33.3095 47.7 32.8795H46.7C46.7 33.179 46.6213 33.5847 46.5309 33.9424L47.5004 34.1874ZM47.7 32.8795V21.4817H46.7V32.8795H47.7ZM47.7 21.4817C47.7 18.5665 50.0573 16.146 53.1 16.146V15.146C49.5052 15.146 46.7 18.0141 46.7 21.4817H47.7ZM53.1 16.146C56.0556 16.146 58.5 18.5716 58.5 21.4817H59.5C59.5 18.009 56.5975 15.146 53.1 15.146V16.146ZM58.5 21.4817V41.2683H59.5V21.4817H58.5ZM58.5 41.2683C58.5 43.7767 57.4489 46.2937 55.6062 48.1163L56.3094 48.8273C58.3386 46.8202 59.5 44.0485 59.5 41.2683H58.5ZM55.6062 48.1163L47.8624 55.7756L48.5657 56.4866L56.3094 48.8273L55.6062 48.1163ZM47.8624 55.7756C47.6941 55.9421 47.4361 56.0414 47.1539 56.0414C46.8717 56.0414 46.6137 55.9421 46.4454 55.7756L45.7421 56.4866C46.1269 56.8672 46.6526 57.0414 47.1539 57.0414C47.6553 57.0414 48.1809 56.8672 48.5657 56.4866L47.8624 55.7756ZM46.4454 55.7756C46.0901 55.4242 46.0901 54.7408 46.4454 54.3894L45.7421 53.6784C44.9912 54.4212 44.9912 55.7438 45.7421 56.4866L46.4454 55.7756ZM46.4454 54.3894L54.1891 46.73L53.4859 46.0191L45.7421 53.6784L46.4454 54.3894ZM54.1891 46.73C55.6573 45.2778 56.55 43.3296 56.55 41.2683H55.55C55.55 43.0367 54.7833 44.7358 53.4859 46.0191L54.1891 46.73ZM56.55 41.2683V21.4817H55.55V41.2683H56.55ZM56.55 21.4817C56.55 19.6503 54.9381 18.0638 53.1 18.0638V19.0638C54.3962 19.0638 55.55 20.2129 55.55 21.4817H56.55ZM53.1 18.0638C51.1595 18.0638 49.65 19.6604 49.65 21.4817H50.65C50.65 20.2027 51.7217 19.0638 53.1 19.0638V18.0638ZM49.65 21.4817V32.8795H50.65V21.4817H49.65ZM49.65 32.8795C49.65 35.2045 48.6918 37.4482 47.0328 39.0892L47.736 39.8002C49.5801 37.9762 50.65 35.4784 50.65 32.8795H49.65ZM47.0328 39.0892L46.0187 40.0922L46.7219 40.8032L47.736 39.8002L47.0328 39.0892ZM46.0187 40.0922L41.9624 44.1042L42.6657 44.8152L46.7219 40.8032L46.0187 40.0922ZM41.9624 44.1042L40.4874 45.5632L41.1907 46.2741L42.6657 44.8152L41.9624 44.1042ZM40.4874 45.5632C40.3191 45.7297 40.0611 45.829 39.7789 45.829C39.4967 45.829 39.2387 45.7297 39.0704 45.5632L38.3671 46.2741C38.7519 46.6547 39.2776 46.829 39.7789 46.829C40.2803 46.829 40.8059 46.6547 41.1907 46.2741L40.4874 45.5632ZM39.0704 45.5632C38.7151 45.2118 38.7151 44.5283 39.0704 44.1769L38.3671 43.466C37.6162 44.2088 37.6162 45.5313 38.3671 46.2741L39.0704 45.5632ZM39.0704 44.1769L40.5454 42.718L39.8421 42.007L38.3671 43.466L39.0704 44.1769ZM40.5454 42.718L44.6016 38.706L43.8984 37.995L39.8421 42.007L40.5454 42.718ZM44.6016 38.706C45.6291 37.6896 45.6291 36.0023 44.6016 34.986L43.8984 35.6969C44.5302 36.3219 44.5302 37.3701 43.8984 37.995L44.6016 38.706ZM44.6016 34.986C43.5771 33.9726 41.8807 33.9726 40.8562 34.986L41.5594 35.6969C42.1943 35.069 43.2635 35.069 43.8984 35.6969L44.6016 34.986ZM40.8562 34.986L32.4671 43.2836L33.1704 43.9946L41.5594 35.6969L40.8562 34.986ZM32.4671 43.2836C31.1749 44.5618 30.475 46.2395 30.475 48.0159H31.475C31.475 46.5097 32.0658 45.0871 33.1704 43.9946L32.4671 43.2836ZM30.475 48.0159V55.0369H31.475V48.0159H30.475ZM30.475 55.0369C30.475 55.5565 29.9869 55.9958 29.5 55.9958V56.9958C30.4881 56.9958 31.475 56.1586 31.475 55.0369H30.475ZM29.5 55.9958C28.9413 55.9958 28.525 55.5763 28.525 55.0369H27.525C27.525 56.1389 28.3994 56.9958 29.5 56.9958V55.9958ZM28.525 55.0369V48.0159H27.525V55.0369H28.525ZM28.525 48.0159C28.525 46.2238 27.7214 44.5566 26.5468 43.2979L25.8157 43.9802C26.8536 45.0923 27.525 46.5254 27.525 48.0159H28.525ZM26.5309 43.2817L18.0497 34.9841L17.3503 35.6989L25.8316 43.9965L26.5309 43.2817ZM18.0516 34.986C17.0271 33.9726 15.3307 33.9726 14.3062 34.986L15.0094 35.6969C15.6443 35.069 16.7135 35.069 17.3484 35.6969L18.0516 34.986ZM14.3062 34.986C13.2787 36.0023 13.2787 37.6896 14.3062 38.706L15.0094 37.995C14.3776 37.3701 14.3776 36.3219 15.0094 35.6969L14.3062 34.986ZM14.3062 38.706L18.3625 42.718L19.0657 42.007L15.0094 37.995L14.3062 38.706ZM18.3625 42.718L19.8375 44.1769L20.5407 43.466L19.0657 42.007L18.3625 42.718ZM19.8375 44.1769C20.1927 44.5283 20.1927 45.2118 19.8375 45.5632L20.5407 46.2741C21.2916 45.5313 21.2916 44.2088 20.5407 43.466L19.8375 44.1769ZM19.8375 45.5632C19.6691 45.7297 19.4112 45.829 19.1289 45.829C18.8467 45.829 18.5887 45.7297 18.4204 45.5632L17.7171 46.2741C18.1019 46.6547 18.6276 46.829 19.1289 46.829C19.6303 46.829 20.1559 46.6547 20.5407 46.2741L19.8375 45.5632ZM18.4204 45.5632L16.9454 44.1042L16.2421 44.8152L17.7171 46.2741L18.4204 45.5632ZM16.9454 44.1042L12.8891 40.0922L12.1859 40.8032L16.2421 44.8152L16.9454 44.1042ZM12.9056 40.1093L11.9838 39.1063L11.2475 39.783L12.1694 40.786L12.9056 40.1093ZM11.958 39.0803C10.2236 37.4506 9.35 35.216 9.35 32.8795H8.35C8.35 35.467 9.32016 37.9739 11.2732 39.8091L11.958 39.0803ZM9.35 32.8795V21.4817H8.35V32.8795H9.35ZM9.35 21.4817C9.35 19.6503 7.73815 18.0638 5.9 18.0638V19.0638C7.19622 19.0638 8.35 20.2129 8.35 21.4817H9.35ZM5.9 18.0638C3.95952 18.0638 2.45 19.6604 2.45 21.4817H3.45C3.45 20.2027 4.52173 19.0638 5.9 19.0638V18.0638ZM2.45 21.4817V41.2683H3.45V21.4817H2.45ZM2.45 41.2683C2.45 43.3136 3.23874 45.2662 4.7187 46.73L5.42192 46.0191C4.13626 44.7474 3.45 43.0527 3.45 41.2683H2.45ZM4.7187 46.73L12.4625 54.3894L13.1657 53.6784L5.42192 46.0191L4.7187 46.73ZM12.4625 54.3894C12.8177 54.7408 12.8177 55.4242 12.4625 55.7756L13.1657 56.4866C13.9167 55.7438 13.9167 54.4212 13.1657 53.6784L12.4625 54.3894ZM12.4625 55.7756C12.2941 55.9421 12.0362 56.0414 11.7539 56.0414C11.4717 56.0414 11.2137 55.9421 11.0454 55.7756L10.3421 56.4866C10.7269 56.8672 11.2526 57.0414 11.7539 57.0414C12.2553 57.0414 12.7809 56.8672 13.1657 56.4866L12.4625 55.7756ZM11.0454 55.7756L3.30161 48.1163L2.59839 48.8273L10.3421 56.4866L11.0454 55.7756ZM3.30161 48.1163C1.46708 46.3017 0.5 43.7884 0.5 41.2683H-0.5C-0.5 44.0368 0.561048 46.8121 2.59839 48.8273L3.30161 48.1163ZM0.5 41.2683V21.4817H-0.5V41.2683H0.5ZM0.5 21.4817C0.5 18.5665 2.85732 16.146 5.9 16.146V15.146C2.30518 15.146 -0.5 18.0141 -0.5 21.4817H0.5Z" fill="white" mask="url(#path-3-inside-1_1522_10255)"/>
</svg>
