<svg width="269" height="161" viewBox="0 0 269 161" fill="none" xmlns="http://www.w3.org/2000/svg">
<g clip-path="url(#clip0_4062_9743)">
<path d="M8.7264 159.702H7.60008L8.06938 155.948L5.53516 147.219H6.75534L8.82025 154.54L12.7624 147.313H14.0764L9.19569 155.948L8.7264 159.702Z" fill="#99288C"/>
<path d="M12.4813 155.666L12.5751 155.29C12.9506 152.85 14.0769 151.066 16.5172 151.066C19.0515 151.066 19.9901 152.944 19.7085 155.29L19.6146 155.666C19.2392 158.106 18.019 159.889 15.6725 159.889C13.0444 159.889 12.1997 158.012 12.4813 155.666ZM18.4883 155.759L18.5822 155.384C18.8637 153.413 18.2067 152.099 16.5172 152.099C14.9216 152.099 13.983 153.319 13.7014 155.29L13.6076 155.666C13.326 157.637 13.983 158.951 15.5786 158.951C17.1743 158.951 18.2067 157.73 18.4883 155.759Z" fill="#99288C"/>
<path d="M23.0888 151.348L22.3379 157.073C22.1502 158.387 22.8072 158.95 24.0274 158.95C25.2475 158.95 26.0923 158.2 26.4677 157.636L27.3125 151.348H28.4388L27.594 157.543L27.4063 159.795H26.4677V158.575C25.9046 159.42 24.8721 159.889 23.6519 159.889C21.7747 159.889 21.0238 158.763 21.2116 157.167L22.0563 151.254L23.0888 151.348Z" fill="#99288C"/>
<path d="M34.068 151.16L33.9741 152.286H33.7864C32.4724 152.286 31.7215 153.037 31.3461 153.601L30.5013 159.795H29.375L30.2197 153.601L30.4075 151.348H31.3461V152.474C31.8154 151.723 32.754 151.16 33.8803 151.16H34.068Z" fill="#99288C"/>
<path d="M38.6663 150.502L38.7602 150.221C39.0417 148.156 40.6374 147.217 42.89 147.311C45.7997 147.311 46.8321 148.813 46.4567 151.535V151.722H45.3304C45.7058 149.376 44.8611 148.344 42.9839 148.344H42.7961C41.2944 148.344 40.1681 149.001 39.9803 150.315V150.596C39.7926 151.91 40.4496 152.755 42.7023 153.13C45.3304 153.6 46.3628 154.82 46.0812 156.697L45.9874 156.979C45.7058 159.137 44.0163 160.17 41.576 160.17C38.9479 160.17 37.54 158.668 37.9154 156.134V155.946H39.0417C38.5724 158.199 39.7926 159.137 41.4821 159.137H41.6698C43.3593 159.137 44.5795 158.48 44.7672 156.979V156.697C44.9549 155.289 44.1102 154.444 42.0453 154.069C39.2295 153.412 38.4786 152.098 38.6663 150.502Z" fill="#99288C"/>
<path d="M47.4896 155.759L47.5834 155.478C47.9589 153.037 49.0852 151.254 51.5256 151.254C54.0598 151.254 54.9984 153.131 54.7168 155.478L54.6229 155.853C54.2475 158.293 53.0273 160.077 50.6808 160.077C48.1466 160.077 47.208 158.2 47.4896 155.759ZM53.4966 155.853L53.5905 155.478C53.8721 153.507 53.215 152.193 51.5256 152.193C49.9299 152.193 48.9913 153.413 48.7098 155.384L48.6159 155.759C48.3343 157.73 48.9913 159.044 50.587 159.044C52.2764 159.044 53.215 157.824 53.4966 155.853Z" fill="#99288C"/>
<path d="M58.0966 151.442L57.3457 157.167C57.158 158.481 57.815 159.044 59.0352 159.044C60.2554 159.044 61.1001 158.293 61.4755 157.73L62.3203 151.442H63.4466L62.6019 157.636L62.4141 159.889H61.4755V158.669C60.9124 159.513 59.8799 159.983 58.6597 159.983C56.7825 159.983 56.0317 158.856 56.2194 157.261L57.0641 151.348L58.0966 151.442Z" fill="#99288C"/>
<path d="M69.0797 151.348L68.9859 152.474H68.7981C67.4841 152.474 66.7332 153.225 66.3578 153.788L65.513 159.983H64.3867L65.2315 153.788L65.4192 151.535H66.3578V152.662C66.8271 151.911 67.7657 151.348 68.892 151.442C68.9859 151.348 69.0797 151.348 69.0797 151.348Z" fill="#99288C"/>
<path d="M70.6744 155.853C70.3928 157.824 71.0498 159.138 72.7393 159.138C74.3349 159.138 74.8981 158.199 75.0858 157.073H76.2121V157.261C76.0244 158.763 75.1797 160.17 72.8332 160.17C70.2989 160.17 69.3603 158.293 69.6419 155.947L69.7358 155.571C70.1112 153.131 71.2375 151.348 73.584 151.348C76.1183 151.348 76.7753 153.037 76.5876 154.445V154.633H75.5551C75.7428 153.413 75.1797 152.38 73.6779 152.38C72.0823 152.38 71.2375 153.6 70.956 155.571L70.6744 155.853Z" fill="#99288C"/>
<path d="M79.0267 156.228C78.839 158.106 79.4021 159.138 81.2793 159.138C82.9688 159.138 83.6258 158.2 83.8135 157.261H84.846V157.449C84.6583 158.669 83.532 160.077 81.2793 160.077C78.4635 160.077 77.6188 158.2 77.9942 155.853L78.0881 155.478C78.4635 153.037 79.7776 151.254 82.1241 151.254C84.6583 151.254 85.503 153.037 85.2214 155.478L85.1276 156.135L79.0267 156.228ZM79.1206 155.29H84.0013C84.2829 153.413 83.6258 152.38 82.0302 152.38C80.4346 152.38 79.3083 153.6 79.1206 155.29Z" fill="#99288C"/>
<path d="M92.542 151.537H94.8885L94.7947 152.569H92.4482L91.4157 159.984H90.2894L91.3219 152.569H90.0078L90.1017 151.537H91.4157L91.6973 149.378C91.885 147.688 93.0113 147.031 94.5131 147.031C95.0763 147.031 95.5456 147.125 95.6394 147.219L95.5456 148.158C95.3578 148.064 94.9824 147.97 94.607 147.97C93.6684 147.97 93.0113 148.345 92.8236 149.565L92.542 151.537Z" fill="#99288C"/>
<path d="M95.7356 155.947L95.8295 155.571C96.2049 153.131 97.3313 151.348 99.7716 151.348C102.306 151.348 103.244 153.225 102.963 155.571L102.869 155.947C102.494 158.387 101.273 160.17 98.9269 160.17C96.2988 160.264 95.3602 158.387 95.7356 155.947ZM101.649 156.041L101.743 155.665C102.024 153.694 101.367 152.38 99.6778 152.38C98.0821 152.38 97.1435 153.6 96.862 155.571L96.7681 155.947C96.4865 157.918 97.1435 159.232 98.7392 159.232C100.429 159.232 101.461 158.012 101.649 156.041Z" fill="#99288C"/>
<path d="M108.877 151.441L108.783 152.568H108.595C107.281 152.568 106.53 153.319 106.155 153.882L105.31 160.077H104.184L105.028 153.882L105.216 151.629H106.155V152.755C106.624 152.005 107.563 151.441 108.689 151.441H108.877Z" fill="#99288C"/>
<path d="M121.17 147.688L121.076 148.72H115.257L114.694 153.225H119.668L119.481 154.258H114.506L113.849 159.045H119.668L119.575 160.077H112.629L114.318 147.594L121.17 147.688Z" fill="#99288C"/>
<path d="M121.546 156.041L121.64 155.666C122.015 153.226 123.142 151.442 125.394 151.442C126.708 151.442 127.459 152.193 127.741 152.663L128.492 147.312H129.618L128.21 157.731L128.022 159.984H127.084V158.951C126.521 159.702 125.582 160.171 124.549 160.171C122.015 160.359 121.171 158.482 121.546 156.041ZM122.672 155.666L122.578 156.041C122.297 158.106 122.954 159.327 124.549 159.327C125.676 159.327 126.333 158.763 126.802 158.106L127.365 153.883C127.084 153.32 126.521 152.475 125.394 152.475C123.892 152.569 122.954 153.695 122.672 155.666Z" fill="#99288C"/>
<path d="M132.058 151.723L131.307 157.448C131.119 158.762 131.776 159.325 132.996 159.325C134.216 159.325 135.061 158.575 135.436 158.011L136.281 151.723H137.408L136.563 157.918L136.375 160.17H135.436V158.95C134.873 159.795 133.841 160.264 132.621 160.264C130.743 160.264 129.993 159.138 130.18 157.542L131.025 151.629L132.058 151.723Z" fill="#99288C"/>
<path d="M139.663 156.134C139.381 158.105 140.038 159.419 141.728 159.419C143.323 159.419 143.886 158.481 144.074 157.354H145.2V157.542C145.013 159.044 144.168 160.452 141.821 160.452C139.287 160.452 138.349 158.575 138.63 156.228L138.724 155.853C139.1 153.412 140.226 151.629 142.572 151.629C145.107 151.629 145.764 153.318 145.576 154.726V154.914H144.543C144.731 153.694 144.168 152.661 142.666 152.661C141.071 152.661 140.226 153.882 139.944 155.853L139.663 156.134Z" fill="#99288C"/>
<path d="M151.861 159.044C151.298 159.795 150.265 160.358 148.857 160.358C147.262 160.358 146.417 159.419 146.511 158.011V157.73C146.699 155.946 148.013 155.571 149.608 155.289L152.236 154.914L152.33 154.539C152.518 153.225 152.143 152.474 150.641 152.474C149.045 152.474 148.576 153.412 148.482 154.539H147.45V154.351C147.637 153.037 148.388 151.629 150.735 151.629C153.175 151.629 153.832 152.943 153.55 154.82L153.081 157.918L152.893 160.264H151.955L151.861 159.044ZM151.861 158.105L152.143 155.853L149.608 156.228C148.482 156.416 147.825 156.885 147.637 157.73V157.918C147.543 158.668 148.013 159.325 149.045 159.419C150.641 159.419 151.486 158.575 151.861 158.105Z" fill="#99288C"/>
<path d="M160.311 151.819L160.217 152.852H157.495L156.838 157.826C156.65 159.14 157.214 159.516 158.058 159.516C158.528 159.516 158.997 159.422 159.091 159.422L158.997 160.36C158.809 160.36 158.434 160.548 157.871 160.548C156.369 160.548 155.43 159.797 155.618 158.014L156.275 152.945H154.961L155.055 151.913H156.369L156.65 149.566H157.777L157.495 151.913L160.311 151.819Z" fill="#99288C"/>
<path d="M162.189 151.816H163.315L162.189 160.264H161.062L162.189 151.816ZM163.784 149.845H162.377L162.564 148.438H163.972L163.784 149.845Z" fill="#99288C"/>
<path d="M164.72 156.228L164.814 155.853C165.189 153.412 166.316 151.629 168.756 151.629C171.29 151.629 172.229 153.506 171.947 155.853L171.853 156.228C171.478 158.668 170.258 160.452 167.911 160.452C165.283 160.452 164.345 158.575 164.72 156.228ZM170.633 156.322L170.727 155.946C171.009 153.975 170.352 152.661 168.662 152.661C167.067 152.661 166.128 153.882 165.846 155.853L165.752 156.228C165.471 158.199 166.128 159.513 167.724 159.513C169.413 159.513 170.352 158.293 170.633 156.322Z" fill="#99288C"/>
<path d="M178.33 160.358L179.081 154.632C179.269 153.318 178.612 152.755 177.392 152.755C176.172 152.755 175.327 153.506 174.952 154.069L174.107 160.358H172.98L173.825 154.163L174.013 151.91H174.952V153.13C175.515 152.286 176.547 151.816 177.767 151.816C179.645 151.816 180.395 152.943 180.208 154.538L179.363 160.452L178.33 160.358Z" fill="#99288C"/>
<path d="M189.97 159.231C189.407 159.982 188.375 160.545 186.967 160.545C185.371 160.545 184.526 159.607 184.62 158.199V157.917C184.808 156.134 186.122 155.759 187.718 155.477L190.346 155.102L190.44 154.726C190.627 153.412 190.252 152.661 188.75 152.661C187.155 152.661 186.685 153.6 186.591 154.726H185.559V154.538C185.747 153.224 186.498 151.816 188.844 151.816C191.284 151.816 191.941 153.13 191.66 155.008L191.191 158.105L191.003 160.452H190.064L189.97 159.231ZM189.97 158.199L190.252 155.946L187.718 156.322C186.591 156.509 185.934 156.979 185.747 157.823V158.011C185.653 158.762 186.122 159.419 187.155 159.513C188.75 159.607 189.595 158.668 189.97 158.199Z" fill="#99288C"/>
<path d="M198.135 160.451L198.886 154.726C199.074 153.412 198.417 152.849 197.197 152.849C195.976 152.849 195.132 153.6 194.756 154.163L193.911 160.451H192.785L193.63 154.257L193.818 152.004H194.756V153.224C195.319 152.379 196.352 151.91 197.572 151.91C199.449 151.91 200.2 153.036 200.012 154.632L199.168 160.545L198.135 160.451Z" fill="#99288C"/>
<path d="M201.608 156.416L201.702 156.041C202.078 153.601 203.204 151.817 205.457 151.817C206.771 151.817 207.522 152.568 207.803 153.038L208.554 147.688H209.68L208.272 158.106L208.085 160.359H207.146V159.326C206.583 160.077 205.644 160.546 204.612 160.546C202.078 160.64 201.233 158.763 201.608 156.416ZM202.735 156.041L202.641 156.416C202.359 158.481 203.016 159.702 204.612 159.702C205.738 159.702 206.395 159.138 206.865 158.481L207.428 154.258C207.146 153.695 206.583 152.85 205.457 152.85C203.955 152.85 203.016 154.07 202.735 156.041Z" fill="#99288C"/>
<path d="M219.254 147.969L221.131 160.546H219.911L219.442 157.355H214.843L213.529 160.546H212.309L217.565 147.969H219.254ZM215.312 156.228H219.254L218.222 149.095L215.312 156.228Z" fill="#99288C"/>
<path d="M223.854 156.415C223.572 158.386 224.23 159.701 225.919 159.701C227.515 159.701 228.078 158.762 228.265 157.636H229.392V157.823C229.204 159.325 228.359 160.733 226.013 160.733C223.479 160.733 222.54 158.856 222.822 156.509L222.915 156.134C223.291 153.693 224.417 151.91 226.764 151.91C229.298 151.91 229.955 153.6 229.767 155.008V155.195H228.735C228.923 153.975 228.359 152.943 226.858 152.943C225.262 152.943 224.417 154.163 224.136 156.134L223.854 156.415Z" fill="#99288C"/>
<path d="M232.206 156.509C231.924 158.48 232.581 159.794 234.271 159.794C235.866 159.794 236.429 158.856 236.617 157.729H237.743V157.917C237.556 159.419 236.711 160.827 234.364 160.827C231.83 160.827 230.892 158.95 231.173 156.603L231.267 156.228C231.642 153.787 232.769 152.004 235.115 152.004C237.65 152.004 238.307 153.693 238.119 155.101V155.289H237.086C237.274 154.069 236.711 153.036 235.209 153.036C233.614 153.036 232.769 154.257 232.487 156.228L232.206 156.509Z" fill="#99288C"/>
<path d="M240.468 156.791C240.28 158.668 240.844 159.701 242.721 159.701C244.41 159.701 245.067 158.762 245.255 157.823H246.287V158.011C246.1 159.231 244.973 160.639 242.721 160.639C239.905 160.639 239.06 158.762 239.436 156.416L239.53 156.04C239.905 153.6 241.219 151.816 243.565 151.816C246.1 151.816 246.944 153.6 246.663 156.04L246.569 156.697L240.468 156.791ZM240.656 155.946H245.537C245.818 154.069 245.161 153.037 243.565 153.037C241.97 152.943 240.844 154.163 240.656 155.946Z" fill="#99288C"/>
<path d="M253.327 158.105C253.327 157.26 252.67 156.979 251.262 156.697C249.103 156.415 248.446 155.571 248.54 154.257V154.163C248.728 152.755 249.854 151.91 251.825 151.91C254.265 151.91 255.016 153.036 254.828 154.632V154.82H253.702C253.89 153.6 253.421 152.943 251.825 152.943C250.511 152.943 249.666 153.412 249.666 154.538C249.666 155.289 250.229 155.571 251.731 155.852C253.608 156.04 254.547 156.791 254.359 158.387V158.48C254.171 159.888 253.045 160.827 250.98 160.827C248.446 160.827 247.695 159.607 247.883 158.293V158.105H249.009C248.821 159.137 249.291 159.888 250.98 159.888C252.576 159.794 253.327 159.231 253.327 158.105Z" fill="#99288C"/>
<path d="M261.678 158.199C261.678 157.354 261.021 157.072 259.613 156.791C257.455 156.509 256.798 155.664 256.891 154.35V154.257C257.079 152.849 258.205 152.004 260.177 152.004C262.617 152.004 263.368 153.13 263.18 154.726V154.914H262.054C262.241 153.693 261.772 153.036 260.177 153.036C258.862 153.036 258.018 153.506 258.018 154.632C258.018 155.383 258.581 155.664 260.083 155.946C261.96 156.134 262.898 156.885 262.711 158.48V158.574C262.523 159.982 261.397 160.921 259.332 160.921C256.798 160.921 256.047 159.7 256.234 158.386V158.199H257.361C257.173 159.231 257.642 159.982 259.332 159.982C260.927 159.888 261.678 159.325 261.678 158.199Z" fill="#99288C"/>
<path d="M8.06641 42.6562H22.0515C29.2788 42.6562 34.5349 47.3492 34.5349 54.858C34.5349 62.3668 29.2788 67.2476 22.0515 67.2476H12.0085V83.1099H8.06641V42.6562ZM21.4884 63.6809C26.9323 63.6809 30.4051 60.3958 30.4051 54.858C30.4051 49.4142 26.9323 46.2229 21.5822 46.2229H12.0085V63.6809H21.4884Z" fill="#99288C"/>
<path d="M56.5911 65.1817H58.1867V64.4308C58.1867 58.8931 55.1832 56.922 50.9595 56.922C46.2665 57.0159 42.8875 59.7378 42.8875 59.7378L41.0103 56.7343C41.0103 56.7343 44.7647 53.4492 51.3349 53.4492C58.2806 53.4492 62.1288 57.2975 62.1288 64.5247V83.0151H58.3744V79.8239C58.3744 78.416 58.4683 77.3835 58.4683 77.3835H58.3744C58.3744 77.3835 55.9341 83.6721 48.7069 83.6721C43.92 83.6721 38.8516 80.8563 38.8516 75.1309C38.9454 65.4633 51.6165 65.1817 56.5911 65.1817ZM49.3639 80.4809C54.9016 80.4809 58.1867 74.7554 58.1867 69.687V68.4668H56.4972C51.992 68.4668 42.8875 68.6545 42.8875 75.037C42.8875 77.6651 45.0463 80.4809 49.3639 80.4809Z" fill="#99288C"/>
<path d="M72.0786 57.7675H68.3242V54.4824H72.1725V46.1289H76.0207V54.4824H83.248V57.7675H76.0207V72.1281C76.0207 78.886 80.3383 79.7308 82.4971 79.7308C83.3418 79.7308 83.8111 79.6369 83.8111 79.6369V83.2036C83.8111 83.2036 83.1541 83.2974 82.1216 83.2974C78.7427 83.2974 72.0786 82.1711 72.0786 72.5036V57.7675Z" fill="#99288C"/>
<path d="M90.1016 42.6562H94.1375V47.537H90.1016V42.6562ZM90.1954 54.201H94.1375V83.1099H90.1954V54.201Z" fill="#99288C"/>
<path d="M115.818 53.4492C123.796 53.4492 127.926 59.644 127.926 66.7773C127.926 67.4344 127.832 68.7484 127.832 68.7484H105.682C105.869 76.1633 110.938 80.1993 116.851 80.1993C122.107 80.1993 125.674 76.7265 125.674 76.7265L127.457 79.73C127.457 79.73 123.233 83.766 116.757 83.766C108.122 83.766 101.646 77.5712 101.646 68.6545C101.552 59.1747 108.028 53.4492 115.818 53.4492ZM123.89 65.651C123.703 59.644 119.948 56.8282 115.631 56.8282C110.844 56.8282 106.62 59.8317 105.682 65.651H123.89Z" fill="#99288C"/>
<path d="M135.34 54.2001H139.188V58.5177C139.188 59.7378 139.094 60.7703 139.094 60.7703H139.188C140.221 58.1422 143.881 53.4492 150.733 53.4492C157.866 53.4492 160.401 57.4852 160.401 64.6186V83.0151H156.458V65.7449C156.458 61.2396 155.801 57.2036 150.17 57.2036C145.195 57.2036 140.972 60.5826 139.658 65.3694C139.282 66.5896 139.188 67.9036 139.188 69.3115V83.2028H135.246V54.2001H135.34Z" fill="#99288C"/>
<path d="M170.54 57.7675H166.785V54.4824H170.633V46.1289H174.482V54.4824H181.709V57.7675H174.482V72.1281C174.482 78.886 178.799 79.7308 180.958 79.7308C181.803 79.7308 182.272 79.6369 182.272 79.6369V83.2036C182.272 83.2036 181.615 83.2974 180.583 83.2974C177.204 83.2974 170.54 82.1711 170.54 72.5036V57.7675Z" fill="#99288C"/>
<path d="M261.113 18.2546C259.893 16.4712 258.485 14.8756 256.983 13.3739C244.969 1.35978 226.667 -1.54988 211.461 6.2405C211.274 6.33436 211.18 6.52208 211.086 6.7098C211.086 6.89752 211.086 7.08524 211.274 7.27296L216.999 12.9984C217.187 13.1861 217.468 13.28 217.656 13.0923C229.013 8.39928 241.966 11.0274 250.601 19.6625C251.07 20.1318 251.54 20.6011 252.009 21.1642C252.197 21.3519 252.384 21.4458 252.666 21.352L260.644 19.1932C260.738 19.1932 260.832 19.0993 260.926 19.0055C261.019 18.9116 261.019 18.8177 261.113 18.7239C261.301 18.63 261.207 18.4423 261.113 18.2546Z" fill="#E83238"/>
<path d="M210.803 65.0922C209.771 64.2475 208.738 63.4027 207.894 62.558C199.259 53.9229 196.63 40.9702 201.323 29.6132C201.417 29.3316 201.323 29.1439 201.23 28.9561L195.504 23.2307C195.316 23.043 195.129 23.043 194.941 23.043C194.753 23.043 194.566 23.2307 194.472 23.4184C186.775 38.6237 189.591 56.9264 201.699 68.9405C203.576 70.8177 205.735 72.601 207.987 74.1028C208.175 74.1966 208.363 74.1966 208.551 74.1966C208.645 74.1966 208.738 74.1028 208.738 74.0089C208.832 73.9151 208.832 73.8212 208.926 73.7273L210.991 65.8431C211.085 65.4677 210.991 65.1861 210.803 65.0922Z" fill="#99288C"/>
<path d="M268.153 40.8749C267.965 40.7811 267.778 40.6872 267.59 40.7811L259.894 42.846C259.612 42.9398 259.424 43.1276 259.424 43.4091C258.861 50.6364 255.764 57.4881 250.695 62.5566C245.908 67.3434 239.901 70.2531 233.237 71.1917C232.956 71.1917 232.768 71.3794 232.674 71.661L230.609 79.4514C230.515 79.6391 230.609 79.8268 230.703 80.0145C230.797 80.2022 230.985 80.2961 231.266 80.2023C241.028 79.733 250.132 75.697 256.984 68.8452C264.305 61.5241 268.341 51.7627 268.435 41.4381C268.435 41.1565 268.341 40.9688 268.153 40.8749Z" fill="#07809F"/>
<path d="M252.196 49.605C248.254 45.6629 241.778 45.6629 237.742 49.605C233.8 53.5471 233.8 60.0235 237.742 64.0595C241.684 68.0016 248.16 68.0016 252.196 64.0595C256.232 60.1173 256.232 53.5471 252.196 49.605Z" fill="#07809F"/>
<path d="M214.653 40.1246C210.711 36.1824 204.235 36.1824 200.199 40.1246C196.163 44.0667 196.257 50.543 200.199 54.579C204.141 58.5211 210.617 58.5211 214.653 54.579C218.595 50.543 218.595 44.0667 214.653 40.1246Z" fill="#99288C"/>
<path d="M242.716 12.0582C238.774 8.11603 232.297 8.11603 228.261 12.0582C224.225 16.0003 224.319 22.4766 228.261 26.5126C232.204 30.4547 238.68 30.4547 242.716 26.5126C246.658 22.4766 246.658 16.0941 242.716 12.0582Z" fill="#E83238"/>
<path d="M11.2585 115.306C11.2585 115.306 15.6699 119.623 21.3954 119.623C24.4928 119.623 27.3086 118.028 27.3086 114.649C27.3086 107.328 8.06729 108.642 8.06729 96.0646C8.06729 89.3067 13.8866 84.2383 21.7708 84.2383C29.8428 84.2383 33.9726 88.6497 33.9726 88.6497L30.7814 94.6567C30.7814 94.6567 26.8393 91.0901 21.7708 91.0901C18.298 91.0901 15.5761 93.0611 15.5761 95.9708C15.5761 103.198 34.8174 101.415 34.8174 114.461C34.8174 120.938 29.8428 126.381 21.3954 126.381C12.291 126.381 7.31641 120.844 7.31641 120.844L11.2585 115.306Z" fill="#99288C"/>
<path d="M40.6367 96.4414H47.9578V113.805C47.9578 117.372 48.8964 119.813 52.4631 119.813C57.7192 119.813 60.7228 115.12 60.7228 109.957V96.5353H68.0438V125.82H61.0043V122.441C61.0043 121.314 61.0982 120.376 61.0982 120.376H61.0043C59.5964 123.379 55.842 126.477 50.8675 126.477C44.5788 126.477 40.7306 123.285 40.7306 115.307V96.4414H40.6367Z" fill="#99288C"/>
<path d="M76.0234 96.4383H82.6875V98.597C82.6875 99.7234 82.5936 100.568 82.5936 100.568H82.6875C82.6875 100.568 85.2217 95.7812 92.0735 95.7812C100.052 95.7812 105.026 102.07 105.026 111.08C105.026 120.373 99.3007 126.38 91.6042 126.38C85.7849 126.38 83.2506 122.344 83.2506 122.344C83.2506 122.344 83.3445 123.376 83.3445 124.878V137.173H76.0234V96.4383ZM90.384 120.279C94.42 120.279 97.7051 116.994 97.7051 111.174C97.7051 105.637 94.7016 101.976 90.384 101.976C86.6296 101.976 83.0629 104.698 83.0629 111.268C83.1568 115.773 85.5971 120.279 90.384 120.279Z" fill="#99288C"/>
<path d="M111.125 96.4383H117.789V98.597C117.789 99.7234 117.695 100.568 117.695 100.568H117.789C117.789 100.568 120.323 95.7812 127.175 95.7812C135.153 95.7812 140.128 102.07 140.128 111.08C140.128 120.373 134.402 126.38 126.706 126.38C120.887 126.38 118.352 122.344 118.352 122.344H118.258C118.258 122.344 118.352 123.376 118.352 124.878V137.173H111.031V96.4383H111.125ZM125.486 120.279C129.522 120.279 132.807 116.994 132.807 111.174C132.807 105.637 129.803 101.976 125.486 101.976C121.731 101.976 118.165 104.698 118.165 111.268C118.258 115.773 120.699 120.279 125.486 120.279Z" fill="#99288C"/>
<path d="M160.215 95.7812C169.226 95.7812 176.359 102.164 176.359 111.08C176.359 120.091 169.132 126.38 160.309 126.38C151.298 126.38 144.165 120.091 144.165 111.08C144.071 102.164 151.298 95.7812 160.215 95.7812ZM160.215 120.279C164.908 120.279 168.85 116.618 168.85 111.174C168.85 105.73 164.908 102.07 160.215 102.07C155.428 102.07 151.486 105.824 151.486 111.174C151.486 116.524 155.428 120.279 160.215 120.279Z" fill="#99288C"/>
<path d="M182.176 96.4418H189.215V101.51C189.215 102.637 189.121 103.575 189.121 103.575H189.215C190.529 99.3515 194.002 96.0664 198.507 96.0664C199.164 96.0664 199.821 96.1603 199.821 96.1603V103.387C199.821 103.387 199.071 103.294 198.132 103.294C195.035 103.294 191.562 105.077 190.154 109.488C189.685 110.896 189.497 112.492 189.497 114.275V125.914H182.176V96.4418Z" fill="#99288C"/>
<path d="M206.016 102.728H202.262V96.9083H206.204V88.4609H213.337V96.9083H220.001V102.728H213.337V114.085C213.337 118.872 217.092 119.622 219.157 119.622C220.001 119.622 220.471 119.529 220.471 119.529V125.911C220.471 125.911 219.626 126.099 218.218 126.099C214.182 126.099 206.016 124.879 206.016 115.023V102.728Z" fill="#99288C"/>
<path d="M14.5436 11.9664C6.3778 17.598 0.652344 25.1068 0.652344 25.1068L11.3524 32.334L12.291 29.9875C14.8252 35.2437 20.2691 36.6516 23.3665 36.5577H23.2726H78.7438H78.65C81.7473 36.6516 87.2851 35.2437 89.8193 29.9875C89.9132 30.1753 90.7579 32.2402 90.7579 32.2402L101.458 25.1068C101.458 25.1068 95.6386 17.5042 87.4728 11.8726C79.964 6.80413 67.4806 0.609375 50.9613 0.609375C34.4419 0.609375 22.0524 6.80413 14.5436 11.9664Z" fill="white"/>
<path d="M34.725 17.6937L35.6636 15.7227H23.8373L22.8987 17.6937H27.4978L22.7109 27.3613H25.8083L30.5952 17.6937H34.725Z" fill="#E83238"/>
<path d="M77.5254 24.1699C76.6806 25.3901 75.3666 26.0471 74.7096 25.5778C74.0526 25.1085 74.2403 23.7006 75.085 22.4805C75.9298 21.2603 77.2438 20.6033 77.9008 21.0726C78.6517 21.5419 78.464 22.8559 77.5254 24.1699ZM67.2008 24.0761C66.356 25.2963 65.042 25.9533 64.385 25.484C63.728 25.0147 63.9157 23.6068 64.7604 22.3866C65.6052 21.1664 66.9192 20.5094 67.5762 20.9787C68.2332 21.448 68.0455 22.8559 67.2008 24.0761ZM54.342 23.2313C54.342 23.2313 54.9051 21.2603 56.7823 20.5094C56.7823 20.5094 57.3455 20.3217 57.6271 20.6033C57.6271 20.6033 58.0025 20.9787 57.5332 21.7296C57.0639 22.3866 56.1253 23.5129 54.999 23.8884C54.9051 23.7945 53.9665 24.2638 54.342 23.2313ZM36.227 24.0761C35.3823 25.2963 34.0682 25.9533 33.4112 25.484C32.7542 25.0147 32.9419 23.6068 33.7866 22.3866C34.6314 21.1664 35.9454 20.5094 36.6024 20.9787C37.2595 21.448 37.0717 22.8559 36.227 24.0761ZM80.5289 25.5778C80.5289 25.5778 79.9657 25.8594 79.6842 25.5778C79.4026 25.2963 79.6842 24.827 79.6842 24.827L82.2184 19.5708H79.6842L79.2149 20.3217C77.7131 19.0076 74.8973 19.6647 73.2078 21.5419C72.1754 22.5743 71.6122 23.7945 71.5183 24.9208C71.2368 25.1085 70.7675 25.3901 70.1104 25.6717C70.1104 25.6717 69.5473 25.9533 69.2657 25.6717C68.9841 25.3901 69.2657 24.9208 69.2657 24.9208L73.6771 15.8164H71.1429L68.7964 20.4155C67.2946 19.1015 64.4788 19.7585 62.7894 21.6357C62.4139 22.0112 62.1323 22.3866 61.8508 22.762C61.8508 22.762 61.8508 22.8559 61.7569 22.8559C61.663 22.9498 61.663 23.0436 61.5692 23.1375C60.1613 25.5778 58.4718 25.9533 58.4718 25.9533C54.8113 27.0796 54.4358 25.2963 54.4358 25.2963C58.5657 23.7945 60.0674 22.0112 59.8797 20.6033C59.692 19.1954 57.8148 19.1954 57.8148 19.1954C54.7174 19.0076 52.0893 21.1664 51.4323 23.3252C51.2446 23.9822 51.1507 24.6392 51.3385 25.2024C50.1183 25.8594 49.3674 25.9533 49.3674 25.9533C48.3349 26.2349 48.2411 25.7656 48.0534 25.484C47.9595 25.2024 47.4902 22.5743 47.4902 22.5743L51.8078 19.7585H49.1797L45.8946 21.8234C45.1437 22.105 45.4253 21.3541 45.4253 21.3541L48.0534 16.0041H45.7069L41.3893 24.7331C40.92 25.0147 39.8875 25.5778 39.1367 25.8594C39.1367 25.8594 38.5735 26.141 38.2919 25.8594C38.0103 25.5778 38.2919 25.1085 38.2919 25.1085L40.8261 19.8524H38.1981L37.8226 20.5094C36.3209 19.1954 33.5051 19.8524 31.8156 21.7296C30.0322 23.5129 29.6568 25.9533 30.7831 27.0796C31.7217 28.0182 33.4112 27.8305 35.0068 26.798C35.0068 26.798 35.3823 26.4226 35.57 26.8919C35.7577 27.2673 36.6963 28.2059 38.6674 27.455C39.3244 27.1735 39.8875 26.8919 40.3568 26.6103L39.7937 27.6428H42.3279L43.6419 25.0147L44.7683 24.2638C44.7683 24.2638 45.1437 23.9822 45.2376 24.5454C45.2376 24.5454 45.8007 26.7042 45.9884 26.9857C46.1762 27.2673 46.6455 27.9243 48.4288 27.3612C49.8367 26.9857 51.0569 26.5164 51.8078 26.2349C52.3709 27.0796 53.5911 27.6428 55.4683 27.6428C58.2841 27.6428 60.2552 26.3287 61.0999 25.5778C61.1938 26.141 61.3815 26.6103 61.7569 26.9857C62.6955 27.9243 64.385 27.7366 65.9806 26.7042C65.9806 26.7042 66.356 26.3287 66.5438 26.798C66.7315 27.1735 67.6701 28.1121 69.6411 27.3612C70.5797 26.9857 71.2368 26.6103 71.6122 26.3287C71.7061 26.6103 71.8938 26.8919 72.0815 27.0796C73.0201 28.0182 74.7096 27.8305 76.3052 26.798C76.3052 26.798 76.6806 26.4226 76.8684 26.8919C77.0561 27.2673 77.9947 28.2059 79.9657 27.455C82.0307 26.6103 82.5938 25.9533 82.5938 25.9533L82.1245 25.0147C82.1245 24.7331 81.4675 25.2024 80.5289 25.5778Z" fill="#E83238"/>
<path d="M87.6609 25.3899C87.6609 25.3899 86.4407 32.4294 78.6504 32.4294C70.9538 32.4294 30.9695 32.4294 23.273 32.4294C15.4826 32.4294 14.3563 25.296 14.3563 25.296C14.0747 23.4188 14.4501 22.1048 15.0133 21.26C20.6449 13.8451 31.7204 3.98982 50.8678 3.98982C70.203 3.98982 81.3723 14.0328 87.0039 21.4478C87.7548 22.1987 87.9425 23.5127 87.6609 25.3899ZM50.9617 2.67578C20.0817 2.67578 3.65625 24.639 3.65625 24.639L10.4142 29.1443C10.4142 29.1443 11.2589 27.0794 13.0422 24.1697C13.0422 24.9206 13.1361 25.3899 13.1361 25.3899C14.3563 34.5882 23.273 34.4004 23.273 34.4004H78.7442C78.7442 34.4004 87.8486 34.682 88.9749 25.4837C88.9749 25.4837 89.0688 25.0144 89.0688 24.2636C90.8521 27.0794 91.6969 29.0504 91.6969 29.0504L98.4548 24.5451C98.4548 24.639 81.8416 2.67578 50.9617 2.67578Z" fill="#E83238"/>
</g>
<defs>
<clipPath id="clip0_4062_9743">
<rect width="267.782" height="160.219" fill="white" transform="translate(0.652344 0.609375)"/>
</clipPath>
</defs>
</svg>
