<svg width="33" height="43" viewBox="0 0 33 43" fill="none" xmlns="http://www.w3.org/2000/svg">
<g clip-path="url(#clip0_2_20230)">
<path d="M22.1595 10.5664C22.1595 10.5664 28.059 10.5638 32.0079 10.5625L21.7751 0.327094V10.1781C21.7751 10.3887 21.9489 10.5664 22.1595 10.5664ZM22.1595 13.3003C20.4385 13.3003 19.0373 11.9004 19.0373 10.1781V0H5.26642C2.35811 0 0 2.35679 0 5.26313V37.7343C0 40.644 2.35811 43.0001 5.26642 43.0001H27.2041C30.1085 43.0001 32.4705 40.644 32.4705 37.7343V13.3003H22.1595ZM17.4038 32.9622H6.71564C5.95944 32.9622 5.34737 32.3494 5.34737 31.5946C5.34737 30.8377 5.95944 30.227 6.71564 30.227H17.4038C18.1587 30.227 18.7714 30.8377 18.7714 31.5946C18.7714 32.3494 18.1587 32.9622 17.4038 32.9622ZM25.9339 26.9073H6.71564C5.95944 26.9073 5.34737 26.2939 5.34737 25.5397C5.34737 24.7842 5.95944 24.1734 6.71564 24.1734H25.9339C26.6881 24.1734 27.3015 24.7842 27.3015 25.5397C27.3015 26.2939 26.6881 26.9073 25.9339 26.9073ZM25.9339 20.8498H6.71564C5.95944 20.8498 5.34737 20.2364 5.34737 19.4822C5.34737 18.726 5.95944 18.1146 6.71564 18.1146H25.9339C26.6881 18.1146 27.3015 18.726 27.3015 19.4822C27.3015 20.2364 26.6881 20.8498 25.9339 20.8498Z" fill="#333333"/>
</g>
<defs>
<clipPath id="clip0_2_20230">
<rect width="32.4705" height="43.0001" fill="white"/>
</clipPath>
</defs>
</svg>
