<svg width="101" height="88" viewBox="0 0 101 88" fill="none" xmlns="http://www.w3.org/2000/svg">
<path fill-rule="evenodd" clip-rule="evenodd" d="M60.9704 62.8513C63.7069 67.3019 70.8915 72.7205 72.6069 73.979C74.3235 72.7205 81.5082 67.3019 84.2434 62.8525C84.247 62.8464 84.2495 62.8416 84.2531 62.8368C84.8546 61.8435 85.1741 60.7019 85.1741 59.5338C85.1741 56.0198 82.3147 53.1616 78.8007 53.1616C76.4621 53.1616 74.3151 54.4394 73.1964 56.4972C73.0795 56.713 72.8528 56.848 72.6069 56.848C72.3622 56.848 72.1356 56.713 72.0175 56.4972C70.9 54.4394 68.753 53.1616 66.4144 53.1616C62.9004 53.1616 60.041 56.021 60.041 59.5338C60.041 60.7019 60.3593 61.8435 60.962 62.8368C60.9644 62.8416 60.968 62.8464 60.9704 62.8513Z" fill="#DD4167"/>
<mask id="mask0_572_10401" style="mask-type:luminance" maskUnits="userSpaceOnUse" x="26" y="2" width="32" height="32">
<path fill-rule="evenodd" clip-rule="evenodd" d="M42.045 7.55612C36.4202 7.55612 31.8442 12.1333 31.8442 17.7605C31.8442 23.3841 36.4202 27.9601 42.045 27.9601C47.6709 27.9601 52.2481 23.3841 52.2481 17.7605C52.2481 12.1333 47.6709 7.55612 42.045 7.55612ZM42.045 33.1051C33.5837 33.1051 26.6992 26.2218 26.6992 17.7605C26.6992 9.29683 33.5837 2.41113 42.045 2.41113C50.5086 2.41113 57.3931 9.29683 57.3931 17.7605C57.3931 26.2218 50.5086 33.1051 42.045 33.1051Z" fill="white"/>
</mask>
<g mask="url(#mask0_572_10401)">
<path fill-rule="evenodd" clip-rule="evenodd" d="M42.045 7.55612C36.4202 7.55612 31.8442 12.1333 31.8442 17.7605C31.8442 23.3841 36.4202 27.9601 42.045 27.9601C47.6709 27.9601 52.2481 23.3841 52.2481 17.7605C52.2481 12.1333 47.6709 7.55612 42.045 7.55612ZM42.045 33.1051C33.5837 33.1051 26.6992 26.2218 26.6992 17.7605C26.6992 9.29683 33.5837 2.41113 42.045 2.41113C50.5086 2.41113 57.3931 9.29683 57.3931 17.7605C57.3931 26.2218 50.5086 33.1051 42.045 33.1051Z" fill="url(#paint0_linear_572_10401)"/>
</g>
<mask id="mask1_572_10401" style="mask-type:luminance" maskUnits="userSpaceOnUse" x="2" y="37" width="99" height="50">
<path fill-rule="evenodd" clip-rule="evenodd" d="M33.9213 38.0762C37.2243 37.6073 40.7865 37.5591 45.4674 37.9195C48.9066 38.1618 52.1349 38.908 55.1402 40.0906C57.087 39.2781 59.2195 38.8261 61.4557 38.8261C65.6025 38.8261 69.5927 40.4149 72.6064 43.1802C75.6189 40.4149 79.609 38.8261 83.7558 38.8261C92.8319 38.8261 100.215 46.2096 100.215 55.2869C100.215 58.2475 99.4198 61.1491 97.913 63.6842L97.79 63.888C91.7192 73.8055 75.5092 85.3564 74.822 85.8434C74.1855 86.2978 73.4285 86.5401 72.6377 86.5401H72.5738C71.7878 86.5401 71.0308 86.299 70.3883 85.8422C70.3364 85.8048 70.1882 85.6987 69.9724 85.5432H9.78883C7.6708 85.5432 5.64801 84.6355 4.23759 83.0551C3.24182 81.9383 2.61239 80.5562 2.41016 79.0974L2.41089 77.0172C4.99023 55.0711 16.7587 40.5198 33.9213 38.0762ZM83.7558 43.8143C79.5451 43.8143 75.6803 46.1156 73.6684 49.8188C73.4574 50.2082 73.0488 50.4505 72.6076 50.4505C72.1652 50.4505 71.7565 50.2082 71.5455 49.8188C69.5336 46.1156 65.6676 43.8143 61.4581 43.8143C55.1317 43.8143 49.9855 48.9605 49.9855 55.2869C49.9855 57.3892 50.5581 59.4446 51.6431 61.2311C51.6479 61.2395 51.6539 61.2492 51.6587 61.2576C56.5831 69.2692 69.5167 79.0252 72.6064 81.2903C75.696 79.0252 88.6296 69.2692 93.554 61.2588C93.5588 61.2492 93.5648 61.2407 93.5709 61.2311C94.6546 59.4446 95.2284 57.3892 95.2284 55.2869C95.2284 48.9605 90.0822 43.8143 83.7558 43.8143ZM39.8909 42.827C37.9621 42.827 36.2587 42.9416 34.647 43.1718C12.7905 46.2832 8.34225 70.4603 7.49962 77.7968C7.42247 78.4743 7.6262 79.1252 8.07705 79.6303C8.51825 80.1246 9.12702 80.397 9.78883 80.397H63.3193C57.9622 76.0115 50.9463 69.6466 47.3853 63.8289C45.811 61.219 44.9961 58.2825 44.9961 55.2869C44.9961 50.8073 46.7995 46.7436 49.7131 43.7733C48.2569 43.4262 46.7283 43.167 45.0877 43.0513C43.1601 42.9018 41.4507 42.827 39.8909 42.827Z" fill="white"/>
</mask>
<g mask="url(#mask1_572_10401)">
<path fill-rule="evenodd" clip-rule="evenodd" d="M2.41211 86.5403H100.216V2.41113H2.41211V86.5403Z" fill="url(#paint1_linear_572_10401)"/>
</g>
<defs>
<linearGradient id="paint0_linear_572_10401" x1="42.0462" y1="2.41113" x2="42.0462" y2="33.1051" gradientUnits="userSpaceOnUse">
<stop stop-color="#CEC6DF"/>
<stop offset="1" stop-color="#6D6A95"/>
</linearGradient>
<linearGradient id="paint1_linear_572_10401" x1="51.3142" y1="2.41113" x2="51.3142" y2="86.5403" gradientUnits="userSpaceOnUse">
<stop stop-color="#CEC6DF"/>
<stop offset="1" stop-color="#6D6A95"/>
</linearGradient>
</defs>
</svg>
