<svg width="92" height="161" viewBox="0 0 92 161" fill="none" xmlns="http://www.w3.org/2000/svg">
<mask id="mask0_4239_2959" style="mask-type:luminance" maskUnits="userSpaceOnUse" x="0" y="0" width="92" height="161">
<path fill-rule="evenodd" clip-rule="evenodd" d="M22.3877 0.484375C10.3875 0.484375 0.570312 10.3016 0.570312 22.3018V138.667C0.570312 150.667 10.3875 160.484 22.3877 160.484H69.6606C81.6608 160.484 91.48 150.667 91.48 138.667V22.3018C91.48 10.3016 81.6608 0.484375 69.6606 0.484375H22.3877ZM22.3908 7.75781H69.6637C76.3915 7.75781 82.0277 12.4855 83.6639 18.6665H8.39062C10.0288 12.4855 15.6631 7.75781 22.3908 7.75781ZM7.84375 118.666H84.2085V25.9375H7.84375V118.666ZM7.84375 138.665V125.938H84.2085V138.665C84.2085 146.665 77.6617 153.21 69.6616 153.21H22.3887C14.3886 153.21 7.84375 146.665 7.84375 138.665Z" fill="white"/>
</mask>
<g mask="url(#mask0_4239_2959)">
<path fill-rule="evenodd" clip-rule="evenodd" d="M22.3877 0.484375C10.3875 0.484375 0.570312 10.3016 0.570312 22.3018V138.667C0.570312 150.667 10.3875 160.484 22.3877 160.484H69.6606C81.6608 160.484 91.48 150.667 91.48 138.667V22.3018C91.48 10.3016 81.6608 0.484375 69.6606 0.484375H22.3877ZM22.3908 7.75781H69.6637C76.3915 7.75781 82.0277 12.4855 83.6639 18.6665H8.39062C10.0288 12.4855 15.6631 7.75781 22.3908 7.75781ZM7.84375 118.666H84.2085V25.9375H7.84375V118.666ZM7.84375 138.665V125.938H84.2085V138.665C84.2085 146.665 77.6617 153.21 69.6616 153.21H22.3887C14.3886 153.21 7.84375 146.665 7.84375 138.665Z" fill="url(#paint0_linear_4239_2959)"/>
</g>
<mask id="mask1_4239_2959" style="mask-type:luminance" maskUnits="userSpaceOnUse" x="36" y="129" width="20" height="21">
<path fill-rule="evenodd" clip-rule="evenodd" d="M36.2031 139.397C36.2031 144.851 40.567 149.215 46.0223 149.215C51.4757 149.215 55.8396 144.851 55.8396 139.397C55.8396 133.942 51.4757 129.578 46.0223 129.578C40.567 129.578 36.2031 133.942 36.2031 139.397ZM43.4766 139.577C43.4766 138.124 44.568 136.852 46.0233 136.852C47.4766 136.852 48.5681 137.943 48.5681 139.398C48.5681 140.852 47.4766 142.126 46.0233 142.126C44.568 142.126 43.4766 141.033 43.4766 139.577Z" fill="white"/>
</mask>
<g mask="url(#mask1_4239_2959)">
<path fill-rule="evenodd" clip-rule="evenodd" d="M36.2031 139.397C36.2031 144.851 40.567 149.215 46.0223 149.215C51.4757 149.215 55.8396 144.851 55.8396 139.397C55.8396 133.942 51.4757 129.578 46.0223 129.578C40.567 129.578 36.2031 133.942 36.2031 139.397ZM43.4766 139.577C43.4766 138.124 44.568 136.852 46.0233 136.852C47.4766 136.852 48.5681 137.943 48.5681 139.398C48.5681 140.852 47.4766 142.126 46.0233 142.126C44.568 142.126 43.4766 141.033 43.4766 139.577Z" fill="url(#paint1_linear_4239_2959)"/>
</g>
<path d="M65.7029 106.659H27.7831C22.2805 106.659 17.8203 102.199 17.8203 96.6967V46.5643C17.8203 41.0618 22.2805 36.6016 27.7831 36.6016H65.7029C71.2054 36.6016 75.6676 41.0618 75.6676 46.5643V96.6967C75.6676 102.199 71.2054 106.659 65.7029 106.659" stroke="#EF426F" stroke-width="5.89978"/>
<defs>
<linearGradient id="paint0_linear_4239_2959" x1="0.570312" y1="160.484" x2="91.4798" y2="160.484" gradientUnits="userSpaceOnUse">
<stop stop-color="#A8E1DB"/>
<stop offset="1" stop-color="#52C1BA"/>
</linearGradient>
<linearGradient id="paint1_linear_4239_2959" x1="36.203" y1="149.214" x2="55.8395" y2="149.214" gradientUnits="userSpaceOnUse">
<stop stop-color="#A8E1DB"/>
<stop offset="1" stop-color="#52C1BA"/>
</linearGradient>
</defs>
</svg>
