<svg width="60" height="60" viewBox="0 0 60 60" fill="none" xmlns="http://www.w3.org/2000/svg">
<g clip-path="url(#clip0_1522_10227)">
<rect width="60" height="60" fill="white"/>
<path d="M30.6536 20.732C30.7917 12.5262 36.4019 -1.87437 57.7384 6.17011C55.6777 13.8607 47.3757 27.54 30.6536 20.732Z" stroke="#E1242A" stroke-width="2"/>
<path d="M29.6423 20.732C29.5042 12.5262 23.894 -1.87437 2.5575 6.17011C4.6182 13.8607 12.9201 27.54 29.6423 20.732Z" stroke="#E1242A" stroke-width="2"/>
<path d="M30 10L30 32.5" stroke="#E1242A" stroke-width="2" stroke-linecap="round"/>
<path d="M5.96032 33.5H54.0397C55.0621 33.5 55.7849 34.5005 55.4638 35.4711L51.3284 47.9711C51.1252 48.5853 50.5512 49 49.9043 49H10.0957C9.44877 49 8.87475 48.5853 8.67157 47.9711L4.53623 35.4711C4.21511 34.5005 4.93791 33.5 5.96032 33.5Z" stroke="#E1242A" stroke-width="2"/>
<path d="M5.82632 49H54.1737C55.1724 49 55.8922 49.9577 55.6145 50.9171L54.1672 55.9171C53.9815 56.5585 53.3941 57 52.7263 57H7.27369C6.6059 57 6.01853 56.5585 5.83284 55.9171L4.38547 50.9171C4.10777 49.9577 4.82758 49 5.82632 49Z" stroke="#E1242A" stroke-width="2"/>
</g>
<defs>
<clipPath id="clip0_1522_10227">
<rect width="60" height="60" fill="white"/>
</clipPath>
</defs>
</svg>
