<svg width="84" height="84" viewBox="0 0 84 84" fill="none" xmlns="http://www.w3.org/2000/svg">
<path d="M72.6932 42.0009C72.6932 58.9495 58.9495 72.6932 42.0009 72.6932C25.0523 72.6932 11.3086 58.9495 11.3086 42.0009C11.3086 25.0523 25.0523 11.3086 42.0009 11.3086C58.9495 11.3086 72.6932 25.0523 72.6932 42.0009Z" fill="#E3E2E3"/>
<path fill-rule="evenodd" clip-rule="evenodd" d="M56.6412 17.0586C57.6492 17.0586 58.4569 17.8598 58.4569 18.8678V62.9355C58.4569 63.9371 57.6492 64.7447 56.6412 64.7447H33.8901C30.7692 64.7447 27.8486 63.4395 25.7874 61.1327L19.5972 54.3029C17.9883 52.5454 17.1289 50.2903 17.1289 47.8801V18.8678C17.1806 17.8663 17.9883 17.0586 18.9898 17.0586H56.6412ZM48.1378 43.5057C49.1458 43.5057 49.9535 44.3069 49.9535 45.3149C49.9535 46.3229 49.1458 47.1241 48.1378 47.1241H27.4997C26.4917 47.1241 25.684 46.3229 25.684 45.3149C25.684 44.3069 26.4917 43.5057 27.4997 43.5057H48.1378ZM48.1378 34.6727C49.1458 34.6727 49.9535 35.474 49.9535 36.482C49.9535 37.49 49.1458 38.2912 48.1378 38.2912H27.4997C26.4917 38.2912 25.684 37.49 25.684 36.482C25.684 35.474 26.4917 34.6727 27.4997 34.6727H48.1378ZM48.1378 25.8915C49.1458 25.8915 49.9535 26.6927 49.9535 27.7007C49.9535 28.7087 49.1458 29.51 48.1378 29.51H27.4997C26.4917 29.51 25.684 28.7087 25.684 27.7007C25.684 26.6927 26.4917 25.8915 27.4997 25.8915H48.1378Z" fill="#99288C"/>
<path fill-rule="evenodd" clip-rule="evenodd" d="M48.1374 43.5039C49.1454 43.5039 49.9531 44.3051 49.9531 45.3131C49.9531 46.3211 49.1454 47.1224 48.1374 47.1224H27.4993C26.4913 47.1224 25.6836 46.3211 25.6836 45.3131C25.6836 44.3051 26.4913 43.5039 27.4993 43.5039H48.1374Z" fill="white" stroke="#99288C" stroke-width="2" stroke-miterlimit="10"/>
<path fill-rule="evenodd" clip-rule="evenodd" d="M48.1374 34.6719C49.1454 34.6719 49.9531 35.4731 49.9531 36.4811C49.9531 37.4891 49.1454 38.2903 48.1374 38.2903H27.4993C26.4913 38.2903 25.6836 37.4891 25.6836 36.4811C25.6836 35.4731 26.4913 34.6719 27.4993 34.6719H48.1374Z" fill="white" stroke="#99288C" stroke-width="2" stroke-miterlimit="10"/>
<path fill-rule="evenodd" clip-rule="evenodd" d="M48.1374 25.8906C49.1454 25.8906 49.9531 26.6919 49.9531 27.6999C49.9531 28.7079 49.1454 29.5091 48.1374 29.5091H27.4993C26.4913 29.5091 25.6836 28.7079 25.6836 27.6999C25.6836 26.6919 26.4913 25.8906 27.4993 25.8906H48.1374Z" fill="white" stroke="#99288C" stroke-width="2" stroke-miterlimit="10"/>
<mask id="mask0_2693_35836" style="mask-type:luminance" maskUnits="userSpaceOnUse" x="17" y="17" width="42" height="48">
<path d="M56.6412 17.0586C57.6492 17.0586 58.4569 17.8598 58.4569 18.8678V62.9355C58.4569 63.9371 57.6492 64.7447 56.6412 64.7447H33.8901C30.7692 64.7447 27.8486 63.4395 25.7874 61.1327L19.5972 54.3029C17.9883 52.5454 17.1289 50.2903 17.1289 47.8801V18.8678C17.1806 17.8663 17.9883 17.0586 18.9898 17.0586H56.6412Z" fill="white"/>
</mask>
<g mask="url(#mask0_2693_35836)">
<path d="M17.8203 53.3125L28.6757 64.1679V55.671C28.6757 54.3205 27.6677 53.3125 26.3172 53.3125H17.8203Z" fill="white"/>
</g>
<path d="M45.5453 52.7449C44.3434 52.803 42.9607 53.2101 41.4422 54.1212C38.8963 55.6461 37.4942 55.3166 36.5573 54.7996C35.6203 54.2762 35.2003 53.4686 35.2003 53.4686C34.5736 52.0341 32.4348 53.1002 33.2037 54.4636C33.2037 54.4636 33.8951 55.8787 35.4717 56.7575C37.0483 57.6298 39.5554 57.8624 42.5859 56.0402C45.1317 54.5153 46.5339 54.8449 47.4708 55.3618C48.4077 55.8787 48.8213 56.6993 48.8213 56.6993C49.4868 58.0369 51.4899 57.0353 50.8243 55.6978C50.8243 55.6978 50.1265 54.2827 48.5499 53.4104C47.7616 52.971 46.7471 52.6867 45.5388 52.7513L45.5453 52.7449Z" fill="white"/>
<path d="M75.9083 24.6523C75.1394 24.6523 74.3769 24.9431 73.7954 25.5182L71.9216 27.392C71.1009 27.0883 70.1382 27.2628 69.4856 27.9154L50.6631 46.7379C50.5468 46.8542 50.4628 46.9963 50.4176 47.1514L48.5049 53.8456C48.2917 54.5693 48.9637 55.2413 49.6939 55.0345L56.388 53.1219C56.5431 53.0766 56.6853 52.9926 56.7951 52.8763L74.9456 34.7323L75.1071 34.8939C75.8696 35.6563 75.8696 36.8388 75.1071 37.6013L70.4354 42.273C69.4791 43.1776 70.8942 44.5862 71.7923 43.6234L76.4576 38.9517C77.9437 37.4656 77.9437 35.0296 76.4576 33.5434L76.1409 33.2268C76.3283 32.7099 76.3283 32.1413 76.1409 31.6243L78.0148 29.7505C79.1714 28.5939 79.1714 26.6813 78.0148 25.5247C77.4333 24.9431 76.6708 24.6588 75.9019 24.6588L75.9083 24.6523Z" fill="#07809F"/>
<path d="M75.9031 26.5508C76.1745 26.5508 76.4459 26.6606 76.6591 26.8739C77.092 27.3068 77.092 27.9594 76.6591 28.3923L74.9403 30.1046L73.4219 28.5862L75.1406 26.8739C75.3539 26.6606 75.6253 26.5508 75.8966 26.5508H75.9031Z" fill="#07809F"/>
<path d="M75.9031 26.5508C76.1745 26.5508 76.4459 26.6606 76.6591 26.8739C77.092 27.3068 77.092 27.9594 76.6591 28.3923L74.9403 30.1046L73.4219 28.5862L75.1406 26.8739C75.3539 26.6606 75.6253 26.5508 75.8966 26.5508H75.9031Z" fill="#07809F"/>
<path d="M51.8128 49.2383L54.3005 51.726L50.8242 52.7146L51.8128 49.2383Z" fill="#07809F"/>
</svg>
