<svg width="18" height="18" viewBox="0 0 18 18" fill="none" xmlns="http://www.w3.org/2000/svg">
<path d="M12.8343 7.13796C12.8343 5.19162 11.7742 3.41601 10.0986 2.42577C8.38874 1.43552 6.30276 1.43552 4.62714 2.42577C2.91732 3.41601 1.89143 5.19162 1.89143 7.13796C1.89143 9.11845 2.91732 10.8941 4.62714 11.8843C6.30276 12.8745 8.38874 12.8745 10.0986 11.8843C11.7742 10.8941 12.8343 9.11845 12.8343 7.13796ZM11.7742 12.738C10.5431 13.6941 9.00427 14.2404 7.36285 14.2404C3.43026 14.2404 0.25 11.0648 0.25 7.13796C0.25 3.24528 3.43026 0.0355225 7.36285 0.0355225C11.2612 0.0355225 14.4757 3.24528 14.4757 7.13796C14.4757 8.81113 13.8944 10.3477 12.9369 11.577L17.5192 16.1185C17.8269 16.4599 17.8269 16.9721 17.5192 17.2794C17.1772 17.6209 16.6643 17.6209 16.3565 17.2794L11.7742 12.738Z" fill="#EF426F"/>
</svg>
