<svg width="22" height="22" viewBox="0 0 22 22" fill="none" xmlns="http://www.w3.org/2000/svg">
<path d="M15.6011 9.02293C15.6011 6.68732 14.329 4.55659 12.3183 3.36829C10.2665 2.18 7.76331 2.18 5.75256 3.36829C3.70078 4.55659 2.46971 6.68732 2.46971 9.02293C2.46971 11.3995 3.70078 13.5302 5.75256 14.7185C7.76331 15.9068 10.2665 15.9068 12.3183 14.7185C14.329 13.5302 15.6011 11.3995 15.6011 9.02293ZM14.329 15.7429C12.8517 16.8902 11.0051 17.5459 9.03542 17.5459C4.31632 17.5459 0.5 13.7351 0.5 9.02293C0.5 4.35171 4.31632 0.5 9.03542 0.5C13.7135 0.5 17.5708 4.35171 17.5708 9.02293C17.5708 11.0307 16.8732 12.8746 15.7242 14.3498L21.223 19.7995C21.5923 20.2093 21.5923 20.8239 21.223 21.1927C20.8127 21.6024 20.1971 21.6024 19.8278 21.1927L14.329 15.7429Z" fill="#5B6770"/>
</svg>
