<svg width="66" height="82" viewBox="0 0 66 82" fill="none" xmlns="http://www.w3.org/2000/svg">
<g clip-path="url(#clip0_2_20237)">
<path d="M32.7019 79.9165C51.8215 71.5546 64.2385 51.7692 64.2385 32.1925C64.2385 12.6157 64.0171 18.1728 64.0171 11.9804C57.0954 12.6229 43.7439 15.6268 32.7019 1.88281C21.6599 15.6268 8.30833 12.6229 1.38668 11.9804C1.38668 18.1728 1.16528 12.6157 1.16528 32.1925C1.16528 51.7692 13.5823 71.5546 32.7019 79.9165Z" stroke="#E1242A" stroke-width="2" stroke-linecap="round" stroke-linejoin="round"/>
<path d="M32.6994 71.9838C18.115 64.3219 8.15674 48.3795 8.15674 32.1926C8.15674 25.7965 8.18004 22.1141 8.21034 19.8439C8.94212 19.8774 9.69721 19.8966 10.4756 19.8966C19.017 19.8966 26.4653 17.2499 32.6994 12.0117C38.9359 17.2499 46.3843 19.8966 54.9279 19.8966C55.704 19.8966 56.4591 19.8774 57.1909 19.8439C57.2188 22.1141 57.2445 25.7965 57.2445 32.1926C57.2445 48.3795 47.2862 64.3219 32.6994 71.9838Z" stroke="#E1242A" stroke-width="2" stroke-linecap="round" stroke-linejoin="round"/>
</g>
<defs>
<clipPath id="clip0_2_20237">
<rect width="65.4014" height="81.2174" fill="white"/>
</clipPath>
</defs>
</svg>
