<svg width="84" height="84" viewBox="0 0 84 84" fill="none" xmlns="http://www.w3.org/2000/svg">
<path d="M72.6932 42.0009C72.6932 58.9495 58.9495 72.6932 42.0009 72.6932C25.0523 72.6932 11.3086 58.9495 11.3086 42.0009C11.3086 25.0523 25.0523 11.3086 42.0009 11.3086C58.9495 11.3086 72.6932 25.0523 72.6932 42.0009Z" fill="#E3E2E3"/>
<path d="M55.3424 72.4661C55.3424 74.0815 49.3719 75.3932 41.9993 75.3932C34.6267 75.3932 28.6562 74.0815 28.6562 72.4661C28.6562 70.8508 34.6267 69.5391 41.9993 69.5391C49.3719 69.5391 55.3424 70.8508 55.3424 72.4661Z" fill="#07809F"/>
<path d="M41.999 19.2539C29.8513 19.2539 20.0039 29.0948 20.0039 41.2361C20.0039 57.9327 41.999 72.4647 41.999 72.4647C41.999 72.4647 63.9941 57.9327 63.9941 41.2361C63.9941 29.0948 54.1467 19.2539 41.999 19.2539Z" fill="#99288C"/>
<path d="M30.2033 49.292C30.1393 49.244 30.0833 49.192 30.0353 49.136C29.9873 49.072 29.9513 49.004 29.9272 48.932C29.9113 48.852 29.9113 48.768 29.9272 48.68C29.9513 48.592 30.0033 48.492 30.0833 48.38L30.4553 47.84C30.5753 47.664 30.7073 47.568 30.8513 47.552C30.9953 47.528 31.1673 47.572 31.3673 47.684C31.4393 47.724 31.5233 47.772 31.6193 47.828C31.7233 47.884 31.8393 47.944 31.9673 48.008C32.1033 48.064 32.2513 48.112 32.4113 48.152C32.5713 48.192 32.7433 48.212 32.9273 48.212C33.2393 48.212 33.4673 48.156 33.6113 48.044C33.7633 47.924 33.8393 47.78 33.8393 47.612C33.8393 47.412 33.7433 47.244 33.5513 47.108C33.3673 46.964 33.1353 46.832 32.8553 46.712C32.5753 46.584 32.2713 46.452 31.9433 46.316C31.6153 46.172 31.3113 45.996 31.0312 45.788C30.7513 45.58 30.5153 45.328 30.3232 45.032C30.1393 44.728 30.0473 44.352 30.0473 43.904C30.0473 43.512 30.1233 43.156 30.2753 42.836C30.4353 42.508 30.6513 42.228 30.9233 41.996C31.1953 41.764 31.5193 41.588 31.8953 41.468C32.2713 41.34 32.6753 41.276 33.1073 41.276C33.6113 41.276 34.0713 41.348 34.4873 41.492C34.9033 41.628 35.2153 41.768 35.4233 41.912C35.5993 42.04 35.6993 42.18 35.7233 42.332C35.7473 42.476 35.7153 42.636 35.6273 42.812L35.3393 43.376C35.2193 43.608 35.0793 43.728 34.9193 43.736C34.7673 43.736 34.6073 43.692 34.4393 43.604C34.2393 43.508 34.0313 43.42 33.8153 43.34C33.6073 43.252 33.3633 43.208 33.0833 43.208C32.7473 43.208 32.5073 43.268 32.3633 43.388C32.2193 43.5 32.1473 43.64 32.1473 43.808C32.1473 44.016 32.2393 44.188 32.4233 44.324C32.6153 44.46 32.8513 44.588 33.1313 44.708C33.4113 44.828 33.7153 44.956 34.0433 45.092C34.3713 45.22 34.6753 45.388 34.9553 45.596C35.2353 45.796 35.4673 46.048 35.6513 46.352C35.8433 46.648 35.9393 47.02 35.9393 47.468C35.9393 47.828 35.8713 48.172 35.7353 48.5C35.6073 48.82 35.4153 49.104 35.1593 49.352C34.9033 49.592 34.5873 49.784 34.2113 49.928C33.8353 50.072 33.4073 50.144 32.9273 50.144C32.6233 50.144 32.3313 50.116 32.0513 50.06C31.7793 50.004 31.5233 49.936 31.2833 49.856C31.0513 49.768 30.8393 49.676 30.6473 49.58C30.4633 49.476 30.3153 49.38 30.2033 49.292ZM36.7238 45.656C36.7238 45.04 36.8318 44.468 37.0478 43.94C37.2638 43.404 37.5678 42.94 37.9598 42.548C38.3598 42.148 38.8358 41.836 39.3878 41.612C39.9398 41.388 40.5478 41.276 41.2118 41.276C41.8758 41.276 42.4838 41.388 43.0358 41.612C43.5878 41.836 44.0598 42.148 44.4518 42.548C44.8518 42.94 45.1598 43.404 45.3758 43.94C45.5918 44.468 45.6998 45.04 45.6998 45.656C45.6998 46.288 45.5918 46.876 45.3758 47.42C45.1598 47.964 44.8518 48.44 44.4518 48.848C44.0598 49.248 43.5878 49.564 43.0358 49.796C42.4838 50.028 41.8758 50.144 41.2118 50.144C40.5478 50.144 39.9398 50.028 39.3878 49.796C38.8358 49.564 38.3598 49.248 37.9598 48.848C37.5678 48.44 37.2638 47.964 37.0478 47.42C36.8318 46.876 36.7238 46.288 36.7238 45.656ZM38.8958 45.656C38.8958 46.024 38.9518 46.364 39.0638 46.676C39.1838 46.988 39.3438 47.26 39.5438 47.492C39.7518 47.716 39.9958 47.896 40.2758 48.032C40.5638 48.16 40.8758 48.224 41.2118 48.224C41.5478 48.224 41.8558 48.16 42.1358 48.032C42.4238 47.896 42.6678 47.716 42.8678 47.492C43.0758 47.26 43.2358 46.988 43.3478 46.676C43.4678 46.364 43.5278 46.024 43.5278 45.656C43.5278 45.304 43.4678 44.98 43.3478 44.684C43.2358 44.38 43.0758 44.12 42.8678 43.904C42.6678 43.68 42.4238 43.508 42.1358 43.388C41.8558 43.26 41.5478 43.196 41.2118 43.196C40.8758 43.196 40.5638 43.26 40.2758 43.388C39.9958 43.508 39.7518 43.68 39.5438 43.904C39.3438 44.12 39.1838 44.38 39.0638 44.684C38.9518 44.98 38.8958 45.304 38.8958 45.656ZM46.4621 45.692C46.4621 45.068 46.5701 44.488 46.7861 43.952C47.0101 43.416 47.3181 42.952 47.7101 42.56C48.1101 42.16 48.5861 41.848 49.1381 41.624C49.6901 41.392 50.2981 41.276 50.9621 41.276C51.2901 41.276 51.5941 41.304 51.8741 41.36C52.1541 41.408 52.4101 41.472 52.6421 41.552C52.8741 41.632 53.0781 41.72 53.2541 41.816C53.4301 41.912 53.5821 42.004 53.7101 42.092C53.8781 42.212 53.9701 42.352 53.9861 42.512C54.0101 42.664 53.9661 42.828 53.8541 43.004L53.5541 43.496C53.4421 43.68 53.3101 43.784 53.1581 43.808C53.0061 43.832 52.8381 43.788 52.6541 43.676C52.4541 43.564 52.2181 43.456 51.9461 43.352C51.6741 43.248 51.3781 43.196 51.0581 43.196C50.6261 43.196 50.2581 43.268 49.9541 43.412C49.6501 43.548 49.3981 43.732 49.1981 43.964C49.0061 44.188 48.8621 44.448 48.7661 44.744C48.6781 45.032 48.6341 45.332 48.6341 45.644C48.6341 45.964 48.6821 46.28 48.7781 46.592C48.8741 46.896 49.0221 47.172 49.2221 47.42C49.4221 47.66 49.6741 47.856 49.9781 48.008C50.2821 48.152 50.6421 48.224 51.0581 48.224C51.4181 48.224 51.7461 48.16 52.0421 48.032C52.3461 47.896 52.6021 47.756 52.8101 47.612C53.1861 47.348 53.4941 47.388 53.7341 47.732L54.0701 48.2C54.1821 48.368 54.2301 48.532 54.2141 48.692C54.2061 48.852 54.1221 48.996 53.9621 49.124C53.8261 49.228 53.6621 49.34 53.4701 49.46C53.2781 49.58 53.0541 49.692 52.7981 49.796C52.5501 49.892 52.2701 49.972 51.9581 50.036C51.6541 50.108 51.3221 50.144 50.9621 50.144C50.2741 50.144 49.6501 50.032 49.0901 49.808C48.5381 49.584 48.0661 49.272 47.6741 48.872C47.2821 48.472 46.9821 48.004 46.7741 47.468C46.5661 46.924 46.4621 46.332 46.4621 45.692Z" fill="white"/>
</svg>
