<svg width="874" height="469" viewBox="0 0 874 469" fill="none" xmlns="http://www.w3.org/2000/svg">
<path d="M2.5 1.11084V371.111" stroke="#BBC1C5" stroke-linecap="square"/>
<path d="M124.5 1.11084V371.111" stroke="#BBC1C5" stroke-linecap="square"/>
<path d="M246.5 1.11084V371.111" stroke="#BBC1C5" stroke-linecap="square"/>
<path d="M368.5 1.11084V371.111" stroke="#BBC1C5" stroke-linecap="square"/>
<path d="M491.5 1.11084V371.111" stroke="#BBC1C5" stroke-linecap="square"/>
<path d="M615.5 1.11084V371.111" stroke="#BBC1C5" stroke-linecap="square"/>
<path d="M740.5 1.11084V371.111" stroke="#BBC1C5" stroke-linecap="square"/>
<path fill-rule="evenodd" clip-rule="evenodd" d="M616 29.7843L3 286.611V376.611L616.321 119.611H828.742C831.138 119.978 833.72 119.28 835.697 117.201L870.858 80.2235C873.795 77.1351 873.795 72.2866 870.858 69.1982L835.697 32.2211C834.333 30.7863 832.681 30.0094 831 29.7861V29.6108H616.414H616V29.7843Z" fill="url(#paint0_linear_3118_5061)"/>
<path d="M56.6257 394.731H57.4357V406.611H55.0057V397.611L52.7557 398.331L52.1797 396.189L56.6257 394.731Z" fill="#5B6770"/>
<path d="M45.8524 394.731V396.927H40.2904V399.339H44.3764V401.409H40.2904V404.415H46.0684V406.611H37.8604V394.731H45.8524Z" fill="#5B6770"/>
<path d="M31.5315 394.515C33.4215 394.515 34.7535 395.469 35.4555 396.765L33.7995 398.043C33.2235 397.179 32.5035 396.675 31.5315 396.675C30.7395 396.675 30.0555 397.035 30.0555 397.827C30.0555 398.511 30.5775 398.799 31.4415 399.195L32.7915 399.789C34.6635 400.617 35.7255 401.571 35.7255 403.263C35.7255 405.477 33.9255 406.827 31.5675 406.827C29.5155 406.827 27.8595 405.783 26.9775 404.199L28.6515 402.939C29.2995 403.839 30.1455 404.667 31.5675 404.667C32.6115 404.667 33.2595 404.181 33.2595 403.353C33.2595 402.579 32.6835 402.309 31.7475 401.877L30.4695 401.301C28.7775 400.527 27.5895 399.555 27.5895 397.881C27.5895 395.829 29.2995 394.515 31.5315 394.515Z" fill="#5B6770"/>
<path d="M19.4123 394.515C22.9043 394.515 25.7483 397.179 25.7483 400.671C25.7483 404.163 22.9043 406.827 19.4123 406.827C15.9203 406.827 13.1123 404.163 13.1123 400.671C13.1123 397.179 15.9203 394.515 19.4123 394.515ZM19.4303 396.765C17.2163 396.765 15.6143 398.385 15.6143 400.671C15.6143 402.975 17.2163 404.577 19.4303 404.577C21.6083 404.577 23.2463 402.975 23.2463 400.671C23.2463 398.385 21.6083 396.765 19.4303 396.765Z" fill="#5B6770"/>
<path d="M5.25616 394.731C9.07216 394.731 11.7362 397.071 11.7362 400.635C11.7362 404.145 9.07216 406.611 5.25616 406.611H1.36816V394.731H5.25616ZM5.23816 396.927H3.79816V404.415H5.23816C7.63216 404.415 9.23416 402.921 9.23416 400.635C9.23416 398.295 7.63216 396.927 5.23816 396.927Z" fill="#5B6770"/>
<path d="M179.004 404.541H183.432V406.611L174.666 406.629V406.107L178.914 401.499C180.03 400.293 180.588 399.465 180.588 398.511C180.588 397.503 179.958 396.765 178.932 396.765C177.924 396.765 177.258 397.503 177.258 398.583C177.258 398.799 177.294 399.123 177.348 399.447H174.9C174.81 399.105 174.774 398.727 174.774 398.439C174.774 396.477 176.358 394.515 178.968 394.515C181.344 394.515 183.09 396.135 183.09 398.313C183.09 400.059 181.956 401.427 180.534 402.921L179.004 404.541Z" fill="#5B6770"/>
<path d="M167.852 394.731V396.927H162.29V399.339H166.376V401.409H162.29V404.415H168.068V406.611H159.86V394.731H167.852Z" fill="#5B6770"/>
<path d="M153.532 394.515C155.422 394.515 156.754 395.469 157.456 396.765L155.8 398.043C155.224 397.179 154.504 396.675 153.532 396.675C152.74 396.675 152.056 397.035 152.056 397.827C152.056 398.511 152.578 398.799 153.442 399.195L154.792 399.789C156.664 400.617 157.726 401.571 157.726 403.263C157.726 405.477 155.926 406.827 153.568 406.827C151.516 406.827 149.86 405.783 148.978 404.199L150.652 402.939C151.3 403.839 152.146 404.667 153.568 404.667C154.612 404.667 155.26 404.181 155.26 403.353C155.26 402.579 154.684 402.309 153.748 401.877L152.47 401.301C150.778 400.527 149.59 399.555 149.59 397.881C149.59 395.829 151.3 394.515 153.532 394.515Z" fill="#5B6770"/>
<path d="M141.412 394.515C144.904 394.515 147.748 397.179 147.748 400.671C147.748 404.163 144.904 406.827 141.412 406.827C137.92 406.827 135.112 404.163 135.112 400.671C135.112 397.179 137.92 394.515 141.412 394.515ZM141.43 396.765C139.216 396.765 137.614 398.385 137.614 400.671C137.614 402.975 139.216 404.577 141.43 404.577C143.608 404.577 145.246 402.975 145.246 400.671C145.246 398.385 143.608 396.765 141.43 396.765Z" fill="#5B6770"/>
<path d="M127.256 394.731C131.072 394.731 133.736 397.071 133.736 400.635C133.736 404.145 131.072 406.611 127.256 406.611H123.368V394.731H127.256ZM127.238 396.927H125.798V404.415H127.238C129.632 404.415 131.234 402.921 131.234 400.635C131.234 398.295 129.632 396.927 127.238 396.927Z" fill="#5B6770"/>
<path d="M302.066 399.087C303.56 399.483 304.928 400.743 304.928 402.723C304.928 405.171 302.912 406.827 300.446 406.827C298.412 406.827 296.9 405.675 296.126 404.127L297.818 402.939C298.484 403.947 299.222 404.577 300.374 404.577C301.544 404.577 302.444 403.893 302.444 402.741C302.444 401.643 301.598 401.031 300.014 401.031H298.52V400.401L301.004 396.927H297.044V394.731H304.694V395.379L302.066 399.087Z" fill="#5B6770"/>
<path d="M289.852 394.731V396.927H284.29V399.339H288.376V401.409H284.29V404.415H290.068V406.611H281.86V394.731H289.852Z" fill="#5B6770"/>
<path d="M275.532 394.515C277.422 394.515 278.754 395.469 279.456 396.765L277.8 398.043C277.224 397.179 276.504 396.675 275.532 396.675C274.74 396.675 274.056 397.035 274.056 397.827C274.056 398.511 274.578 398.799 275.442 399.195L276.792 399.789C278.664 400.617 279.726 401.571 279.726 403.263C279.726 405.477 277.926 406.827 275.568 406.827C273.516 406.827 271.86 405.783 270.978 404.199L272.652 402.939C273.3 403.839 274.146 404.667 275.568 404.667C276.612 404.667 277.26 404.181 277.26 403.353C277.26 402.579 276.684 402.309 275.748 401.877L274.47 401.301C272.778 400.527 271.59 399.555 271.59 397.881C271.59 395.829 273.3 394.515 275.532 394.515Z" fill="#5B6770"/>
<path d="M263.412 394.515C266.904 394.515 269.748 397.179 269.748 400.671C269.748 404.163 266.904 406.827 263.412 406.827C259.92 406.827 257.112 404.163 257.112 400.671C257.112 397.179 259.92 394.515 263.412 394.515ZM263.43 396.765C261.216 396.765 259.614 398.385 259.614 400.671C259.614 402.975 261.216 404.577 263.43 404.577C265.608 404.577 267.246 402.975 267.246 400.671C267.246 398.385 265.608 396.765 263.43 396.765Z" fill="#5B6770"/>
<path d="M249.256 394.731C253.072 394.731 255.736 397.071 255.736 400.635C255.736 404.145 253.072 406.611 249.256 406.611H245.368V394.731H249.256ZM249.238 396.927H247.798V404.415H249.238C251.632 404.415 253.234 402.921 253.234 400.635C253.234 398.295 251.632 396.927 249.238 396.927Z" fill="#5B6770"/>
<path d="M427.99 402.615V404.667H426.478V406.611H424.048V404.667H418.144V404.019L421.816 394.731H424.318L421.168 402.615H424.048V399.285H426.478V402.615H427.99Z" fill="#5B6770"/>
<path d="M411.852 394.731V396.927H406.29V399.339H410.376V401.409H406.29V404.415H412.068V406.611H403.86V394.731H411.852Z" fill="#5B6770"/>
<path d="M397.532 394.515C399.422 394.515 400.754 395.469 401.456 396.765L399.8 398.043C399.224 397.179 398.504 396.675 397.532 396.675C396.74 396.675 396.056 397.035 396.056 397.827C396.056 398.511 396.578 398.799 397.442 399.195L398.792 399.789C400.664 400.617 401.726 401.571 401.726 403.263C401.726 405.477 399.926 406.827 397.568 406.827C395.516 406.827 393.86 405.783 392.978 404.199L394.652 402.939C395.3 403.839 396.146 404.667 397.568 404.667C398.612 404.667 399.26 404.181 399.26 403.353C399.26 402.579 398.684 402.309 397.748 401.877L396.47 401.301C394.778 400.527 393.59 399.555 393.59 397.881C393.59 395.829 395.3 394.515 397.532 394.515Z" fill="#5B6770"/>
<path d="M385.412 394.515C388.904 394.515 391.748 397.179 391.748 400.671C391.748 404.163 388.904 406.827 385.412 406.827C381.92 406.827 379.112 404.163 379.112 400.671C379.112 397.179 381.92 394.515 385.412 394.515ZM385.43 396.765C383.216 396.765 381.614 398.385 381.614 400.671C381.614 402.975 383.216 404.577 385.43 404.577C387.608 404.577 389.246 402.975 389.246 400.671C389.246 398.385 387.608 396.765 385.43 396.765Z" fill="#5B6770"/>
<path d="M371.256 394.731C375.072 394.731 377.736 397.071 377.736 400.635C377.736 404.145 375.072 406.611 371.256 406.611H367.368V394.731H371.256ZM371.238 396.927H369.798V404.415H371.238C373.632 404.415 375.234 402.921 375.234 400.635C375.234 398.295 373.632 396.927 371.238 396.927Z" fill="#5B6770"/>
<path d="M546.183 398.943C548.163 398.943 550.197 400.221 550.197 402.705C550.197 405.171 548.163 406.827 545.643 406.827C543.555 406.827 542.007 405.675 541.233 404.127L542.925 402.939C543.591 403.965 544.365 404.577 545.571 404.577C546.759 404.577 547.695 403.911 547.695 402.741C547.695 401.607 546.849 401.031 545.265 401.031H542.493V394.731H549.369V396.927H544.833V399.087C545.265 398.997 545.715 398.943 546.183 398.943Z" fill="#5B6770"/>
<path d="M534.852 394.731V396.927H529.29V399.339H533.376V401.409H529.29V404.415H535.068V406.611H526.86V394.731H534.852Z" fill="#5B6770"/>
<path d="M520.532 394.515C522.422 394.515 523.754 395.469 524.456 396.765L522.8 398.043C522.224 397.179 521.504 396.675 520.532 396.675C519.74 396.675 519.056 397.035 519.056 397.827C519.056 398.511 519.578 398.799 520.442 399.195L521.792 399.789C523.664 400.617 524.726 401.571 524.726 403.263C524.726 405.477 522.926 406.827 520.568 406.827C518.516 406.827 516.86 405.783 515.978 404.199L517.652 402.939C518.3 403.839 519.146 404.667 520.568 404.667C521.612 404.667 522.26 404.181 522.26 403.353C522.26 402.579 521.684 402.309 520.748 401.877L519.47 401.301C517.778 400.527 516.59 399.555 516.59 397.881C516.59 395.829 518.3 394.515 520.532 394.515Z" fill="#5B6770"/>
<path d="M508.412 394.515C511.904 394.515 514.748 397.179 514.748 400.671C514.748 404.163 511.904 406.827 508.412 406.827C504.92 406.827 502.112 404.163 502.112 400.671C502.112 397.179 504.92 394.515 508.412 394.515ZM508.43 396.765C506.216 396.765 504.614 398.385 504.614 400.671C504.614 402.975 506.216 404.577 508.43 404.577C510.608 404.577 512.246 402.975 512.246 400.671C512.246 398.385 510.608 396.765 508.43 396.765Z" fill="#5B6770"/>
<path d="M494.256 394.731C498.072 394.731 500.736 397.071 500.736 400.635C500.736 404.145 498.072 406.611 494.256 406.611H490.368V394.731H494.256ZM494.238 396.927H492.798V404.415H494.238C496.632 404.415 498.234 402.921 498.234 400.635C498.234 398.295 496.632 396.927 494.238 396.927Z" fill="#5B6770"/>
<path d="M669.346 398.547C671.344 398.547 673.288 400.185 673.288 402.579C673.288 405.045 671.236 406.827 668.914 406.827C666.592 406.827 664.558 405.063 664.558 402.561C664.558 401.139 665.206 400.185 666.178 398.835L669.148 394.731H672.01L669.274 398.547H669.346ZM668.914 404.595C670.012 404.595 670.876 403.731 670.876 402.579C670.876 401.427 670.012 400.581 668.914 400.581C667.816 400.581 666.952 401.445 666.952 402.579C666.952 403.713 667.816 404.595 668.914 404.595Z" fill="#EF426F"/>
<path d="M657.852 394.731V396.927H652.29V399.339H656.376V401.409H652.29V404.415H658.068V406.611H649.86V394.731H657.852Z" fill="#EF426F"/>
<path d="M643.532 394.515C645.422 394.515 646.754 395.469 647.456 396.765L645.8 398.043C645.224 397.179 644.504 396.675 643.532 396.675C642.74 396.675 642.056 397.035 642.056 397.827C642.056 398.511 642.578 398.799 643.442 399.195L644.792 399.789C646.664 400.617 647.726 401.571 647.726 403.263C647.726 405.477 645.926 406.827 643.568 406.827C641.516 406.827 639.86 405.783 638.978 404.199L640.652 402.939C641.3 403.839 642.146 404.667 643.568 404.667C644.612 404.667 645.26 404.181 645.26 403.353C645.26 402.579 644.684 402.309 643.748 401.877L642.47 401.301C640.778 400.527 639.59 399.555 639.59 397.881C639.59 395.829 641.3 394.515 643.532 394.515Z" fill="#EF426F"/>
<path d="M631.412 394.515C634.904 394.515 637.748 397.179 637.748 400.671C637.748 404.163 634.904 406.827 631.412 406.827C627.92 406.827 625.112 404.163 625.112 400.671C625.112 397.179 627.92 394.515 631.412 394.515ZM631.43 396.765C629.216 396.765 627.614 398.385 627.614 400.671C627.614 402.975 629.216 404.577 631.43 404.577C633.608 404.577 635.246 402.975 635.246 400.671C635.246 398.385 633.608 396.765 631.43 396.765Z" fill="#EF426F"/>
<path d="M617.256 394.731C621.072 394.731 623.736 397.071 623.736 400.635C623.736 404.145 621.072 406.611 617.256 406.611H613.368V394.731H617.256ZM617.238 396.927H615.798V404.415H617.238C619.632 404.415 621.234 402.921 621.234 400.635C621.234 398.295 619.632 396.927 617.238 396.927Z" fill="#EF426F"/>
<path d="M612.5 433.111H639.5" stroke="#EF426F" stroke-width="3" stroke-linecap="square"/>
<path d="M700.932 446.039C702.912 446.039 704.946 447.317 704.946 449.801C704.946 452.267 702.912 453.923 700.392 453.923C698.304 453.923 696.756 452.771 695.982 451.223L697.674 450.035C698.34 451.061 699.114 451.673 700.32 451.673C701.508 451.673 702.444 451.007 702.444 449.837C702.444 448.703 701.598 448.127 700.014 448.127H697.242V441.827H704.118V444.023H699.582V446.183C700.014 446.093 700.464 446.039 700.932 446.039Z" fill="#EF426F"/>
<path d="M693.201 450.575C694.155 450.575 694.857 451.313 694.857 452.249C694.857 453.203 694.155 453.923 693.201 453.923C692.229 453.923 691.509 453.203 691.509 452.249C691.509 451.313 692.229 450.575 693.201 450.575Z" fill="#EF426F"/>
<path d="M685.39 451.637H689.818V453.707L681.052 453.725V453.203L685.3 448.595C686.416 447.389 686.974 446.561 686.974 445.607C686.974 444.599 686.344 443.861 685.318 443.861C684.31 443.861 683.644 444.599 683.644 445.679C683.644 445.895 683.68 446.219 683.734 446.543H681.286C681.196 446.201 681.16 445.823 681.16 445.535C681.16 443.573 682.744 441.611 685.354 441.611C687.73 441.611 689.476 443.231 689.476 445.409C689.476 447.155 688.342 448.523 686.92 450.017L685.39 451.637Z" fill="#EF426F"/>
<path d="M673.848 441.827V453.707H671.418V448.577H666.162V453.707H663.732V441.827H666.162V446.381H671.418V441.827H673.848Z" fill="#EF426F"/>
<path d="M662.131 441.827V444.023H658.315V453.707H655.885V444.023H652.087V441.827H662.131Z" fill="#EF426F"/>
<path d="M648.057 441.827H650.487V453.923H649.677L642.801 446.579V453.707H640.371V441.611H641.163L648.057 448.919V441.827Z" fill="#EF426F"/>
<path d="M631.978 441.611C635.47 441.611 638.314 444.275 638.314 447.767C638.314 451.259 635.47 453.923 631.978 453.923C628.486 453.923 625.678 451.259 625.678 447.767C625.678 444.275 628.486 441.611 631.978 441.611ZM631.996 443.861C629.782 443.861 628.18 445.481 628.18 447.767C628.18 450.071 629.782 451.673 631.996 451.673C634.174 451.673 635.812 450.071 635.812 447.767C635.812 445.481 634.174 443.861 631.996 443.861Z" fill="#EF426F"/>
<path d="M622.836 441.611H623.628V453.707H621.198V447.371L618.21 451.115H617.418L614.43 447.371V453.707H612V441.611H612.792L617.814 448.037L622.836 441.611Z" fill="#EF426F"/>
<path d="M790.54 394.731H798.892V395.379L793.456 406.611H790.81L795.634 396.927H790.54V394.731Z" fill="#5B6770"/>
<path d="M783.852 394.731V396.927H778.29V399.339H782.376V401.409H778.29V404.415H784.068V406.611H775.86V394.731H783.852Z" fill="#5B6770"/>
<path d="M769.532 394.515C771.422 394.515 772.754 395.469 773.456 396.765L771.8 398.043C771.224 397.179 770.504 396.675 769.532 396.675C768.74 396.675 768.056 397.035 768.056 397.827C768.056 398.511 768.578 398.799 769.442 399.195L770.792 399.789C772.664 400.617 773.726 401.571 773.726 403.263C773.726 405.477 771.926 406.827 769.568 406.827C767.516 406.827 765.86 405.783 764.978 404.199L766.652 402.939C767.3 403.839 768.146 404.667 769.568 404.667C770.612 404.667 771.26 404.181 771.26 403.353C771.26 402.579 770.684 402.309 769.748 401.877L768.47 401.301C766.778 400.527 765.59 399.555 765.59 397.881C765.59 395.829 767.3 394.515 769.532 394.515Z" fill="#5B6770"/>
<path d="M757.412 394.515C760.904 394.515 763.748 397.179 763.748 400.671C763.748 404.163 760.904 406.827 757.412 406.827C753.92 406.827 751.112 404.163 751.112 400.671C751.112 397.179 753.92 394.515 757.412 394.515ZM757.43 396.765C755.216 396.765 753.614 398.385 753.614 400.671C753.614 402.975 755.216 404.577 757.43 404.577C759.608 404.577 761.246 402.975 761.246 400.671C761.246 398.385 759.608 396.765 757.43 396.765Z" fill="#5B6770"/>
<path d="M743.256 394.731C747.072 394.731 749.736 397.071 749.736 400.635C749.736 404.145 747.072 406.611 743.256 406.611H739.368V394.731H743.256ZM743.238 396.927H741.798V404.415H743.238C745.632 404.415 747.234 402.921 747.234 400.635C747.234 398.295 745.632 396.927 743.238 396.927Z" fill="#5B6770"/>
<path d="M807.319 97.6132C808.423 96.8772 809.311 95.8452 809.983 94.5172C810.671 93.1732 811.015 91.3732 811.015 89.1172C811.015 86.8452 810.679 85.0452 810.007 83.7172C809.335 82.3732 808.439 81.3332 807.319 80.5972L808.615 78.6532C810.135 79.3412 811.383 80.5572 812.359 82.3012C813.335 84.0292 813.823 86.3012 813.823 89.1172C813.823 91.9172 813.335 94.1892 812.359 95.9332C811.383 97.6612 810.135 98.8692 808.615 99.5572L807.319 97.6132Z" fill="white"/>
<path d="M801.455 96.6772C800.415 96.6772 799.471 96.4772 798.623 96.0772C797.775 95.6612 797.079 95.0932 796.535 94.3732L798.167 92.4052C799.207 93.4772 800.319 94.0132 801.503 94.0132C801.935 94.0132 802.295 93.9332 802.583 93.7732C802.871 93.5972 803.015 93.3492 803.015 93.0292C803.015 92.7732 802.919 92.5812 802.727 92.4532C802.551 92.3092 802.239 92.1412 801.791 91.9492L800.519 91.4212C799.431 90.9732 798.615 90.4772 798.071 89.9332C797.543 89.3892 797.279 88.6772 797.279 87.7972C797.279 86.6772 797.679 85.8052 798.479 85.1812C799.295 84.5572 800.351 84.2452 801.647 84.2452C803.423 84.2452 804.847 84.8372 805.919 86.0212L804.287 88.0132C803.487 87.2612 802.599 86.8852 801.623 86.8852C801.223 86.8852 800.911 86.9572 800.687 87.1012C800.463 87.2452 800.351 87.4532 800.351 87.7252C800.351 87.9492 800.439 88.1332 800.615 88.2772C800.807 88.4212 801.135 88.5892 801.599 88.7812L802.751 89.2612C803.903 89.7252 804.743 90.2292 805.271 90.7732C805.815 91.3012 806.087 92.0052 806.087 92.8852C806.087 94.0692 805.647 94.9972 804.767 95.6692C803.903 96.3412 802.799 96.6772 801.455 96.6772Z" fill="white"/>
<path d="M796.081 84.5092L790.393 97.4212C789.849 98.6532 789.201 99.5572 788.449 100.133C787.697 100.709 786.769 100.997 785.665 100.997C784.993 100.997 784.297 100.901 783.577 100.709V97.9972C784.313 98.0612 784.777 98.0932 784.969 98.0932C785.545 98.0932 786.033 97.9812 786.433 97.7572C786.833 97.5332 787.169 97.1092 787.441 96.4852L787.801 95.6692L783.241 84.5092H786.673L789.577 92.3092L792.673 84.5092H796.081Z" fill="white"/>
<path d="M776.354 84.2452C777.906 84.2452 779.138 84.6852 780.05 85.5652C780.978 86.4292 781.442 87.6852 781.442 89.3332V96.3892H778.466V95.2372C778.034 95.6852 777.506 96.0372 776.882 96.2932C776.274 96.5492 775.594 96.6772 774.842 96.6772C773.578 96.6772 772.578 96.3492 771.842 95.6932C771.106 95.0212 770.738 94.1652 770.738 93.1252C770.738 92.0532 771.138 91.2132 771.938 90.6052C772.754 89.9812 773.85 89.6692 775.226 89.6692H778.202V89.1412C778.202 88.4852 778.01 87.9732 777.626 87.6052C777.258 87.2372 776.714 87.0532 775.994 87.0532C775.386 87.0532 774.842 87.1892 774.362 87.4612C773.882 87.7172 773.378 88.1252 772.85 88.6852L771.17 86.6932C772.546 85.0612 774.274 84.2452 776.354 84.2452ZM775.706 94.3012C776.41 94.3012 777.002 94.0852 777.482 93.6532C777.962 93.2052 778.202 92.6372 778.202 91.9492V91.8052H775.658C775.13 91.8052 774.722 91.9092 774.434 92.1172C774.146 92.3092 774.002 92.6052 774.002 93.0052C774.002 93.4052 774.154 93.7252 774.458 93.9652C774.778 94.1892 775.194 94.3012 775.706 94.3012Z" fill="white"/>
<path d="M768.269 78.3892V96.3892H765.293V94.9252C764.893 95.4852 764.357 95.9172 763.685 96.2212C763.029 96.5252 762.293 96.6772 761.477 96.6772C760.373 96.6772 759.381 96.4132 758.501 95.8852C757.637 95.3412 756.957 94.5972 756.461 93.6532C755.965 92.7092 755.717 91.6452 755.717 90.4612C755.717 89.2772 755.965 88.2132 756.461 87.2692C756.957 86.3252 757.637 85.5892 758.501 85.0612C759.381 84.5172 760.373 84.2452 761.477 84.2452C762.981 84.2452 764.165 84.7172 765.029 85.6612V78.3892H768.269ZM762.077 93.7252C762.893 93.7252 763.597 93.4532 764.189 92.9092C764.781 92.3492 765.077 91.5332 765.077 90.4612C765.077 89.4052 764.781 88.5972 764.189 88.0372C763.597 87.4612 762.893 87.1732 762.077 87.1732C761.213 87.1732 760.485 87.4772 759.893 88.0852C759.301 88.6772 759.005 89.4612 759.005 90.4372C759.005 91.4292 759.293 92.2292 759.869 92.8372C760.461 93.4292 761.197 93.7252 762.077 93.7252Z" fill="white"/>
<path d="M740.452 96.6772C739.076 96.6772 737.916 96.3092 736.972 95.5732C736.028 94.8372 735.324 93.8452 734.86 92.5972C734.396 91.3332 734.164 89.9172 734.164 88.3492C734.164 85.9332 734.7 83.9812 735.772 82.4932C736.844 81.0052 738.404 80.2612 740.452 80.2612C742.5 80.2612 744.052 81.0052 745.108 82.4932C746.18 83.9812 746.716 85.9332 746.716 88.3492C746.716 89.9172 746.484 91.3332 746.02 92.5972C745.556 93.8452 744.852 94.8372 743.908 95.5732C742.98 96.3092 741.828 96.6772 740.452 96.6772ZM743.38 88.3732C743.38 86.6932 743.14 85.4212 742.66 84.5572C742.196 83.6932 741.46 83.2612 740.452 83.2612C739.428 83.2612 738.676 83.6932 738.196 84.5572C737.732 85.4212 737.5 86.6932 737.5 88.3732C737.5 91.9092 738.484 93.6772 740.452 93.6772C742.404 93.6772 743.38 91.9092 743.38 88.3732Z" fill="white"/>
<path d="M732.986 80.5492V81.4132L725.738 96.3892H722.21L728.642 83.4772H721.85V80.5492H732.986Z" fill="white"/>
<path d="M713.466 93.6772V96.3892C712.698 96.5812 711.954 96.6772 711.234 96.6772C709.73 96.6772 708.562 96.3092 707.73 95.5732C706.898 94.8212 706.482 93.7012 706.482 92.2132V87.2452H704.61V84.5092H706.482V81.5092H709.722V84.5092H713.082V87.2452H709.722V91.9252C709.722 92.5972 709.898 93.0772 710.25 93.3652C710.602 93.6372 711.162 93.7732 711.93 93.7732C712.122 93.7732 712.634 93.7412 713.466 93.6772Z" fill="white"/>
<path d="M697.288 96.6772C696.248 96.6772 695.304 96.4532 694.456 96.0052C693.624 95.5412 692.968 94.8932 692.488 94.0612C692.024 93.2292 691.792 92.2612 691.792 91.1572V84.5092H695.032V91.4212C695.032 92.1092 695.24 92.6612 695.656 93.0772C696.088 93.4932 696.632 93.7012 697.288 93.7012C697.912 93.7012 698.432 93.4932 698.848 93.0772C699.28 92.6612 699.496 92.1092 699.496 91.4212V84.5092H702.736V91.1572C702.736 92.2612 702.496 93.2292 702.016 94.0612C701.552 94.8932 700.904 95.5412 700.072 96.0052C699.24 96.4532 698.312 96.6772 697.288 96.6772Z" fill="white"/>
<path d="M682.975 96.6532C681.807 96.6532 680.735 96.3812 679.759 95.8372C678.799 95.2772 678.039 94.5252 677.479 93.5812C676.919 92.6212 676.639 91.5732 676.639 90.4372C676.639 89.3012 676.919 88.2612 677.479 87.3172C678.039 86.3572 678.807 85.6052 679.783 85.0612C680.759 84.5172 681.831 84.2452 682.999 84.2452C684.167 84.2452 685.239 84.5252 686.215 85.0852C687.191 85.6292 687.959 86.3732 688.519 87.3172C689.095 88.2612 689.383 89.3012 689.383 90.4372C689.383 91.5732 689.095 92.6212 688.519 93.5812C687.959 94.5252 687.183 95.2772 686.191 95.8372C685.215 96.3812 684.143 96.6532 682.975 96.6532ZM682.999 93.6772C683.879 93.6772 684.607 93.3732 685.183 92.7652C685.775 92.1572 686.071 91.3892 686.071 90.4612C686.071 89.5332 685.775 88.7572 685.183 88.1332C684.607 87.5092 683.879 87.1972 682.999 87.1972C682.103 87.1972 681.367 87.5092 680.791 88.1332C680.215 88.7412 679.927 89.5172 679.927 90.4612C679.927 91.3892 680.215 92.1572 680.791 92.7652C681.367 93.3732 682.103 93.6772 682.999 93.6772Z" fill="white"/>
<path d="M669.009 84.2452C670.113 84.2452 671.097 84.5172 671.961 85.0612C672.841 85.5892 673.529 86.3252 674.025 87.2692C674.521 88.2132 674.769 89.2772 674.769 90.4612C674.769 91.6452 674.521 92.7092 674.025 93.6532C673.529 94.5972 672.841 95.3412 671.961 95.8852C671.097 96.4132 670.113 96.6772 669.009 96.6772C668.193 96.6772 667.457 96.5252 666.801 96.2212C666.145 95.9172 665.609 95.4852 665.193 94.9252V96.3892H662.217V78.3892H665.457V85.6612C666.321 84.7172 667.505 84.2452 669.009 84.2452ZM668.409 93.7252C669.289 93.7252 670.017 93.4292 670.593 92.8372C671.185 92.2292 671.481 91.4292 671.481 90.4372C671.481 89.4612 671.185 88.6772 670.593 88.0852C670.001 87.4772 669.273 87.1732 668.409 87.1732C667.577 87.1732 666.865 87.4612 666.273 88.0372C665.697 88.5972 665.409 89.4052 665.409 90.4612C665.409 91.5332 665.705 92.3492 666.297 92.9092C666.889 93.4532 667.593 93.7252 668.409 93.7252Z" fill="white"/>
<path d="M654.011 84.2452C655.563 84.2452 656.795 84.6852 657.707 85.5652C658.635 86.4292 659.099 87.6852 659.099 89.3332V96.3892H656.123V95.2372C655.691 95.6852 655.163 96.0372 654.539 96.2932C653.931 96.5492 653.251 96.6772 652.499 96.6772C651.235 96.6772 650.235 96.3492 649.499 95.6932C648.763 95.0212 648.395 94.1652 648.395 93.1252C648.395 92.0532 648.795 91.2132 649.595 90.6052C650.411 89.9812 651.507 89.6692 652.883 89.6692H655.859V89.1412C655.859 88.4852 655.667 87.9732 655.283 87.6052C654.915 87.2372 654.371 87.0532 653.651 87.0532C653.043 87.0532 652.499 87.1892 652.019 87.4612C651.539 87.7172 651.035 88.1252 650.507 88.6852L648.827 86.6932C650.203 85.0612 651.931 84.2452 654.011 84.2452ZM653.363 94.3012C654.067 94.3012 654.659 94.0852 655.139 93.6532C655.619 93.2052 655.859 92.6372 655.859 91.9492V91.8052H653.315C652.787 91.8052 652.379 91.9092 652.091 92.1172C651.803 92.3092 651.659 92.6052 651.659 93.0052C651.659 93.4052 651.811 93.7252 652.115 93.9652C652.435 94.1892 652.851 94.3012 653.363 94.3012Z" fill="white"/>
<path d="M645.864 99.5572C644.328 98.8692 643.072 97.6612 642.096 95.9332C641.12 94.1892 640.632 91.9172 640.632 89.1172C640.632 86.3012 641.12 84.0292 642.096 82.3012C643.072 80.5572 644.328 79.3412 645.864 78.6532L647.136 80.5972C646.032 81.3332 645.144 82.3732 644.472 83.7172C643.8 85.0452 643.464 86.8452 643.464 89.1172C643.464 91.3732 643.8 93.1732 644.472 94.5172C645.144 95.8452 646.032 96.8772 647.136 97.6132L645.864 99.5572Z" fill="white"/>
<path d="M788.223 51.5492H798.879V54.4772H791.463V57.6932H796.911V60.4532H791.463V64.4612H799.167V67.3892H788.223V51.5492Z" fill="white"/>
<path d="M777.759 54.4772H772.695V51.5492H786.087V54.4772H780.999V67.3892H777.759V54.4772Z" fill="white"/>
<path d="M769.456 65.3252H762.976L762.088 67.3892H758.608L765.688 51.2612H766.768L773.824 67.3892H770.344L769.456 65.3252ZM766.216 57.3092L764.104 62.6612H768.328L766.216 57.3092Z" fill="white"/>
<path d="M751.462 54.4772H746.398V51.5492H759.79V54.4772H754.702V67.3892H751.462V54.4772Z" fill="white"/>
<path d="M739.496 67.6772C738.152 67.6772 736.944 67.3652 735.872 66.7412C734.816 66.1012 733.984 65.2452 733.376 64.1732L735.608 62.4932C736.12 63.1972 736.68 63.7572 737.288 64.1732C737.896 64.5892 738.632 64.7972 739.496 64.7972C740.2 64.7972 740.752 64.6452 741.152 64.3412C741.552 64.0212 741.752 63.5892 741.752 63.0452C741.752 62.5812 741.6 62.2292 741.296 61.9892C741.008 61.7332 740.488 61.4292 739.736 61.0772L738.032 60.3092C736.816 59.7652 735.872 59.1332 735.2 58.4132C734.528 57.6932 734.192 56.8052 734.192 55.7492C734.192 54.8532 734.416 54.0692 734.864 53.3972C735.328 52.7092 735.96 52.1812 736.76 51.8132C737.56 51.4452 738.456 51.2612 739.448 51.2612C740.664 51.2612 741.712 51.5332 742.592 52.0772C743.488 52.6212 744.184 53.3492 744.68 54.2612L742.472 55.9652C741.656 54.7492 740.648 54.1412 739.448 54.1412C738.888 54.1412 738.416 54.2772 738.032 54.5492C737.664 54.8052 737.48 55.1812 737.48 55.6772C737.48 56.0932 737.616 56.4292 737.888 56.6852C738.176 56.9252 738.656 57.1972 739.328 57.5012L741.128 58.2932C742.456 58.8852 743.44 59.5412 744.08 60.2612C744.72 60.9652 745.04 61.8532 745.04 62.9252C745.04 63.8852 744.8 64.7252 744.32 65.4452C743.84 66.1652 743.176 66.7172 742.328 67.1012C741.496 67.4852 740.552 67.6772 739.496 67.6772Z" fill="white"/>
<path d="M721.034 61.1492V67.3892H717.794V61.1732L712.322 51.5492H715.922L719.426 57.8372L722.906 51.5492H726.482L721.034 61.1492Z" fill="white"/>
<path d="M697.895 51.5492H703.079C704.759 51.5492 706.255 51.8772 707.567 52.5332C708.879 53.1892 709.895 54.1092 710.615 55.2932C711.351 56.4772 711.719 57.8532 711.719 59.4212C711.719 60.9572 711.351 62.3332 710.615 63.5492C709.895 64.7492 708.879 65.6932 707.567 66.3812C706.255 67.0532 704.759 67.3892 703.079 67.3892H697.895V51.5492ZM703.055 64.4612C704.111 64.4612 705.039 64.2532 705.839 63.8372C706.655 63.4212 707.279 62.8372 707.711 62.0852C708.159 61.3172 708.383 60.4292 708.383 59.4212C708.383 57.8852 707.895 56.6772 706.919 55.7972C705.959 54.9172 704.671 54.4772 703.055 54.4772H701.135V64.4612H703.055Z" fill="white"/>
<path d="M691.363 65.3252H684.883L683.995 67.3892H680.515L687.595 51.2612H688.675L695.731 67.3892H692.251L691.363 65.3252ZM688.123 57.3092L686.011 62.6612H690.235L688.123 57.3092Z" fill="white"/>
<path d="M668.27 51.5492H678.926V54.4772H671.51V57.6932H676.958V60.4532H671.51V64.4612H679.214V67.3892H668.27V51.5492Z" fill="white"/>
<path d="M657.806 54.4772H652.742V51.5492H666.134V54.4772H661.046V67.3892H657.806V54.4772Z" fill="white"/>
<path d="M645.84 67.6772C644.496 67.6772 643.288 67.3652 642.216 66.7412C641.16 66.1012 640.328 65.2452 639.72 64.1732L641.952 62.4932C642.464 63.1972 643.024 63.7572 643.632 64.1732C644.24 64.5892 644.976 64.7972 645.84 64.7972C646.544 64.7972 647.096 64.6452 647.496 64.3412C647.896 64.0212 648.096 63.5892 648.096 63.0452C648.096 62.5812 647.944 62.2292 647.64 61.9892C647.352 61.7332 646.832 61.4292 646.08 61.0772L644.376 60.3092C643.16 59.7652 642.216 59.1332 641.544 58.4132C640.872 57.6932 640.536 56.8052 640.536 55.7492C640.536 54.8532 640.76 54.0692 641.208 53.3972C641.672 52.7092 642.304 52.1812 643.104 51.8132C643.904 51.4452 644.8 51.2612 645.792 51.2612C647.008 51.2612 648.056 51.5332 648.936 52.0772C649.832 52.6212 650.528 53.3492 651.024 54.2612L648.816 55.9652C648 54.7492 646.992 54.1412 645.792 54.1412C645.232 54.1412 644.76 54.2772 644.376 54.5492C644.008 54.8052 643.824 55.1812 643.824 55.6772C643.824 56.0932 643.96 56.4292 644.232 56.6852C644.52 56.9252 645 57.1972 645.672 57.5012L647.472 58.2932C648.8 58.8852 649.784 59.5412 650.424 60.2612C651.064 60.9652 651.384 61.8532 651.384 62.9252C651.384 63.8852 651.144 64.7252 650.664 65.4452C650.184 66.1652 649.52 66.7172 648.672 67.1012C647.84 67.4852 646.896 67.6772 645.84 67.6772Z" fill="white"/>
<defs>
<linearGradient id="paint0_linear_3118_5061" x1="313.828" y1="446.944" x2="480.196" y2="23.6349" gradientUnits="userSpaceOnUse">
<stop stop-color="white"/>
<stop offset="1" stop-color="#EF426F"/>
</linearGradient>
</defs>
</svg>
