<svg width="80" height="80" viewBox="0 0 80 80" fill="none" xmlns="http://www.w3.org/2000/svg">
<g clip-path="url(#clip0_2_20241)">
<path d="M3.77877 55.9984C2.04496 51.7498 1.08777 47.0988 1.08777 42.2258C1.08777 22.09 17.4122 5.76562 37.5479 5.76562" stroke="#E1242A" stroke-width="2" stroke-linecap="round" stroke-linejoin="round"/>
<path d="M65.0714 66.1441C58.3864 73.8299 48.536 78.6898 37.5501 78.6898C24.4083 78.6898 12.8916 71.7372 6.47412 61.3125" stroke="#E1242A" stroke-width="2" stroke-linecap="round" stroke-linejoin="round"/>
<path d="M43.8002 6.30078C60.9578 9.26589 74.0082 24.222 74.0082 42.228C74.0082 49.2242 72.0372 55.7591 68.6218 61.3108" stroke="#E1242A" stroke-width="2" stroke-linecap="round" stroke-linejoin="round"/>
<path d="M25.9355 1.00391L37.548 5.77245L28.0131 13.8498" stroke="#E1242A" stroke-width="2" stroke-linecap="round" stroke-linejoin="round"/>
<path d="M66.9622 48.3906L68.622 61.3105L78.8857 53.4681" stroke="#E1242A" stroke-width="2" stroke-linecap="round" stroke-linejoin="round"/>
<path d="M8.80594 74.0083L6.47388 61.3125L18.5758 65.7003" stroke="#E1242A" stroke-width="2" stroke-linecap="round" stroke-linejoin="round"/>
</g>
<defs>
<clipPath id="clip0_2_20241">
<rect width="79.5467" height="79.7773" fill="white"/>
</clipPath>
</defs>
</svg>
