<svg width="104" height="105" viewBox="0 0 104 105" fill="none" xmlns="http://www.w3.org/2000/svg">
<mask id="mask0_503_18380" style="mask-type:luminance" maskUnits="userSpaceOnUse" x="29" y="0" width="46" height="105">
<path fill-rule="evenodd" clip-rule="evenodd" d="M64.0939 0.420898C65.4562 0.420898 66.5596 1.52553 66.5596 2.88659C66.5596 4.24765 65.4562 5.35227 64.0939 5.35227H60.9021V14.5468H71.6278C72.9901 14.5468 74.0935 15.6514 74.0935 17.0125C74.0935 18.3736 72.9901 19.4782 71.6278 19.4782H69.8895V70.2997C69.8895 73.5298 68.558 76.6094 66.1417 78.9691L56.1445 88.7258C55.5688 89.288 54.8944 89.7071 54.1732 90.0006V102.027C54.1732 103.185 53.3762 104.156 52.3006 104.421H51.1148C50.0397 104.156 49.2418 103.185 49.2418 102.027V90.0018C48.5206 89.7084 47.845 89.2892 47.2693 88.7258L37.2734 78.9691C34.8558 76.6094 33.5255 73.531 33.5255 70.2997V19.4782H31.786C30.4249 19.4782 29.3203 18.3736 29.3203 17.0125C29.3203 15.6514 30.4249 14.5468 31.786 14.5468H42.5117V5.35227H39.3199C37.9588 5.35227 36.8542 4.24765 36.8542 2.88659C36.8542 1.52553 37.9588 0.420898 39.3199 0.420898H64.0939ZM64.9582 19.4782H38.457V70.2997C38.457 72.1909 39.2608 74.0167 40.718 75.4407L50.7139 85.1974C51.2157 85.6868 52.1982 85.688 52.7 85.1974L62.6971 75.4407C64.1556 74.0155 64.9582 72.1896 64.9582 70.2997V19.4782ZM55.9707 5.35226H47.4432V14.5468H55.9707V5.35226Z" fill="white"/>
</mask>
<g mask="url(#mask0_503_18380)">
<path fill-rule="evenodd" clip-rule="evenodd" d="M29.3203 104.419H74.0935V0.420898H29.3203V104.419Z" fill="url(#paint0_linear_503_18380)"/>
</g>
<path fill-rule="evenodd" clip-rule="evenodd" d="M60.1817 50.2832H47.5721C46.2098 50.2832 45.1064 51.3878 45.1064 52.7489C45.1064 54.1112 46.2098 55.2146 47.5721 55.2146H60.1817C61.5439 55.2146 62.6473 54.1112 62.6473 52.7489C62.6473 51.3878 61.5439 50.2832 60.1817 50.2832Z" fill="#DD4267"/>
<path fill-rule="evenodd" clip-rule="evenodd" d="M45.1064 30.0755C45.1064 31.4366 46.2098 32.5412 47.5721 32.5412H60.1817C61.5439 32.5412 62.6473 31.4366 62.6473 30.0755C62.6473 28.7133 61.5439 27.6099 60.1817 27.6099H47.5721C46.2098 27.6099 45.1064 28.7133 45.1064 30.0755Z" fill="#DD4267"/>
<path fill-rule="evenodd" clip-rule="evenodd" d="M60.1826 61.6206H53.8778C52.5167 61.6206 51.4121 62.724 51.4121 64.0863C51.4121 65.4474 52.5167 66.552 53.8778 66.552H60.1826C61.5448 66.552 62.6482 65.4474 62.6482 64.0863C62.6482 62.724 61.5448 61.6206 60.1826 61.6206Z" fill="#DD4267"/>
<path fill-rule="evenodd" clip-rule="evenodd" d="M60.1826 38.9473H53.8778C52.5167 38.9473 51.4121 40.0507 51.4121 41.413C51.4121 42.774 52.5167 43.8786 53.8778 43.8786H60.1826C61.5448 43.8786 62.6482 42.774 62.6482 41.413C62.6482 40.0507 61.5448 38.9473 60.1826 38.9473Z" fill="#DD4267"/>
<defs>
<linearGradient id="paint0_linear_503_18380" x1="29.3203" y1="104.456" x2="74.094" y2="104.456" gradientUnits="userSpaceOnUse">
<stop stop-color="#AAD8CE"/>
<stop offset="1" stop-color="#56BAAC"/>
</linearGradient>
</defs>
</svg>
