<svg width="120" height="73" viewBox="0 0 120 73" fill="none" xmlns="http://www.w3.org/2000/svg">
<g clip-path="url(#clip0_2957_17206)">
<path d="M3.61757 71.8364H3.11284L3.32315 70.154L2.1875 66.2423H2.73429L3.65963 69.5231L5.4262 66.2844H6.01505L3.82788 70.154L3.61757 71.8364Z" fill="#99288C"/>
<path d="M5.30046 70.0278L5.34252 69.8595C5.51076 68.766 6.01549 67.9668 7.10908 67.9668C8.24473 67.9668 8.66534 68.808 8.53915 69.8595L8.49709 70.0278C8.32885 71.1214 7.78206 71.9205 6.73053 71.9205C5.55282 71.9205 5.17427 71.0793 5.30046 70.0278ZM7.99236 70.0698L8.03442 69.9016C8.16061 69.0183 7.86618 68.4295 7.10908 68.4295C6.39404 68.4295 5.97343 68.9763 5.84725 69.8595L5.80519 70.0278C5.67901 70.9111 5.97343 71.4999 6.68847 71.4999C7.40351 71.4999 7.86618 70.9531 7.99236 70.0698Z" fill="#99288C"/>
<path d="M10.053 68.093L9.71649 70.6587C9.63236 71.2475 9.92679 71.4999 10.4736 71.4999C11.0204 71.4999 11.3989 71.1634 11.5672 70.9111L11.9457 68.093H12.4505L12.0719 70.869L11.9878 71.8785H11.5672V71.3317C11.3148 71.7102 10.8521 71.9205 10.3053 71.9205C9.46412 71.9205 9.12763 71.4158 9.21175 70.7007L9.5903 68.0509L10.053 68.093Z" fill="#99288C"/>
<path d="M14.9741 68.0089L14.9321 68.5136H14.848C14.2591 68.5136 13.9226 68.8501 13.7544 69.1025L13.3758 71.8785H12.8711L13.2496 69.1025L13.3338 68.093H13.7544V68.5978C13.9647 68.2613 14.3853 68.0089 14.89 68.0089H14.9741Z" fill="#99288C"/>
<path d="M17.0352 67.7144L17.0773 67.5882C17.2035 66.6629 17.9185 66.2423 18.928 66.2844C20.2319 66.2844 20.6945 66.9573 20.5263 68.1771V68.2612H20.0216C20.1898 67.2097 19.8113 66.747 18.97 66.747H18.8859C18.2129 66.747 17.7082 67.0415 17.6241 67.6303V67.7565C17.54 68.3453 17.8344 68.7239 18.8439 68.8921C20.0216 69.1024 20.4842 69.6492 20.358 70.4905L20.316 70.6166C20.1898 71.584 19.4327 72.0467 18.3391 72.0467C17.1614 72.0467 16.5305 71.3737 16.6987 70.2381V70.154H17.2035C16.9932 71.1634 17.54 71.584 18.2971 71.584H18.3812C19.1383 71.584 19.6851 71.2896 19.7692 70.6166V70.4905C19.8533 69.8595 19.4748 69.481 18.5494 69.3127C17.2876 69.0183 16.9511 68.4295 17.0352 67.7144Z" fill="#99288C"/>
<path d="M20.9884 70.0698L21.0304 69.9436C21.1987 68.8501 21.7034 68.0509 22.797 68.0509C23.9327 68.0509 24.3533 68.8921 24.2271 69.9436L24.185 70.1119C24.0168 71.2055 23.47 72.0046 22.4185 72.0046C21.2828 72.0046 20.8622 71.1634 20.9884 70.0698ZM23.6803 70.1119L23.7223 69.9436C23.8485 69.0604 23.5541 68.4715 22.797 68.4715C22.082 68.4715 21.6614 69.0183 21.5352 69.9016L21.4931 70.0698C21.3669 70.9531 21.6614 71.542 22.3764 71.542C23.1335 71.542 23.5541 70.9952 23.6803 70.1119Z" fill="#99288C"/>
<path d="M25.7424 68.1351L25.4059 70.7008C25.3218 71.2897 25.6162 71.542 26.163 71.542C26.7098 71.542 27.0884 71.2055 27.2566 70.9532L27.6352 68.1351H28.1399L27.7614 70.9111L27.6772 71.9206H27.2566V71.3738C27.0043 71.7523 26.5416 71.9626 25.9948 71.9626C25.1536 71.9626 24.8171 71.4579 24.9012 70.7429L25.2798 68.093L25.7424 68.1351Z" fill="#99288C"/>
<path d="M30.6616 68.093L30.6196 68.5977H30.5355C29.9466 68.5977 29.6101 68.9342 29.4419 69.1866L29.0633 71.9626H28.5586L28.9371 69.1866L29.0213 68.1771H29.4419V68.6819C29.6522 68.3454 30.0728 68.093 30.5775 68.1351C30.6196 68.093 30.6616 68.093 30.6616 68.093Z" fill="#99288C"/>
<path d="M31.3768 70.1119C31.2507 70.9952 31.5451 71.5841 32.3022 71.5841C33.0172 71.5841 33.2696 71.1635 33.3537 70.6587H33.8584V70.7429C33.7743 71.4158 33.3958 72.0467 32.3442 72.0467C31.2086 72.0467 30.788 71.2055 30.9142 70.154L30.9562 69.9858C31.1245 68.8922 31.6292 68.093 32.6807 68.093C33.8164 68.093 34.1108 68.8501 34.0267 69.481V69.5652H33.564C33.6481 69.0184 33.3958 68.5557 32.7228 68.5557C32.0078 68.5557 31.6292 69.1025 31.503 69.9858L31.3768 70.1119Z" fill="#99288C"/>
<path d="M35.1214 70.2801C35.0373 71.1214 35.2897 71.584 36.1309 71.584C36.888 71.584 37.1824 71.1634 37.2666 70.7428H37.7292V70.8269C37.6451 71.3737 37.1404 72.0046 36.1309 72.0046C34.8691 72.0046 34.4905 71.1634 34.6588 70.1119L34.7008 69.9436C34.8691 68.8501 35.4579 68.0509 36.5095 68.0509C37.6451 68.0509 38.0237 68.8501 37.8975 69.9436L37.8554 70.2381L35.1214 70.2801ZM35.1635 69.8595H37.3507C37.4769 69.0183 37.1824 68.5556 36.4674 68.5556C35.7524 68.5556 35.2476 69.1024 35.1635 69.8595Z" fill="#99288C"/>
<path d="M41.1786 68.1771H42.2301L42.1881 68.6398H41.1366L40.6739 71.9626H40.1692L40.6318 68.6398H40.043L40.085 68.1771H40.6739L40.8001 67.2097C40.8842 66.4526 41.3889 66.1582 42.0619 66.1582C42.3143 66.1582 42.5246 66.2003 42.5666 66.2423L42.5246 66.6629C42.4404 66.6209 42.2722 66.5788 42.104 66.5788C41.6833 66.5788 41.3889 66.7471 41.3048 67.2938L41.1786 68.1771Z" fill="#99288C"/>
<path d="M42.6078 70.154L42.6499 69.9858C42.8181 68.8922 43.3229 68.093 44.4165 68.093C45.5521 68.093 45.9727 68.9342 45.8465 69.9858L45.8045 70.154C45.6362 71.2476 45.0894 72.0467 44.0379 72.0467C42.8602 72.0888 42.4396 71.2476 42.6078 70.154ZM45.2577 70.1961L45.2997 70.0278C45.4259 69.1445 45.1315 68.5557 44.3744 68.5557C43.6594 68.5557 43.2388 69.1025 43.1126 69.9858L43.0705 70.154C42.9443 71.0373 43.2388 71.6261 43.9538 71.6261C44.7109 71.6261 45.1736 71.0793 45.2577 70.1961Z" fill="#99288C"/>
<path d="M48.4956 68.1351L48.4536 68.6399H48.3694C47.7806 68.6399 47.4441 68.9764 47.2759 69.2287L46.8973 72.0047H46.3926L46.7711 69.2287L46.8552 68.2193H47.2759V68.724C47.4862 68.3875 47.9068 68.1351 48.4115 68.1351H48.4956Z" fill="#99288C"/>
<path d="M54.0072 66.4526L53.9652 66.9153H51.3574L51.105 68.9342H53.3343L53.2501 69.3968H51.0209L50.7265 71.542H53.3343L53.2922 72.0046H50.1797L50.9368 66.4105L54.0072 66.4526Z" fill="#99288C"/>
<path d="M54.1748 70.1961L54.2169 70.0279C54.3851 68.9343 54.8898 68.1351 55.8993 68.1351C56.4882 68.1351 56.8246 68.4716 56.9508 68.6819L57.2873 66.2844H57.7921L57.1611 70.9532L57.077 71.9627H56.6564V71.5C56.404 71.8365 55.9834 72.0468 55.5208 72.0468C54.3851 72.1309 54.0066 71.2897 54.1748 70.1961ZM54.6795 70.0279L54.6375 70.1961C54.5113 71.1214 54.8057 71.6682 55.5208 71.6682C56.0255 71.6682 56.3199 71.4159 56.5302 71.1214L56.7826 69.2287C56.6564 68.9763 56.404 68.5978 55.8993 68.5978C55.2263 68.6398 54.8057 69.1446 54.6795 70.0279Z" fill="#99288C"/>
<path d="M58.885 68.2613L58.5485 70.827C58.4644 71.4159 58.7588 71.6682 59.3056 71.6682C59.8524 71.6682 60.231 71.3318 60.3992 71.0794L60.7778 68.2613H61.2825L60.9039 71.0373L60.8198 72.0468H60.3992V71.5C60.1468 71.8785 59.6842 72.0889 59.1374 72.0889C58.2962 72.0889 57.9597 71.5841 58.0438 70.8691L58.4223 68.2192L58.885 68.2613Z" fill="#99288C"/>
<path d="M62.2929 70.2382C62.1667 71.1214 62.4611 71.7103 63.2182 71.7103C63.9332 71.7103 64.1856 71.2897 64.2697 70.785H64.7745V70.8691C64.6903 71.5421 64.3118 72.173 63.2603 72.173C62.1246 72.173 61.704 71.3318 61.8302 70.2802L61.8722 70.112C62.0405 69.0184 62.5452 68.2192 63.5967 68.2192C64.7324 68.2192 65.0268 68.9763 64.9427 69.6073V69.6914H64.48C64.5641 69.1446 64.3118 68.6819 63.6388 68.6819C62.9238 68.6819 62.5452 69.2287 62.419 70.112L62.2929 70.2382Z" fill="#99288C"/>
<path d="M67.76 71.5421C67.5077 71.8785 67.045 72.1309 66.4141 72.1309C65.699 72.1309 65.3205 71.7103 65.3625 71.0794V70.9532C65.4467 70.154 66.0355 69.9858 66.7506 69.8596L67.9283 69.6914L67.9703 69.5231C68.0544 68.9343 67.8862 68.5978 67.2132 68.5978C66.4982 68.5978 66.2879 69.0184 66.2458 69.5231H65.7832V69.439C65.8673 68.8502 66.2038 68.2192 67.2553 68.2192C68.3489 68.2192 68.6433 68.8081 68.5171 69.6493L68.3068 71.0373L68.2227 72.0889H67.8021L67.76 71.5421ZM67.76 71.1215L67.8862 70.112L66.7506 70.2802C66.2458 70.3644 65.9514 70.5747 65.8673 70.9532V71.0373C65.8252 71.3738 66.0355 71.6682 66.4982 71.7103C67.2132 71.7103 67.5918 71.3318 67.76 71.1215Z" fill="#99288C"/>
<path d="M71.5459 68.3033L71.5039 68.766H70.2841L69.9897 70.9952C69.9055 71.584 70.1579 71.7523 70.5365 71.7523C70.7468 71.7523 70.9571 71.7102 70.9991 71.7102L70.9571 72.1308C70.8729 72.1308 70.7047 72.215 70.4523 72.215C69.7794 72.215 69.3587 71.8785 69.4429 71.0793L69.7373 68.808H69.1484L69.1905 68.3453H69.7794L69.9055 67.2938H70.4103L70.2841 68.3453L71.5459 68.3033Z" fill="#99288C"/>
<path d="M72.3875 68.3033H72.8923L72.3875 72.0888H71.8828L72.3875 68.3033ZM73.1026 67.42H72.4717L72.5558 66.7891H73.1867L73.1026 67.42Z" fill="#99288C"/>
<path d="M73.5219 70.2802L73.564 70.112C73.7322 69.0184 74.2369 68.2192 75.3305 68.2192C76.4662 68.2192 76.8868 69.0605 76.7606 70.112L76.7185 70.2802C76.5503 71.3738 76.0035 72.173 74.952 72.173C73.7743 72.173 73.3537 71.3318 73.5219 70.2802ZM76.1717 70.3223L76.2138 70.154C76.34 69.2708 76.0456 68.6819 75.2885 68.6819C74.5734 68.6819 74.1528 69.2287 74.0266 70.112L73.9846 70.2802C73.8584 71.1635 74.1528 71.7524 74.8679 71.7524C75.625 71.7524 76.0456 71.2056 76.1717 70.3223Z" fill="#99288C"/>
<path d="M79.6221 72.1309L79.9586 69.5652C80.0427 68.9763 79.7483 68.724 79.2015 68.724C78.6547 68.724 78.2761 69.0604 78.1079 69.3128L77.7293 72.1309H77.2246L77.6032 69.3549L77.6873 68.3454H78.1079V68.8922C78.3603 68.5136 78.8229 68.3033 79.3697 68.3033C80.2109 68.3033 80.5474 68.8081 80.4633 69.5231L80.0848 72.173L79.6221 72.1309Z" fill="#99288C"/>
<path d="M84.8362 71.6262C84.5838 71.9626 84.1212 72.215 83.4902 72.215C82.7752 72.215 82.3967 71.7944 82.4387 71.1635V71.0373C82.5228 70.2382 83.1117 70.0699 83.8267 69.9437L85.0044 69.7755L85.0465 69.6072C85.1306 69.0184 84.9624 68.6819 84.2894 68.6819C83.5744 68.6819 83.3641 69.1025 83.322 69.6072H82.8593V69.5231C82.9434 68.9343 83.2799 68.3033 84.3315 68.3033C85.425 68.3033 85.7195 68.8922 85.5933 69.7334L85.383 71.1214L85.2989 72.173H84.8783L84.8362 71.6262ZM84.8362 71.1635L84.9624 70.154L83.8267 70.3223C83.322 70.4064 83.0276 70.6167 82.9434 70.9952V71.0794C82.9014 71.4159 83.1117 71.7103 83.5744 71.7523C84.2894 71.7944 84.6679 71.3738 84.8362 71.1635Z" fill="#99288C"/>
<path d="M88.4971 72.1729L88.8336 69.6072C88.9177 69.0183 88.6233 68.7659 88.0765 68.7659C87.5297 68.7659 87.1511 69.1024 86.9829 69.3548L86.6043 72.1729H86.0996L86.4782 69.3969L86.5623 68.3874H86.9829V68.9342C87.2353 68.5556 87.6979 68.3453 88.2447 68.3453C89.0859 68.3453 89.4224 68.8501 89.3383 69.5651L88.9598 72.2149L88.4971 72.1729Z" fill="#99288C"/>
<path d="M90.0537 70.3643L90.0958 70.1961C90.264 69.1025 90.7688 68.3033 91.7782 68.3033C92.3671 68.3033 92.7036 68.6398 92.8297 68.8501L93.1662 66.4526H93.671L93.04 71.1214L92.9559 72.1309H92.5353V71.6682C92.2829 72.0047 91.8623 72.215 91.3997 72.215C90.264 72.2571 89.8855 71.4158 90.0537 70.3643ZM90.5584 70.1961L90.5164 70.3643C90.3902 71.2897 90.6846 71.8364 91.3997 71.8364C91.9044 71.8364 92.1988 71.5841 92.4091 71.2897L92.6615 69.3969C92.5353 69.1445 92.2829 68.766 91.7782 68.766C91.1052 68.766 90.6846 69.3128 90.5584 70.1961Z" fill="#99288C"/>
<path d="M97.9602 66.5789L98.8014 72.215H98.2546L98.0443 70.785H95.9833L95.3945 72.215H94.8477L97.2031 66.5789H97.9602ZM96.1936 70.2802H97.9602L97.4975 67.0836L96.1936 70.2802Z" fill="#99288C"/>
<path d="M100.021 70.3643C99.8952 71.2475 100.19 71.8364 100.947 71.8364C101.662 71.8364 101.914 71.4158 101.998 70.9111H102.503V70.9952C102.419 71.6682 102.04 72.2991 100.989 72.2991C99.8531 72.2991 99.4325 71.4579 99.5587 70.4063L99.6008 70.2381C99.769 69.1445 100.274 68.3453 101.325 68.3453C102.461 68.3453 102.755 69.1024 102.671 69.7334V69.8175H102.209C102.293 69.2707 102.04 68.808 101.367 68.808C100.652 68.808 100.274 69.3548 100.148 70.2381L100.021 70.3643Z" fill="#99288C"/>
<path d="M103.766 70.4064C103.639 71.2897 103.934 71.8785 104.691 71.8785C105.406 71.8785 105.658 71.4579 105.742 70.9532H106.247V71.0373C106.163 71.7103 105.784 72.3412 104.733 72.3412C103.597 72.3412 103.177 71.5 103.303 70.4484L103.345 70.2802C103.513 69.1866 104.018 68.3875 105.069 68.3875C106.205 68.3875 106.499 69.1446 106.415 69.7755V69.8596H105.953C106.037 69.3128 105.784 68.8501 105.111 68.8501C104.396 68.8501 104.018 69.3969 103.892 70.2802L103.766 70.4064Z" fill="#99288C"/>
<path d="M107.465 70.5326C107.381 71.3738 107.633 71.8365 108.475 71.8365C109.232 71.8365 109.526 71.4159 109.61 70.9952H110.073V71.0794C109.989 71.6262 109.484 72.2571 108.475 72.2571C107.213 72.2571 106.834 71.4159 107.003 70.3643L107.045 70.1961C107.213 69.1025 107.802 68.3033 108.853 68.3033C109.989 68.3033 110.367 69.1025 110.241 70.1961L110.199 70.4905L107.465 70.5326ZM107.549 70.154H109.736C109.863 69.3128 109.568 68.8501 108.853 68.8501C108.138 68.8081 107.633 69.3549 107.549 70.154Z" fill="#99288C"/>
<path d="M113.229 71.1214C113.229 70.7428 112.935 70.6166 112.304 70.4905C111.336 70.3643 111.042 69.9857 111.084 69.3969V69.3548C111.168 68.7239 111.673 68.3453 112.556 68.3453C113.65 68.3453 113.986 68.8501 113.902 69.5651V69.6492H113.397C113.482 69.1024 113.271 68.808 112.556 68.808C111.967 68.808 111.589 69.0183 111.589 69.523C111.589 69.8595 111.841 69.9857 112.514 70.1119C113.355 70.196 113.776 70.5325 113.692 71.2475V71.2896C113.608 71.9205 113.103 72.3411 112.178 72.3411C111.042 72.3411 110.705 71.7943 110.79 71.2055V71.1214H111.294C111.21 71.584 111.421 71.9205 112.178 71.9205C112.893 71.8785 113.229 71.6261 113.229 71.1214Z" fill="#99288C"/>
<path d="M116.971 71.1635C116.971 70.7849 116.677 70.6587 116.046 70.5326C115.079 70.4064 114.784 70.0278 114.826 69.439V69.3969C114.91 68.766 115.415 68.3875 116.298 68.3875C117.392 68.3875 117.728 68.8922 117.644 69.6072V69.6913H117.14C117.224 69.1445 117.013 68.8501 116.298 68.8501C115.71 68.8501 115.331 69.0604 115.331 69.5652C115.331 69.9016 115.583 70.0278 116.256 70.154C117.098 70.2381 117.518 70.5746 117.434 71.2897V71.3317C117.35 71.9626 116.845 72.3832 115.92 72.3832C114.784 72.3832 114.448 71.8365 114.532 71.2476V71.1635H115.037C114.952 71.6261 115.163 71.9626 115.92 71.9626C116.635 71.9206 116.971 71.6682 116.971 71.1635Z" fill="#99288C"/>
<path d="M3.32227 19.3865H9.58935C12.828 19.3865 15.1835 21.4895 15.1835 24.8544C15.1835 28.2193 12.828 30.4065 9.58935 30.4065H5.08883V37.5148H3.32227V19.3865ZM9.33699 28.8081C11.7765 28.8081 13.3328 27.336 13.3328 24.8544C13.3328 22.4149 11.7765 20.9848 9.37905 20.9848H5.08883V28.8081H9.33699Z" fill="#99288C"/>
<path d="M25.0687 29.4811H25.7837V29.1446C25.7837 26.663 24.4378 25.7798 22.545 25.7798C20.442 25.8218 18.9278 27.0416 18.9278 27.0416L18.0865 25.6956C18.0865 25.6956 19.769 24.2235 22.7133 24.2235C25.8258 24.2235 27.5503 25.948 27.5503 29.1867V37.4727H25.8678V36.0427C25.8678 35.4117 25.9099 34.9491 25.9099 34.9491H25.8678C25.8678 34.9491 24.7742 37.7672 21.5355 37.7672C19.3904 37.7672 17.1191 36.5053 17.1191 33.9396C17.1612 29.6073 22.8394 29.4811 25.0687 29.4811ZM21.83 36.3371C24.3116 36.3371 25.7837 33.7714 25.7837 31.5001V30.9533H25.0266C23.0077 30.9533 18.9278 31.0374 18.9278 33.8975C18.9278 35.0752 19.8952 36.3371 21.83 36.3371Z" fill="#99288C"/>
<path d="M32.0086 26.1583H30.3262V24.6862H32.0507V20.9427H33.7752V24.6862H37.0139V26.1583H33.7752V32.5936C33.7752 35.622 35.71 36.0006 36.6774 36.0006C37.0559 36.0006 37.2662 35.9585 37.2662 35.9585V37.5568C37.2662 37.5568 36.9718 37.5989 36.5091 37.5989C34.9949 37.5989 32.0086 37.0942 32.0086 32.7619V26.1583Z" fill="#99288C"/>
<path d="M40.084 19.3865H41.8926V21.5736H40.084V19.3865ZM40.126 24.56H41.8926V37.5148H40.126V24.56Z" fill="#99288C"/>
<path d="M51.6075 24.2235C55.1827 24.2235 57.0334 26.9995 57.0334 30.1962C57.0334 30.4906 56.9913 31.0795 56.9913 31.0795H47.0649C47.1491 34.4023 49.4204 36.2109 52.0702 36.2109C54.4256 36.2109 56.0239 34.6546 56.0239 34.6546L56.8231 36.0006C56.8231 36.0006 54.9303 37.8092 52.0281 37.8092C48.1585 37.8092 45.2563 35.0332 45.2563 31.0374C45.2142 26.7892 48.1165 24.2235 51.6075 24.2235ZM55.2248 29.6914C55.1406 26.9995 53.4582 25.7377 51.5234 25.7377C49.3783 25.7377 47.4855 27.0837 47.0649 29.6914H55.2248Z" fill="#99288C"/>
<path d="M60.3565 24.56H62.081V26.4948C62.081 27.0416 62.039 27.5043 62.039 27.5043H62.081C62.5437 26.3266 64.1841 24.2235 67.2545 24.2235C70.4512 24.2235 71.5868 26.0321 71.5868 29.2288V37.4727H69.8202V29.7335C69.8202 27.7146 69.5258 25.906 67.0022 25.906C64.7729 25.906 62.8802 27.4201 62.2913 29.5653C62.1231 30.1121 62.081 30.7009 62.081 31.3318V37.5568H60.3145V24.56H60.3565Z" fill="#99288C"/>
<path d="M76.1297 26.1583H74.4473V24.6862H76.1718V20.9427H77.8963V24.6862H81.135V26.1583H77.8963V32.5936C77.8963 35.622 79.8311 36.0006 80.7985 36.0006C81.177 36.0006 81.3873 35.9585 81.3873 35.9585V37.5568C81.3873 37.5568 81.0929 37.5989 80.6302 37.5989C79.116 37.5989 76.1297 37.0942 76.1297 32.7619V26.1583Z" fill="#99288C"/>
<path d="M116.719 8.4506C116.173 7.65145 115.542 6.93641 114.869 6.26343C109.485 0.879625 101.283 -0.424266 94.469 3.0668C94.3849 3.10886 94.3428 3.19298 94.3008 3.2771C94.3008 3.36122 94.3008 3.44535 94.3849 3.52947L96.9506 6.09519C97.0347 6.17931 97.1609 6.22137 97.2451 6.13725C102.334 4.0342 108.139 5.21191 112.008 9.08152C112.219 9.29182 112.429 9.50213 112.639 9.7545C112.723 9.83862 112.808 9.88068 112.934 9.83862L116.509 8.87121C116.551 8.87121 116.593 8.82915 116.635 8.78709C116.677 8.74503 116.677 8.70297 116.719 8.66091C116.803 8.61885 116.761 8.53473 116.719 8.4506Z" fill="#E83238"/>
<path d="M94.1738 29.439C93.7111 29.0605 93.2485 28.6819 92.8699 28.3034C89.0003 24.4338 87.8226 18.6294 89.9256 13.54C89.9677 13.4138 89.9256 13.3297 89.8836 13.2455L87.3179 10.6798C87.2337 10.5957 87.1496 10.5957 87.0655 10.5957C86.9814 10.5957 86.8972 10.6798 86.8552 10.7639C83.4062 17.5778 84.668 25.7797 90.0939 31.1635C90.9351 32.0048 91.9025 32.8039 92.912 33.4769C92.9961 33.5189 93.0802 33.5189 93.1643 33.5189C93.2064 33.5189 93.2485 33.4769 93.2485 33.4348C93.2905 33.3928 93.2905 33.3507 93.3326 33.3086L94.2579 29.7755C94.3 29.6073 94.2579 29.4811 94.1738 29.439Z" fill="#99288C"/>
<path d="M119.873 18.5873C119.789 18.5453 119.705 18.5032 119.621 18.5453L116.172 19.4706C116.046 19.5127 115.961 19.5968 115.961 19.723C115.709 22.9617 114.321 26.0321 112.05 28.3034C109.905 30.4485 107.213 31.7524 104.226 32.173C104.1 32.173 104.016 32.2571 103.974 32.3833L103.049 35.8744C103.007 35.9585 103.049 36.0426 103.091 36.1268C103.133 36.2109 103.217 36.2529 103.343 36.2109C107.717 36.0006 111.797 34.1919 114.868 31.1215C118.149 27.8407 119.957 23.4664 119.999 18.8397C119.999 18.7135 119.957 18.6294 119.873 18.5873Z" fill="#07809F"/>
<path d="M112.724 22.499C110.958 20.7324 108.055 20.7324 106.247 22.499C104.48 24.2656 104.48 27.1678 106.247 28.9764C108.013 30.7429 110.916 30.7429 112.724 28.9764C114.533 27.2098 114.533 24.2656 112.724 22.499Z" fill="#07809F"/>
<path d="M95.8982 18.2508C94.1316 16.4843 91.2294 16.4843 89.4208 18.2508C87.6122 20.0174 87.6543 22.9196 89.4208 24.7282C91.1874 26.4948 94.0896 26.4948 95.8982 24.7282C97.6648 22.9196 97.6648 20.0174 95.8982 18.2508Z" fill="#99288C"/>
<path d="M108.474 5.67453C106.708 3.90797 103.806 3.90797 101.997 5.67453C100.188 7.44109 100.23 10.3433 101.997 12.1519C103.764 13.9185 106.666 13.9185 108.474 12.1519C110.241 10.3433 110.241 7.48315 108.474 5.67453Z" fill="#E83238"/>
<path d="M4.75289 51.9416C4.75289 51.9416 6.72976 53.8764 9.29548 53.8764C10.6835 53.8764 11.9453 53.1614 11.9453 51.6472C11.9453 48.3664 3.32282 48.9553 3.32282 43.3191C3.32282 40.2907 5.9306 38.0194 9.46372 38.0194C13.081 38.0194 14.9317 39.9963 14.9317 39.9963L13.5016 42.6882C13.5016 42.6882 11.735 41.0899 9.46372 41.0899C7.90746 41.0899 6.6877 41.9731 6.6877 43.277C6.6877 46.5157 15.3102 45.7166 15.3102 51.5631C15.3102 54.4653 13.081 56.9048 9.29548 56.9048C5.21556 56.9048 2.98633 54.4232 2.98633 54.4232L4.75289 51.9416Z" fill="#99288C"/>
<path d="M17.918 43.4873H21.1987V51.2686C21.1987 52.8669 21.6193 53.9605 23.2177 53.9605C25.5731 53.9605 26.919 51.8574 26.919 49.5441V43.5294H30.1998V56.6524H27.0452V55.1382C27.0452 54.6335 27.0873 54.2129 27.0873 54.2129H27.0452C26.4143 55.5588 24.7319 56.9468 22.5026 56.9468C19.6845 56.9468 17.96 55.5167 17.96 51.9416V43.4873H17.918Z" fill="#99288C"/>
<path d="M33.7754 43.4873H36.7617V44.4547C36.7617 44.9594 36.7197 45.338 36.7197 45.338H36.7617C36.7617 45.338 37.8974 43.1929 40.9678 43.1929C44.543 43.1929 46.7722 46.011 46.7722 50.0488C46.7722 54.2128 44.2065 56.9048 40.7575 56.9048C38.1497 56.9048 37.0141 55.0961 37.0141 55.0961C37.0141 55.0961 37.0561 55.5588 37.0561 56.2318V61.7418H33.7754V43.4873ZM40.2107 54.1708C42.0193 54.1708 43.4915 52.6987 43.4915 50.0909C43.4915 47.6093 42.1455 45.9689 40.2107 45.9689C38.5283 45.9689 36.93 47.1887 36.93 50.1329C36.972 52.1519 38.0656 54.1708 40.2107 54.1708Z" fill="#99288C"/>
<path d="M49.505 43.4873H52.4913V44.4547C52.4913 44.9594 52.4492 45.338 52.4492 45.338H52.4913C52.4913 45.338 53.6269 43.1929 56.6974 43.1929C60.2726 43.1929 62.5018 46.011 62.5018 50.0488C62.5018 54.2128 59.9361 56.9048 56.4871 56.9048C53.8793 56.9048 52.7436 55.0961 52.7436 55.0961H52.7016C52.7016 55.0961 52.7436 55.5588 52.7436 56.2318V61.7418H49.4629V43.4873H49.505ZM55.9403 54.1708C57.7489 54.1708 59.221 52.6987 59.221 50.0909C59.221 47.6093 57.8751 45.9689 55.9403 45.9689C54.2578 45.9689 52.6595 47.1887 52.6595 50.1329C52.7016 52.1519 53.7952 54.1708 55.9403 54.1708Z" fill="#99288C"/>
<path d="M71.5034 43.1929C75.5412 43.1929 78.7379 46.053 78.7379 50.0488C78.7379 54.0867 75.4992 56.9048 71.5454 56.9048C67.5076 56.9048 64.311 54.0867 64.311 50.0488C64.2689 46.053 67.5076 43.1929 71.5034 43.1929ZM71.5034 54.1708C73.6064 54.1708 75.373 52.5304 75.373 50.0909C75.373 47.6513 73.6064 46.011 71.5034 46.011C69.3583 46.011 67.5917 47.6934 67.5917 50.0909C67.5917 52.4884 69.3583 54.1708 71.5034 54.1708Z" fill="#99288C"/>
<path d="M81.3457 43.4873H84.5003V45.7586C84.5003 46.2634 84.4582 46.684 84.4582 46.684H84.5003C85.0891 44.7912 86.6454 43.3191 88.6643 43.3191C88.9587 43.3191 89.2532 43.3612 89.2532 43.3612V46.5999C89.2532 46.5999 88.9167 46.5578 88.4961 46.5578C87.1081 46.5578 85.5518 47.3569 84.9209 49.3338C84.7106 49.9647 84.6265 50.6798 84.6265 51.4789V56.6945H81.3457V43.4873Z" fill="#99288C"/>
<path d="M92.0301 46.3054H90.3477V43.6976H92.1142V39.9121H95.3109V43.6976H98.2972V46.3054H95.3109V51.3948C95.3109 53.5399 96.9933 53.8764 97.9186 53.8764C98.2972 53.8764 98.5075 53.8343 98.5075 53.8343V56.6944C98.5075 56.6944 98.1289 56.7786 97.498 56.7786C95.6894 56.7786 92.0301 56.2318 92.0301 51.8154V46.3054Z" fill="#99288C"/>
<path d="M6.22503 5.63247C2.56572 8.15613 0 11.521 0 11.521L4.79495 14.7597L5.21556 13.7082C6.35121 16.0636 8.79075 16.6945 10.1788 16.6525H10.1367H34.9947H34.9527C36.3407 16.6945 38.8223 16.0636 39.9579 13.7082C40 13.7923 40.3786 14.7176 40.3786 14.7176L45.1735 11.521C45.1735 11.521 42.5657 8.11407 38.9064 5.59041C35.5415 3.31912 29.9474 0.543091 22.5447 0.543091C15.142 0.543091 9.58991 3.31912 6.22503 5.63247Z" fill="white"/>
<path d="M15.2686 8.19822L15.6892 7.31494H10.3895L9.96889 8.19822H12.0299L9.88477 12.5305H11.2728L13.4179 8.19822H15.2686Z" fill="#E83238"/>
<path d="M34.4474 11.1005C34.0688 11.6473 33.48 11.9417 33.1856 11.7314C32.8911 11.5211 32.9753 10.8902 33.3538 10.3434C33.7324 9.79659 34.3212 9.50217 34.6156 9.71247C34.9521 9.92278 34.868 10.5116 34.4474 11.1005ZM29.8207 11.0584C29.4421 11.6052 28.8533 11.8996 28.5589 11.6893C28.2644 11.479 28.3485 10.8481 28.7271 10.3013C29.1056 9.75453 29.6945 9.46011 29.9889 9.67041C30.2834 9.88072 30.1992 10.5116 29.8207 11.0584ZM24.0583 10.6799C24.0583 10.6799 24.3107 9.79659 25.1519 9.46011C25.1519 9.46011 25.4043 9.37598 25.5305 9.50217C25.5305 9.50217 25.6987 9.67041 25.4884 10.0069C25.2781 10.3013 24.8575 10.8061 24.3528 10.9743C24.3107 10.9322 23.8901 11.1425 24.0583 10.6799ZM15.9406 11.0584C15.562 11.6052 14.9731 11.8996 14.6787 11.6893C14.3843 11.479 14.4684 10.8481 14.847 10.3013C15.2255 9.75453 15.8144 9.46011 16.1088 9.67041C16.4032 9.88072 16.3191 10.5116 15.9406 11.0584ZM35.7933 11.7314C35.7933 11.7314 35.541 11.8576 35.4148 11.7314C35.2886 11.6052 35.4148 11.3949 35.4148 11.3949L36.5504 9.0395H35.4148L35.2045 9.37598C34.5315 8.78713 33.2697 9.08156 32.5126 9.92278C32.0499 10.3854 31.7975 10.9322 31.7555 11.437C31.6293 11.5211 31.419 11.6473 31.1246 11.7735C31.1246 11.7735 30.8722 11.8996 30.746 11.7735C30.6198 11.6473 30.746 11.437 30.746 11.437L32.7229 7.35706H31.5872L30.5357 9.41804C29.8627 8.82919 28.6009 9.12362 27.8438 9.96484C27.6756 10.1331 27.5494 10.3013 27.4232 10.4696C27.4232 10.4696 27.4232 10.5116 27.3811 10.5116C27.3391 10.5537 27.3391 10.5958 27.297 10.6378C26.6661 11.7314 25.909 11.8996 25.909 11.8996C24.2686 12.4044 24.1004 11.6052 24.1004 11.6052C25.9511 10.9322 26.624 10.1331 26.5399 9.50217C26.4558 8.87125 25.6146 8.87125 25.6146 8.87125C24.2266 8.78713 23.0489 9.75453 22.7544 10.7219C22.6703 11.0164 22.6283 11.3108 22.7124 11.5632C22.1656 11.8576 21.8291 11.8996 21.8291 11.8996C21.3664 12.0258 21.3244 11.8155 21.2402 11.6893C21.1982 11.5632 20.9879 10.3854 20.9879 10.3854L22.9227 9.12362H21.745L20.2728 10.049C19.9363 10.1751 20.0625 9.83865 20.0625 9.83865L21.2402 7.44118H20.1887L18.2539 11.3529C18.0436 11.479 17.5809 11.7314 17.2444 11.8576C17.2444 11.8576 16.9921 11.9838 16.8659 11.8576C16.7397 11.7314 16.8659 11.5211 16.8659 11.5211L18.0015 9.16568H16.8238L16.6556 9.46011C15.9826 8.87125 14.7208 9.16568 13.9637 10.0069C13.1645 10.8061 12.9963 11.8996 13.501 12.4044C13.9216 12.825 14.6787 12.7409 15.3938 12.2782C15.3938 12.2782 15.562 12.1099 15.6461 12.3203C15.7302 12.4885 16.1509 12.9091 17.0341 12.5726C17.3286 12.4464 17.5809 12.3203 17.7912 12.1941L17.5389 12.6567H18.6745L19.2634 11.479L19.7681 11.1425C19.7681 11.1425 19.9363 11.0164 19.9784 11.2687C19.9784 11.2687 20.2308 12.2361 20.3149 12.3623C20.399 12.4885 20.6093 12.7829 21.4085 12.5306C22.0394 12.3623 22.5862 12.152 22.9227 12.0258C23.175 12.4044 23.7218 12.6567 24.5631 12.6567C25.8249 12.6567 26.7082 12.0679 27.0867 11.7314C27.1288 11.9838 27.2129 12.1941 27.3811 12.3623C27.8018 12.7829 28.5588 12.6988 29.2739 12.2361C29.2739 12.2361 29.4421 12.0679 29.5263 12.2782C29.6104 12.4464 30.031 12.867 30.9143 12.5306C31.3349 12.3623 31.6293 12.1941 31.7975 12.0679C31.8396 12.1941 31.9237 12.3203 32.0079 12.4044C32.4285 12.825 33.1856 12.7409 33.9006 12.2782C33.9006 12.2782 34.0688 12.1099 34.153 12.3203C34.2371 12.4885 34.6577 12.9091 35.541 12.5726C36.4663 12.1941 36.7187 11.8996 36.7187 11.8996L36.5084 11.479C36.5084 11.3528 36.2139 11.5632 35.7933 11.7314Z" fill="#E83238"/>
<path d="M38.9903 11.6473C38.9903 11.6473 38.4435 14.8018 34.9524 14.8018C31.5034 14.8018 13.5855 14.8018 10.1365 14.8018C6.64539 14.8018 6.14066 11.6052 6.14066 11.6052C6.01447 10.764 6.18272 10.1751 6.43508 9.79658C8.95874 6.47376 13.9219 2.05736 22.5024 2.05736C31.1669 2.05736 36.1722 6.55789 38.6959 9.8807C39.0324 10.2172 39.1165 10.806 38.9903 11.6473ZM22.5444 1.46851C8.70638 1.46851 1.3457 11.3108 1.3457 11.3108L4.37409 13.3297C4.37409 13.3297 4.75264 12.4044 5.5518 11.1005C5.5518 11.437 5.59386 11.6473 5.59386 11.6473C6.14066 15.7692 10.1365 15.6851 10.1365 15.6851H34.9945C34.9945 15.6851 39.0744 15.8113 39.5791 11.6893C39.5791 11.6893 39.6212 11.479 39.6212 11.1425C40.4204 12.4044 40.7989 13.2876 40.7989 13.2876L43.8273 11.2687C43.8273 11.3108 36.3825 1.46851 22.5444 1.46851Z" fill="#E83238"/>
</g>
<defs>
<clipPath id="clip0_2957_17206">
<rect width="120" height="71.7981" fill="white" transform="translate(0 0.543091)"/>
</clipPath>
</defs>
</svg>
