<svg width="105" height="104" viewBox="0 0 105 104" fill="none" xmlns="http://www.w3.org/2000/svg">
<mask id="mask0_503_18379" style="mask-type:luminance" maskUnits="userSpaceOnUse" x="28" y="0" width="47" height="104">
<path fill-rule="evenodd" clip-rule="evenodd" d="M28.334 0.0961914H74.9454V103.105H28.334V0.0961914Z" fill="white"/>
</mask>
<g mask="url(#mask0_503_18379)">
<path fill-rule="evenodd" clip-rule="evenodd" d="M34.2588 42.7367C34.2588 38.6579 37.6503 35.3335 41.8138 35.3335H61.2406C65.4026 35.3335 68.7956 38.6579 68.7956 42.7367V59.8067C68.7956 62.8275 66.7904 65.698 63.8615 66.756C62.9363 67.0581 62.319 67.9644 62.319 69.0209V92.5879C62.319 95.3066 60.006 97.573 57.2317 97.573H45.8226C43.0469 97.573 40.7339 95.3066 40.7339 92.5879V69.0209C40.7339 67.9644 40.1166 67.0581 39.1914 66.756C36.2625 65.698 34.2588 62.8275 34.2588 59.8067V42.7367Z" stroke="#FFFFFE" stroke-width="1.99125"/>
<path fill-rule="evenodd" clip-rule="evenodd" d="M33.5117 42.5003C33.5117 38.1296 37.0725 34.5702 41.4433 34.5702H61.8361C66.2054 34.5702 69.7662 38.1296 69.7662 42.5003V59.3323C69.7662 62.5692 67.6618 65.644 64.587 66.7764C63.6165 67.1004 62.9685 68.0723 62.9685 69.2048V92.9964C62.9685 95.9093 60.5402 98.3376 57.6274 98.3376H45.6505C42.7377 98.3376 40.3108 95.9093 40.3108 92.9964V69.2048C40.3108 68.0723 39.6629 67.1004 38.6909 66.7764C35.6161 65.644 33.5117 62.5692 33.5117 59.3323V42.5003ZM28.334 42.5003V59.3323C28.334 64.1876 31.0848 68.5568 35.2921 70.8232V92.8344C35.2921 98.6616 39.9868 103.193 45.6505 103.193H57.6274C63.4545 103.193 67.9858 98.4996 67.9858 92.8344V70.8232C72.1945 68.5568 74.9454 64.1876 74.9454 59.3323V42.5003C74.9454 35.2167 69.1182 29.391 61.8361 29.391H41.4433C34.1597 29.391 28.334 35.2167 28.334 42.5003ZM51.6397 5.2754C56.0089 5.2754 59.7317 8.83619 59.7317 13.3674C59.7317 17.8987 56.1709 21.4595 51.6397 21.4595C47.1084 21.4595 43.5476 17.8987 43.5476 13.3674C43.5476 8.83619 47.1084 5.2754 51.6397 5.2754ZM51.6397 26.6387C58.9218 26.6387 64.9109 20.651 64.9109 13.3674C64.9109 6.08387 58.9218 0.0961914 51.6397 0.0961914C44.3561 0.0961914 38.3684 6.08387 38.3684 13.3674C38.3684 20.651 44.3561 26.6387 51.6397 26.6387Z" fill="#DD4167"/>
</g>
<mask id="mask1_503_18379" style="mask-type:luminance" maskUnits="userSpaceOnUse" x="68" y="0" width="28" height="27">
<path fill-rule="evenodd" clip-rule="evenodd" d="M82.0672 21.4595C77.6964 21.4595 73.9751 17.8987 73.9751 13.3674C73.9751 8.83619 77.5344 5.2754 82.0672 5.2754C86.5984 5.2754 90.1592 8.83619 90.1592 13.3674C90.1592 17.8987 86.5984 21.4595 82.0672 21.4595ZM82.0672 0.0961914C74.7836 0.0961914 68.7959 6.08387 68.7959 13.3674C68.7959 20.651 74.7836 26.6387 82.0672 26.6387C89.3507 26.6387 95.3384 20.651 95.3384 13.3674C95.3384 6.08387 89.3507 0.0961914 82.0672 0.0961914Z" fill="white"/>
</mask>
<g mask="url(#mask1_503_18379)">
<path fill-rule="evenodd" clip-rule="evenodd" d="M82.0672 21.4595C77.6964 21.4595 73.9751 17.8987 73.9751 13.3674C73.9751 8.83619 77.5344 5.2754 82.0672 5.2754C86.5984 5.2754 90.1592 8.83619 90.1592 13.3674C90.1592 17.8987 86.5984 21.4595 82.0672 21.4595ZM82.0672 0.0961914C74.7836 0.0961914 68.7959 6.08387 68.7959 13.3674C68.7959 20.651 74.7836 26.6387 82.0672 26.6387C89.3507 26.6387 95.3384 20.651 95.3384 13.3674C95.3384 6.08387 89.3507 0.0961914 82.0672 0.0961914Z" fill="url(#paint0_linear_503_18379)"/>
</g>
<mask id="mask2_503_18379" style="mask-type:luminance" maskUnits="userSpaceOnUse" x="72" y="29" width="33" height="75">
<path fill-rule="evenodd" clip-rule="evenodd" d="M90.9688 29.3911C98.2509 29.3911 104.078 35.2168 104.078 42.5004V59.3324C104.078 64.1877 101.326 68.5569 97.1184 70.8233V92.8345C97.1184 98.186 93.1602 102.445 88.126 103.104L74.099 103.106C72.9871 102.814 72.1943 101.822 72.1943 100.603C72.1943 99.1462 73.3268 98.0137 74.7832 98.0137H86.76C89.6729 98.0137 92.1012 95.5854 92.1012 92.6726V69.2049C92.1012 68.0724 92.7477 67.1005 93.7196 66.7765C96.7945 65.6441 98.8988 62.5693 98.8988 59.3324V42.5004C98.8988 38.1297 95.338 34.5703 90.9688 34.5703H79.6384C78.182 34.5703 77.0496 33.4364 77.0496 31.98C77.0496 30.5236 78.182 29.3911 79.6384 29.3911H90.9688Z" fill="white"/>
</mask>
<g mask="url(#mask2_503_18379)">
<path fill-rule="evenodd" clip-rule="evenodd" d="M0.078125 103.105H104.078V0.0961914H0.078125V103.105Z" fill="url(#paint1_linear_503_18379)"/>
</g>
<mask id="mask3_503_18379" style="mask-type:luminance" maskUnits="userSpaceOnUse" x="8" y="0" width="28" height="27">
<path fill-rule="evenodd" clip-rule="evenodd" d="M22.0896 21.4595C26.4589 21.4595 30.1817 17.8987 30.1817 13.3674C30.1817 8.83619 26.6209 5.2754 22.0896 5.2754C17.5584 5.2754 13.9976 8.83619 13.9976 13.3674C13.9976 17.8987 17.5584 21.4595 22.0896 21.4595ZM22.0896 0.0961914C29.3732 0.0961914 35.3609 6.08387 35.3609 13.3674C35.3609 20.651 29.3732 26.6387 22.0896 26.6387C14.806 26.6387 8.81836 20.651 8.81836 13.3674C8.81836 6.08387 14.806 0.0961914 22.0896 0.0961914Z" fill="white"/>
</mask>
<g mask="url(#mask3_503_18379)">
<path fill-rule="evenodd" clip-rule="evenodd" d="M22.0896 21.4595C26.4589 21.4595 30.1817 17.8987 30.1817 13.3674C30.1817 8.83619 26.6209 5.2754 22.0896 5.2754C17.5584 5.2754 13.9976 8.83619 13.9976 13.3674C13.9976 17.8987 17.5584 21.4595 22.0896 21.4595ZM22.0896 0.0961914C29.3732 0.0961914 35.3609 6.08387 35.3609 13.3674C35.3609 20.651 29.3732 26.6387 22.0896 26.6387C14.806 26.6387 8.81836 20.651 8.81836 13.3674C8.81836 6.08387 14.806 0.0961914 22.0896 0.0961914Z" fill="url(#paint2_linear_503_18379)"/>
</g>
<mask id="mask4_503_18379" style="mask-type:luminance" maskUnits="userSpaceOnUse" x="0" y="29" width="32" height="75">
<path fill-rule="evenodd" clip-rule="evenodd" d="M24.5177 29.3911C25.9741 29.3911 27.1066 30.5236 27.1066 31.98C27.1066 33.4364 25.9741 34.5703 24.5177 34.5703H13.1874C8.81812 34.5703 5.25733 38.1297 5.25733 42.5004V59.3324C5.25733 62.5693 7.3617 65.6441 10.4365 66.7765C11.407 67.1005 12.0549 68.0724 12.0549 69.2049V92.6726C12.0549 95.5854 14.4818 98.0137 17.3961 98.0137H29.373C30.8294 98.0137 31.9618 99.1462 31.9618 100.603C31.9618 101.822 31.1691 102.814 30.0571 103.106L16.0302 103.104C10.996 102.445 7.03773 98.186 7.03773 92.8345V70.8233C2.82898 68.5569 0.078125 64.1877 0.078125 59.3324V42.5004C0.078125 35.2168 5.90528 29.3911 13.1874 29.3911H24.5177Z" fill="white"/>
</mask>
<g mask="url(#mask4_503_18379)">
<path fill-rule="evenodd" clip-rule="evenodd" d="M0.078125 103.105H104.078V0.0961914H0.078125V103.105Z" fill="url(#paint3_linear_503_18379)"/>
</g>
<defs>
<linearGradient id="paint0_linear_503_18379" x1="68.7953" y1="26.6391" x2="95.3383" y2="26.6391" gradientUnits="userSpaceOnUse">
<stop stop-color="#AAD8CE"/>
<stop offset="1" stop-color="#56BAAC"/>
</linearGradient>
<linearGradient id="paint1_linear_503_18379" x1="72.1938" y1="82.0817" x2="104.078" y2="82.0817" gradientUnits="userSpaceOnUse">
<stop stop-color="#AAD8CE"/>
<stop offset="1" stop-color="#56BAAC"/>
</linearGradient>
<linearGradient id="paint2_linear_503_18379" x1="8.81807" y1="26.6391" x2="35.361" y2="26.6391" gradientUnits="userSpaceOnUse">
<stop stop-color="#AAD8CE"/>
<stop offset="1" stop-color="#56BAAC"/>
</linearGradient>
<linearGradient id="paint3_linear_503_18379" x1="0.078125" y1="82.0817" x2="31.962" y2="82.0817" gradientUnits="userSpaceOnUse">
<stop stop-color="#AAD8CE"/>
<stop offset="1" stop-color="#56BAAC"/>
</linearGradient>
</defs>
</svg>
