<svg width="67" height="78" viewBox="0 0 67 78" fill="none" xmlns="http://www.w3.org/2000/svg">
<g clip-path="url(#clip0_2_20250)">
<path d="M18.6138 11.2541C35.386 30.669 25.2569 64.2791 16.1755 76.7267H44.5285C44.5285 76.7267 25.217 45.973 42.3134 18.1791C46.7578 10.9534 49.0927 8.39062 49.0927 8.39062L31.6816 27.5119L18.6138 11.2541Z" stroke="#E1242A" stroke-width="2" stroke-linecap="round" stroke-linejoin="round"/>
<path d="M60.5067 29.1018C60.5866 29.6938 60.643 30.2952 60.643 30.9083C60.643 38.5685 54.1549 44.7794 46.1494 44.7794C42.8701 44.7794 39.8563 43.7247 37.4274 41.9699C35.4354 46.5294 30.5212 49.764 24.759 49.764C19.0156 49.764 14.1131 46.5529 12.1094 42.0145C11.7852 42.0498 11.4704 42.1226 11.1369 42.1226C5.67768 42.1226 1.25208 37.3235 1.25208 31.4063C1.25208 27.4505 3.25346 24.0326 6.19447 22.1769C5.63774 20.5631 5.32297 18.8389 5.32297 17.0348C5.32297 8.31983 12.3889 1.25391 21.1039 1.25391C25.5835 1.25391 29.6168 3.1261 32.4897 6.12348C34.9726 4.58485 37.8925 3.68282 41.0308 3.68282C48.1508 3.68282 54.1878 8.26346 56.3936 14.6364C56.6942 14.5988 56.9902 14.5448 57.3003 14.5448C61.5215 14.5448 64.9417 17.965 64.9417 22.1863C64.9417 25.2565 63.1189 27.8874 60.5067 29.1018Z" fill="white" stroke="#707070" stroke-linecap="round" stroke-linejoin="round"/>
<path d="M60.5067 29.1018C60.5866 29.6938 60.643 30.2952 60.643 30.9083C60.643 38.5685 54.1549 44.7794 46.1494 44.7794C42.8701 44.7794 39.8563 43.7247 37.4274 41.9699C35.4354 46.5294 30.5212 49.764 24.759 49.764C19.0156 49.764 14.1131 46.5529 12.1094 42.0145C11.7852 42.0498 11.4704 42.1226 11.1369 42.1226C5.67768 42.1226 1.25208 37.3235 1.25208 31.4063C1.25208 27.4505 3.25346 24.0326 6.19447 22.1769C5.63774 20.5631 5.32297 18.8389 5.32297 17.0348C5.32297 8.31983 12.3889 1.25391 21.1039 1.25391C25.5835 1.25391 29.6168 3.1261 32.4897 6.12348C34.9726 4.58485 37.8925 3.68282 41.0308 3.68282C48.1508 3.68282 54.1878 8.26346 56.3936 14.6364C56.6942 14.5988 56.9902 14.5448 57.3003 14.5448C61.5215 14.5448 64.9417 17.965 64.9417 22.1863C64.9417 25.2565 63.1189 27.8874 60.5067 29.1018Z" stroke="#E1242A" stroke-width="2" stroke-linecap="round" stroke-linejoin="round"/>
</g>
<defs>
<clipPath id="clip0_2_20250">
<rect width="66.1937" height="77.9766" fill="white"/>
</clipPath>
</defs>
</svg>
