<svg width="43" height="43" viewBox="0 0 43 43" fill="none" xmlns="http://www.w3.org/2000/svg">
<g clip-path="url(#clip0_2_20255)">
<path d="M33.6977 15.2421C33.712 15.5101 33.712 15.7896 33.712 16.0576C33.712 24.3796 27.391 33.9686 15.8097 33.9686C12.2407 33.9686 8.92967 32.9308 6.149 31.1463C6.65067 31.2037 7.138 31.2237 7.654 31.2237C10.6067 31.2237 13.3157 30.2247 15.4657 28.5362C12.7137 28.4775 10.3917 26.6643 9.589 24.1689C10.5637 24.3122 11.438 24.3122 12.427 24.0528C9.546 23.468 7.396 20.9338 7.396 17.8722V17.7948C8.22733 18.265 9.202 18.5531 10.234 18.5918C9.374 18.017 8.65733 17.2387 8.17 16.3242C7.68267 15.4098 7.42467 14.3878 7.42467 13.3515C7.42467 12.1805 7.74 11.1055 8.28467 10.1738C11.3807 13.9936 16.039 16.4891 21.2563 16.7585C20.3677 12.4872 23.564 9.02283 27.4053 9.02283C29.2113 9.02283 30.8453 9.78107 32.0063 11.0094C33.4253 10.74 34.787 10.2125 35.991 9.49297C35.518 10.9521 34.529 12.1805 33.2247 12.9573C34.5003 12.8226 35.7187 12.4686 36.851 11.9784C36.0053 13.2354 34.9303 14.3491 33.6977 15.2421ZM38.399 0H4.601C2.064 0 0 2.064 0 4.60673V38.3933C0 40.936 2.064 43 4.601 43H38.399C40.936 43 43 40.936 43 38.3933V4.60673C43 2.064 40.936 0 38.399 0Z" fill="#333333"/>
</g>
<defs>
<clipPath id="clip0_2_20255">
<rect width="43" height="43" fill="white"/>
</clipPath>
</defs>
</svg>
