<svg width="125" height="98" viewBox="0 0 125 98" fill="none" xmlns="http://www.w3.org/2000/svg">
<mask id="mask0_572_10398" style="mask-type:luminance" maskUnits="userSpaceOnUse" x="25" y="4" width="28" height="28">
<path fill-rule="evenodd" clip-rule="evenodd" d="M39.0592 4.96191C31.7791 4.96191 25.8574 10.9585 25.8574 18.3333C25.8574 25.7044 31.7791 31.701 39.0592 31.701C46.3394 31.701 52.2623 25.7044 52.2623 18.3333C52.2623 10.9585 46.3394 4.96191 39.0592 4.96191ZM30.2846 18.3333C30.2846 13.4309 34.2205 9.44262 39.0592 9.44262C43.8992 9.44262 47.8376 13.4309 47.8376 18.3333C47.8376 23.2309 43.8992 27.2166 39.0592 27.2166C34.2205 27.2166 30.2846 23.2309 30.2846 18.3333Z" fill="white"/>
</mask>
<g mask="url(#mask0_572_10398)">
<path fill-rule="evenodd" clip-rule="evenodd" d="M39.0592 4.96191C31.7791 4.96191 25.8574 10.9585 25.8574 18.3333C25.8574 25.7044 31.7791 31.701 39.0592 31.701C46.3394 31.701 52.2623 25.7044 52.2623 18.3333C52.2623 10.9585 46.3394 4.96191 39.0592 4.96191ZM30.2846 18.3333C30.2846 13.4309 34.2205 9.44262 39.0592 9.44262C43.8992 9.44262 47.8376 13.4309 47.8376 18.3333C47.8376 23.2309 43.8992 27.2166 39.0592 27.2166C34.2205 27.2166 30.2846 23.2309 30.2846 18.3333Z" fill="url(#paint0_linear_572_10398)"/>
</g>
<mask id="mask1_572_10398" style="mask-type:luminance" maskUnits="userSpaceOnUse" x="66" y="7" width="32" height="33">
<path fill-rule="evenodd" clip-rule="evenodd" d="M66.5898 23.6192C66.5898 32.2383 73.5148 39.2496 82.0261 39.2496C90.541 39.2496 97.4672 32.2383 97.4672 23.6192C97.4672 14.9977 90.541 7.98389 82.0261 7.98389C73.5148 7.98389 66.5898 14.9977 66.5898 23.6192ZM71.7667 23.6192C71.7667 17.8881 76.369 13.225 82.0261 13.225C87.6868 13.225 92.2903 17.8881 92.2903 23.6192C92.2903 29.3466 87.6868 34.0085 82.0261 34.0085C76.369 34.0085 71.7667 29.3466 71.7667 23.6192Z" fill="white"/>
</mask>
<g mask="url(#mask1_572_10398)">
<path fill-rule="evenodd" clip-rule="evenodd" d="M66.5898 23.6192C66.5898 32.2383 73.5148 39.2496 82.0261 39.2496C90.541 39.2496 97.4672 32.2383 97.4672 23.6192C97.4672 14.9977 90.541 7.98389 82.0261 7.98389C73.5148 7.98389 66.5898 14.9977 66.5898 23.6192ZM71.7667 23.6192C71.7667 17.8881 76.369 13.225 82.0261 13.225C87.6868 13.225 92.2903 17.8881 92.2903 23.6192C92.2903 29.3466 87.6868 34.0085 82.0261 34.0085C76.369 34.0085 71.7667 29.3466 71.7667 23.6192Z" fill="url(#paint1_linear_572_10398)"/>
</g>
<mask id="mask2_572_10398" style="mask-type:luminance" maskUnits="userSpaceOnUse" x="4" y="35" width="116" height="58">
<path fill-rule="evenodd" clip-rule="evenodd" d="M4.94204 70.121C4.91509 70.3604 4.90162 70.5986 4.90039 70.8367V70.9012C4.90897 72.4841 5.48472 74.0224 6.53332 75.2145C7.74607 76.5914 9.48802 77.3817 11.3108 77.3817H43.2441C42.7774 79.5625 42.4025 81.8251 42.1367 84.1771C41.8917 86.3393 42.5691 88.509 43.9975 90.1303C45.416 91.7405 47.452 92.6647 49.5823 92.6647H111.951C114.081 92.6647 116.117 91.7405 117.535 90.1303C118.964 88.509 119.641 86.3393 119.396 84.1771C116.848 61.7116 104.991 46.8106 87.6773 44.3135C85.5556 44.0083 83.3249 43.8805 80.7671 43.9202C78.2081 43.8805 75.9773 44.0083 73.8556 44.3135C69.9552 44.8767 66.3354 46.0725 63.0328 47.839C58.2945 41.3276 51.7628 37.1669 43.8897 36.0319C42.0791 35.7713 40.1755 35.6609 37.9925 35.6957C37.7255 35.6907 37.4621 35.6895 37.2024 35.6895C35.3343 35.6895 33.6658 35.8024 32.0709 36.0319C17.2631 38.1668 7.12254 50.9105 4.94204 70.121ZM34.2832 40.3649C35.6222 40.2595 36.8325 40.1987 37.957 40.1789C39.0938 40.1987 40.32 40.2583 41.6749 40.3649C43.0518 40.4629 44.3319 40.6838 45.5557 40.974C45.6794 40.9703 45.8154 40.9988 45.944 41.0075C46.8174 41.2308 47.6517 41.4988 48.454 41.8039C49.0972 42.0843 49.7329 42.3696 50.3467 42.6835C50.365 42.671 50.3846 42.6624 50.403 42.6512C54.1295 44.4822 57.0119 47.1778 59.2389 50.217C52.4059 55.1952 47.2866 62.967 44.376 72.8985H11.3108C10.74 72.8985 10.2181 72.6615 9.83714 72.2298C9.44881 71.7907 9.27364 71.2238 9.33979 70.6333C9.96209 65.1515 12.8764 48.8823 25.5576 42.6537C25.5759 42.6648 25.5943 42.6723 25.6115 42.6835C26.2289 42.3684 26.8646 42.083 27.509 41.8015C28.3224 41.4938 29.1774 41.2283 30.0643 41.0026C30.1758 40.9964 30.2946 40.9716 30.4024 40.974C31.6262 40.6825 32.9076 40.4617 34.2832 40.3649ZM76.4441 49.3809C78.0194 49.2569 79.4441 49.1862 80.7671 49.1639C82.0889 49.1862 83.5135 49.2569 85.0889 49.3809C86.6961 49.4963 88.1955 49.7531 89.6263 50.0942C89.7218 50.0905 89.8198 50.0992 89.9178 50.1029C91.0007 50.3734 92.0408 50.6934 93.0306 51.0705C93.779 51.3968 94.514 51.728 95.2282 52.0927C95.2478 52.079 95.2699 52.0691 95.2895 52.0567C110.119 59.3397 113.527 78.3629 114.255 84.7738C114.332 85.4636 114.126 86.1272 113.673 86.6408C113.23 87.1457 112.618 87.4235 111.951 87.4235H103.488C103.465 87.4198 103.442 87.4198 103.419 87.4161C103.421 87.4186 103.425 87.4211 103.427 87.4235H58.1058C58.1083 87.4211 58.1119 87.4186 58.1144 87.4161C58.0911 87.4198 58.0678 87.4198 58.0446 87.4235H49.5823C48.9146 87.4235 48.3034 87.1457 47.8587 86.6408C47.4067 86.1272 47.2009 85.4636 47.278 84.7738C48.0045 78.3629 51.4124 59.3397 66.2423 52.0567C66.2631 52.0691 66.2851 52.079 66.3047 52.0927C67.0189 51.728 67.7551 51.3968 68.5024 51.0705C69.4922 50.6934 70.5322 50.3734 71.6163 50.1029C71.7131 50.0992 71.8123 50.0905 71.9067 50.0942C73.3375 49.7531 74.8369 49.4963 76.4441 49.3809Z" fill="white"/>
</mask>
<g mask="url(#mask2_572_10398)">
<path fill-rule="evenodd" clip-rule="evenodd" d="M32.0709 36.0319C17.2631 38.1668 7.12254 50.9105 4.94204 70.121C4.91509 70.3604 4.90162 70.5986 4.90039 70.8367V70.9013C4.90897 72.4841 5.48472 74.0224 6.53332 75.2145C7.74607 76.5915 9.48802 77.3817 11.3108 77.3817H43.2441C42.7774 79.5625 42.4025 81.8251 42.1367 84.1771C41.8917 86.3394 42.5691 88.509 43.9975 90.1303C45.416 91.7405 47.452 92.6647 49.5823 92.6647H50.9481C50.9187 92.7912 50.8979 92.9202 50.8673 93.0468C50.9089 93.0182 50.9543 92.9984 50.9947 92.9686C51.0474 92.9314 51.1968 92.8235 51.4136 92.6647H110.119C110.336 92.8235 110.486 92.9314 110.538 92.9686C110.579 92.9984 110.624 93.0182 110.666 93.0468C110.635 92.9202 110.614 92.7912 110.585 92.6647H111.951C114.081 92.6647 116.117 91.7405 117.535 90.1303C118.964 88.509 119.641 86.3394 119.396 84.1771C116.848 61.7116 104.991 46.8106 87.6773 44.3135C85.5556 44.0083 83.3249 43.8805 80.7671 43.9202C78.2081 43.8805 75.9773 44.0083 73.8556 44.3135C69.9552 44.8767 66.3354 46.0725 63.0328 47.839C58.2945 41.3276 51.7628 37.1669 43.8897 36.0319C42.0791 35.7713 40.1755 35.6609 37.9925 35.6957C37.7255 35.6907 37.4621 35.6895 37.2024 35.6895C35.3343 35.6895 33.6658 35.8024 32.0709 36.0319ZM34.2832 40.3649C35.6222 40.2595 36.8325 40.1987 37.957 40.1789C39.0938 40.1987 40.32 40.2583 41.6749 40.3649C43.0518 40.4629 44.3319 40.6838 45.5557 40.974C45.6794 40.9703 45.8154 40.9988 45.944 41.0075C46.8174 41.2308 47.6517 41.4988 48.454 41.8039C49.0972 42.0843 49.7329 42.3696 50.3467 42.6835C50.365 42.671 50.3846 42.6624 50.403 42.6512C54.1295 44.4822 57.0119 47.1778 59.2389 50.217C52.4059 55.1952 47.2866 62.967 44.376 72.8985H11.3108C10.74 72.8985 10.2181 72.6615 9.83714 72.2298C9.44881 71.7907 9.27364 71.2238 9.33979 70.6333C9.96209 65.1515 12.8764 48.8823 25.5576 42.6537C25.5759 42.6648 25.5943 42.6723 25.6115 42.6835C26.2289 42.3684 26.8646 42.083 27.509 41.8015C28.3224 41.4938 29.1774 41.2283 30.0643 41.0026C30.1758 40.9964 30.2946 40.9716 30.4024 40.974C31.6262 40.6825 32.9076 40.4617 34.2832 40.3649ZM76.4441 49.3809C78.0194 49.2569 79.4441 49.1862 80.7671 49.1639C82.0889 49.1862 83.5135 49.2569 85.0889 49.3809C86.6961 49.4963 88.1955 49.7531 89.6263 50.0942C89.7218 50.0905 89.8198 50.0992 89.9178 50.1029C91.0007 50.3734 92.0408 50.6934 93.0306 51.0705C93.779 51.3968 94.514 51.728 95.2282 52.0927C95.2478 52.079 95.2699 52.0691 95.2895 52.0567C110.119 59.3397 113.527 78.3629 114.255 84.7738C114.332 85.4636 114.126 86.1272 113.673 86.6408C113.23 87.1457 112.618 87.4235 111.951 87.4235H103.488C103.465 87.4198 103.442 87.4198 103.419 87.4161C103.421 87.4186 103.425 87.4211 103.427 87.4235H58.1058C58.1083 87.4211 58.1119 87.4186 58.1144 87.4161C58.0911 87.4198 58.0678 87.4198 58.0446 87.4235H49.5823C48.9146 87.4235 48.3034 87.1457 47.8587 86.6408C47.4067 86.1272 47.2009 85.4636 47.278 84.7738C48.0045 78.3629 51.4124 59.3397 66.2423 52.0567C66.2631 52.0691 66.2851 52.079 66.3047 52.0927C67.0189 51.728 67.7551 51.3968 68.5024 51.0705C69.4922 50.6934 70.5322 50.3734 71.6163 50.1029C71.7131 50.0992 71.8123 50.0905 71.9067 50.0942C73.3375 49.7531 74.8369 49.4963 76.4441 49.3809Z" fill="url(#paint2_linear_572_10398)"/>
</g>
<defs>
<linearGradient id="paint0_linear_572_10398" x1="39.0599" y1="4.96191" x2="39.0599" y2="31.701" gradientUnits="userSpaceOnUse">
<stop stop-color="#CEC6DF"/>
<stop offset="1" stop-color="#6D6A95"/>
</linearGradient>
<linearGradient id="paint1_linear_572_10398" x1="82.0285" y1="7.98389" x2="82.0285" y2="39.2496" gradientUnits="userSpaceOnUse">
<stop stop-color="#CEC6DF"/>
<stop offset="1" stop-color="#6D6A95"/>
</linearGradient>
<linearGradient id="paint2_linear_572_10398" x1="62.1729" y1="35.6895" x2="62.1729" y2="93.0468" gradientUnits="userSpaceOnUse">
<stop stop-color="#CEC6DF"/>
<stop offset="1" stop-color="#6D6A95"/>
</linearGradient>
</defs>
</svg>
