<svg width="160" height="160" viewBox="0 0 160 160" fill="none" xmlns="http://www.w3.org/2000/svg">
<mask id="mask0_958_40157" style="mask-type:luminance" maskUnits="userSpaceOnUse" x="34" y="26" width="34" height="34">
<path fill-rule="evenodd" clip-rule="evenodd" d="M50.5907 26.1538C41.4477 26.1538 34.0107 33.5907 34.0107 42.7369V42.7369C34.0107 51.8784 41.4477 59.3154 50.5907 59.3154V59.3154C59.7338 59.3154 67.1723 51.8784 67.1723 42.7369V42.7369C67.1723 33.5907 59.7338 26.1538 50.5907 26.1538ZM39.5703 42.7366C39.5703 36.6566 44.5134 31.7105 50.5903 31.7105V31.7105C56.6688 31.7105 61.6149 36.6566 61.6149 42.7366V42.7366C61.6149 48.8105 56.6688 53.7536 50.5903 53.7536V53.7536C44.5134 53.7536 39.5703 48.8105 39.5703 42.7366V42.7366Z" fill="white"/>
</mask>
<g mask="url(#mask0_958_40157)">
<path fill-rule="evenodd" clip-rule="evenodd" d="M50.5907 26.1538C41.4477 26.1538 34.0107 33.5907 34.0107 42.7369V42.7369C34.0107 51.8784 41.4477 59.3154 50.5907 59.3154V59.3154C59.7338 59.3154 67.1723 51.8784 67.1723 42.7369V42.7369C67.1723 33.5907 59.7338 26.1538 50.5907 26.1538ZM39.5703 42.7366C39.5703 36.6566 44.5134 31.7105 50.5903 31.7105V31.7105C56.6688 31.7105 61.6149 36.6566 61.6149 42.7366V42.7366C61.6149 48.8105 56.6688 53.7536 50.5903 53.7536V53.7536C44.5134 53.7536 39.5703 48.8105 39.5703 42.7366V42.7366Z" fill="url(#paint0_linear_958_40157)"/>
</g>
<mask id="mask1_958_40157" style="mask-type:luminance" maskUnits="userSpaceOnUse" x="85" y="29" width="39" height="40">
<path fill-rule="evenodd" clip-rule="evenodd" d="M85.1675 49.2921C85.1675 59.9814 93.8644 68.6768 104.554 68.6768V68.6768C115.247 68.6768 123.946 59.9814 123.946 49.2921V49.2921C123.946 38.5998 115.247 29.9014 104.554 29.9014V29.9014C93.8644 29.9014 85.1675 38.5998 85.1675 49.2921M91.6692 49.2925C91.6692 42.1848 97.4492 36.4017 104.554 36.4017V36.4017C111.663 36.4017 117.445 42.1848 117.445 49.2925V49.2925C117.445 56.3956 111.663 62.1771 104.554 62.1771V62.1771C97.4492 62.1771 91.6692 56.3956 91.6692 49.2925" fill="white"/>
</mask>
<g mask="url(#mask1_958_40157)">
<path fill-rule="evenodd" clip-rule="evenodd" d="M85.1675 49.2921C85.1675 59.9814 93.8644 68.6768 104.554 68.6768V68.6768C115.247 68.6768 123.946 59.9814 123.946 49.2921V49.2921C123.946 38.5998 115.247 29.9014 104.554 29.9014V29.9014C93.8644 29.9014 85.1675 38.5998 85.1675 49.2921M91.6692 49.2925C91.6692 42.1848 97.4492 36.4017 104.554 36.4017V36.4017C111.663 36.4017 117.445 42.1848 117.445 49.2925V49.2925C117.445 56.3956 111.663 62.1771 104.554 62.1771V62.1771C97.4492 62.1771 91.6692 56.3956 91.6692 49.2925" fill="url(#paint1_linear_958_40157)"/>
</g>
<mask id="mask2_958_40157" style="mask-type:luminance" maskUnits="userSpaceOnUse" x="7" y="64" width="145" height="71">
<path fill-rule="evenodd" clip-rule="evenodd" d="M7.74469 106.963C7.71084 107.26 7.69392 107.556 7.69238 107.851V107.931C7.70315 109.894 8.42623 111.802 9.74315 113.28C11.2662 114.988 13.4539 115.968 15.7432 115.968H55.8478C55.2616 118.673 54.7908 121.479 54.457 124.396C54.1493 127.077 55.0001 129.768 56.7939 131.779C58.5755 133.776 61.1324 134.922 63.8078 134.922H142.135C144.811 134.922 147.368 133.776 149.149 131.779C150.943 129.768 151.794 127.077 151.486 124.396C148.286 96.5341 133.395 78.0541 111.651 74.9571C108.986 74.5787 106.185 74.4202 102.972 74.4694C99.7585 74.4202 96.957 74.5787 94.2924 74.9571C89.3939 75.6556 84.8478 77.1387 80.7001 79.3294C74.7493 71.2541 66.5462 66.0941 56.6585 64.6864C54.3847 64.3633 51.9939 64.2264 49.2524 64.2694C48.917 64.2633 48.5862 64.2617 48.2601 64.2617C45.9139 64.2617 43.8185 64.4017 41.8155 64.6864C23.2185 67.3341 10.4832 83.1387 7.74469 106.963ZM44.5938 70.0602C46.2753 69.9295 47.7953 69.8541 49.2076 69.8295V69.8295C50.6353 69.8541 52.1753 69.9279 53.8769 70.0602V70.0602C55.6061 70.1818 57.2138 70.4556 58.7507 70.8156V70.8156C58.9061 70.811 59.0769 70.8464 59.2384 70.8572V70.8572C60.3353 71.1341 61.383 71.4664 62.3907 71.8449V71.8449C63.1984 72.1926 63.9969 72.5464 64.7676 72.9356V72.9356C64.7907 72.9202 64.8153 72.9095 64.8384 72.8956V72.8956C69.5184 75.1664 73.1384 78.5095 75.9353 82.2787V82.2787C67.3538 88.4526 60.9245 98.091 57.2692 110.408V110.408H15.743C15.0261 110.408 14.3707 110.114 13.8922 109.579V109.579C13.4045 109.034 13.1845 108.331 13.2676 107.599V107.599C14.0492 100.8 17.7092 80.6233 33.6353 72.8987V72.8987C33.6584 72.9126 33.6815 72.9218 33.703 72.9356V72.9356C34.4784 72.5449 35.2769 72.191 36.0861 71.8418V71.8418C37.1076 71.4602 38.1815 71.131 39.2953 70.851V70.851C39.4353 70.8433 39.5845 70.8126 39.7199 70.8156V70.8156C41.2569 70.4541 42.8661 70.1802 44.5938 70.0602M97.5431 81.2413C99.5216 81.0874 101.311 80.9997 102.972 80.9721V80.9721C104.632 80.9997 106.422 81.0874 108.4 81.2413V81.2413C110.418 81.3844 112.302 81.7028 114.098 82.1259V82.1259C114.218 82.1213 114.342 82.1321 114.465 82.1367V82.1367C115.825 82.4721 117.131 82.869 118.374 83.3367V83.3367C119.314 83.7413 120.237 84.1521 121.134 84.6044V84.6044C121.158 84.5874 121.186 84.5751 121.211 84.5597V84.5597C139.835 93.5921 144.115 117.184 145.029 125.135V125.135C145.126 125.991 144.868 126.814 144.298 127.451V127.451C143.742 128.077 142.974 128.421 142.135 128.421V128.421H131.508C131.478 128.417 131.449 128.417 131.42 128.412V128.412C131.423 128.415 131.428 128.418 131.431 128.421V128.421H74.5123C74.5154 128.418 74.52 128.415 74.5231 128.412V128.412C74.4939 128.417 74.4646 128.417 74.4354 128.421V128.421H63.8077C62.9693 128.421 62.2016 128.077 61.6431 127.451V127.451C61.0754 126.814 60.817 125.991 60.9139 125.135V125.135C61.8262 117.184 66.1062 93.5921 84.7308 84.5597V84.5597C84.757 84.5751 84.7846 84.5874 84.8093 84.6044V84.6044C85.7062 84.1521 86.6308 83.7413 87.5693 83.3367V83.3367C88.8123 82.869 90.1185 82.4721 91.48 82.1367V82.1367C91.6016 82.1321 91.7262 82.1213 91.8446 82.1259V82.1259C93.6416 81.7028 95.5246 81.3844 97.5431 81.2413" fill="white"/>
</mask>
<g mask="url(#mask2_958_40157)">
<path fill-rule="evenodd" clip-rule="evenodd" d="M41.8155 64.6864C23.2185 67.3341 10.4832 83.1387 7.74469 106.963V106.963C7.71084 107.26 7.69392 107.556 7.69238 107.851V107.851V107.931C7.70315 109.894 8.42623 111.802 9.74315 113.28V113.28C11.2662 114.988 13.4539 115.968 15.7432 115.968V115.968H55.8478C55.2616 118.673 54.7908 121.479 54.457 124.396V124.396C54.1493 127.077 55.0001 129.768 56.7939 131.779V131.779C58.5755 133.776 61.1324 134.922 63.8078 134.922V134.922H65.5232C65.4862 135.079 65.4601 135.239 65.4216 135.396V135.396C65.4739 135.36 65.5308 135.336 65.5816 135.299V135.299C65.6478 135.253 65.8355 135.119 66.1078 134.922V134.922H139.835C140.108 135.119 140.295 135.253 140.362 135.299V135.299C140.412 135.336 140.469 135.36 140.522 135.396V135.396C140.483 135.239 140.457 135.079 140.42 134.922V134.922H142.135C144.811 134.922 147.368 133.776 149.149 131.779V131.779C150.943 129.768 151.794 127.077 151.486 124.396V124.396C148.286 96.534 133.395 78.0541 111.651 74.9571V74.9571C108.986 74.5787 106.185 74.4202 102.972 74.4694V74.4694C99.7585 74.4202 96.957 74.5787 94.2924 74.9571V74.9571C89.3939 75.6556 84.8478 77.1387 80.7001 79.3294V79.3294C74.7493 71.2541 66.5462 66.0941 56.6585 64.6864V64.6864C54.3847 64.3633 51.9939 64.2264 49.2524 64.2694V64.2694C48.917 64.2633 48.5862 64.2617 48.2601 64.2617V64.2617C45.9139 64.2617 43.8185 64.4017 41.8155 64.6864M44.5938 70.0602C46.2753 69.9295 47.7953 69.8541 49.2076 69.8295V69.8295C50.6353 69.8541 52.1753 69.9279 53.8769 70.0602V70.0602C55.6061 70.1818 57.2138 70.4556 58.7507 70.8156V70.8156C58.9061 70.811 59.0769 70.8464 59.2384 70.8572V70.8572C60.3353 71.1341 61.383 71.4664 62.3907 71.8449V71.8449C63.1984 72.1926 63.9969 72.5464 64.7676 72.9356V72.9356C64.7907 72.9202 64.8153 72.9095 64.8384 72.8956V72.8956C69.5184 75.1664 73.1384 78.5095 75.9353 82.2787V82.2787C67.3538 88.4526 60.9245 98.091 57.2692 110.408V110.408H15.743C15.0261 110.408 14.3707 110.114 13.8922 109.579V109.579C13.4045 109.034 13.1845 108.331 13.2676 107.599V107.599C14.0492 100.8 17.7092 80.6233 33.6353 72.8987V72.8987C33.6584 72.9126 33.6815 72.9218 33.703 72.9356V72.9356C34.4784 72.5449 35.2769 72.191 36.0861 71.8418V71.8418C37.1076 71.4602 38.1815 71.131 39.2953 70.851V70.851C39.4353 70.8433 39.5845 70.8126 39.7199 70.8156V70.8156C41.2569 70.4541 42.8661 70.1802 44.5938 70.0602M97.5431 81.2413C99.5216 81.0874 101.311 80.9997 102.972 80.9721V80.9721C104.632 80.9997 106.422 81.0874 108.4 81.2413V81.2413C110.418 81.3844 112.302 81.7028 114.098 82.1259V82.1259C114.218 82.1213 114.342 82.1321 114.465 82.1367V82.1367C115.825 82.4721 117.131 82.869 118.374 83.3367V83.3367C119.314 83.7413 120.237 84.1521 121.134 84.6044V84.6044C121.158 84.5874 121.186 84.5751 121.211 84.5597V84.5597C139.835 93.5921 144.115 117.184 145.029 125.135V125.135C145.126 125.991 144.868 126.814 144.298 127.451V127.451C143.742 128.077 142.974 128.421 142.135 128.421V128.421H131.508C131.478 128.417 131.449 128.417 131.42 128.412V128.412C131.423 128.415 131.428 128.418 131.431 128.421V128.421H74.5123C74.5154 128.418 74.52 128.415 74.5231 128.412V128.412C74.4939 128.417 74.4646 128.417 74.4354 128.421V128.421H63.8077C62.9693 128.421 62.2016 128.077 61.6431 127.451V127.451C61.0754 126.814 60.817 125.991 60.9139 125.135V125.135C61.8262 117.184 66.1062 93.5921 84.7308 84.5597V84.5597C84.757 84.5751 84.7846 84.5874 84.8093 84.6044V84.6044C85.7062 84.1521 86.6308 83.7413 87.5693 83.3367V83.3367C88.8123 82.869 90.1185 82.4721 91.48 82.1367V82.1367C91.6016 82.1321 91.7262 82.1213 91.8446 82.1259V82.1259C93.6416 81.7028 95.5246 81.3844 97.5431 81.2413" fill="url(#paint2_linear_958_40157)"/>
</g>
<defs>
<linearGradient id="paint0_linear_958_40157" x1="34.0115" y1="59.3149" x2="67.173" y2="59.3149" gradientUnits="userSpaceOnUse">
<stop stop-color="#A8E1DB"/>
<stop offset="1" stop-color="#52C1BA"/>
</linearGradient>
<linearGradient id="paint1_linear_958_40157" x1="85.1687" y1="68.6759" x2="123.946" y2="68.6759" gradientUnits="userSpaceOnUse">
<stop stop-color="#A8E1DB"/>
<stop offset="1" stop-color="#52C1BA"/>
</linearGradient>
<linearGradient id="paint2_linear_958_40157" x1="7.69238" y1="135.395" x2="151.548" y2="135.395" gradientUnits="userSpaceOnUse">
<stop stop-color="#A8E1DB"/>
<stop offset="1" stop-color="#52C1BA"/>
</linearGradient>
</defs>
</svg>
