<svg width="124" height="42" viewBox="0 0 124 42" fill="none" xmlns="http://www.w3.org/2000/svg">
<mask id="mask0_894_22039" style="mask-type:luminance" maskUnits="userSpaceOnUse" x="0" y="13" width="124" height="29">
<path fill-rule="evenodd" clip-rule="evenodd" d="M121.645 17.5213C123.001 15.7542 123.571 14.6406 123.469 14.0559V14.0559C123.458 14.1042 123.443 14.1519 123.423 14.1969V14.1969C123.154 14.7959 122.418 15.6739 121.152 16.9028V16.9028C102.139 35.3618 84.4999 33.9986 70.6571 26.9451V26.9451C49.8345 29.3864 24.9751 27.4687 0.119385 13.043V13.043C0.119385 13.043 77.4708 75.0997 121.645 17.5213" fill="white"/>
</mask>
<g mask="url(#mask0_894_22039)">
<path fill-rule="evenodd" clip-rule="evenodd" d="M121.645 17.5213C123.001 15.7542 123.571 14.6406 123.469 14.0559V14.0559C123.458 14.1042 123.443 14.1519 123.423 14.1969V14.1969C123.154 14.7959 122.418 15.6739 121.152 16.9028V16.9028C102.139 35.3618 84.4999 33.9986 70.6571 26.9451V26.9451C49.8345 29.3864 24.9751 27.4687 0.119385 13.043V13.043C0.119385 13.043 77.4708 75.0997 121.645 17.5213" fill="url(#paint0_linear_894_22039)"/>
</g>
<path fill-rule="evenodd" clip-rule="evenodd" d="M121.888 13.8339C112.536 14.3423 68.3715 31.1482 40.9383 0.00354465C40.9306 -0.00508279 40.9169 0.00354465 40.9231 0.0133486C42.6037 2.64158 78.4268 57.3958 121.154 17.4792C122.411 16.3045 123.149 15.4614 123.426 14.8827C123.512 14.7043 123.526 14.4923 123.436 14.3165C123.241 13.9365 122.697 13.8314 121.888 13.8339" fill="#F13F6D"/>
<defs>
<linearGradient id="paint0_linear_894_22039" x1="0.119385" y1="42.0002" x2="123.48" y2="42.0002" gradientUnits="userSpaceOnUse">
<stop stop-color="#92E9E1"/>
<stop offset="1" stop-color="#15D5C3"/>
</linearGradient>
</defs>
</svg>
