<svg width="43" height="43" viewBox="0 0 43 43" fill="none" xmlns="http://www.w3.org/2000/svg">
<g clip-path="url(#clip0_2_20258)">
<path d="M38.9723 21.5287C38.9723 21.5287 38.9723 15.8082 38.2413 13.0634C37.84 11.5469 36.6503 10.3558 35.1453 9.95307C32.4363 9.2149 21.5 9.2149 21.5 9.2149C21.5 9.2149 10.5637 9.2149 7.85467 9.95307C6.34967 10.3558 5.16 11.5469 4.75867 13.0634C4.02767 15.7982 4.02767 21.5287 4.02767 21.5287C4.02767 21.5287 4.02767 27.2491 4.75867 29.9939C5.16 31.5104 6.34967 32.6528 7.85467 33.0555C10.5637 33.7851 21.5 33.7851 21.5 33.7851C21.5 33.7851 32.4363 33.7851 35.1453 33.0469C36.6503 32.6442 37.84 31.5018 38.2413 29.9853C38.9723 27.2491 38.9723 21.5287 38.9723 21.5287ZM43 4.60673V38.3933C43 40.936 40.936 43 38.399 43H4.601C2.064 43 0 40.936 0 38.3933V4.60673C0 2.064 2.064 0 4.601 0H38.399C40.936 0 43 2.064 43 4.60673ZM17.931 16.3271L27.0613 21.5186L17.931 26.7116V16.3271Z" fill="#333333"/>
</g>
<defs>
<clipPath id="clip0_2_20258">
<rect width="43" height="43" fill="white"/>
</clipPath>
</defs>
</svg>
